<svg xmlns="http://www.w3.org/2000/svg" xmlns:xlink="http://www.w3.org/1999/xlink" viewBox="0 0 222 321.6">
<path style="fill:#5E6B75;stroke:#5A2B2B;stroke-width:9;stroke-linecap:round;stroke-linejoin:round" d="M102,7.8h18c5,0,9,4,9,9v9c0,5-4,9-9,9h-18c-5,0-9-4-9-9v-9C93,11.8,97,7.8,102,7.8z"></path>
<path style="fill:#7A8792;stroke:#5A2B2B;stroke-width:9.9;stroke-linecap:round;stroke-linejoin:round" d="M81,25.8h60c6.6,0,12,5.4,12,12v6c0,6.6-5.4,12-12,12H81c-6.6,0-12-5.4-12-12v-6C69,31.2,74.4,25.8,81,25.8z"></path>
<path style="fill:#4A4038;stroke:#5A2B2B;stroke-width:9.9;stroke-linecap:round;stroke-linejoin:round" d="M37.5,277.8h21c7.5,0,13.5,6,13.5,13.5v3c0,7.5-6,13.5-13.5,13.5h-21c-7.5,0-13.5-6-13.5-13.5v-3C24,283.8,30,277.8,37.5,277.8z"></path>
<path style="fill:#4A4038;stroke:#5A2B2B;stroke-width:9.9;stroke-linecap:round;stroke-linejoin:round" d="M163.5,277.8h21c7.5,0,13.5,6,13.5,13.5v3c0,7.5-6,13.5-13.5,13.5h-21c-7.5,0-13.5-6-13.5-13.5v-3C150,283.8,156,277.8,163.5,277.8z"></path>
<path style="fill:#5A2B2B;stroke:#5A2B2B;stroke-width:19.8;stroke-linecap:round;stroke-linejoin:round" d="M12,268.8c-8-140,25-212,99-216c74,4,107,76,99,216c0,14-12,21-36,21H48C24,289.8,12,282.8,12,268.8z"></path>
<clipPath id="cclip1"><path d="M12,268.8c-8-140,25-212,99-216c74,4,107,76,99,216c0,14-12,21-36,21H48C24,289.8,12,282.8,12,268.8z"></path></clipPath>
<g clip-path="url(#cclip1)"><rect y="73.8" style="fill:#F4CE6B" width="222" height="24"></rect><rect y="238.8" style="fill:#F4CE6B" width="222" height="27"></rect></g>
<path style="fill:#F5F9FC;stroke:#5A2B2B;stroke-width:9;stroke-linecap:round;stroke-linejoin:round" d="M75,103.8h72c18.2,0,33,14.8,33,33v45c0,18.2-14.8,33-33,33H75c-18.2,0-33-14.8-33-33v-45C42,118.6,56.8,103.8,75,103.8z"></path>
<path style="fill:#CFE6F4;stroke:#5A2B2B;stroke-width:7.2;stroke-linecap:round;stroke-linejoin:round" d="M27,118.8L27,118.8c5,0,9,4,9,9v33c0,5-4,9-9,9l0,0c-5,0-9-4-9-9v-33C18,122.8,22,118.8,27,118.8z"></path>
<path style="fill:#CFE6F4;stroke:#5A2B2B;stroke-width:7.2;stroke-linecap:round;stroke-linejoin:round" d="M195,118.8L195,118.8c5,0,9,4,9,9v33c0,5-4,9-9,9l0,0c-5,0-9-4-9-9v-33C186,122.8,190,118.8,195,118.8z"></path>
<circle style="fill:#5A2B2B;stroke:#5A2B2B;stroke-width:19.8;stroke-linecap:round;stroke-linejoin:round" cx="54" cy="229.8" r="13.2"></circle>
<circle style="fill:#5A2B2B;stroke:#5A2B2B;stroke-width:19.8;stroke-linecap:round;stroke-linejoin:round" cx="168" cy="229.8" r="13.2"></circle>
<path style="fill:#8C97A0;stroke:#5A2B2B;stroke-width:9;stroke-linecap:round;stroke-linejoin:round" d="M94.5,283.8h33c5.8,0,10.5,4.7,10.5,10.5v9c0,5.8-4.7,10.5-10.5,10.5h-33c-5.8,0-10.5-4.7-10.5-10.5v-9C84,288.5,88.7,283.8,94.5,283.8z"></path>
<ellipse style="fill:#5A2B2B;stroke:#5A2B2B;stroke-width:19.8;stroke-linecap:round;stroke-linejoin:round" cx="84" cy="151.8" rx="19.2" ry="20.5"></ellipse>
<circle style="fill:#5A2B2B;stroke:#5A2B2B;stroke-width:19.8;stroke-linecap:round;stroke-linejoin:round" cx="79" cy="144" r="8.1"></circle>
<circle style="fill:#5A2B2B;stroke:#5A2B2B;stroke-width:19.8;stroke-linecap:round;stroke-linejoin:round" cx="90.1" cy="158.4" r="3.8"></circle>
<ellipse style="fill:#5A2B2B;stroke:#5A2B2B;stroke-width:19.8;stroke-linecap:round;stroke-linejoin:round" cx="138" cy="151.8" rx="19.2" ry="20.5"></ellipse>
<circle style="fill:#5A2B2B;stroke:#5A2B2B;stroke-width:19.8;stroke-linecap:round;stroke-linejoin:round" cx="133" cy="144" r="8.1"></circle>
<circle style="fill:#5A2B2B;stroke:#5A2B2B;stroke-width:19.8;stroke-linecap:round;stroke-linejoin:round" cx="144.1" cy="158.4" r="3.8"></circle>
<ellipse style="fill:#5A2B2B;stroke:#5A2B2B;stroke-width:19.8;stroke-linecap:round;stroke-linejoin:round" cx="60" cy="172.8" rx="12" ry="7.8"></ellipse>
<ellipse style="fill:#5A2B2B;stroke:#5A2B2B;stroke-width:19.8;stroke-linecap:round;stroke-linejoin:round" cx="162" cy="172.8" rx="12" ry="7.8"></ellipse>
<path style="fill:#5E6B75" d="M102,3.9h18c7.1,0,12.9,5.8,12.9,12.9v9c0,7.1-5.8,12.9-12.9,12.9h-18c-7.1,0-12.9-5.8-12.9-12.9v-9C89.1,9.7,94.9,3.9,102,3.9z"></path>
<path style="fill:#5A2B2B" d="M120,7.8c5,0,9,4,9,9v9c0,5-4,9-9,9h-18c-5,0-9-4-9-9v-9c0-5,4-9,9-9H120 M120,0h-18c-9.3,0-16.8,7.5-16.8,16.8v9c0,9.3,7.5,16.8,16.8,16.8h18c9.3,0,16.8-7.5,16.8-16.8v-9C136.8,7.5,129.3,0,120,0z"></path>
<path style="fill:#7A8792" d="M81,21.9h60c8.8,0,15.9,7.1,15.9,15.9v6c0,8.8-7.1,15.9-15.9,15.9H81c-8.8,0-15.9-7.1-15.9-15.9v-6C65.1,29,72.2,21.9,81,21.9z"></path>
<path style="fill:#5A2B2B" d="M141,25.8c6.6,0,12,5.4,12,12v6c0,6.6-5.4,12-12,12H81c-6.6,0-12-5.4-12-12v-6c0-6.6,5.4-12,12-12H141 M141,18H81c-10.9,0-19.8,8.9-19.8,19.8v6c0,10.9,8.9,19.8,19.8,19.8h60c10.9,0,19.8-8.9,19.8-19.8v-6C160.8,26.9,151.9,18,141,18z"></path>
<path style="fill:#4A4038" d="M37.5,273.9h21c9.6,0,17.4,7.8,17.4,17.4v3c0,9.6-7.8,17.4-17.4,17.4h-21c-9.6,0-17.4-7.8-17.4-17.4v-3C20.1,281.7,27.9,273.9,37.5,273.9z"></path>
<path style="fill:#5A2B2B" d="M58.5,277.8c7.5,0,13.5,6,13.5,13.5c0,0,0,0,0,0v3c0,7.5-6,13.5-13.5,13.5c0,0,0,0,0,0h-21c-7.5,0-13.5-6-13.5-13.5c0,0,0,0,0,0v-3c0-7.5,6-13.5,13.5-13.5c0,0,0,0,0,0H58.5 M58.5,270h-21c-11.8,0-21.3,9.5-21.3,21.3v3c0,11.8,9.5,21.3,21.3,21.3h21c11.8,0,21.3-9.5,21.3-21.3v-3C79.8,279.5,70.3,270,58.5,270z"></path>
<path style="fill:#4A4038" d="M163.5,273.9h21c9.6,0,17.4,7.8,17.4,17.4v3c0,9.6-7.8,17.4-17.4,17.4h-21c-9.6,0-17.4-7.8-17.4-17.4v-3C146.1,281.7,153.9,273.9,163.5,273.9z"></path>
<path style="fill:#5A2B2B" d="M184.5,277.8c7.5,0,13.5,6,13.5,13.5c0,0,0,0,0,0v3c0,7.5-6,13.5-13.5,13.5c0,0,0,0,0,0h-21c-7.5,0-13.5-6-13.5-13.5c0,0,0,0,0,0v-3c0-7.5,6-13.5,13.5-13.5c0,0,0,0,0,0H184.5 M184.5,270h-21c-11.8,0-21.3,9.5-21.3,21.3v3c0,11.8,9.5,21.3,21.3,21.3h21c11.8,0,21.3-9.5,21.3-21.3v-3C205.8,279.5,196.3,270,184.5,270z"></path>
<path style="fill:#7FB8E0" d="M12,268.8c-8-140,25-212,99-216c74,4,107,76,99,216c0,14-12,21-36,21H48C24,289.8,12,282.8,12,268.8z"></path>
<clipPath id="cclip2"><path d="M12,268.8c-8-140,25-212,99-216c74,4,107,76,99,216c0,14-12,21-36,21H48C24,289.8,12,282.8,12,268.8z"></path></clipPath>
<g clip-path="url(#cclip2)"><rect y="73.8" style="fill:#F4CE6B" width="222" height="24"></rect><rect y="238.8" style="fill:#F4CE6B" width="222" height="27"></rect></g>
<path style="fill:#5A2B2B" d="M111,52.8c74,4,107,76,99,216c0,14-12,21-36,21H48c-24,0-36-7-36-21C4,128.8,37,56.8,111,52.8 M111,45h-0.4C83,46.5,60.3,57,43.1,76.1c-15.8,17.7-27.1,43.1-33.5,75.6C3.4,183.4,1.6,222.9,4.2,269C4,278.3,9,286.9,17.1,291.3c7.3,4.3,17.4,6.3,30.9,6.3h126c13.5,0,23.6-2.1,30.9-6.3c8.1-4.4,13.1-13,12.9-22.3c2.6-46.1,0.8-85.6-5.5-117.3c-6.4-32.5-17.7-57.9-33.5-75.6C161.7,57,139,46.5,111.4,45L111,45z"></path>
<path style="fill:#F5F9FC;stroke:#5A2B2B;stroke-width:9;stroke-linecap:round;stroke-linejoin:round" d="M75,103.8h72c18.2,0,33,14.8,33,33v45c0,18.2-14.8,33-33,33H75c-18.2,0-33-14.8-33-33v-45C42,118.6,56.8,103.8,75,103.8z"></path>
<path style="fill:#CFE6F4;stroke:#5A2B2B;stroke-width:7.2;stroke-linecap:round;stroke-linejoin:round" d="M27,118.8L27,118.8c5,0,9,4,9,9v33c0,5-4,9-9,9l0,0c-5,0-9-4-9-9v-33C18,122.8,22,118.8,27,118.8z"></path>
<path style="fill:#CFE6F4;stroke:#5A2B2B;stroke-width:7.2;stroke-linecap:round;stroke-linejoin:round" d="M195,118.8L195,118.8c5,0,9,4,9,9v33c0,5-4,9-9,9l0,0c-5,0-9-4-9-9v-33C186,122.8,190,118.8,195,118.8z"></path>
<circle style="fill:#FBE7A8" cx="54" cy="229.8" r="13.2"></circle>
<circle style="fill:#FBE7A8" cx="168" cy="229.8" r="13.2"></circle>
<path style="fill:#8C97A0" d="M94.5,279.9h33c8,0,14.4,6.4,14.4,14.4v9c0,8-6.4,14.4-14.4,14.4h-33c-8,0-14.4-6.4-14.4-14.4v-9C80.1,286.3,86.5,279.9,94.5,279.9z"></path>
<path style="fill:#5A2B2B" d="M127.5,283.8c5.8,0,10.5,4.7,10.5,10.5l0,0v9c0,5.8-4.7,10.5-10.5,10.5h-33c-5.8,0-10.5-4.7-10.5-10.5v-9c0-5.8,4.7-10.5,10.5-10.5l0,0H127.5 M127.5,276h-33c-10.1,0-18.3,8.2-18.3,18.3v9c0,10.1,8.2,18.3,18.3,18.3h33c10.1,0,18.3-8.2,18.3-18.3v-9C145.8,284.2,137.6,276,127.5,276z"></path>
<path style="fill:none;stroke:#5A2B2B;stroke-width:9;stroke-linecap:round;stroke-linejoin:round" d="M96,181.8c10,9,20,9,30,0"></path>
<ellipse style="fill:#F4A6B4" cx="60" cy="172.8" rx="12" ry="7.8"></ellipse>
<ellipse style="fill:#F4A6B4" cx="162" cy="172.8" rx="12" ry="7.8"></ellipse>
<path style="fill:none;stroke:#3A2320;stroke-width:7;stroke-linecap:round;stroke-linejoin:round" d="M66.7,157.4c3-7.2,10.2-11.9,18-11.5c9.6,0.6,14.4,11,14.7,11.5"></path>
<path style="fill:none;stroke:#3A2320;stroke-width:7;stroke-linecap:round;stroke-linejoin:round" d="M123.6,157.4c3-7.2,10.2-11.9,18-11.5c9.6,0.6,14.4,11,14.7,11.5"></path>
</svg>