<svg id="Layer_1" data-name="Layer 1" xmlns="http://www.w3.org/2000/svg" viewBox="0 0 298.78 208.73"><path d="M221.65,179.18v14.2q0,11,11,11t11-11v-14.2C243.73,170.35,221.65,169.83,221.65,179.18Z" transform="translate(0.01 0)" style="fill:#e7b25c"></path><path d="M221.65,183.05v10.33q0,11,11,11t11-11v-9.93" transform="translate(0.01 0)" style="fill:none;stroke:#5a2b2b;stroke-linecap:round;stroke-linejoin:round;stroke-width:7.787499904632568px"></path><path d="M153.69,179.18v14.2q0,11,11,11t11-11v-14.2C175.77,170.35,153.69,169.83,153.69,179.18Z" transform="translate(0.01 0)" style="fill:#e7b25c"></path><path d="M210.7,105.76c24.69,0,45.56,10.84,52.46,37.69,14.36-2.82,19.82-8.61,27.3-21.39,2.8,22.59-5.2,29.65-25.15,35q.27,3.53.27,7.33c0,24.23-24.57,29.15-54.88,29.15s-54.88-4.92-54.88-29.15c0-39.22,24.57-58.59,54.88-58.59m0-7.79c-17.74,0-33,5.82-44.26,16.82-12,11.82-18.41,29-18.41,49.56,0,14.33,7.19,25,20.79,30.82,9.74,4.17,23.05,6.12,41.88,6.12s32.14-1.95,41.88-6.12c13.6-5.83,20.79-16.49,20.79-30.82,0-.53,0-1.06,0-1.6,17.94-6,28-16,24.83-41.65a7.8,7.8,0,0,0-6.16-6.67,7.61,7.61,0,0,0-1.57-.16,7.8,7.8,0,0,0-6.72,3.85c-5.23,8.93-8.76,13.3-15.43,15.86A53.05,53.05,0,0,0,247.9,108C237.8,101.36,225.29,98,210.7,98Z" transform="translate(0.01 0)" style="fill:#5a2b2b"></path><path d="M153.69,183.05v10.33q0,11,11,11t11-11v-9.93" transform="translate(0.01 0)" style="fill:none;stroke:#5a2b2b;stroke-linecap:round;stroke-linejoin:round;stroke-width:7.787499904632568px"></path><path d="M210.7,105.76c30.31,0,54.88,16.34,54.88,58.59,0,24.23-24.57,29.15-54.88,29.15s-54.88-4.92-54.88-29.15C155.82,125.13,180.39,105.76,210.7,105.76Z" transform="translate(0.01 0)" style="fill:#e7b25c"></path><path d="M257.79,144.32c18.5-2.44,24.32-8,32.67-22.26,3.12,25.15-7.15,31.05-32.39,36.72Z" transform="translate(0.01 0)" style="fill:#e7b25c"></path><path d="M67.47,37.34C18.27,34.08-1.39,80,11.75,129.23c9.88,29.55,46,22.92,59.09-9.88C61,89.8,61,60.26,80.72,47.22Z" transform="translate(0.01 0)" style="fill:#ce9646"></path><path d="M198.69,37.34c49.21-3.26,68.87,42.68,55.73,91.89-9.88,29.55-46,22.92-59.09-9.88,9.88-29.55,9.88-59.09-9.89-72.13Z" transform="translate(0.01 0)" style="fill:#ce9646"></path><ellipse cx="133.09" cy="83.28" rx="82.01" ry="75.49" style="fill:#e7b25c"></ellipse><circle cx="175.78" cy="60.36" r="32.8" style="fill:#ce9646"></circle><circle cx="100.29" cy="89.91" r="19.66" style="fill:#3a2320"></circle><circle cx="95.14" cy="82.44" r="8.31" style="fill:#fff"></circle><circle cx="106.6" cy="96.22" r="3.89" style="fill:#fff"></circle><circle cx="165.9" cy="89.91" r="19.66" style="fill:#3a2320"></circle><circle cx="160.75" cy="82.44" r="8.31" style="fill:#fff"></circle><circle cx="172.21" cy="96.22" r="3.89" style="fill:#fff"></circle><ellipse cx="133.09" cy="112.83" rx="36.06" ry="26.29" style="fill:#f7e7cc"></ellipse><ellipse cx="133.09" cy="99.69" rx="11.15" ry="9.46" style="fill:#5a2b2b"></ellipse><path d="M119.94,132.51c8.73,8.73,17.45,8.73,26.29,0l-13.15-7.36Z" transform="translate(0.01 0)" style="fill:#e88aa0"></path><ellipse cx="80.63" cy="119.03" rx="15.14" ry="9.88" style="fill:#f4a6b4"></ellipse><path d="M133.08,111.15q0,18-16.4,21.34m16.4-21.34q0,18,16.41,21.34" transform="translate(0.01 0)" style="fill:none;stroke:#5a2b2b;stroke-linecap:round;stroke-linejoin:round;stroke-width:7.787499904632568px"></path><ellipse cx="183.25" cy="119.03" rx="15.14" ry="9.88" style="fill:#f4a6b4"></ellipse><path d="M237.31,179.62v14.2q0,11,11,11t11-11v-14.2C259.39,170.79,237.31,170.27,237.31,179.62Z" transform="translate(0.01 0)" style="fill:#e7b25c"></path><path d="M237.31,183.51v10.33q0,11,11,11t11-11v-9.93" transform="translate(0.01 0)" style="fill:none;stroke:#5a2b2b;stroke-linecap:round;stroke-linejoin:round;stroke-width:7.787499904632568px"></path><path d="M169.39,179.62v14.2q0,11,11,11t11-11v-14.2C191.44,170.79,169.39,170.27,169.39,179.62Z" transform="translate(0.01 0)" style="fill:#e7b25c"></path><path d="M169.39,183.51v10.33q0,11,11,11t11-11v-9.93" transform="translate(0.01 0)" style="fill:none;stroke:#5a2b2b;stroke-linecap:round;stroke-linejoin:round;stroke-width:7.787499904632568px"></path><path d="M133.07,7.79c26.64,0,50.3,11.7,65.28,29.8l.34-.25c1.65-.11,3.27-.16,4.86-.16,45.63,0,63.56,44.5,50.87,92-4.3,12.84-13.54,18.85-23.7,18.85-11.09,0-23.28-7.18-31.29-20.46-14.91,18.87-39.07,31.15-66.36,31.15S81.64,146.5,66.73,127.63c-8,13.27-20.2,20.45-31.29,20.45-10.16,0-19.4-6-23.69-18.85C-.95,81.67,17,37.17,62.6,37.18c1.59,0,3.21,0,4.87.16l.33.25c15-18.1,38.64-29.8,65.27-29.8m0-7.79C106.42,0,81.71,10.67,64.6,29.41l-2,0c-20.11,0-36.7,7.74-47.95,22.4C7.26,61.41,2.45,73.89.72,87.89c-1.67,13.53-.46,28.52,3.5,43.35,0,.15.09.31.14.46C9.42,146.83,21,155.86,35.44,155.86c11.5,0,23.09-5.91,31.88-15.89A90.39,90.39,0,0,0,91.89,157.3a96.17,96.17,0,0,0,82.37,0A90,90,0,0,0,198.84,140c8.79,10,20.38,15.9,31.88,15.9,14.4,0,26-9,31.08-24.16.05-.15.1-.31.14-.46,4-14.83,5.17-29.82,3.5-43.34-1.73-14-6.54-26.49-13.93-36.1-11.26-14.66-27.84-22.41-48-22.41l-2,0C184.44,10.67,159.73,0,133.07,0Z" transform="translate(0.01 0)" style="fill:#5a2b2b"></path></svg>