<svg xmlns="http://www.w3.org/2000/svg" viewBox="0 0 298.8 208.7">
<path d="M221.7,179.2v14.2c0,7.3,3.7,11,11,11c7.3,0,11-3.7,11-11v-14.2C243.7,170.4,221.7,169.8,221.7,179.2z" style="fill:#E7B25C"></path>
<path d="M221.7,183.1v10.3c0,7.3,3.7,11,11,11c7.3,0,11-3.7,11-11v-9.9" style="fill:none;stroke:#5A2B2B;stroke-width:7.7875;stroke-linecap:round;stroke-linejoin:round"></path>
<path d="M153.7,179.2v14.2c0,7.3,3.7,11,11,11s11-3.7,11-11v-14.2C175.8,170.4,153.7,169.8,153.7,179.2z" style="fill:#E7B25C"></path>
<path d="M210.7,105.8c24.7,0,45.6,10.8,52.5,37.7c14.4-2.8,19.8-8.6,27.3-21.4c2.8,22.6-5.2,29.6-25.1,35c0.2,2.4,0.3,4.8,0.3,7.3c0,24.2-24.6,29.1-54.9,29.1s-54.9-4.9-54.9-29.1C155.8,125.2,180.4,105.8,210.7,105.8 M210.7,98c-17.7,0-33,5.8-44.3,16.8c-12,11.8-18.4,29-18.4,49.6c0,14.3,7.2,25,20.8,30.8c9.7,4.2,23.1,6.1,41.9,6.1s32.1-1.9,41.9-6.1c13.6-5.8,20.8-16.5,20.8-30.8c0-0.5,0-1.1,0-1.6c17.9-6,28-16,24.8-41.7c-0.4-3.3-2.9-6-6.2-6.7c-0.5-0.1-1-0.2-1.6-0.2c-2.8,0-5.3,1.5-6.7,3.8c-5.2,8.9-8.8,13.3-15.4,15.9c-3.9-10.6-11-19.7-20.4-26C237.8,101.4,225.3,98,210.7,98L210.7,98z" style="fill:#5A2B2B"></path>
<path d="M153.7,183.1v10.3c0,7.3,3.7,11,11,11s11-3.7,11-11v-9.9" style="fill:none;stroke:#5A2B2B;stroke-width:7.7875;stroke-linecap:round;stroke-linejoin:round"></path>
<path d="M210.7,105.8c30.3,0,54.9,16.3,54.9,58.6c0,24.2-24.6,29.1-54.9,29.1s-54.9-4.9-54.9-29.1C155.8,125.1,180.4,105.8,210.7,105.8z" style="fill:#E7B25C"></path>
<path d="M257.8,144.3c18.5-2.4,24.3-8,32.7-22.3c3.1,25.2-7.1,31-32.4,36.7L257.8,144.3z" style="fill:#E7B25C"></path>
<path d="M67.5,37.3C18.3,34.1-1.4,80,11.8,129.2c9.9,29.6,46,22.9,59.1-9.9C61,89.8,61,60.3,80.7,47.2L67.5,37.3z" style="fill:#CE9646"></path>
<path d="M198.7,37.3c49.2-3.3,68.9,42.7,55.7,91.9c-9.9,29.6-46,22.9-59.1-9.9c9.9-29.5,9.9-59.1-9.9-72.1L198.7,37.3z" style="fill:#CE9646"></path>
<ellipse cx="133.1" cy="83.3" rx="82" ry="75.5" style="fill:#E7B25C"></ellipse>
<circle cx="175.8" cy="60.4" r="32.8" style="fill:#CE9646"></circle>
<ellipse cx="133.1" cy="112.8" rx="36.1" ry="26.3" style="fill:#F7E7CC"></ellipse>
<ellipse cx="133.1" cy="99.7" rx="11.1" ry="9.5" style="fill:#5A2B2B"></ellipse>
<path d="M120,132.5c8.7,8.7,17.4,8.7,26.3,0l-13.1-7.4L120,132.5z" style="fill:#E88AA0"></path>
<ellipse cx="80.6" cy="119" rx="15.1" ry="9.9" style="fill:#F4A6B4"></ellipse>
<path d="M133.1,111.2c0,12-5.5,19.1-16.4,21.3 M133.1,111.2c0,12,5.5,19.1,16.4,21.3" style="fill:none;stroke:#5A2B2B;stroke-width:7.7875;stroke-linecap:round;stroke-linejoin:round"></path>
<ellipse cx="183.3" cy="119" rx="15.1" ry="9.9" style="fill:#F4A6B4"></ellipse>
<path d="M237.3,179.6v14.2c0,7.3,3.7,11,11,11s11-3.7,11-11v-14.2C259.4,170.8,237.3,170.3,237.3,179.6z" style="fill:#E7B25C"></path>
<path d="M237.3,183.5v10.3c0,7.3,3.7,11,11,11c7.3,0,11-3.7,11-11v-9.9" style="fill:none;stroke:#5A2B2B;stroke-width:7.7875;stroke-linecap:round;stroke-linejoin:round"></path>
<path d="M169.4,179.6v14.2c0,7.3,3.7,11,11,11c7.3,0,11-3.7,11-11v-14.2C191.4,170.8,169.4,170.3,169.4,179.6z" style="fill:#E7B25C"></path>
<path d="M169.4,183.5v10.3c0,7.3,3.7,11,11,11c7.3,0,11-3.7,11-11v-9.9" style="fill:none;stroke:#5A2B2B;stroke-width:7.7875;stroke-linecap:round;stroke-linejoin:round"></path>
<path d="M133.1,7.8c26.6,0,50.3,11.7,65.3,29.8l0.3-0.3c1.6-0.1,3.3-0.2,4.9-0.2c45.6,0,63.6,44.5,50.9,92c-4.3,12.8-13.5,18.9-23.7,18.9c-11.1,0-23.3-7.2-31.3-20.5c-14.9,18.9-39.1,31.2-66.4,31.2s-51.4-12.2-66.3-31.1c-8,13.3-20.2,20.5-31.3,20.5c-10.2,0-19.4-6-23.7-18.9c-12.7-47.6,5.2-92.1,50.8-92c1.6,0,3.2,0,4.9,0.2l0.3,0.3C82.8,19.5,106.5,7.8,133.1,7.8 M133.1,0c-26.7,0-51.4,10.7-68.5,29.4h-2c-20.1,0-36.7,7.7-47.9,22.4C7.3,61.4,2.5,73.9,0.7,87.9c-1.7,13.5-0.5,28.5,3.5,43.3c0,0.1,0.1,0.3,0.1,0.5c5.1,15.1,16.6,24.2,31.1,24.2c11.5,0,23.1-5.9,31.9-15.9c7.2,7.1,15.5,13,24.6,17.3c26.1,12.4,56.3,12.4,82.4,0c9.1-4.3,17.4-10.2,24.6-17.3c8.8,10,20.4,15.9,31.9,15.9c14.4,0,26-9,31.1-24.2c0-0.1,0.1-0.3,0.1-0.5c4-14.8,5.2-29.8,3.5-43.3c-1.7-14-6.5-26.5-13.9-36.1c-11.3-14.7-27.8-22.4-48-22.4h-2C184.4,10.7,159.7,0,133.1,0z" style="fill:#5A2B2B"></path>
<path d="M82.6,84.9c3.2-7.4,10.4-12,18-11.5c9.6,0.6,14.4,10.9,14.7,11.5" style="fill:none;stroke:#5A2B2B;stroke-width:7.488;stroke-linecap:round;stroke-linejoin:round;stroke-miterlimit:12.48"></path>
<path d="M150.8,84.9c3.2-7.4,10.4-12,18-11.5c9.6,0.6,14.4,10.9,14.7,11.5" style="fill:none;stroke:#5A2B2B;stroke-width:7.488;stroke-linecap:round;stroke-linejoin:round;stroke-miterlimit:12.48"></path>
</svg>