<svg viewBox="0 0 100 122" xmlns="http://www.w3.org/2000/svg" style="overflow:visible;display:block;width:100%;height:100%;"><g stroke-linejoin="round" stroke-linecap="round"><path d="M26,60 Q28,24 50,24 Q72,24 74,60 Z" fill="#5A2B2B" stroke="#5A2B2B" stroke-width="6.6"></path><path d="M31,56 Q33,29 50,29 Q67,29 69,56 Z" fill="#5A2B2B" stroke="#5A2B2B" stroke-width="6.6"></path><ellipse cx="42" cy="46" rx="5.8" ry="6.22" fill="#5A2B2B" stroke="#5A2B2B" stroke-width="6.6"></ellipse><circle cx="40.492" cy="43.6364" r="2.436" fill="#5A2B2B" stroke="#5A2B2B" stroke-width="6.6"></circle><circle cx="43.856" cy="47.9904" r="1.16" fill="#5A2B2B" stroke="#5A2B2B" stroke-width="6.6"></circle><ellipse cx="58" cy="46" rx="5.8" ry="6.22" fill="#5A2B2B" stroke="#5A2B2B" stroke-width="6.6"></ellipse><circle cx="56.492" cy="43.6364" r="2.436" fill="#5A2B2B" stroke="#5A2B2B" stroke-width="6.6"></circle><circle cx="59.856" cy="47.9904" r="1.16" fill="#5A2B2B" stroke="#5A2B2B" stroke-width="6.6"></circle><ellipse cx="35" cy="52" rx="3.6" ry="2.4" fill="#5A2B2B" stroke="#5A2B2B" stroke-width="6.6"></ellipse><ellipse cx="65" cy="52" rx="3.6" ry="2.4" fill="#5A2B2B" stroke="#5A2B2B" stroke-width="6.6"></ellipse><ellipse cx="9" cy="62" rx="6" ry="4.5" fill="#5A2B2B" stroke="#5A2B2B" stroke-width="6.6" transform="rotate(-34 9 62)"></ellipse><ellipse cx="91" cy="62" rx="6" ry="4.5" fill="#5A2B2B" stroke="#5A2B2B" stroke-width="6.6" transform="rotate(34 91 62)"></ellipse><rect x="17" y="95" width="17" height="11" rx="4.5" fill="#4A4038" stroke="#5A2B2B" stroke-width="3.3"></rect><rect x="66" y="95" width="17" height="11" rx="4.5" fill="#4A4038" stroke="#5A2B2B" stroke-width="3.3"></rect><path d="M12,90 Q10,64 28,58 L72,58 Q90,64 88,90 Q88,98 77,98 L23,98 Q12,98 12,90 Z" fill="#5A2B2B" stroke="#5A2B2B" stroke-width="6.6"></path><circle cx="26" cy="76" r="5.2" fill="#5A2B2B" stroke="#5A2B2B" stroke-width="6.6"></circle><circle cx="27.5" cy="74.5" r="1.8" fill="#5A2B2B" stroke="#5A2B2B" stroke-width="6.6"></circle><circle cx="74" cy="76" r="5.2" fill="#5A2B2B" stroke="#5A2B2B" stroke-width="6.6"></circle><circle cx="75.5" cy="74.5" r="1.8" fill="#5A2B2B" stroke="#5A2B2B" stroke-width="6.6"></circle><ellipse cx="41" cy="86" rx="2.6" ry="2" fill="#5A2B2B" stroke="#5A2B2B" stroke-width="6.6"></ellipse><ellipse cx="59" cy="86" rx="2.6" ry="2" fill="#5A2B2B" stroke="#5A2B2B" stroke-width="6.6"></ellipse><path d="M45.5,84 Q50,90.5 54.5,84 Q52.5,81.5 50,82.5 Q47.5,81.5 45.5,84 Z" fill="#5A2B2B" stroke="#5A2B2B" stroke-width="6.6"></path><rect x="20" y="90" width="10" height="4" rx="2" fill="#F4CE6B" stroke="#5A2B2B" stroke-width="2.2"></rect><rect x="70" y="90" width="10" height="4" rx="2" fill="#F4CE6B" stroke="#5A2B2B" stroke-width="2.2"></rect><path d="M26,60 Q28,24 50,24 Q72,24 74,60 Z" fill="#E86D74"></path><path d="M31,56 Q33,29 50,29 Q67,29 69,56 Z" fill="#FBEFE3"></path><path d="M38,34 L34,52" fill="none" stroke="rgba(255,255,255,.75)" stroke-width="3" stroke-linecap="round"></path><ellipse cx="42" cy="46" rx="5.8" ry="6.22" fill="#3A2320"></ellipse><circle cx="40.492" cy="43.6364" r="2.436" fill="#fff"></circle><circle cx="43.856" cy="47.9904" r="1.16" fill="#fff"></circle><ellipse cx="58" cy="46" rx="5.8" ry="6.22" fill="#3A2320"></ellipse><circle cx="56.492" cy="43.6364" r="2.436" fill="#fff"></circle><circle cx="59.856" cy="47.9904" r="1.16" fill="#fff"></circle><path d="M46.5,54 Q50,57.5 53.5,54" fill="none" stroke="#5A2B2B" stroke-width="2.6" stroke-linecap="round"></path><ellipse cx="35" cy="52" rx="3.6" ry="2.4" fill="#F4A6B4"></ellipse><ellipse cx="65" cy="52" rx="3.6" ry="2.4" fill="#F4A6B4"></ellipse><ellipse cx="9" cy="62" rx="6" ry="4.5" fill="#E86D74" transform="rotate(-34 9 62)"></ellipse><ellipse cx="91" cy="62" rx="6" ry="4.5" fill="#E86D74" transform="rotate(34 91 62)"></ellipse><rect x="17" y="95" width="17" height="11" rx="4.5" fill="#4A4038" stroke="#5A2B2B" stroke-width="3.3"></rect><rect x="66" y="95" width="17" height="11" rx="4.5" fill="#4A4038" stroke="#5A2B2B" stroke-width="3.3"></rect><path d="M12,90 Q10,64 28,58 L72,58 Q90,64 88,90 Q88,98 77,98 L23,98 Q12,98 12,90 Z" fill="#E86D74"></path><circle cx="26" cy="76" r="5.2" fill="#9FD8CF"></circle><circle cx="27.5" cy="74.5" r="1.8" fill="#fff"></circle><circle cx="74" cy="76" r="5.2" fill="#9FD8CF"></circle><circle cx="75.5" cy="74.5" r="1.8" fill="#fff"></circle><ellipse cx="41" cy="86" rx="2.6" ry="2" fill="#B04E55"></ellipse><ellipse cx="59" cy="86" rx="2.6" ry="2" fill="#B04E55"></ellipse><path d="M45.5,84 Q50,90.5 54.5,84 Q52.5,81.5 50,82.5 Q47.5,81.5 45.5,84 Z" fill="#FFFFFF"></path><rect x="20" y="90" width="10" height="4" rx="2" fill="#F4CE6B" stroke="#5A2B2B" stroke-width="2.2"></rect><rect x="70" y="90" width="10" height="4" rx="2" fill="#F4CE6B" stroke="#5A2B2B" stroke-width="2.2"></rect></g></svg>