<svg id="Layer_1" data-name="Layer 1" xmlns="http://www.w3.org/2000/svg" viewBox="0 0 267.6 315.9"><path d="M149.55,40.81c-48.8,0-79,34-75,90q-9,39,18,60h114q27-21,18-60C228.55,74.81,198.35,40.81,149.55,40.81Z" transform="translate(-16.15 -33.01)" style="fill:#7a4b2e"></path><path d="M72,345c-34.44,0-51.9-8.38-51.9-24.9s15.44-24.9,45.9-24.9H234c30.46,0,45.9,8.38,45.9,24.9S262.39,345,228,345Z" transform="translate(-16.15 -33.01)" style="fill:#f4ce6b"></path><path d="M234,299.11q42,0,42,21t-48,21H72q-48,0-48-21t42-21H234m0-7.8H66c-15.37,0-26.81,2-35,6.08-12.24,6.12-14.81,15.73-14.81,22.72S19,337,32.82,343c9.08,4,21.88,5.9,39.13,5.9H228c17.25,0,30.05-1.93,39.13-5.9,13.78-6,16.67-15.78,16.67-22.9s-2.57-16.6-14.81-22.72c-8.17-4.09-19.62-6.08-35-6.08Z" transform="translate(-16.15 -33.01)" style="fill:#5a2b2b"></path><path d="M66,320.11H234" transform="translate(-16.15 -33.01)" style="fill:none;stroke:#e8a24e;stroke-linecap:round;stroke-linejoin:round;stroke-width:7.94px"></path><path d="M123.29,254.74h0a12.81,12.81,0,0,1,10.9,14.45l-2.72,19.31A12.74,12.74,0,0,1,117,299.3h0a12.82,12.82,0,0,1-10.91-14.36l2.72-19.31A12.75,12.75,0,0,1,123.29,254.74Z" transform="translate(-16.15 -33.01)" style="fill:#f2c29a"></path><path d="M122.64,283.12c8,9.81,10,17.56,5.78,23.53-6.72,4.71-16.49,7.38-29.09,7.93q-10.56-2.38-8.17-13C95.32,295.74,102,291,111.43,287.4,115.18,285.91,118.91,284.51,122.64,283.12Z" transform="translate(-16.15 -33.01)" style="fill:#f2c29a"></path><path d="M175.86,254.79h0a12.81,12.81,0,0,1,14.44,10.8L193,284.9a12.83,12.83,0,0,1-10.9,14.46h0a12.83,12.83,0,0,1-14.45-10.9L165,269.15A12.75,12.75,0,0,1,175.86,254.79Z" transform="translate(-16.15 -33.01)" style="fill:#f2c29a"></path><path d="M175.75,283.49c-7.67,10.06-9.29,18-4.94,23.72,6.89,4.48,16.7,6.74,29.34,6.88,7-1.89,9.52-6.29,7.74-13.2-4.34-5.76-11.34-10.23-20.77-13.44C183.3,286.16,179.57,284.77,175.75,283.49Z" transform="translate(-16.15 -33.01)" style="fill:#f2c29a"></path><path d="M119.55,208.81q0-24,18-24,12,15,24,0,18,0,18,24l6,57q-18,15-27,0-6-9-9-9t-9,9q-9,15-27,0Z" transform="translate(-16.15 -33.01)" style="fill:#ee5c33"></path><path d="M136.05,187.81q-1.5-15,6-19.5m21,19.5q1.5-15-6-19.5" transform="translate(-16.15 -33.01)" style="fill:none;stroke:#ee5c33;stroke-linecap:round;stroke-linejoin:round;stroke-width:11.25px"></path><path d="M121.14,204.29h0a12,12,0,0,1-7.71,15.12L96.32,225a12,12,0,0,1-15.13-7.71h0a12,12,0,0,1,7.71-15.12L106,196.58A12,12,0,0,1,121.14,204.29Z" transform="translate(-16.15 -33.01)" style="fill:#f2c29a"></path><circle cx="89.81" cy="230.24" r="8.4" transform="translate(-134.32 63.74) rotate(-36)" style="fill:#f2c29a"></circle><path d="M83.41,200.77q-17.13,5.56-22,19.76-1.94,3.78,1.85,5.71,12.27,8.63,29.39,3.06A39,39,0,0,0,83.41,200.77Z" transform="translate(-16.15 -33.01)" style="fill:#f2c29a"></path><path d="M178,204.28h0a12,12,0,0,1,15.12-7.7l17.12,5.56a12,12,0,0,1,7.7,15.12h0A12,12,0,0,1,202.77,225l-17.12-5.56A12,12,0,0,1,178,204.28Z" transform="translate(-16.15 -33.01)" style="fill:#f2c29a"></path><circle cx="190.23" cy="196.07" r="8.4" style="fill:#f2c29a"></circle><path d="M206.41,229.3q17.11,5.56,29.39-3.06,3.78-1.94,1.85-5.71-4.85-14.19-22-19.76A39,39,0,0,0,206.41,229.3Z" transform="translate(-16.15 -33.01)" style="fill:#f2c29a"></path><circle cx="133.4" cy="88.8" r="60" style="fill:#f2c29a"></circle><path d="M89.55,143c-12.8-48.4,16-85.2,60-87.2,44,2,82.4,27.4,64.6,88.7-14-24-16.2-45.8-35.2-43.4-16.1,2.1-37.3,3.9-56.2.3C101.15,97.21,99.75,110.91,89.55,143Z" transform="translate(-16.15 -33.01)" style="fill:#7a4b2e"></path><ellipse cx="112.4" cy="97.8" rx="16.2" ry="17.5" style="fill:#3a2320"></ellipse><circle cx="108.2" cy="91.2" r="6.8" style="fill:#fff"></circle><circle cx="117.6" cy="103.4" r="3.2" style="fill:#fff"></circle><ellipse cx="154.4" cy="97.8" rx="16.2" ry="17.5" style="fill:#3a2320"></ellipse><circle cx="150.2" cy="91.2" r="6.8" style="fill:#fff"></circle><circle cx="159.6" cy="103.4" r="3.2" style="fill:#fff"></circle><ellipse cx="107" cy="124.4" rx="10.8" ry="7.2" style="fill:#f4a6b4"></ellipse><ellipse cx="161.2" cy="124.4" rx="10.8" ry="7.2" style="fill:#f4a6b4"></ellipse><path d="M137.55,163.81q12,10.5,24,0" transform="translate(-16.15 -33.01)" style="fill:none;stroke:#5a2b2b;stroke-linecap:round;stroke-linejoin:round;stroke-width:4.41px"></path><path d="M143.55,150.21q6,5.25,12,0" transform="translate(-16.15 -33.01)" style="fill:none;stroke:#5a2b2b;stroke-linecap:round;stroke-linejoin:round;stroke-width:4.41px"></path><path d="M149.06,172.22h0c5-.1,9.18,2.67,9.31,6.14l.38,9.47c.14,3.48-3.83,6.4-8.81,6.5h0c-5,.09-9.17-2.67-9.31-6.14l-.38-9.48C140.11,175.24,144,172.32,149.06,172.22Z" transform="translate(-16.15 -33.01)" style="fill:#f2c29a"></path><path d="M149.51,40.81c48.8,0,79,34,75,90q9,39-18,60H175c2.05,2.73,3.38,6.42,4,11A12.07,12.07,0,0,1,189.35,196a11.78,11.78,0,0,1,3.68.58l17.12,5.56a11.67,11.67,0,0,1,3.21,1.62c.71-1,1.46-2,2.28-3q17.12,5.56,22,19.76c1.28,2.52.67,4.42-1.85,5.71A28.45,28.45,0,0,1,219,231.48a34.33,34.33,0,0,1-4.58-.31,4.84,4.84,0,0,1-.14.51,8.4,8.4,0,1,1-16-5.19,8,8,0,0,1,1.33-2.51l-14.07-4.57a12,12,0,0,1-5.36-3.57l4.3,40.9a12.61,12.61,0,0,1,5.71,8.85L193,284.9a12.63,12.63,0,0,1-.24,4.76c6.62,3,11.69,6.69,15.11,11.23,1.78,6.91-.73,11.31-7.73,13.2-12.65-.14-22.46-2.4-29.35-6.88q-4.09-5.43-1.09-13.42a12.74,12.74,0,0,1-2-5.33l-2.25-16a15.38,15.38,0,0,1-6.86-6.6q-6-9-9-9t-9,9a15.56,15.56,0,0,1-6.81,6.58l-2.27,16.11a12.61,12.61,0,0,1-2.14,5.45c1.87,4.91,1.58,9.13-.91,12.7-6.73,4.71-16.49,7.38-29.09,7.93q-10.58-2.38-8.18-13c3.37-4.76,8.42-8.75,15.21-12a12.45,12.45,0,0,1-.24-4.65l2.71-19.31a12.78,12.78,0,0,1,5.68-8.94l4.3-40.9a11.86,11.86,0,0,1-5.38,3.62L96.29,225l.27.34a8.4,8.4,0,1,1-15.11,6.14l-1.49,0a28.39,28.39,0,0,1-16.71-5.23q-3.78-1.94-1.86-5.71,4.86-14.19,22-19.76c.82,1,1.57,2,2.28,3a11.87,11.87,0,0,1,3.22-1.62L106,196.58a11.78,11.78,0,0,1,3.68-.58A12.06,12.06,0,0,1,120,201.84c.65-4.6,2-8.29,4-11H92.51q-27-21-18-60c-4-56,26.2-90,75-90m0-7.8c-25.15,0-46.26,8.39-61,24.26C72.25,74.7,64.72,99.9,66.65,130.21c-3,13.82-2.9,26.38.39,37.34A56.7,56.7,0,0,0,83,193a8,8,0,0,0-2.08.37c-13.64,4.44-22.65,12.58-26.78,24.2a11.43,11.43,0,0,0,5,15.34,35.77,35.77,0,0,0,17,6.2c.15.23.3.45.46.67a16.25,16.25,0,0,0,13.11,6.68A16.22,16.22,0,0,0,106,230l3.59-1.17L107,252.7a20.64,20.64,0,0,0-6,11.84l-2.71,19.31c-.06.41-.11.83-.14,1.24a43.25,43.25,0,0,0-13.47,12,7.61,7.61,0,0,0-1.24,2.79c-2.54,11.21,2.84,19.75,14.06,22.29a7.62,7.62,0,0,0,1.72.19h.34c14.09-.62,25.27-3.76,33.22-9.34a7.62,7.62,0,0,0,1.92-1.92,19.78,19.78,0,0,0,2.93-16.31,20.76,20.76,0,0,0,1.46-5.22l1.75-12.49a25.57,25.57,0,0,0,6.18-7.1c1-1.43,1.76-2.53,2.42-3.37.65.84,1.46,1.94,2.41,3.37a25.63,25.63,0,0,0,6.24,7.14l1.74,12.41a20.28,20.28,0,0,0,1.38,5c-1.94,8,.58,13.78,3.26,17.33a7.85,7.85,0,0,0,2,1.84c8.17,5.31,19.13,8,33.51,8.14h.09a7.75,7.75,0,0,0,2-.27c11-3,16.09-11.67,13.26-22.68a7.8,7.8,0,0,0-1.33-2.75A42.13,42.13,0,0,0,200.83,285c0-.4-.08-.8-.13-1.2L198,264.5a20.37,20.37,0,0,0-6-11.78l-2.51-23.86.67.21a16.2,16.2,0,0,0,28.8,10.21H219a36.12,36.12,0,0,0,20.8-6.39,11.37,11.37,0,0,0,5-15.35c-4.13-11.62-13.14-19.75-26.78-24.19A7.84,7.84,0,0,0,216,193a56.81,56.81,0,0,0,16-25.43c3.29-11,3.42-23.52.39-37.34,1.93-30.31-5.61-55.51-21.83-72.94C195.76,41.4,174.66,33,149.51,33Z" transform="translate(-16.15 -33.01)" style="fill:#5a2b2b"></path></svg>