<svg xmlns="http://www.w3.org/2000/svg" viewBox="0 0 267.6 315.9">
<path style="fill:#7A4B2E" d="M133.4,7.8c-48.8,0-79,34-75,90c-6,26,0,46,18,60h114c18-14,24-34,18-60C212.4,41.8,182.2,7.8,133.4,7.8z"></path>
<path style="fill:#F4CE6B" d="M55.8,312c-34.4,0-51.9-8.4-51.9-24.9s15.4-24.9,45.9-24.9h168c30.5,0,45.9,8.4,45.9,24.9S246.2,312,211.9,312H55.8z"></path>
<path style="fill:#5A2B2B" d="M217.9,266.1c28,0,42,7,42,21s-16,21-48,21h-156c-32,0-48-7-48-21s14-21,42-21H217.9 M217.9,258.3h-168c-15.4,0-26.8,2-35,6.1C2.6,270.5,0,280.1,0,287.1S2.9,304,16.7,310c9.1,4,21.9,5.9,39.1,5.9h156.1c17.3,0,30-1.9,39.1-5.9c13.8-6,16.7-15.8,16.7-22.9s-2.6-16.6-14.8-22.7C244.7,260.3,233.2,258.3,217.9,258.3L217.9,258.3z"></path>
<path style="fill:none;stroke:#E8A24E;stroke-width:7.2;stroke-linecap:round;stroke-linejoin:round" d="M49.8,287.1h168"></path>
<path style="fill:#F2C29A" d="M107.1,221.7L107.1,221.7c7,1,11.9,7.5,10.9,14.4l-2.7,19.3c-1,7-7.5,11.8-14.4,10.8c0,0,0,0-0.1,0l0,0c-7-1-11.8-7.4-10.9-14.4l2.7-19.3c1-7,7.4-11.9,14.4-10.9C107.1,221.7,107.1,221.7,107.1,221.7z"></path>
<path style="fill:#F2C29A" d="M106.5,250.1c8,9.8,10,17.6,5.8,23.5c-6.7,4.7-16.5,7.4-29.1,7.9c-7-1.6-9.8-5.9-8.2-13c4.2-5.8,10.8-10.6,20.3-14.2C99,252.9,102.8,251.5,106.5,250.1z"></path>
<path style="fill:#F2C29A" d="M159.7,221.8L159.7,221.8c7-1,13.4,3.8,14.4,10.8l2.7,19.3c1,7-3.9,13.5-10.9,14.5l0,0c-7,1-13.5-3.9-14.4-10.9l-2.7-19.3C147.9,229.2,152.8,222.8,159.7,221.8z"></path>
<path style="fill:#F2C29A" d="M159.6,250.5c-7.7,10.1-9.3,18-4.9,23.7c6.9,4.5,16.7,6.7,29.3,6.9c7-1.9,9.5-6.3,7.7-13.2c-4.3-5.8-11.3-10.2-20.8-13.4C167.2,253.2,163.4,251.8,159.6,250.5z"></path>
<path style="fill:#EE5C33" d="M103.4,175.8c0-16,6-24,18-24c8,10,16,10,24,0c12,0,18,8,18,24l6,57c-12,10-21,10-27,0c-4-6-7-9-9-9s-5,3-9,9c-6,10-15,10-27,0L103.4,175.8z"></path>
<path style="fill:none;stroke:#EE5C33;stroke-width:10.2;stroke-linecap:round;stroke-linejoin:round" d="M119.9,154.8c-1-10,1-16.5,6-19.5 M146.9,154.8c1-10-1-16.5-6-19.5"></path>
<path style="fill:#F2C29A" d="M105,171.3L105,171.3c2,6.3-1.4,13.1-7.7,15.1c0,0,0,0,0,0L80.2,192c-6.3,2.1-13.1-1.4-15.1-7.7c0,0,0,0,0,0l0,0c-2-6.3,1.4-13.1,7.7-15.1c0,0,0,0,0,0l17.1-5.6C96.2,161.5,102.9,165,105,171.3C105,171.3,105,171.3,105,171.3z"></path>
<circle style="fill:#F2C29A" cx="73.7" cy="197.2" r="8.4"></circle>
<path style="fill:#F2C29A" d="M67.3,167.8c-11.4,3.7-18.8,10.3-22,19.8c-1.3,2.5-0.7,4.4,1.8,5.7c8.2,5.8,18,6.8,29.4,3.1C77.3,185.9,74,175.7,67.3,167.8z"></path>
<path style="fill:#F2C29A" d="M161.9,171.3L161.9,171.3c2-6.3,8.8-9.7,15.1-7.7l17.1,5.6c6.3,2,9.7,8.8,7.7,15.1l0,0c-2,6.3-8.8,9.8-15.1,7.8c0,0-0.1,0-0.1,0l-17.1-5.6C163.2,184.4,159.8,177.6,161.9,171.3C161.8,171.3,161.8,171.3,161.9,171.3z"></path>
<circle style="fill:#F2C29A" cx="190.2" cy="196.1" r="8.4"></circle>
<path style="fill:#F2C29A" d="M190.3,196.3c11.4,3.7,21.2,2.7,29.4-3.1c2.5-1.3,3.1-3.2,1.9-5.7c-3.2-9.5-10.6-16-22-19.8C192.7,175.7,189.4,185.9,190.3,196.3z"></path>
<circle style="fill:#F2C29A" cx="133.4" cy="88.8" r="60"></circle>
<path style="fill:#7A4B2E" d="M73.4,110c-12.8-48.4,16-85.2,60-87.2c44,2,82.4,27.4,64.6,88.7c-14-24-16.2-45.8-35.2-43.4c-16.1,2.1-37.3,3.9-56.2,0.3C85,64.2,83.6,77.9,73.4,110z"></path>
<ellipse style="fill:#F4A6B4" cx="107" cy="124.4" rx="10.8" ry="7.2"></ellipse>
<ellipse style="fill:#F4A6B4" cx="161.2" cy="124.4" rx="10.8" ry="7.2"></ellipse>
<path style="fill:none;stroke:#5A2B2B;stroke-width:4;stroke-linecap:round;stroke-linejoin:round" d="M121.4,130.8c8,7,16,7,24,0"></path>
<path style="fill:none;stroke:#5A2B2B;stroke-width:4;stroke-linecap:round;stroke-linejoin:round" d="M127.4,117.2c4,3.5,8,3.5,12,0"></path>
<path style="fill:#F2C29A" d="M132.9,139.2L132.9,139.2c5-0.1,9.2,2.7,9.3,6.1l0.4,9.5c0.1,3.5-3.8,6.4-8.8,6.5l0,0c-5,0.1-9.2-2.7-9.3-6.1l-0.4-9.5C124,142.2,127.8,139.3,132.9,139.2z"></path>
<path style="fill:#5A2B2B" d="M133.4,7.8c48.8,0,79,34,75,90c6,26,0,46-18,60h-31.5c2.1,2.7,3.4,6.4,4,11c2.2-3.6,6.1-5.8,10.4-5.8c1.2,0,2.5,0.2,3.7,0.6l17.1,5.6c1.1,0.4,2.2,0.9,3.2,1.6c0.7-1,1.5-2,2.3-3c11.4,3.7,18.7,10.3,22,19.8c1.3,2.5,0.7,4.4-1.9,5.7c-4.9,3.5-10.8,5.3-16.8,5.3c-1.5,0-3.1-0.1-4.6-0.3c0,0.2-0.1,0.3-0.1,0.5c-1.4,4.4-6.2,6.8-10.6,5.4s-6.8-6.2-5.4-10.6c0.3-0.9,0.7-1.8,1.3-2.5l-14.1-4.6c-2.1-0.7-3.9-1.9-5.4-3.6l4.3,40.9c3.1,2,5.2,5.2,5.7,8.9l2.8,19.3c0.2,1.6,0.1,3.2-0.2,4.8c6.6,3,11.7,6.7,15.1,11.2c1.8,6.9-0.7,11.3-7.7,13.2c-12.6-0.1-22.5-2.4-29.4-6.9c-2.7-3.6-3.1-8.1-1.1-13.4c-1.1-1.6-1.7-3.4-2-5.3l-2.3-16c-2.9-1.4-5.3-3.7-6.9-6.6c-4-6-7-9-9-9s-5,3-9,9c-1.5,2.8-3.9,5.1-6.8,6.6l-2.3,16.1c-0.3,2-1,3.8-2.1,5.4c1.9,4.9,1.6,9.1-0.9,12.7c-6.7,4.7-16.5,7.4-29.1,7.9c-7.1-1.6-9.8-5.9-8.2-13c3.4-4.8,8.4-8.8,15.2-12c-0.4-1.5-0.5-3.1-0.2-4.6l2.7-19.3c0.5-3.7,2.6-6.9,5.7-8.9l4.3-40.9c-1.4,1.7-3.3,2.9-5.4,3.6L80.1,192l0.3,0.3c2.7,3.8,1.9,9-1.9,11.7c-3.8,2.7-9,1.9-11.7-1.9c-0.8-1.1-1.3-2.4-1.5-3.7h-1.5c-6,0.1-11.8-1.8-16.7-5.2c-2.5-1.3-3.1-3.2-1.9-5.7c3.2-9.5,10.6-16,22-19.8c0.8,1,1.6,2,2.3,3c1-0.7,2.1-1.2,3.2-1.6l17.1-5.6c1.2-0.4,2.4-0.6,3.7-0.6c4.2,0,8.1,2.2,10.3,5.8c0.7-4.6,2-8.3,4-11H76.4c-18-14-24-34-18-60C54.4,41.8,84.6,7.8,133.4,7.8 M133.4,0c-25.2,0-46.3,8.4-61,24.3C56.1,41.7,48.6,66.9,50.5,97.2c-3,13.8-2.9,26.4,0.4,37.3c2.9,9.8,8.4,18.6,16,25.4c-0.7,0-1.4,0.2-2.1,0.4c-13.6,4.4-22.7,12.6-26.8,24.2c-2.8,5.6-0.6,12.5,5,15.3c5,3.5,10.9,5.6,17,6.2c0.2,0.2,0.3,0.4,0.5,0.7c3.1,4.2,7.9,6.7,13.1,6.7c9,0,16.3-7.2,16.3-16.1c0-0.1,0-0.2,0-0.3l3.6-1.2l-2.6,23.9c-3.2,3.2-5.4,7.3-6,11.8l-2.7,19.3c-0.1,0.4-0.1,0.8-0.1,1.2c-5.3,3-9.9,7.1-13.5,12c-0.6,0.8-1,1.8-1.2,2.8c-2.5,11.2,2.8,19.8,14.1,22.3c0.6,0.1,1.1,0.2,1.7,0.2h0.3c14.1-0.6,25.3-3.8,33.2-9.3c0.7-0.5,1.4-1.2,1.9-1.9c3.3-4.7,4.4-10.7,2.9-16.3c0.7-1.7,1.2-3.4,1.5-5.2l1.8-12.5c2.5-2,4.6-4.4,6.2-7.1c1-1.4,1.8-2.5,2.4-3.4c0.6,0.8,1.5,1.9,2.4,3.4c1.6,2.7,3.7,5.2,6.2,7.1l1.7,12.4c0.2,1.7,0.7,3.4,1.4,5c-1.9,8,0.6,13.8,3.3,17.3c0.6,0.7,1.2,1.3,2,1.8c8.2,5.3,19.1,8,33.5,8.1h0.1c0.7,0,1.3-0.1,2-0.3c11-3,16.1-11.7,13.3-22.7c-0.3-1-0.7-1.9-1.3-2.8c-3.6-4.6-8.1-8.4-13.2-11.1c0-0.4-0.1-0.8-0.1-1.2l-2.7-19.3c-0.6-4.5-2.7-8.6-6-11.8l-2.5-23.9l0.7,0.2c0,8.9,7.2,16.2,16.2,16.2c4.9,0,9.5-2.2,12.6-6h0c7.4,0.1,14.7-2.2,20.8-6.4c5.6-2.8,7.9-9.7,5-15.3c0,0,0-0.1,0-0.1c-4.1-11.6-13.1-19.8-26.8-24.2c-0.7-0.2-1.3-0.3-2-0.4c7.5-6.9,13-15.7,16-25.4c3.3-11,3.4-23.5,0.4-37.3c1.9-30.3-5.6-55.5-21.8-72.9C179.6,8.4,158.5,0,133.4,0L133.4,0z"></path>
<path style="fill:none;stroke:#5A2B2B;stroke-width:7.488;stroke-linecap:round;stroke-linejoin:round;stroke-miterlimit:12.48" d="M89.1,99.1c3.2-7.4,10.4-12,18-11.5c9.6,0.6,14.4,10.9,14.7,11.5"></path>
<path style="fill:none;stroke:#5A2B2B;stroke-width:7.488;stroke-linecap:round;stroke-linejoin:round;stroke-miterlimit:12.48" d="M143.3,99.1c3.2-7.4,10.4-12,18-11.5c9.6,0.6,14.4,10.9,14.7,11.5"></path>
</svg>