<svg id="Layer_1" data-name="Layer 1" xmlns="http://www.w3.org/2000/svg" viewBox="0 0 230.82 201.59"><path d="M110,275.19c-.08,13.13-5.45,23.79-15.89,31.85-4.37,3.53,1.92,7.29.69,13.82C93,329.91,80.7,332.22,81,324.46c.08-2.38,2.3-6.37-.54-6.21s-6.75,14.58-18.42,13.58c-9-1.23,5.14-14.35,3.15-16.42s-4.76,2.22-7.68,4.3c-2.14,1.45-11.12,5.29-13.12,2.76-.77-1-1-3.84,1.38-6.83,3.84-4.68,21.49-9.52,19.57-14.58-9.82-21.72,11.05-74.45,37.76-48.28C108.41,259.08,110.33,267.14,110,275.19Z" transform="translate(-32.08 -152.02)" style="fill:#8bc273"></path><path d="M159.13,327.28a260.86,260.86,0,0,1-26.81-1.48c-46.55-4.77-69.82-23.3-81.15-38-12.4-16.11-13.59-31-13.64-31.61-1.78-32.6,12.9-47,19.18-53.14.52-.51,1-1,1.36-1.36-3-10.7-1.91-20.17,3.46-28.94A33,33,0,0,1,90,157.22a35.45,35.45,0,0,1,8.19,1,31.59,31.59,0,0,1,4,1.3c1,.36,1.88.7,2.78,1l.19.06a3.42,3.42,0,0,0,1.12.22l.21,0A113.9,113.9,0,0,1,132.33,158a112,112,0,0,1,12.26.62,122.59,122.59,0,0,1,25.35,5.47,29.9,29.9,0,0,1,15.79-4.35,32.21,32.21,0,0,1,23.18,9.84,46.24,46.24,0,0,1,11.3,19.86,3.36,3.36,0,0,0,.81,1.25l.1.09c20.94,18.66,30.41,40.8,28.15,65.79-2.07,22.16-9.13,38.53-21.56,50.07-15,13.91-37.43,20.67-68.57,20.67ZM132.67,206.94c-.27,0-.89.1-.89.72a.88.88,0,0,0,.71.87.86.86,0,0,0,.89-.72v-.11a.73.73,0,0,0-.2-.5A.84.84,0,0,0,132.67,206.94Zm-16.51-.24a.74.74,0,0,0-.72.73.9.9,0,0,0,.87.87.74.74,0,0,0,.54-.25.66.66,0,0,0,.19-.49c0-.07,0-.14,0-.21C117,207,116.58,206.7,116.16,206.7Z" transform="translate(-32.08 -152.02)" style="fill:#8bc273"></path><path d="M90,159.72a33.22,33.22,0,0,1,7.62.89c2.3.54,4.45,1.61,6.67,2.23a6.09,6.09,0,0,0,2,.37,4.08,4.08,0,0,0,.71-.06,111.18,111.18,0,0,1,25.38-2.68,112,112,0,0,1,12,.6,116.68,116.68,0,0,1,25.94,5.76,27.44,27.44,0,0,1,15.47-4.62,29.54,29.54,0,0,1,21.37,9.07,43.79,43.79,0,0,1,10.75,19,6,6,0,0,0,1.61,2.38c19,17,29.62,38.29,27.32,63.69-3.55,37.94-22.63,68.47-87.65,68.47a257.11,257.11,0,0,1-26.55-1.47C44.17,314.26,40,256,40,256c-1.92-35,15.65-48,20.18-53a2.45,2.45,0,0,0,.31-1.92c-2.76-9.59-2.07-18.57,3.14-27.09A30.7,30.7,0,0,1,90,159.72m26.34,51.08a3.24,3.24,0,0,0,3.22-3.45,3.32,3.32,0,0,0-3.37-3.15,3.25,3.25,0,0,0-3.23,3.23,3.41,3.41,0,0,0,3.38,3.37m16.12.23a3.3,3.3,0,0,0,.31-6.6,3.26,3.26,0,0,0-3.46,3.23,3.36,3.36,0,0,0,3.15,3.37M90,154.72a35.5,35.5,0,0,0-30.56,16.7c-5.45,8.89-6.83,18.8-4.13,29.51l-.32.32c-6.52,6.38-21.77,21.34-19.93,55v.08c.05.66,1.29,16.26,14.15,32.95A88.16,88.16,0,0,0,78.5,313.4c14.74,7.75,32.77,12.76,53.57,14.89a265.39,265.39,0,0,0,27.06,1.49c31.81,0,54.8-7,70.28-21.34,12.91-12,20.22-28.87,22.35-51.66a74.62,74.62,0,0,0-6.07-37.52c-4.9-11-12.61-21.2-22.91-30.38l-.07-.06a1.44,1.44,0,0,1-.15-.27,48.45,48.45,0,0,0-11.87-20.75,34.68,34.68,0,0,0-25-10.59,32.58,32.58,0,0,0-16.08,4.12,126.79,126.79,0,0,0-24.79-5.23,117,117,0,0,0-12.53-.63,117.4,117.4,0,0,0-26.18,2.72l-.18-.05a2.4,2.4,0,0,0-.38-.12c-.79-.22-1.65-.54-2.56-.88a34.67,34.67,0,0,0-4.31-1.4,38.53,38.53,0,0,0-8.75-1Z" transform="translate(-32.08 -152.02)" style="fill:#5a2b2b"></path><path d="M208.24,341.13c-.44,0-.89,0-1.35-.05l-.13,0c-2.93-.4-4.19-1.86-4.72-3-1.38-3,.55-6.6,2.81-10.18-.27.22-.55.43-.83.64-2.06,1.4-8.17,4.07-12.15,4.07a5.25,5.25,0,0,1-4.38-1.8c-1.6-2.08-1.63-6.14,1.38-9.93,1.91-2.33,5.85-4.31,10-6.42,3-1.52,8.57-4.32,9.13-5.8-5.18-11.8-2.27-32.37,6.54-46,5.28-8.18,12.06-12.69,19.08-12.69,5.49,0,11,2.64,16.27,7.84l.16.18c6.66,7.91,7.75,17.48,7.49,24.11-.07,13.79-5.75,25.16-16.85,33.73-.77.63-.92.74.22,3.54.88,2.15,2.09,5.1,1.4,8.76-1.32,6.49-7.05,10.34-11.82,10.34a7,7,0,0,1-5.15-2,6.92,6.92,0,0,1-1.8-5.27V331C220.68,335.24,216.06,341.13,208.24,341.13Z" transform="translate(-32.08 -152.02)" style="fill:#8bc273"></path><path d="M233.64,252.41c4.51,0,9.41,2.12,14.52,7.13,5.3,6.29,7.21,14.43,6.91,22.41-.08,13.12-5.45,23.79-15.89,31.85-4.37,3.53,1.92,7.29.69,13.81-1.08,5.31-5.75,8.3-9.36,8.3-2.55,0-4.58-1.49-4.45-4.69.07-2.34,2.22-6.22-.39-6.22h-.15c-2.75.08-6.5,13.63-17.28,13.63a11.11,11.11,0,0,1-1.14-.05c-9-1.22,5.14-14.35,3.15-16.42a1.63,1.63,0,0,0-1.19-.55c-1.84,0-4.11,3.16-6.49,4.85-1.64,1.11-7.24,3.61-10.7,3.61a3,3,0,0,1-2.42-.85c-.77-1-1-3.84,1.38-6.83,3.84-4.68,21.49-9.51,19.57-14.58-7.94-17.56,4.19-55.4,23.24-55.4m0-5h0c-7.9,0-15.43,4.92-21.18,13.84-9,13.94-12.05,34-7.35,46.81a58.7,58.7,0,0,1-7.35,4.13c-4.41,2.23-8.58,4.33-10.8,7l0,.06c-3.81,4.8-3.61,10.16-1.43,13l0,.05a7.65,7.65,0,0,0,6.35,2.75,23.24,23.24,0,0,0,7.52-1.61,8.23,8.23,0,0,0,.38,5.63c.65,1.41,2.38,3.86,6.65,4.45l.26,0q.78.06,1.56.06c6.46,0,11-3.43,14.17-7a9.07,9.07,0,0,0,1.15,1.49,9.5,9.5,0,0,0,6.95,2.79,15.12,15.12,0,0,0,14.26-12.3v-.07a17.26,17.26,0,0,0-1.53-10.18c-.14-.33-.3-.72-.43-1.07,11.34-9,17.14-20.84,17.25-35.23.37-10.12-2.42-19-8.08-25.74l-.33-.35c-5.79-5.68-11.86-8.56-18-8.56Z" transform="translate(-32.08 -152.02)" style="fill:#5a2b2b"></path><path d="M116.23,204.2a3.3,3.3,0,1,1,.16,6.6,3.4,3.4,0,0,1-3.38-3.37A3.25,3.25,0,0,1,116.23,204.2Z" transform="translate(-32.08 -152.02)" style="fill:#5a2b2b"></path><path d="M129.28,207.73a3.25,3.25,0,0,1,3.46-3.22,3.31,3.31,0,0,1,3.14,3.38,3.25,3.25,0,0,1-3.45,3.22A3.48,3.48,0,0,1,129.28,207.73Z" transform="translate(-32.08 -152.02)" style="fill:#5a2b2b"></path><circle cx="177.32" cy="59.55" r="4.76" style="fill:#f6f2e2"></circle><circle cx="191.29" cy="65.16" r="4.14" style="fill:#f6f2e2"></circle><circle cx="180.16" cy="73.52" r="4.45" style="fill:#f6f2e2"></circle><circle cx="226.13" cy="231.06" r="3.61" transform="translate(-70.25 265.25) rotate(-80.78)" style="fill:#f6f2e2"></circle><circle cx="185.69" cy="87.41" r="3.38" style="fill:#f6f2e2"></circle><circle cx="232.5" cy="242.27" r="4.76" transform="translate(-75.96 280.95) rotate(-80.78)" style="fill:#f6f2e2"></circle><ellipse cx="55.53" cy="59.55" rx="11.67" ry="7.52" style="fill:#f0a868"></ellipse><ellipse cx="146.78" cy="61.55" rx="11.67" ry="7.52" style="fill:#f0a868"></ellipse><ellipse cx="54.3" cy="32.54" rx="14.5" ry="14.81" style="fill:#3a2320"></ellipse><circle cx="50.62" cy="26.86" r="6.06" style="fill:#fff"></circle><circle cx="58.91" cy="37.22" r="2.84" style="fill:#fff"></circle><ellipse cx="149.54" cy="36.15" rx="14.5" ry="14.81" style="fill:#3a2320"></ellipse><circle cx="145.71" cy="30.47" r="6.06" style="fill:#fff"></circle><circle cx="154.15" cy="40.98" r="2.84" style="fill:#fff"></circle><path d="M105,219.09s5.07,8.52,19.5,8.75c19,.31,26.86-8.75,26.86-8.75" transform="translate(-32.08 -152.02)" style="fill:none;stroke:#5a2b2b;stroke-linecap:round;stroke-miterlimit:10;stroke-width:7.18px"></path><path d="M144.28,348.22a8.3,8.3,0,0,1-3-.56,5.14,5.14,0,0,1-3.31-4.06,5.64,5.64,0,0,1,.12-2l-.19.09a10,10,0,0,1-4.1,1,5,5,0,0,1-5.26-4.36c-.3-2.21-.31-9.46,11.83-11.74,1.33-.23,3.8-2.59,5.7-15.77,1.41-9.58,8-13,13.28-13a13.85,13.85,0,0,1,10.51,4.91,14.69,14.69,0,0,1,3,12.23l-.06.23a66.34,66.34,0,0,0-1.92,10.47c-.75,6.07-1.4,11.32-6.9,18.6a9.81,9.81,0,0,1-7.25,3.85h0l-.56,0-.11,0a5.12,5.12,0,0,1-3.58-2.08,5.85,5.85,0,0,1-.62-1.19A10.07,10.07,0,0,1,144.28,348.22Z" transform="translate(-32.08 -152.02)" style="fill:#8bc273"></path><path d="M159.31,300.37c6.25,0,12.55,5.43,11,14.2-3.37,12.13-.57,17.88-8.4,28.24a7.29,7.29,0,0,1-5.26,2.85h-.34c-1.77-.23-2.92-1.69-2.23-4.92.15-1,.38-1.91-.84-2.22a1.76,1.76,0,0,0-.42-.06c-.8,0-1,.79-1.27,1.52a7.46,7.46,0,0,1-7.26,5.75,5.66,5.66,0,0,1-2.11-.38c-2.37-1-3-3.84,2.08-7.75.61-.62,1.22-1.38.46-2.23a2.39,2.39,0,0,0-1-.25c-2,0-3.78,2.87-6.88,4.32a7.52,7.52,0,0,1-3,.78A2.57,2.57,0,0,1,131,338c-.38-2.84.84-7.21,9.82-8.9,4.76-.85,6.64-10.43,7.72-17.87s5.94-10.83,10.8-10.83m0-5c-6.25,0-14.11,3.95-15.75,15.1-1.56,10.83-3.36,13.23-3.89,13.72-14.11,2.74-14,11.75-13.66,14.45,0,0,0,.06,0,.09a7.51,7.51,0,0,0,7.73,6.48,10,10,0,0,0,1.93-.19,7.76,7.76,0,0,0,4.55,4.93l.06,0a10.44,10.44,0,0,0,4,.75,12.69,12.69,0,0,0,7-2.15,7.64,7.64,0,0,0,4.35,2l.21,0,.78,0a12.18,12.18,0,0,0,9.16-4.73l.09-.11c5.9-7.82,6.62-13.64,7.38-19.81a64.79,64.79,0,0,1,1.85-10.1c0-.15.08-.31.11-.46a17.17,17.17,0,0,0-3.49-14.28,16.43,16.43,0,0,0-12.43-5.8Z" transform="translate(-32.08 -152.02)" style="fill:#5a2b2b"></path><path d="M90,159.82a33.22,33.22,0,0,1,7.62.89c2.3.53,4.45,1.61,6.67,2.22a5.84,5.84,0,0,0,2,.37,4.08,4.08,0,0,0,.71-.06,111.18,111.18,0,0,1,25.38-2.68,111.94,111.94,0,0,1,12,.61,116.37,116.37,0,0,1,25.94,5.75,27.44,27.44,0,0,1,15.47-4.62,29.55,29.55,0,0,1,21.37,9.08,43.75,43.75,0,0,1,10.75,19,5.83,5.83,0,0,0,1.61,2.38c19,17,29.62,38.3,27.32,63.7l-.18,1.78c.52.46,1,.93,1.56,1.44,5.3,6.3,7.21,14.43,6.91,22.41-.08,13.12-5.45,23.79-15.89,31.85-4.37,3.53,1.92,7.29.69,13.81-1.08,5.32-5.75,8.3-9.36,8.3-2.55,0-4.58-1.48-4.45-4.69.07-2.33,2.22-6.22-.39-6.22h-.15c-2.75.07-6.49,13.63-17.28,13.63-.37,0-.75,0-1.14-.05-9-1.23,5.14-14.35,3.15-16.42a1.59,1.59,0,0,0-1.19-.55c-1.84,0-4.11,3.16-6.49,4.84-1.64,1.12-7.24,3.61-10.7,3.61a3,3,0,0,1-2.42-.84c-.77-1-1-3.84,1.38-6.83a7.4,7.4,0,0,1,.79-.8,137.84,137.84,0,0,1-23.25,3c-1,6.6-2.5,13-6.47,18.24a7.25,7.25,0,0,1-5.26,2.85h-.34c-1.77-.23-2.92-1.69-2.23-4.91.15-1,.38-1.92-.84-2.23a1.76,1.76,0,0,0-.42-.06c-.8,0-1,.79-1.27,1.52a7.46,7.46,0,0,1-7.26,5.75,5.66,5.66,0,0,1-2.11-.38c-2.37-1-3-3.83,2.08-7.75.61-.61,1.22-1.38.46-2.22a2.26,2.26,0,0,0-1-.25c-2,0-3.78,2.86-6.88,4.31a7.39,7.39,0,0,1-3,.79,2.57,2.57,0,0,1-2.79-2.24c-.38-2.84.84-7.22,9.82-8.91,1.43-.25,2.69-2.1,3.8-4.75-3.87-.24-7.86-.57-12-1a177.32,177.32,0,0,1-21.68-3.53c1.9,8.28,9,6.34,10,14.35a3.57,3.57,0,0,1-2.61,3.61,5.35,5.35,0,0,1-1.56.22,5.94,5.94,0,0,1-5.43-3.22c-.06-.31-.23-.84-.8-.84a1.36,1.36,0,0,0-.42.07c-1,.31-1.16,2.38-1.62,3.46a7.05,7.05,0,0,1-6.47,5,5.76,5.76,0,0,1-2.51-.59,4.89,4.89,0,0,1-2.6-6.52,2,2,0,0,0-.31-2.31.87.87,0,0,0-.48-.14,2.09,2.09,0,0,0-1.52,1c-3.86,3.11-7.14,4.29-9.53,4.29a4.23,4.23,0,0,1-3.74-1.68c-1.22-1.88-.19-5,4-7.36-2.47-.07-4.41-1.56-4.28-4.69.07-2.34,2.22-6.22-.38-6.22h-.16C77.73,318.42,74,332,63.19,332c-.37,0-.75,0-1.14-.05-9-1.23,5.14-14.36,3.15-16.43A1.57,1.57,0,0,0,64,315c-1.82,0-4.14,3.16-6.52,4.85-1.63,1.11-7.24,3.61-10.7,3.61a3,3,0,0,1-2.42-.85c-.77-1-1-3.83,1.38-6.83,3.84-4.68,21.49-9.51,19.57-14.58a24.09,24.09,0,0,1-1.18-3.26C41.64,278.67,40,256.1,40,256.1c-1.92-35,15.65-48,20.18-53a2.45,2.45,0,0,0,.31-1.92c-2.76-9.59-2.07-18.57,3.14-27.09A30.7,30.7,0,0,1,90,159.82m26.34,51.08a3.24,3.24,0,0,0,3.22-3.45,3.31,3.31,0,0,0-3.37-3.15,3.25,3.25,0,0,0-3.23,3.22,3.41,3.41,0,0,0,3.38,3.38m16.12.23a3.34,3.34,0,0,0,3.45-3.22,3.31,3.31,0,0,0-3.14-3.38,3.25,3.25,0,0,0-3.46,3.22,3.37,3.37,0,0,0,3.15,3.38M91,327.15l.6-.14c2-.43,2.4-.55,1.72-2.38A10.4,10.4,0,0,1,91,327.15M90,152h0A38.3,38.3,0,0,0,57,170a39.58,39.58,0,0,0-4.82,30.09c-7.16,7.06-21.81,22.75-20,56.4a.62.62,0,0,0,0,.13c.07,1,1.93,23.74,23.49,44.14-1.43.79-3.07,1.62-4.29,2.23-4.68,2.36-9.11,4.6-11.7,7.76l-.07.09c-4.22,5.31-4.82,12.07-1.46,16.44l.05.07a10.46,10.46,0,0,0,8.55,3.82,20.16,20.16,0,0,0,4.49-.57,10.16,10.16,0,0,0,.87,3c.89,1.93,3.22,5.29,8.82,6l.39.05c.6.05,1.21.08,1.8.08a19.54,19.54,0,0,0,10-2.74,10.63,10.63,0,0,0,1.53,3.8,11.88,11.88,0,0,0,10.29,5.25A17.73,17.73,0,0,0,91.15,345,13.68,13.68,0,0,0,102,350.36a14.4,14.4,0,0,0,10.86-5,13.93,13.93,0,0,0,3.88.54,12.84,12.84,0,0,0,3.88-.58,11.77,11.77,0,0,0,4-2.17,10.48,10.48,0,0,0,9.12,5h.18a10.77,10.77,0,0,0,5.22,4.53l.08,0a13.41,13.41,0,0,0,5,.95,15.15,15.15,0,0,0,6.79-1.6,10.77,10.77,0,0,0,4.22,1.46l.33,0c.33,0,.68,0,1,0A15,15,0,0,0,168,347.77l.13-.17A39.86,39.86,0,0,0,174.94,332q3.5-.3,6.82-.73a10.17,10.17,0,0,0,1.51,2.76l0,.07a10.46,10.46,0,0,0,8.55,3.82,20.74,20.74,0,0,0,4.49-.56,10.25,10.25,0,0,0,.87,3c.89,1.93,3.22,5.28,8.81,6.05l.4,0c.6.05,1.2.08,1.8.08a20.42,20.42,0,0,0,14-5.69,12.41,12.41,0,0,0,8.25,3,18,18,0,0,0,17-14.54l0-.11a19.15,19.15,0,0,0-1.36-10.9c11-9.37,16.57-21.47,16.69-36,.37-10.46-2.45-19.75-8.18-26.91,1.75-25.52-8.47-49-29.62-68A51,51,0,0,0,212.72,166a37.5,37.5,0,0,0-27-11.47,35.48,35.48,0,0,0-16.37,3.9,130.7,130.7,0,0,0-24.2-5,120,120,0,0,0-12.83-.65,121.49,121.49,0,0,0-26.09,2.63c-.64-.19-1.41-.48-2.23-.78a37,37,0,0,0-4.65-1.5A41.25,41.25,0,0,0,90,152Z" transform="translate(-32.08 -152.02)" style="fill:#5a2b2b"></path><path d="M171.53,302.92" transform="translate(-32.08 -152.02)" style="fill:none;stroke:#5a2b2b;stroke-linecap:round;stroke-linejoin:round;stroke-width:7.18px"></path><path d="M102,345a8.17,8.17,0,0,1-3.6-.84A7.33,7.33,0,0,1,94,337.45c-3.92,2.64-7,3.25-8.94,3.25a6.71,6.71,0,0,1-5.84-2.83,6,6,0,0,1-.34-5.62c1.5-3.58,5.78-6.37,11.78-7.69A36.25,36.25,0,0,1,88,311.06a12,12,0,0,1,3.19-8.95c3.56-3.69,8.74-4.24,11.52-4.24,3.51,0,8.35,1,10.46,3.68a4.47,4.47,0,0,1,.88,3.81c-2.92,14.94.22,17.21,3.55,19.62,2.29,1.65,5.13,3.71,5.78,8.84,0,.11,0,.21,0,.31a6,6,0,0,1-4.36,6,7.69,7.69,0,0,1-2.31.35h0a8.94,8.94,0,0,1-5.9-2.23.19.19,0,0,1,0,.07A9.6,9.6,0,0,1,102,345Z" transform="translate(-32.08 -152.02)" style="fill:#8bc273"></path><path d="M102.73,300.37c5,0,9.53,2,8.9,4.45-5.14,26.17,7.9,18.26,9.29,29.31a3.55,3.55,0,0,1-2.61,3.61,5.35,5.35,0,0,1-1.56.23,5.94,5.94,0,0,1-5.43-3.22c-.06-.32-.23-.85-.8-.85a1.4,1.4,0,0,0-.42.08c-1,.31-1.16,2.38-1.62,3.45a7,7,0,0,1-6.47,5,5.63,5.63,0,0,1-2.51-.59,4.89,4.89,0,0,1-2.6-6.52,2,2,0,0,0-.31-2.3.87.87,0,0,0-.48-.14,2.07,2.07,0,0,0-1.52,1c-3.86,3.12-7.14,4.3-9.53,4.3a4.23,4.23,0,0,1-3.74-1.69c-1.69-2.61.92-7.67,10.28-9.59,2.07-.46,2.46-.54,1.61-2.69A34,34,0,0,1,90.53,311c-.3-7.92,6.3-10.66,12.2-10.66m0-5c-5.48,0-10.21,1.77-13.32,5a14.43,14.43,0,0,0-3.89,10.71,37.54,37.54,0,0,0,1.88,11.76c-7.21,2.25-9.86,6.14-10.83,8.44a8.42,8.42,0,0,0,.55,8,9.15,9.15,0,0,0,7.94,4,16.61,16.61,0,0,0,7.24-1.87,10.22,10.22,0,0,0,5,5.05,10.58,10.58,0,0,0,4.69,1.09,11.89,11.89,0,0,0,9.85-5.59,11.51,11.51,0,0,0,4.89,1.09,10.28,10.28,0,0,0,3-.46,8.52,8.52,0,0,0,6.12-8.38c0-.2,0-.41,0-.62-.78-6.21-4.4-8.83-6.8-10.56-2.77-2-5.17-3.74-2.56-17.07a6.88,6.88,0,0,0-1.36-5.86c-2.65-3.43-8.16-4.65-12.43-4.65Z" transform="translate(-32.08 -152.02)" style="fill:#5a2b2b"></path><ellipse cx="69.81" cy="148.03" rx="19.03" ry="7.46" style="fill:#8bc273"></ellipse><ellipse cx="162.85" cy="305.87" rx="10.66" ry="21.98" transform="translate(-206.01 235.4) rotate(-75.58)" style="fill:#8bc273"></ellipse></svg>