<svg xmlns="http://www.w3.org/2000/svg" viewBox="0 0 230.8 201.6">
<path style="fill:#8BC273" d="M77.9,123.2C77.8,136.3,72.5,147,62,155c-4.4,3.5,1.9,7.3,0.7,13.8c-1.8,9-14.1,11.4-13.8,3.6c0.1-2.4,2.3-6.4-0.5-6.2s-6.8,14.6-18.4,13.6c-9-1.2,5.1-14.4,3.2-16.4s-4.8,2.2-7.7,4.3c-2.1,1.5-11.1,5.3-13.1,2.8c-0.8-1-1-3.8,1.4-6.8c3.8-4.7,21.5-9.5,19.6-14.6c-9.8-21.7,11.1-74.4,37.8-48.3C76.3,107.1,78.3,115.1,77.9,123.2z"></path>
<path style="fill:#8BC273" d="M127.1,175.3c-9,0-17.9-0.5-26.8-1.5c-46.6-4.8-69.8-23.3-81.2-38c-12.4-16.1-13.6-31-13.6-31.6C3.7,71.6,18.4,57.2,24.6,51c0.5-0.5,1-1,1.4-1.4c-3-10.7-1.9-20.2,3.5-28.9C35.6,10.9,46.4,5,57.9,5.2c2.8,0,5.5,0.3,8.2,1c1.4,0.3,2.7,0.8,4,1.3c1,0.4,1.9,0.7,2.8,1l0.2,0.1c0.4,0.1,0.7,0.2,1.1,0.2h0.2c8.5-1.9,17.1-2.9,25.8-2.8c4.1,0,8.2,0.2,12.3,0.6c8.6,0.9,17.1,2.8,25.4,5.5c4.8-2.9,10.2-4.4,15.8-4.4c8.7,0,17.1,3.6,23.2,9.8c5.4,5.6,9.3,12.4,11.3,19.9c0.2,0.5,0.4,0.9,0.8,1.3l0.1,0.1c20.9,18.7,30.4,40.8,28.1,65.8c-2.1,22.2-9.1,38.5-21.6,50.1C180.6,168.5,158.2,175.3,127.1,175.3L127.1,175.3z M100.6,54.9c-0.3,0-0.9,0.1-0.9,0.7c0,0.4,0.3,0.8,0.7,0.9c0.4,0,0.8-0.3,0.9-0.7v-0.1c0-0.2-0.1-0.4-0.2-0.5C101,55,100.8,54.9,100.6,54.9z M84.1,54.7c-0.4,0-0.7,0.3-0.7,0.7c0,0.5,0.4,0.9,0.9,0.9c0.2,0,0.4-0.1,0.5-0.3c0.1-0.1,0.2-0.3,0.2-0.5c0-0.1,0-0.1,0-0.2C84.9,55,84.5,54.7,84.1,54.7z"></path>
<path style="fill:#5A2B2B" d="M57.9,7.7c2.6,0,5.1,0.3,7.6,0.9c2.3,0.5,4.4,1.6,6.7,2.2c0.6,0.2,1.3,0.4,2,0.4c0.2,0,0.5,0,0.7-0.1c8.3-1.9,16.8-2.8,25.4-2.7c4,0,8,0.2,12,0.6c8.8,0.9,17.5,2.9,25.9,5.8c4.6-3.1,10-4.7,15.5-4.6c8.1,0,15.8,3.3,21.4,9.1c5.1,5.3,8.8,11.9,10.8,19c0.3,0.9,0.9,1.7,1.6,2.4c19,17,29.6,38.3,27.3,63.7c-3.6,37.9-22.6,68.5-87.6,68.5c-8.9,0-17.7-0.5-26.6-1.5C12.1,162.2,7.9,104,7.9,104C6,69,23.6,56,28.1,51c0.4-0.6,0.5-1.3,0.3-1.9c-2.8-9.6-2.1-18.6,3.1-27.1C37.3,13,47.2,7.5,57.9,7.7 M84.3,58.8c1.8,0,3.2-1.5,3.2-3.3c0-0.1,0-0.1,0-0.2c-0.1-1.8-1.6-3.2-3.4-3.1c-1.8,0-3.2,1.5-3.2,3.2C80.9,57.3,82.4,58.8,84.3,58.8 M100.4,59c1.8,0.1,3.4-1.3,3.5-3.1s-1.3-3.4-3.1-3.5c-1.8-0.1-3.3,1.3-3.5,3.1c0,0.1,0,0.1,0,0.2C97.2,57.4,98.6,58.9,100.4,59 M57.9,2.7c-12.4-0.2-24,6.2-30.6,16.7c-5.5,8.9-6.8,18.8-4.1,29.5l-0.3,0.3c-6.5,6.4-21.8,21.3-19.9,55v0.1c0,0.7,1.3,16.3,14.1,33c7.9,10.1,17.9,18.3,29.3,24.1c14.7,7.8,32.8,12.8,53.6,14.9c9,1,18,1.5,27.1,1.5c31.8,0,54.8-7,70.3-21.3c12.9-12,20.2-28.9,22.4-51.7c1.2-12.8-0.8-25.7-6.1-37.5c-4.9-11-12.6-21.2-22.9-30.4l-0.1-0.1c-0.1-0.1-0.1-0.2-0.1-0.3c-2.2-7.8-6.2-14.9-11.9-20.8C172.1,9,163,5.2,153.6,5.2c-5.6,0-11.2,1.4-16.1,4.1c-8.1-2.6-16.4-4.3-24.8-5.2c-4.2-0.4-8.3-0.6-12.5-0.6C91.4,3.4,82.6,4.3,74,6.2l-0.2-0.1c-0.1,0-0.2-0.1-0.3-0.1c-0.8-0.2-1.7-0.5-2.6-0.9c-1.4-0.6-2.8-1-4.3-1.4C63.7,3.1,60.8,2.7,57.9,2.7L57.9,2.7z"></path>
<path style="fill:#8BC273" d="M176.2,189.1c-0.4,0-0.9,0-1.4,0h-0.1c-2.9-0.4-4.2-1.9-4.7-3c-1.4-3,0.6-6.6,2.8-10.2c-0.3,0.2-0.6,0.4-0.8,0.6c-2.1,1.4-8.2,4.1-12.1,4.1c-1.7,0.1-3.3-0.5-4.4-1.8c-1.6-2.1-1.6-6.1,1.4-9.9c1.9-2.3,5.9-4.3,10-6.4c3-1.5,8.6-4.3,9.1-5.8c-5.2-11.8-2.3-32.4,6.5-46c5.3-8.2,12.1-12.7,19.1-12.7c5.5,0,11,2.6,16.3,7.8l0.2,0.2c6.7,7.9,7.7,17.5,7.5,24.1c-0.1,13.8-5.8,25.2-16.9,33.7c-0.8,0.6-0.9,0.7,0.2,3.5c0.9,2.1,2.1,5.1,1.4,8.8c-1.3,6.5-7.1,10.3-11.8,10.3c-1.9,0.1-3.8-0.7-5.1-2c-1.3-1.4-2-3.3-1.8-5.3V179C188.6,183.2,184,189.1,176.2,189.1z"></path>
<path style="fill:#5A2B2B" d="M201.6,100.4c4.5,0,9.4,2.1,14.5,7.1c5.3,6.3,7.2,14.4,6.9,22.4c-0.1,13.1-5.4,23.8-15.9,31.9c-4.4,3.5,1.9,7.3,0.7,13.8c-1.1,5.3-5.8,8.3-9.4,8.3c-2.6,0-4.6-1.5-4.4-4.7c0.1-2.3,2.2-6.2-0.4-6.2h-0.1c-2.8,0.1-6.5,13.6-17.3,13.6c-0.4,0-0.8,0-1.1,0c-9-1.2,5.1-14.4,3.1-16.4c-0.3-0.3-0.7-0.5-1.2-0.5c-1.8,0-4.1,3.2-6.5,4.9c-1.6,1.1-7.2,3.6-10.7,3.6c-0.9,0.1-1.8-0.2-2.4-0.9c-0.8-1-1-3.8,1.4-6.8c3.8-4.7,21.5-9.5,19.6-14.6C170.4,138.2,182.5,100.4,201.6,100.4 M201.6,95.4L201.6,95.4c-7.9,0-15.4,4.9-21.2,13.8c-9,13.9-12.1,34-7.4,46.8c-2.3,1.6-4.8,2.9-7.4,4.1c-4.4,2.2-8.6,4.3-10.8,7v0.1c-3.8,4.8-3.6,10.2-1.4,13l0,0c1.6,1.9,3.9,2.9,6.4,2.8c2.6-0.1,5.1-0.7,7.5-1.6c-0.5,1.9-0.4,3.9,0.4,5.6c0.6,1.4,2.4,3.9,6.6,4.5h0.3c0.5,0,1,0.1,1.6,0.1c6.5,0,11-3.4,14.2-7c0.3,0.5,0.7,1,1.1,1.5c1.8,1.8,4.3,2.9,6.9,2.8c7-0.3,13-5.4,14.3-12.3v-0.1c0.5-3.5,0-7-1.5-10.2c-0.1-0.3-0.3-0.7-0.4-1.1c11.3-9,17.1-20.8,17.3-35.2c0.4-10.1-2.4-19-8.1-25.7l-0.3-0.4C213.8,98.2,207.7,95.3,201.6,95.4L201.6,95.4z"></path>
<path style="fill:#5A2B2B" d="M84.2,52.2c1.8,0,3.3,1.4,3.4,3.2s-1.4,3.3-3.2,3.4c-1.9,0-3.4-1.5-3.4-3.4C80.9,53.6,82.4,52.2,84.2,52.2z"></path>
<path style="fill:#5A2B2B" d="M97.2,55.7c0-1.8,1.5-3.2,3.3-3.2c0.1,0,0.1,0,0.2,0c1.8,0.1,3.2,1.6,3.1,3.4c0,1.8-1.5,3.2-3.3,3.2c-0.1,0-0.1,0-0.2,0C98.6,58.9,97.2,57.5,97.2,55.7z"></path>
<circle style="fill:#F6F2E2" cx="177.3" cy="59.5" r="4.8"></circle>
<circle style="fill:#F6F2E2" cx="191.3" cy="65.2" r="4.1"></circle>
<circle style="fill:#F6F2E2" cx="180.2" cy="73.5" r="4.4"></circle>
<circle style="fill:#F6F2E2" cx="194.1" cy="79.1" r="3.6"></circle>
<circle style="fill:#F6F2E2" cx="185.7" cy="87.4" r="3.4"></circle>
<circle style="fill:#F6F2E2" cx="200.4" cy="90.3" r="4.8"></circle>
<ellipse style="fill:#F0A868" cx="55.5" cy="59.5" rx="11.7" ry="7.5"></ellipse>
<ellipse style="fill:#F0A868" cx="146.8" cy="61.5" rx="11.7" ry="7.5"></ellipse>
<path style="fill:none;stroke:#5A2B2B;stroke-width:5;stroke-linecap:round;stroke-miterlimit:10" d="M72.9,67.1c0,0,5.1,8.5,19.5,8.8c19,0.3,26.9-8.8,26.9-8.8"></path>
<path style="fill:#8BC273" d="M112.2,196.2c-1,0-2-0.2-3-0.6c-1.8-0.6-3-2.2-3.3-4.1c-0.1-0.7,0-1.3,0.1-2l-0.2,0.1c-1.3,0.6-2.7,1-4.1,1c-2.6,0.2-4.9-1.7-5.3-4.4c-0.3-2.2-0.3-9.5,11.8-11.7c1.3-0.2,3.8-2.6,5.7-15.8c1.4-9.6,8-13,13.3-13c4.1,0,7.9,1.8,10.5,4.9c2.8,3.4,3.9,7.9,3,12.2l-0.1,0.2c-0.9,3.4-1.6,6.9-1.9,10.5c-0.8,6.1-1.4,11.3-6.9,18.6c-1.7,2.3-4.4,3.7-7.3,3.9l0,0h-0.6h0.1c-1.4-0.2-2.7-0.9-3.6-2.1c-0.3-0.4-0.5-0.8-0.6-1.2C117.9,195,115.1,196.2,112.2,196.2z"></path>
<path style="fill:#5A2B2B" d="M127.2,148.3c6.3,0,12.6,5.4,11,14.2c-3.4,12.1-0.6,17.9-8.4,28.2c-1.3,1.7-3.2,2.7-5.3,2.9h-0.3c-1.8-0.2-2.9-1.7-2.2-4.9c0.1-1,0.4-1.9-0.8-2.2c-0.1,0-0.3-0.1-0.4-0.1c-0.8,0-1,0.8-1.3,1.5c-0.8,3.4-3.8,5.7-7.3,5.8c-0.7,0-1.4-0.1-2.1-0.4c-2.4-1-3-3.8,2.1-7.8c0.6-0.6,1.2-1.4,0.5-2.2c-0.3-0.2-0.7-0.2-1-0.3c-2,0-3.8,2.9-6.9,4.3c-0.9,0.5-2,0.7-3,0.8c-1.4,0.2-2.7-0.8-2.8-2.2c-0.4-2.8,0.8-7.2,9.8-8.9c4.8-0.9,6.6-10.4,7.7-17.9S122.4,148.4,127.2,148.3 M127.3,143.4c-6.3,0-14.1,4-15.8,15.1c-1.6,10.8-3.4,13.2-3.9,13.7c-14.1,2.7-14,11.8-13.7,14.5v0.1c0.5,3.8,3.9,6.6,7.7,6.5c0.6,0,1.3-0.1,1.9-0.2c0.7,2.2,2.4,4.1,4.6,4.9h0.1c1.3,0.5,2.6,0.8,4,0.8c2.5,0,4.9-0.8,7-2.1c1.2,1.1,2.7,1.8,4.4,2h0.2h0.8c3.6-0.1,7-1.9,9.2-4.7l0.1-0.1c5.9-7.8,6.6-13.6,7.4-19.8c0.3-3.4,1-6.8,1.9-10.1c0-0.1,0.1-0.3,0.1-0.5c1-5-0.2-10.3-3.5-14.3C136.7,145.5,132.2,143.4,127.3,143.4L127.3,143.4z"></path>
<path style="fill:none;stroke:#5A2B2B;stroke-width:5;stroke-linecap:round;stroke-linejoin:round" d="M139.4,150.9"></path>
<path style="fill:#8BC273" d="M69.9,193c-1.2,0-2.5-0.3-3.6-0.8c-2.7-1.2-4.4-3.8-4.4-6.7c-3.9,2.6-7,3.3-8.9,3.3c-2.3,0.1-4.5-0.9-5.8-2.8c-1-1.7-1.2-3.8-0.3-5.6c1.5-3.6,5.8-6.4,11.8-7.7c-1.7-4.3-2.6-8.9-2.7-13.5c-0.2-3.3,0.9-6.5,3.2-9c3.6-3.7,8.7-4.2,11.5-4.2c3.5,0,8.3,1,10.5,3.7c0.9,1.1,1.2,2.5,0.9,3.8c-2.9,14.9,0.2,17.2,3.6,19.6c2.3,1.6,5.1,3.7,5.8,8.8c0,0.1,0,0.2,0,0.3c0.1,2.8-1.7,5.2-4.4,6c-0.7,0.2-1.5,0.4-2.3,0.4l0,0c-2.2,0-4.3-0.8-5.9-2.2c0,0,0,0,0,0.1C77.5,190.2,74,192.8,69.9,193z"></path>
<path style="fill:#5A2B2B" d="M70.7,148.3c5,0,9.5,2,8.9,4.5c-5.1,26.2,7.9,18.3,9.3,29.3c0.1,1.7-1,3.2-2.6,3.6c-0.5,0.2-1,0.2-1.6,0.2c-2.3,0.1-4.4-1.2-5.4-3.2c-0.1-0.3-0.2-0.9-0.8-0.9c-0.1,0-0.3,0-0.4,0.1c-1,0.3-1.2,2.4-1.6,3.5c-0.9,2.9-3.5,4.9-6.5,5c-0.9,0-1.7-0.2-2.5-0.6c-2.5-1-3.7-3.9-2.7-6.4c0,0,0-0.1,0.1-0.1c0.4-0.8,0.3-1.7-0.3-2.3c-0.1-0.1-0.3-0.1-0.5-0.1c-0.6,0.1-1.2,0.4-1.5,1c-3.9,3.1-7.1,4.3-9.5,4.3c-1.5,0.1-2.9-0.5-3.7-1.7c-1.7-2.6,0.9-7.7,10.3-9.6c2.1-0.5,2.5-0.5,1.6-2.7c-1.8-4.2-2.7-8.7-2.7-13.2C58.1,151.1,64.8,148.3,70.7,148.3 M70.6,143.3c-5.5,0-10.2,1.8-13.3,5c-2.7,2.9-4.1,6.8-3.9,10.7c0,4,0.6,8,1.9,11.8c-7.2,2.3-9.9,6.1-10.8,8.4c-1.2,2.6-1,5.6,0.6,8c1.8,2.6,4.8,4.1,7.9,4c2.5-0.1,5-0.7,7.2-1.9c1,2.2,2.8,4,5,5c1.5,0.7,3.1,1.1,4.7,1.1c4-0.1,7.7-2.2,9.8-5.6c1.5,0.7,3.2,1.1,4.9,1.1c1,0,2-0.2,3-0.5c3.7-1.1,6.2-4.5,6.1-8.4c0-0.2,0-0.4,0-0.6c-0.8-6.2-4.4-8.8-6.8-10.6c-2.8-2-5.2-3.7-2.6-17.1c0.5-2.1,0-4.2-1.4-5.9C80.4,144.6,74.9,143.4,70.6,143.3L70.6,143.3z"></path>
<ellipse transform="matrix(0.1105 -0.9939 0.9939 0.1105 -46.6747 226.6566)" style="fill:#8BC273" cx="103.3" cy="139.4" rx="26.5" ry="62.1"></ellipse>
<path style="fill:none;stroke:#5A2B2B;stroke-width:7.488;stroke-linecap:round;stroke-linejoin:round;stroke-miterlimit:12.48" d="M40.5,35.1c3.2-7.4,10.4-12,18-11.5c9.6,0.6,14.4,10.9,14.7,11.5"></path>
<path style="fill:none;stroke:#5A2B2B;stroke-width:7.488;stroke-linecap:round;stroke-linejoin:round;stroke-miterlimit:12.48" d="M136.7,35.1c3.2-7.4,10.4-12,18-11.5c9.6,0.6,14.4,10.9,14.7,11.5"></path>
</svg>