<svg id="Layer_1" data-name="Layer 1" xmlns="http://www.w3.org/2000/svg" xmlns:xlink="http://www.w3.org/1999/xlink" viewBox="0 0 253.6 236.74"><defs><clipPath id="clip-path" transform="translate(-31.2 -117.64)"><circle cx="198" cy="230.74" r="69" style="fill:none"></circle></clipPath></defs><g style="clip-path:url(#clip-path)"><path d="M198,230.74l6-66a69,69,0,0,1,65.7,47.7Z" transform="translate(-31.2 -117.64)" style="fill:#f2879b"></path></g><g style="clip-path:url(#clip-path)"><path d="M198,230.74l71.7-18.3a69,69,0,0,1-25.2,77.1Z" transform="translate(-31.2 -117.64)" style="fill:#e0a052"></path></g><g style="clip-path:url(#clip-path)"><path d="M198,230.74l46.5,58.8a69,69,0,0,1-81,0Z" transform="translate(-31.2 -117.64)" style="fill:#4fc3b8"></path></g><g style="clip-path:url(#clip-path)"><path d="M198,230.74l-34.5,58.8a69,69,0,0,1-25.2-77.1Z" transform="translate(-31.2 -117.64)" style="fill:#7fb8e0"></path></g><g style="clip-path:url(#clip-path)"><path d="M198,230.74l-59.7-18.3a69,69,0,0,1,65.7-47.7Z" transform="translate(-31.2 -117.64)" style="fill:#8bc273"></path></g><g style="clip-path:url(#clip-path)"><path d="M198,230.74l6-66a69,69,0,0,1,65.7,47.7Z" transform="translate(-31.2 -117.64)" style="fill:#f2879b"></path></g><g style="clip-path:url(#clip-path)"><path d="M198,230.74l71.7-18.3a69,69,0,0,1-25.2,77.1Z" transform="translate(-31.2 -117.64)" style="fill:#e0a052"></path></g><g style="clip-path:url(#clip-path)"><path d="M198,230.74l46.5,58.8a69,69,0,0,1-81,0Z" transform="translate(-31.2 -117.64)" style="fill:#4fc3b8"></path></g><g style="clip-path:url(#clip-path)"><path d="M198,230.74l-34.5,58.8a69,69,0,0,1-25.2-77.1Z" transform="translate(-31.2 -117.64)" style="fill:#7fb8e0"></path></g><g style="clip-path:url(#clip-path)"><path d="M198,230.74l-59.7-18.3a69,69,0,0,1,65.7-47.7Z" transform="translate(-31.2 -117.64)" style="fill:#8bc273"></path></g><circle cx="167.1" cy="113.7" r="65.3" style="fill:none;stroke:#5a2b2b;stroke-linecap:round;stroke-linejoin:round;stroke-width:6.85px"></circle><path d="M198,226.24c12.34-7,17.95,15.12,3.9,21.9-15,7.12-31.59-7.79-30-23.4l.9-6,2.7-6,3.9-5.4,5.1-4.5,6.3-3.3,7.2-1.8,7.5-.3,7.8,1.8,7.2,3.3,6.6,5.1,5.1,6.6,3.9,7.8,2.1,8.7V240l-2.1,9-4.2,8.7-6.3,7.5-8.1,6.3-9.3,4.2-10.2,2.4-10.8-.3-10.5-2.7L166.5,270l-8.7-7.2-6.9-9.3-4.8-10.8-2.4-12,.3-12.3,3.3-12.3L153,195l8.7-9.9,10.5-8.1,12.3-5.4,13.5-2.4" transform="translate(-31.2 -117.64)" style="fill:none;stroke:#5a2b2b;stroke-linecap:round;stroke-linejoin:round;stroke-width:8.43px"></path><path d="M134.53,350.48c-21.29,0-43.51-.3-62.59-.84-24.44,0-36.84-7.38-36.84-21.9,0-11.27,5.42-18.81,9.78-24.86,2.42-3.37,4.52-6.28,5.38-9.23,2.11-7.25,0-18.91-2.33-31.26-1.88-10.19-3.83-20.72-3.83-30.65,0-32.1,18.24-51.59,54.22-57.94l.38-.05c1.62-.12,3.22-.19,4.76-.19,12.74,0,22.74,4.28,29.74,12.71,6.77,8.14,10.7,20.3,11.69,36.13,1.93,36.6,2.59,49.16,9.92,59.31,3.43,3,14.91,11.21,28.11,13.7A100.38,100.38,0,0,0,201,297c8.1,0,14.08-.91,16.75-1.7a44.82,44.82,0,0,1,12.94-1.82,80.76,80.76,0,0,1,18.77,2.68c1.24.29,2.37.56,3.37.76,12.08,2.42,20.39,7.08,24.68,13.87,3.59,5.67,4.37,12.7,2.32,20.9a3.86,3.86,0,0,1-.7,1.44c-.21.27-.41.58-.64.92-3,4.44-7.39,9.34-21.62,11.26C223.82,349.81,166,350.48,134.53,350.48Z" transform="translate(-31.2 -117.64)" style="fill:#f8e8ce"></path><path d="M103.46,177.46q34.73,0,37.54,45.18c2,38,2.7,50.6,10.9,61.7,3.7,3.4,16,12.2,30.3,14.9A103.44,103.44,0,0,0,201,300.9c7.79,0,14.36-.83,17.85-1.86a41,41,0,0,1,11.84-1.66c8.78,0,16.55,2.39,21.36,3.36q30,6,24,30c-2.1,2.7-4.1,8.6-19.7,10.7-28.17,3.85-76.83,5.14-121.77,5.14-22.87,0-44.76-.33-62.53-.84q-33,0-33-18c0-16,12.2-23.4,15-33,4.2-14.4-6-41-6-63q0-45.15,51-54.1c1.53-.12,3-.18,4.46-.18m0-7.8v0c-1.65,0-3.35.07-5.07.2-.25,0-.5.06-.76.1C79,173.24,64.71,180.09,55.08,190.3,45.2,200.77,40.2,214.71,40.2,231.74c0,10.29,2,21,3.9,31.36,2.09,11.36,4.27,23.1,2.41,29.46-.67,2.3-2.58,5-4.8,8-4.43,6.16-10.51,14.61-10.51,27.14,0,8.92,4.26,15.95,12.31,20.35,6.71,3.66,16,5.44,28.38,5.45,19.09.54,41.33.84,62.64.84,31.6,0,89.59-.68,122.82-5.21,15.07-2,20.59-7.42,24.32-12.94.18-.27.39-.58.49-.7a8,8,0,0,0,1.41-2.9c2.31-9.27,1.37-17.32-2.81-23.92-4.89-7.73-14.05-13-27.23-15.62-.89-.18-2-.43-3.23-.73a84.23,84.23,0,0,0-19.66-2.78,49,49,0,0,0-14.09,2c-2.56.76-8.41,1.53-15.6,1.53a95.4,95.4,0,0,1-17.32-1.53c-12-2.26-22.4-9.5-25.91-12.49-6.16-8.78-7-19.53-8.93-56.85v-.08c-1-16.67-5.27-29.58-12.57-38.38-7.78-9.36-18.8-14.11-32.74-14.11Z" transform="translate(-31.2 -117.64)" style="fill:#5a2b2b"></path><path d="M111,195.34a4.74,4.74,0,0,1-.75-.06,4.5,4.5,0,0,1-3.7-5.18l7.5-45a4.5,4.5,0,1,1,8.88,1.48l-7.5,45A4.5,4.5,0,0,1,111,195.34Zm-33,0a4.5,4.5,0,0,1-4.43-3.76l-7.5-45a4.5,4.5,0,1,1,8.88-1.48l7.5,45a4.5,4.5,0,0,1-3.7,5.18A4.74,4.74,0,0,1,78,195.34Z" transform="translate(-31.2 -117.64)" style="fill:#5a2b2b"></path><path d="M69,152.14a15.3,15.3,0,1,1,15.3-15.3A15.31,15.31,0,0,1,69,152.14Z" transform="translate(-31.2 -117.64)" style="fill:#f8e8ce"></path><path d="M69,125.44a11.4,11.4,0,1,1-11.4,11.4A11.4,11.4,0,0,1,69,125.44m0-7.8a19.2,19.2,0,1,0,19.2,19.2A19.22,19.22,0,0,0,69,117.64Z" transform="translate(-31.2 -117.64)" style="fill:#5a2b2b"></path><path d="M120,152.14a15.3,15.3,0,1,1,15.3-15.3A15.31,15.31,0,0,1,120,152.14Z" transform="translate(-31.2 -117.64)" style="fill:#f8e8ce"></path><path d="M120,125.44a11.4,11.4,0,1,1-11.4,11.4,11.4,11.4,0,0,1,11.4-11.4m0-7.8a19.2,19.2,0,1,0,19.2,19.2,19.22,19.22,0,0,0-19.2-19.2Z" transform="translate(-31.2 -117.64)" style="fill:#5a2b2b"></path><ellipse cx="43.8" cy="111" rx="13.8" ry="15.1" style="fill:#3a2320"></ellipse><circle cx="40.2" cy="105.3" r="5.8" style="fill:#fff"></circle><circle cx="48.2" cy="115.8" r="2.8" style="fill:#fff"></circle><ellipse cx="82.8" cy="111" rx="13.8" ry="15.1" style="fill:#3a2320"></ellipse><circle cx="79.2" cy="105.3" r="5.8" style="fill:#fff"></circle><circle cx="87.2" cy="115.8" r="2.8" style="fill:#fff"></circle><path d="M84,258.64q10.5,10.5,21,0" transform="translate(-31.2 -117.64)" style="fill:none;stroke:#5a2b2b;stroke-linecap:round;stroke-linejoin:round;stroke-width:7.90px"></path><ellipse cx="30" cy="135" rx="10.2" ry="6.6" style="fill:#f4a6b4"></ellipse><ellipse cx="93.15" cy="135" rx="10.2" ry="6.6" style="fill:#f4a6b4"></ellipse></svg>