<svg xmlns="http://www.w3.org/2000/svg" xmlns:xlink="http://www.w3.org/1999/xlink" viewBox="0 0 261.46 240.7">
<defs><clipPath id="clip-path"><circle cx="170.7" cy="113.1" r="69" style="fill: none"></circle></clipPath></defs>
<g style="clip-path: url(#clip-path)"><path d="M170.7,113.1l6-66a69,69,0,0,1,65.7,47.7Z" style="fill: #f2879b"></path></g>
<g style="clip-path: url(#clip-path)"><path d="M170.7,113.1l71.7-18.3a69,69,0,0,1-25.2,77.1Z" style="fill: #e0a052"></path></g>
<g style="clip-path: url(#clip-path)"><path d="M170.7,113.1l46.5,58.8a69,69,0,0,1-81,0Z" style="fill: #4fc3b8"></path></g>
<g style="clip-path: url(#clip-path)"><path d="M170.7,113.1l-34.5,58.8A69,69,0,0,1,111,94.8Z" style="fill: #7fb8e0"></path></g>
<g style="clip-path: url(#clip-path)"><path d="M170.7,113.1,111,94.8a69,69,0,0,1,65.7-47.7Z" style="fill: #8bc273"></path></g>
<circle cx="171" cy="113.7" r="65.3" style="fill: none;stroke: #5a2b2b;stroke-linecap: round;stroke-linejoin: round;stroke-width: 7.8px"></circle>
<path d="M170.7,108.6c12.3-7,18,15.1,3.9,21.9-15,7.1-31.6-7.8-30-23.4l.9-6,2.7-6,3.9-5.4,5.1-4.5,6.3-3.3,7.2-1.8,7.5-.3,7.8,1.8,7.2,3.3,6.6,5.1,5.1,6.6,3.9,7.8,2.1,8.7v9.3l-2.1,9-4.2,8.7-6.3,7.5-8.1,6.3-9.3,4.2-10.2,2.4-10.8-.3-10.5-2.7-10.2-5.1-8.7-7.2-6.9-9.3-4.8-10.8-2.4-12,.3-12.3L120,88.5l5.7-11.1,8.7-9.9,10.5-8.1L157.2,54l13.5-2.4" style="fill: none;stroke: #5a2b2b;stroke-linecap: round;stroke-linejoin: round;stroke-width: 9.6px"></path>
<g>
<path d="M107.2,236.8c-20.68,0-42.93-.28-62.65-.8C11,236,3.9,222,3.9,210.2c0-12.57,6.09-21,10.54-27.18l.28-.4c2.08-3,3.88-5.49,4.56-7.68,1.86-6.39-.41-18.63-2.41-29.43C15.05,135.79,13,124.76,13,114.2c0-17,4.93-30.9,14.65-41.29s24-17.17,42.78-20.45a3.79,3.79,0,0,1,.67-.06h.28c1.59-.1,3.23-.2,4.92-.2,13.9,0,24.9,4.75,32.7,14.1,7.29,8.69,11.53,21.6,12.59,38.35,1.79,34.52,2.48,47.69,8.92,56.91,3.51,3,14,10.26,25.92,12.51a100,100,0,0,0,17.27,1.53c8.36,0,13.71-1,15.55-1.53a49.16,49.16,0,0,1,14-2A81.71,81.71,0,0,1,223,174.88c1.18.3,2.34.59,3.23.76,13.16,2.61,22.32,7.88,27.24,15.65,4.19,6.64,5.14,14.68,2.8,23.87a7.43,7.43,0,0,1-1.31,2.75l-.55.83c-3.76,5.51-9.29,10.88-24.3,13C196.4,236.15,138.63,236.8,107.2,236.8Z" style="fill: #f8e8ce"></path>
<path d="M76.3,56.1C89,56.1,99,60.4,106,68.8c6.8,8.1,10.7,20.3,11.7,36.1,1.9,36.6,2.6,49.2,9.9,59.3,3.4,3,14.9,11.2,28.1,13.7a103.4,103.4,0,0,0,18,1.6c8.1,0,14.1-.9,16.7-1.7a45.06,45.06,0,0,1,12.9-1.8,78.08,78.08,0,0,1,18.8,2.7c1.2.3,2.4.6,3.4.8,12.1,2.4,20.4,7.1,24.7,13.9,3.6,5.7,4.4,12.7,2.3,20.9a3.69,3.69,0,0,1-.7,1.4l-.6.9c-3,4.4-7.4,9.3-21.6,11.3-33.1,4.3-90.9,5-122.4,5-21.3,0-43.5-.3-62.6-.8-24.4,0-36.8-7.4-36.8-21.9,0-11.3,5.4-18.8,9.8-24.9,2.4-3.4,4.5-6.3,5.4-9.2,2.1-7.2,0-18.9-2.3-31.3-1.9-10.2-3.8-20.7-3.8-30.6,0-32.1,18.2-51.6,54.2-57.9h.4c1.6-.1,3.2-.2,4.8-.2m0-7.8c-1.76,0-3.43.1-5,.2h-.2a7.5,7.5,0,0,0-1.34.12C19.62,57.4,9.1,89.12,9.1,114.2c0,10.92,2.18,22.62,3.93,32,1.82,9.81,4.09,22,2.5,27.62-.52,1.59-2.21,4-4,6.52l-.28.4C6.5,187.4,0,196.4,0,210.2c0,10,4.52,18,13.06,23.09,7.45,4.44,17.73,6.6,31.44,6.61,19.74.52,42,.8,62.7.8,31.53,0,89.48-.66,123.4-5.06h.09c16.51-2.32,22.71-8.4,26.95-14.63l.05-.06.3-.45.2-.31a11.25,11.25,0,0,0,1.9-4.07c2.6-10.25,1.49-19.29-3.3-26.87-5.5-8.71-15.52-14.55-29.77-17.38-.81-.16-1.93-.44-3-.72a85.67,85.67,0,0,0-20.7-2.93,52.8,52.8,0,0,0-15.14,2.13h-.05c-1.77.55-7.07,1.36-14.41,1.36a96.16,96.16,0,0,1-16.59-1.47c-10.57-2-20.23-8.51-23.69-11.33-5.29-7.89-6.1-19.15-7.93-54.4v-.11C124.4,86.79,119.85,73.13,112,63.77c-8.43-10.12-20.77-15.48-35.67-15.48Z" style="fill: #5a2b2b"></path>
</g>
<path d="M83.7,77.7a1.66,1.66,0,0,1-.7-.1,4.47,4.47,0,0,1-3.72-5.1s0-.07,0-.1l7.5-45a4.51,4.51,0,1,1,8.9,1.5l-7.5,45A4.51,4.51,0,0,1,83.7,77.7Zm-33,0a4.42,4.42,0,0,1-4.4-3.8l-7.5-45a4.51,4.51,0,0,1,8.9-1.5l7.5,45a4.46,4.46,0,0,1-3.6,5.18l-.1,0A2.41,2.41,0,0,1,50.7,77.7Z" style="fill: #5a2b2b"></path>
<g>
<path d="M41.7,34.5A15.3,15.3,0,1,1,57,19.2,15.3,15.3,0,0,1,41.7,34.5Z" style="fill: #f8e8ce"></path>
<path d="M41.7,7.8A11.4,11.4,0,1,1,30.3,19.2,11.39,11.39,0,0,1,41.7,7.8h0m0-7.8A19.2,19.2,0,1,0,60.9,19.2,19.2,19.2,0,0,0,41.7,0Z" style="fill: #5a2b2b"></path>
</g>
<g>
<path d="M92.7,34.5A15.3,15.3,0,1,1,108,19.2,15.3,15.3,0,0,1,92.7,34.5Z" style="fill: #f8e8ce"></path>
<path d="M92.7,7.8A11.4,11.4,0,1,1,81.3,19.2,11.39,11.39,0,0,1,92.7,7.8h0m0-7.8a19.2,19.2,0,1,0,19.2,19.2A19.2,19.2,0,0,0,92.7,0Z" style="fill: #5a2b2b"></path>
</g>
<path d="M56.7,141q10.5,10.5,21,0" style="fill: none;stroke: #5a2b2b;stroke-linecap: round;stroke-linejoin: round;stroke-width: 5px"></path>
<ellipse cx="33.9" cy="135" rx="10.2" ry="6.6" style="fill: #f4a6b4"></ellipse>
<ellipse cx="97.1" cy="135" rx="10.2" ry="6.6" style="fill: #f4a6b4"></ellipse>
<path d="M30.54,118.16a16.31,16.31,0,0,1,15.8-10.1c8.43.54,12.67,9.61,12.93,10.1" style="fill: none;stroke: #5a2b2b;stroke-linecap: round;stroke-linejoin: round;stroke-width: 5px"></path>
<path d="M75.13,118.16a16.3,16.3,0,0,1,15.79-10.1c8.43.54,12.67,9.61,12.94,10.1" style="fill: none;stroke: #5a2b2b;stroke-linecap: round;stroke-linejoin: round;stroke-width: 5px"></path>
</svg>