<svg id="Layer_1" data-name="Layer 1" xmlns="http://www.w3.org/2000/svg" viewBox="0 0 226.97 253.5">
  <g>
    <path d="M138.5,355.6a3.88,3.88,0,0,1-3.1-1.5c-1.8-2.3-3.2-6.2.6-11.6,2.1-2.9,5.5-6.1,9.4-9.7l.5-.4a30.61,30.61,0,0,1,5.4-4.2v-5.3a8.8,8.8,0,0,1,17.6,0V331c.5.5,1,1.1,1.6,1.8,6.2,7.5,3.3,14.7-.4,20.8a4.2,4.2,0,0,1-3.3,1.9h-.1a4,4,0,0,1-3.2-1.7c-1.1-1.6-2.4-2.5-3.9-2.5s-3,1-4.2,2.7a3.73,3.73,0,0,1-3.2,1.7A4,4,0,0,1,149,354c-1.1-1.6-2.4-2.6-3.6-2.6s-2.5.9-3.6,2.6a3.79,3.79,0,0,1-3.1,1.7A.31.31,0,0,0,138.5,355.6Z" transform="translate(-22.2 -106.1)" style="fill: #f0a340"></path>
    <path d="M160.1,318a4.91,4.91,0,0,1,4.9,4.9v7.5a4.06,4.06,0,0,1-.4,1.9,20.87,20.87,0,0,1,2.9,3c4.2,5.1,3.1,9.9-.8,16.3a8.68,8.68,0,0,0-7.1-4.2,9,9,0,0,0-7.4,4.4c-1.9-2.9-4.4-4.3-6.8-4.3s-4.9,1.4-6.8,4.3c-3.3-4.2,2.3-9.3,10-16.4a25.84,25.84,0,0,1,6.7-4.7V323a4.79,4.79,0,0,1,4.8-5m0-7.8a12.72,12.72,0,0,0-12.7,12.7v3.2c-1.4,1-2.7,2.1-4.2,3.4l-.5.4c-4.1,3.7-7.6,7-9.9,10.3-5.7,8.1-2.3,14.1-.5,16.3a7.63,7.63,0,0,0,6.1,2.9h.3a7.83,7.83,0,0,0,6.2-3.5c.1-.2.2-.3.3-.5a2.19,2.19,0,0,1,.3.5,7.72,7.72,0,0,0,6.5,3.5,7.85,7.85,0,0,0,6.5-3.5,2.38,2.38,0,0,1,.9-.9,4.3,4.3,0,0,1,.7.7,7.72,7.72,0,0,0,6.5,3.5h.2a7.87,7.87,0,0,0,6.5-3.8c2.4-4,8.9-14.7.1-25.3a5,5,0,0,0-.7-.8v-6.5a12.55,12.55,0,0,0-12.6-12.6Z" transform="translate(-22.2 -106.1)" style="fill: #5a2b2b"></path>
  </g>
  <path d="M174.3,251.9c24.5,0,45.1,11.2,50.9,39.1a45.19,45.19,0,0,0,8.1-8.5,38.14,38.14,0,0,1-.2,7.3,63.34,63.34,0,0,0,8.3-9.1s.6,10.4-2.4,16.4a23.17,23.17,0,0,1-3.7,5.4,39.49,39.49,0,0,0,5.1-1.9s-2.8,8.4-7.3,11.6A15.53,15.53,0,0,1,226,315c-4.4,17.1-25.8,20.9-51.6,20.9-29,0-52.5-4.7-52.5-27.9-.1-37.5,23.4-56.1,52.4-56.1m0-7.8c-17.1,0-31.8,5.6-42.6,16.2-11.6,11.4-17.7,27.8-17.7,47.6,0,13.9,6.9,24.2,20.1,29.8,9.4,4,22.1,5.9,40.2,5.9,22.7,0,49.2-2.6,57.6-22.2a21.7,21.7,0,0,0,5.6-3c6.2-4.4,9.6-13.6,10.2-15.4a7.79,7.79,0,0,0-.4-6c2.2-7,1.9-15.1,1.8-16.8a7.92,7.92,0,0,0-5.6-7.1,8.33,8.33,0,0,0-2.2-.3,7.87,7.87,0,0,0-5.6,2.3c-.2-.1-.3-.1-.5-.2a7.61,7.61,0,0,0-2.1-.3,7.46,7.46,0,0,0-4.6,1.5c-9-20.5-28.2-32-54.2-32Z" transform="translate(-22.2 -106.1)" style="fill: #5a2b2b"></path>
  <path d="M238.9,297c3-6,2.4-16.4,2.4-16.4a63.34,63.34,0,0,1-8.3,9.1,38.23,38.23,0,0,0,.2-7.3s-4.7,6.5-9.5,9.5c-5.3,3.3-8.9,3.1-8.9,3.1l.9,18s8.7,5,17.2-1c4.5-3.2,7.3-11.6,7.3-11.6a48.26,48.26,0,0,1-5.1,1.9A18.52,18.52,0,0,0,238.9,297Z" transform="translate(-22.2 -106.1)" style="fill: #f5d06b"></path>
  <path d="M174.3,251.9c29,0,52.5,15.6,52.5,56,0,23.2-23.5,27.9-52.5,27.9s-52.5-4.7-52.5-27.9C121.8,270.5,145.3,251.9,174.3,251.9Z" transform="translate(-22.2 -106.1)" style="fill: #f5d06b"></path>
  <g>
    <path d="M179.6,355.8a3.88,3.88,0,0,1-3.1-1.5c-1.8-2.3-3.2-6.2.6-11.6,2.1-2.9,5.5-6.1,9.4-9.7l.5-.4a30.61,30.61,0,0,1,5.4-4.2v-5.3a8.8,8.8,0,0,1,17.6,0v8.1c.5.5,1,1.1,1.6,1.8,6.2,7.5,3.3,14.7-.4,20.8a4.2,4.2,0,0,1-3.3,1.9h-.1a4,4,0,0,1-3.2-1.7c-1.1-1.6-2.4-2.5-3.9-2.5s-3,1-4.2,2.7a3.73,3.73,0,0,1-3.2,1.7h0a4,4,0,0,1-3.2-1.7c-1.1-1.6-2.4-2.6-3.6-2.6s-2.5.9-3.6,2.6a3.79,3.79,0,0,1-3.1,1.7A.31.31,0,0,0,179.6,355.8Z" transform="translate(-22.2 -106.1)" style="fill: #f0a340"></path>
    <path d="M201.2,318.2a4.91,4.91,0,0,1,4.9,4.9v7.5a4.06,4.06,0,0,1-.4,1.9,20.87,20.87,0,0,1,2.9,3c4.2,5.1,3.1,9.9-.8,16.3a8.68,8.68,0,0,0-7.1-4.2,9,9,0,0,0-7.4,4.4c-1.9-2.9-4.4-4.3-6.8-4.3s-4.9,1.4-6.8,4.3c-3.3-4.2,2.3-9.3,10-16.4a25.84,25.84,0,0,1,6.7-4.7v-7.7a4.79,4.79,0,0,1,4.8-5m0-7.8a12.72,12.72,0,0,0-12.7,12.7v3.2c-1.4,1-2.7,2.1-4.2,3.4l-.5.4c-4.1,3.7-7.6,7-9.9,10.3-5.7,8.1-2.3,14.1-.5,16.3a7.63,7.63,0,0,0,6.1,2.9h.3a7.83,7.83,0,0,0,6.2-3.5c.1-.2.2-.3.3-.5a2.19,2.19,0,0,1,.3.5,7.72,7.72,0,0,0,6.5,3.5,7.85,7.85,0,0,0,6.5-3.5,2.38,2.38,0,0,1,.9-.9,4.3,4.3,0,0,1,.7.7,7.72,7.72,0,0,0,6.5,3.5h.2a7.87,7.87,0,0,0,6.5-3.8c2.4-4,8.9-14.7.1-25.3a5,5,0,0,0-.7-.8V323a12.55,12.55,0,0,0-12.6-12.6Z" transform="translate(-22.2 -106.1)" style="fill: #5a2b2b"></path>
  </g>
  <ellipse cx="42.2" cy="135.1" rx="12.7" ry="8.2" style="fill: #f4a6b4"></ellipse>
  <g>
    <path d="M203.6,316.3a12.26,12.26,0,0,1-9-4.3,12.38,12.38,0,0,1-7.6,2.5,20.28,20.28,0,0,1-11.7-4.1c-9.4-5.9-14.1-19.5-14.7-30.3-.2-3.2-.1-10.9,3.6-13.8l.4-.3.4-.1a68.42,68.42,0,0,1,14.7-1.5c17.4,0,32.2,5.4,39.7,14.5q7.65,9.3,5.1,22.5c-.8,6-5.7,9.8-12.8,9.8h0a9.15,9.15,0,0,1-1.7-.1,5.24,5.24,0,0,1-1.3,3A6,6,0,0,1,203.6,316.3Z" transform="translate(-22.2 -106.1)" style="fill: #f5d06b"></path>
    <path d="M179.7,266.4c22.1,0,47.7,9.7,42.8,34.7-.8,5.7-5.7,8.1-10.8,8.1a15.81,15.81,0,0,1-3.8-.4c.7,3.9-1.5,5.5-4.3,5.5-3.3,0-7.4-2.2-8.5-5.6a9.83,9.83,0,0,1-8.1,3.8,18.49,18.49,0,0,1-10.6-3.8c-14.1-8.8-16.8-36.4-11-40.9a71.5,71.5,0,0,1,14.3-1.4m0-4a66,66,0,0,0-15.1,1.6l-.9.2-.7.5c-4.3,3.3-4.6,11.1-4.4,15.5.6,11.3,5.6,25.6,15.5,31.9a22.62,22.62,0,0,0,12.8,4.5,14.69,14.69,0,0,0,7.3-1.9,14.22,14.22,0,0,0,9.2,3.7,8.41,8.41,0,0,0,6.7-2.9,8.19,8.19,0,0,0,1.3-2.3h.2c8,0,13.7-4.5,14.7-11.4,1.8-9.3-.1-17.6-5.5-24.1-7.7-9.6-23.1-15.3-41.1-15.3Z" transform="translate(-22.2 -106.1)" style="fill: #5a2b2b"></path>
  </g>
  <path d="M209.6,302.5a2,2,0,0,1-2-2c0-12.3-18.4-26.9-33.9-26.9a2,2,0,0,1,0-4c17.7,0,37.9,16.5,37.9,30.9A2,2,0,0,1,209.6,302.5Z" transform="translate(-22.2 -106.1)" style="fill: #de7a28"></path>
  <circle cx="102.6" cy="117" r="73.1" style="fill: #f5d06b"></circle>
  <path d="M120.4,155.4c-9.9-22.4-5.1-45.1,7.5-41,7.1,2.4,3.7,18.5,6.2,26,7.5-22.4,27.2-27,31.1-18.5s-8.7,28.6-18.6,33.6H120.4Z" transform="translate(-22.2 -106.1)" style="fill: #f5d06b"></path>
  <ellipse cx="104.48" cy="107.88" rx="18.18" ry="19.31" style="fill: #3a2320"></ellipse>
  <circle cx="99.87" cy="100.48" r="7.66" style="fill: #fff"></circle>
  <ellipse cx="58.63" cy="108.75" rx="18.18" ry="19.31" style="fill: #3a2320"></ellipse>
  <circle cx="53.93" cy="101.35" r="7.66" style="fill: #fff"></circle>
  <circle cx="110.39" cy="114.06" r="3.65" style="fill: #fff"></circle>
  <circle cx="66.63" cy="114.32" r="3.65" style="fill: #fff"></circle>
  <ellipse cx="131.7" cy="131.4" rx="13.4" ry="8.9" style="fill: #f4a6b4"></ellipse>
  <path d="M44.2,235.4c-18.6,3.7-18.6,22.4,0,26.1-7.5,7.5,3.7,14.9,14.9,11.2l44.7-7.5c14.9-3.7,14.9-33.6,0-37.3Z" transform="translate(-22.2 -106.1)" style="fill: #f0a340"></path>
  <path d="M58.1,258.6a2.35,2.35,0,0,1-2.3-2,2.28,2.28,0,0,1,2-2.6l41.5-6a2.32,2.32,0,0,1,.6,4.6l-41.5,6Z" transform="translate(-22.2 -106.1)" style="fill: #de7a28"></path>
  <path d="M125,113.9a9.75,9.75,0,0,1,2.8.5c7.1,2.4,3.7,18.5,6.2,26,5.2-15.5,16.3-22.5,23.9-22.5,3.4,0,6,1.4,7.2,4,3.6,7.8-6.9,25.5-16.3,32.1A73.08,73.08,0,1,1,69.6,270.9l-10.5,1.8a18.85,18.85,0,0,1-6,1c-8.6,0-15-6.1-8.9-12.2-18.6-3.7-18.6-22.4,0-26.1l8.4-1.1a69.87,69.87,0,0,1-.9-11.3,73.11,73.11,0,0,1,66.6-72.8c-6.5-18.7-2.9-36.3,6.7-36.3m0-7.8a15.4,15.4,0,0,0-12.8,6.9c-5,7-6.2,18.5-3.7,30.8a81.07,81.07,0,0,0-64.6,79.3c0,1.5,0,3,.1,4.5l-.9.1c-.2,0-.4.1-.6.1-12.3,2.5-20.3,10.6-20.3,20.7,0,7.5,4.3,13.9,11.6,17.7a13.72,13.72,0,0,0,1,5.2c2.6,6.2,9.7,10.2,18.1,10.2a26.56,26.56,0,0,0,7.9-1.2l5.8-1a80.88,80.88,0,1,0,95.8-127.8c7.7-9.6,14.1-23.2,9.7-32.8-2.4-5.3-7.8-8.5-14.3-8.5-5.7,0-12.5,2.5-18.5,7.8-1.2-4.9-3.7-9.1-9.1-10.9a12.17,12.17,0,0,0-5.2-1.1Z" transform="translate(-22.2 -106.1)" style="fill: #5a2b2b"></path>
</svg>