<svg xmlns="http://www.w3.org/2000/svg" viewBox="0 0 227 253.5">
<g>
<path style="fill:#F0A340" d="M116.3,249.5c-1.2,0-2.4-0.5-3.1-1.5c-1.8-2.3-3.2-6.2,0.6-11.6c2.1-2.9,5.5-6.1,9.4-9.7l0.5-0.4c1.6-1.6,3.4-3,5.4-4.2v-5.3c0-4.9,3.9-8.8,8.8-8.8s8.8,3.9,8.8,8.8v8.1c0.5,0.5,1,1.1,1.6,1.8c6.2,7.5,3.3,14.7-0.4,20.8c-0.7,1.1-2,1.8-3.3,1.9h-0.1c-1.3,0-2.5-0.7-3.2-1.7c-1.1-1.6-2.4-2.5-3.9-2.5s-3,1-4.2,2.7c-0.7,1.1-1.9,1.7-3.2,1.7c-1.3,0-2.5-0.7-3.2-1.7c-1.1-1.6-2.4-2.6-3.6-2.6s-2.5,0.9-3.6,2.6c-0.7,1-1.8,1.7-3.1,1.7C116.4,249.5,116.4,249.5,116.3,249.5z"></path>
<path style="fill:#5A2B2B" d="M137.9,211.9c2.7,0,4.9,2.2,4.9,4.9v7.5c0,0.7-0.1,1.3-0.4,1.9c1.1,0.9,2,1.9,2.9,3c4.2,5.1,3.1,9.9-0.8,16.3c-1.5-2.5-4.2-4.1-7.1-4.2c-3.1,0.1-5.8,1.8-7.4,4.4c-1.9-2.9-4.4-4.3-6.8-4.3s-4.9,1.4-6.8,4.3c-3.3-4.2,2.3-9.3,10-16.4c2-1.9,4.2-3.5,6.7-4.7v-7.7c-0.1-2.6,1.9-4.9,4.6-5C137.8,211.9,137.8,211.9,137.9,211.9 M137.9,204.1c-7,0-12.7,5.7-12.7,12.7v3.2c-1.4,1-2.7,2.1-4.2,3.4l-0.5,0.4c-4.1,3.7-7.6,7-9.9,10.3c-5.7,8.1-2.3,14.1-0.5,16.3c1.5,1.9,3.7,2.9,6.1,2.9h0.3c2.5-0.1,4.8-1.4,6.2-3.5c0.1-0.2,0.2-0.3,0.3-0.5c0.1,0.2,0.2,0.3,0.3,0.5c1.4,2.2,3.9,3.5,6.5,3.5c2.6,0,5.1-1.3,6.5-3.5c0.2-0.4,0.5-0.7,0.9-0.9c0.3,0.2,0.5,0.4,0.7,0.7c1.4,2.2,3.9,3.5,6.5,3.5h0.2c2.7-0.1,5.1-1.5,6.5-3.8c2.4-4,8.9-14.7,0.1-25.3c-0.2-0.3-0.4-0.6-0.7-0.8v-6.5c0-6.9-5.6-12.6-12.5-12.6C138,204.1,137.9,204.1,137.9,204.1L137.9,204.1z"></path>
</g>
<path style="fill:#5A2B2B" d="M152.1,145.8c24.5,0,45.1,11.2,50.9,39.1c3.1-2.5,5.8-5.3,8.1-8.5c0.2,2.4,0.1,4.9-0.2,7.3c3.1-2.8,5.8-5.8,8.3-9.1c0,0,0.6,10.4-2.4,16.4c-1,2-2.2,3.8-3.7,5.4c1.7-0.5,3.4-1.2,5.1-1.9c0,0-2.8,8.4-7.3,11.6c-2.1,1.5-4.5,2.5-7.1,2.8c-4.4,17.1-25.8,20.9-51.6,20.9c-29,0-52.5-4.7-52.5-27.9C99.6,164.4,123.1,145.8,152.1,145.8 M152.1,138c-17.1,0-31.8,5.6-42.6,16.2c-11.6,11.4-17.7,27.8-17.7,47.6c0,13.9,6.9,24.2,20.1,29.8c9.4,4,22.1,5.9,40.2,5.9c22.7,0,49.2-2.6,57.6-22.2c2-0.7,3.9-1.7,5.6-3c6.2-4.4,9.6-13.6,10.2-15.4c0.7-2,0.5-4.1-0.4-6c2.2-7,1.9-15.1,1.8-16.8c-0.2-3.3-2.4-6.1-5.6-7.1c-0.7-0.2-1.5-0.3-2.2-0.3c-2.1,0-4.1,0.8-5.6,2.3c-0.2-0.1-0.3-0.1-0.5-0.2c-0.7-0.2-1.4-0.3-2.1-0.3c-1.7,0-3.3,0.5-4.6,1.5C197.3,149.5,178.1,138,152.1,138L152.1,138z"></path>
<path style="fill:#F5D06B" d="M216.7,190.9c3-6,2.4-16.4,2.4-16.4c-2.5,3.3-5.2,6.3-8.3,9.1c0.3-2.4,0.4-4.9,0.2-7.3c0,0-4.7,6.5-9.5,9.5c-5.3,3.3-8.9,3.1-8.9,3.1l0.9,18c0,0,8.7,5,17.2-1c4.5-3.2,7.3-11.6,7.3-11.6c-1.7,0.7-3.4,1.4-5.1,1.9C214.5,194.7,215.8,192.9,216.7,190.9z"></path>
<path style="fill:#F5D06B" d="M152.1,145.8c29,0,52.5,15.6,52.5,56c0,23.2-23.5,27.9-52.5,27.9s-52.5-4.7-52.5-27.9C99.6,164.4,123.1,145.8,152.1,145.8z"></path>
<g>
<path style="fill:#F0A340" d="M157.4,249.7c-1.2,0-2.4-0.5-3.1-1.5c-1.8-2.3-3.2-6.2,0.6-11.6c2.1-2.9,5.5-6.1,9.4-9.7l0.5-0.4c1.6-1.6,3.4-3,5.4-4.2V217c0-4.9,3.9-8.8,8.8-8.8s8.8,3.9,8.8,8.8l0,0v8.1c0.5,0.5,1,1.1,1.6,1.8c6.2,7.5,3.3,14.7-0.4,20.8c-0.7,1.1-2,1.8-3.3,1.9h-0.1c-1.3,0-2.5-0.7-3.2-1.7c-1.1-1.6-2.4-2.5-3.9-2.5s-3,1-4.2,2.7c-0.7,1.1-1.9,1.7-3.2,1.7l0,0c-1.3,0-2.5-0.7-3.2-1.7c-1.1-1.6-2.4-2.6-3.6-2.6s-2.5,0.9-3.6,2.6c-0.7,1-1.8,1.7-3.1,1.7C157.5,249.7,157.5,249.7,157.4,249.7z"></path>
<path style="fill:#5A2B2B" d="M179,212.1c2.7,0,4.9,2.2,4.9,4.9v7.5c0,0.7-0.1,1.3-0.4,1.9c1.1,0.9,2,1.9,2.9,3c4.2,5.1,3.1,9.9-0.8,16.3c-1.5-2.5-4.2-4.1-7.1-4.2c-3.1,0.1-5.8,1.8-7.4,4.4c-1.9-2.9-4.4-4.3-6.8-4.3s-4.9,1.4-6.8,4.3c-3.3-4.2,2.3-9.3,10-16.4c2-1.9,4.2-3.5,6.7-4.7v-7.7c-0.1-2.6,1.9-4.9,4.6-5C178.9,212.1,178.9,212.1,179,212.1 M179,204.3c-7,0-12.7,5.7-12.7,12.7v3.2c-1.4,1-2.7,2.1-4.2,3.4l-0.5,0.4c-4.1,3.7-7.6,7-9.9,10.3c-5.7,8.1-2.3,14.1-0.5,16.3c1.5,1.9,3.7,2.9,6.1,2.9h0.3c2.5-0.1,4.8-1.4,6.2-3.5c0.1-0.2,0.2-0.3,0.3-0.5c0.1,0.2,0.2,0.3,0.3,0.5c1.4,2.2,3.9,3.5,6.5,3.5c2.6,0,5.1-1.3,6.5-3.5c0.2-0.4,0.5-0.7,0.9-0.9c0.3,0.2,0.5,0.4,0.7,0.7c1.4,2.2,3.9,3.5,6.5,3.5h0.2c2.7-0.1,5.1-1.5,6.5-3.8c2.4-4,8.9-14.7,0.1-25.3c-0.2-0.3-0.4-0.6-0.7-0.8v-6.5c0-6.9-5.6-12.6-12.5-12.6C179.1,204.3,179,204.3,179,204.3L179,204.3z"></path>
</g>
<ellipse style="fill:#F4A6B4" cx="42.2" cy="135.1" rx="12.7" ry="8.2"></ellipse>
<g>
<path style="fill:#F5D06B" d="M181.4,210.2c-3.5-0.1-6.7-1.7-9-4.3c-2.2,1.7-4.9,2.5-7.6,2.5c-4.2-0.1-8.3-1.5-11.7-4.1c-9.4-5.9-14.1-19.5-14.7-30.3c-0.2-3.2-0.1-10.9,3.6-13.8l0.4-0.3l0.4-0.1c4.8-1,9.8-1.5,14.7-1.5c17.4,0,32.2,5.4,39.7,14.5c5.1,6.2,6.8,13.7,5.1,22.5c-0.8,6-5.7,9.8-12.8,9.8l0,0c-0.6,0-1.1,0-1.7-0.1c-0.1,1.1-0.6,2.2-1.3,3C185.3,209.5,183.4,210.3,181.4,210.2z"></path>
<path style="fill:#5A2B2B" d="M157.5,160.3c22.1,0,47.7,9.7,42.8,34.7c-0.8,5.7-5.7,8.1-10.8,8.1c-1.3,0-2.6-0.1-3.8-0.4c0.7,3.9-1.5,5.5-4.3,5.5c-3.3,0-7.4-2.2-8.5-5.6c-1.9,2.5-4.9,3.9-8.1,3.8c-3.8-0.1-7.5-1.5-10.6-3.8c-14.1-8.8-16.8-36.4-11-40.9C147.9,160.8,152.7,160.3,157.5,160.3 M157.5,156.3c-5.1,0-10.1,0.5-15.1,1.6l-0.9,0.2l-0.7,0.5c-4.3,3.3-4.6,11.1-4.4,15.5c0.6,11.3,5.6,25.6,15.5,31.9c3.7,2.8,8.2,4.3,12.8,4.5c2.6,0,5.1-0.6,7.3-1.9c2.5,2.3,5.8,3.6,9.2,3.7c2.6,0.1,5-1,6.7-2.9c0.6-0.7,1-1.5,1.3-2.3h0.2c8,0,13.7-4.5,14.7-11.4c1.8-9.3-0.1-17.6-5.5-24.1C190.9,162,175.5,156.3,157.5,156.3L157.5,156.3z"></path>
</g>
<path style="fill:#DE7A28" d="M187.4,196.4c-1.1,0-2-0.9-2-2c0-12.3-18.4-26.9-33.9-26.9c-1.1,0-2-0.9-2-2s0.9-2,2-2c17.7,0,37.9,16.5,37.9,30.9C189.4,195.5,188.5,196.4,187.4,196.4z"></path>
<circle style="fill:#F5D06B" cx="102.6" cy="117" r="73.1"></circle>
<path style="fill:#F5D06B" d="M98.2,49.3c-9.9-22.4-5.1-45.1,7.5-41c7.1,2.4,3.7,18.5,6.2,26c7.5-22.4,27.2-27,31.1-18.5s-8.7,28.6-18.6,33.6H98.2V49.3z"></path>
<ellipse style="fill:#F4A6B4" cx="131.7" cy="131.4" rx="13.4" ry="8.9"></ellipse>
<path style="fill:#F0A340" d="M22,129.3c-18.6,3.7-18.6,22.4,0,26.1c-7.5,7.5,3.7,14.9,14.9,11.2l44.7-7.5c14.9-3.7,14.9-33.6,0-37.3L22,129.3z"></path>
<path style="fill:#DE7A28" d="M35.9,152.5c-1.2,0-2.1-0.9-2.3-2c-0.2-1.2,0.7-2.4,1.9-2.6c0,0,0.1,0,0.1,0l41.5-6c1.3-0.1,2.4,0.8,2.6,2.1c0.1,1.2-0.7,2.4-2,2.5l-41.5,6H35.9z"></path>
<path style="fill:#5A2B2B" d="M102.8,7.8c1,0,1.9,0.2,2.8,0.5c7.1,2.4,3.7,18.5,6.2,26c5.2-15.5,16.3-22.5,23.9-22.5c3.4,0,6,1.4,7.2,4c3.6,7.8-6.9,25.5-16.3,32.1c38.1,13.2,58.3,54.9,45.1,93c-13.2,38.1-54.9,58.3-93,45.1c-12.1-4.2-22.9-11.5-31.2-21.2l-10.5,1.8c-1.9,0.7-4,1-6,1c-8.6,0-15-6.1-8.9-12.2c-18.6-3.7-18.6-22.4,0-26.1l8.4-1.1c-0.6-3.7-0.9-7.5-0.9-11.3c0-37.8,28.9-69.4,66.6-72.8C89.6,25.4,93.2,7.8,102.8,7.8 M102.8,0c-5.2,0-10,2.6-12.8,6.9c-5,7-6.2,18.5-3.7,30.8C48.7,45.5,21.7,78.6,21.7,117c0,1.5,0,3,0.1,4.5l-0.9,0.1c-0.2,0-0.4,0.1-0.6,0.1C8,124.2,0,132.3,0,142.4c0,7.5,4.3,13.9,11.6,17.7c0,1.8,0.3,3.5,1,5.2c2.6,6.2,9.7,10.2,18.1,10.2c2.7,0,5.3-0.4,7.9-1.2l5.8-1c31,32.1,82.3,33,114.4,1.9s33-82.3,1.9-114.4c-6-6.2-12.9-11.4-20.5-15.4c7.7-9.6,14.1-23.2,9.7-32.8c-2.4-5.3-7.8-8.5-14.3-8.5c-5.7,0-12.5,2.5-18.5,7.8c-1.2-4.9-3.7-9.1-9.1-10.9C106.4,0.4,104.6,0,102.8,0L102.8,0z"></path>
<path style="fill:none;stroke:#5A2B2B;stroke-width:7.488;stroke-linecap:round;stroke-linejoin:round;stroke-miterlimit:12.48" d="M37.4,114.7c3.2-7.4,10.4-12,18-11.5c9.6,0.6,14.4,10.9,14.7,11.5"></path>
<path style="fill:none;stroke:#5A2B2B;stroke-width:7.488;stroke-linecap:round;stroke-linejoin:round;stroke-miterlimit:12.48" d="M105.6,114.7c3.2-7.4,10.4-12,18-11.5c9.6,0.6,14.4,10.9,14.7,11.5"></path>
</svg>