<svg xmlns="http://www.w3.org/2000/svg" viewBox="0 0 255.8 251.4">
<path style="fill:#E8A24E" d="M153.2,247.5c-3.7,0-7.1-2.3-8.4-5.8l-1,0.8c-3.9,3.1-9.5,2.5-12.7-1.4c-3.1-3.9-2.5-9.5,1.4-12.7l11.5-9.2v-34.4c0-5,4-9,9-9s9,4,9,9v34.3l11.7,9.4c3.9,3.1,4.5,8.8,1.3,12.7c-1.7,2.1-4.3,3.3-7,3.3l0,0c-2,0-4-0.7-5.6-2l-1-0.8C160.2,245.1,156.9,247.4,153.2,247.5z"></path>
<path style="fill:#3A2320" d="M153.1,179.7c2.8,0,5.1,2.3,5.1,5.1v0l0,0v36.2l13.2,10.6c2.3,1.7,2.8,4.9,1.1,7.2c-1.7,2.3-4.9,2.8-7.2,1.1c-0.1-0.1-0.2-0.2-0.3-0.2l-6.7-5.4v4.4c0,2.8-2.3,5.1-5.1,5.1c-2.8,0-5.1-2.3-5.1-5.1v-4.4l-6.7,5.4c-2.3,1.7-5.5,1.2-7.2-1.1c-1.6-2.2-1.2-5.2,0.8-6.9l13-10.4v-36.3C148,182,150.3,179.7,153.1,179.7L153.1,179.7L153.1,179.7 M153.1,171.9c-7.1,0-12.9,5.8-12.9,12.9v32.6l-10.1,8c-5.6,4.4-6.6,12.5-2.3,18.1c3.7,4.8,10.3,6.3,15.8,3.7c4.8,5.3,12.9,5.7,18.2,0.9c0,0,0,0,0,0c0.3-0.3,0.6-0.6,0.9-0.9c6.5,3,14.1,0.2,17.1-6.2c2.5-5.4,1-11.8-3.6-15.5l-10.3-8.2v-32.4C166,177.6,160.2,171.9,153.1,171.9L153.1,171.9z"></path>
<path style="fill:#3A2320" d="M171.2,104.4c18.1,0,34,10.1,42.6,25.2c1.3,0.7,2.6,1.4,3.9,2.2c2.7-3.1,4.8-6.6,6.4-10.3c1.2,5,2.3,9.1,2.5,12.9c5.5-2.2,9.4-5.2,13.8-9.2c-0.9,6.9-1.4,12.3-3.6,16.9c4-1.5,7.8-3.5,11.2-6.1c-2.2,8.1-3.5,14-7.7,18.6c1.6,3.1,2.8,6.5,3.6,9.9c-2.8,17.9-21.7,28.7-39.1,29.4c-9,8.7-21.1,13.6-33.6,13.7c-27.4,0-49.6-23.1-49.6-51.6S143.8,104.5,171.2,104.4 M248,136.1L248,136.1 M171.2,96.7c-31.6,0-57.4,26.6-57.4,59.4s25.8,59.4,57.4,59.4c13.5,0,26.6-5,36.8-13.9c9.4-0.9,18.4-4.1,26.2-9.4c9.6-6.6,15.7-16,17.3-26.4c0.2-1,0.1-1.9-0.1-2.9c-0.6-2.5-1.3-4.9-2.2-7.3c2.8-4.6,4.2-9.7,5.7-15.4c0.2-0.6,0.3-1.2,0.5-1.9c1.3-4.1-1.1-8.5-5.2-9.7c0,0,0,0,0,0c-0.7-0.2-1.5-0.3-2.3-0.3h-0.1c0.1-0.7,0.2-1.3,0.3-2c0.6-4.3-2.5-8.2-6.7-8.8c-2.3-0.3-4.6,0.4-6.3,2c-1,0.9-2,1.8-2.9,2.5l-0.1-0.5c-0.1-0.6-0.3-1.2-0.4-1.8c-0.8-3.3-3.5-5.7-6.8-6H224c-3,0-5.8,1.8-7,4.6l-0.6,1.2c-4.5-5.9-10-10.9-16.4-14.8C191.3,99.4,181.3,96.7,171.2,96.7L171.2,96.7z"></path>
<path style="fill:#7C8894" d="M236.8,142.2c2.2-4.6,2.7-10,3.6-16.9c-4.4,4-8.3,7-13.8,9.2c-0.2-3.8-1.3-7.9-2.5-12.9c-3.2,6.9-6.4,11.7-14.1,16.7c-3.1,0.3-6.5,0.6-10.4,0.8l2.8,3.4c-1.7,0.8-3.6,1.7-5.7,2.6l15.6,9.8l5.7,9.1c24.9-4.6,25.8-12.4,30-27.9C244.5,138.6,240.8,140.7,236.8,142.2z"></path>
<ellipse style="fill:#FBF7F0" cx="171.2" cy="156.1" rx="49.6" ry="51.6"></ellipse>
<path style="fill:#E8A24E" d="M189.2,246.9c-3.8,0-7.1-2.5-8.1-6.2l-1.6,1.4c-3.7,2.8-9,2.1-11.8-1.6c-2.7-3.6-2.2-8.7,1.3-11.6l11.3-9v-32.4c0-5,4-9,9-9s9,4,9,9v32.4l11.3,9c3.6,2.9,4.3,8.2,1.4,11.8c-1.6,2-4.1,3.2-6.7,3.2l0,0c-1.9,0-3.8-0.6-5.3-1.8l-1.6-1.3C196.3,244.3,193,246.9,189.2,246.9z"></path>
<path style="fill:#3A2320" d="M189.2,182.4c2.8,0,5.1,2.3,5.1,5.1v0l0,0v34.3L207,232c2,1.5,2.5,4.3,1,6.3c-1.4,2-4.1,2.5-6.1,1.1c-0.2-0.1-0.3-0.3-0.5-0.4l-7.7-6.1v5.6c0,2.5-2,4.5-4.5,4.5s-4.5-2-4.5-4.5v-5.6l-7.7,6.2c-2,1.4-4.8,0.9-6.3-1.1c-1.3-1.8-1-4.3,0.6-5.9l12.7-10.2v-34.4C184.1,184.7,186.4,182.4,189.2,182.4L189.2,182.4L189.2,182.4 M189.2,174.6c-7.1,0-12.9,5.8-12.9,12.9v30.6l-9.8,7.8c-5.3,4.2-6.2,12-2,17.3c3.7,4.6,10.1,6,15.3,3.3c4.4,5.2,12.1,5.8,17.3,1.5c0,0,0,0,0,0c0.5-0.4,1-0.9,1.5-1.5c6,3.1,13.4,0.8,16.6-5.3c2.7-5.2,1.3-11.6-3.3-15.3l-9.8-7.8v-30.6C202.1,180.4,196.3,174.6,189.2,174.6L189.2,174.6z"></path>
<path style="fill:#9AA7B4" d="M203,196.6c-8.1,0-15.2-2.1-20.6-5.9c-19.7-14.3-23.7-64.7-23.7-65.1c0-3.5,1-8.4,9.4-10c1.4-0.2,2.8-0.4,4.3-0.3c18.6,0,66.3,14.1,74,48.9c0.1,0.3,0.1,0.6,0,0.9C243.3,184.7,221.9,196.6,203,196.6z"></path>
<path style="fill:#3A2320" d="M172.3,117.7c17.6,0,64.2,13.7,71.6,46.9c-2.9,18.6-23,29.5-40.9,29.5c-7.2,0-14-1.8-19.1-5.5c-18-13-22.7-59.9-22.7-63.1c0-3.2,0.8-6.3,7.3-7.5C169.8,117.8,171.1,117.7,172.3,117.7 M172.3,112.7L172.3,112.7c-1.6,0-3.2,0.1-4.8,0.4c-7.5,1.4-11.4,5.6-11.4,12.4c0.7,9.8,2.3,19.5,4.8,29.1c4.8,19.1,11.5,31.9,20,38.1c5.8,4.2,13.4,6.4,22,6.4c10.2-0.1,20.2-3,28.8-8.6c9.4-6.2,15.5-15.2,17-25.1c0.1-0.6,0.1-1.2-0.1-1.8C240.7,127.3,191.5,112.7,172.3,112.7L172.3,112.7z"></path>
<path style="fill:#4A4A52" d="M194.8,175.9c7.4,4.9,14.3,6,23.9,11.6c-16.1,4.7-30.4-2.6-38.4-10.6C180.2,176.9,187.4,171,194.8,175.9z"></path>
<path style="fill:none;stroke:#7C8894;stroke-width:4.8;stroke-linecap:round;stroke-linejoin:round" d="M174.2,122.8c11.2,5.1,25.3,10.1,37.2,20.1"></path>
<ellipse style="fill:#FBF7F0" cx="103.5" cy="81.2" rx="77.2" ry="73.3"></ellipse>
<ellipse style="fill:#F4A6B4" cx="57.2" cy="109.9" rx="13.8" ry="8.9"></ellipse>
<ellipse style="fill:#F4A6B4" cx="136.8" cy="110.2" rx="13.9" ry="9.3"></ellipse>
<path style="fill:#E8A24E" d="M101.4,90.6c-5.8-3.3-69.5,3.9-92.6,27c-3.9,7.7,3.9,15.4,15.4,11.6c-3.9,7.7,81.3,4.8,84.9,1C117.8,121.2,107.2,93.9,101.4,90.6z"></path>
<path style="fill:none;stroke:#C8552E;stroke-width:4.2;stroke-linecap:round;stroke-linejoin:round" d="M36.7,122.5c22.9-2.3,40.6-4.2,58.9-6.5"></path>
<path style="fill:#4A4A52" d="M209.4,166.8c5,2.1,11.4,9,21.9,11.7c-15.3,5.4-26.5-3.3-34.5-11.3C196.8,167.2,204.4,164.7,209.4,166.8z"></path>
<path style="fill:#4A4A52" d="M222.3,159.9c5.1,3.9,9.9,4.2,16.9,9.4c-10.2,0.2-20-3.9-27-11.2C215.6,156.9,219.4,157.6,222.3,159.9z"></path>
<path style="fill:#3A2320" d="M103.5,7.9c42.6,0,77.2,32.8,77.2,73.3s-34.6,73.3-77.2,73.3c-19.8,0.1-39-7.3-53.6-20.6c-15.3-0.4-27.1-1.8-25.6-4.7c-1.9,0.7-3.9,1-5.9,1c-8.1,0-12.6-6.3-9.5-12.6c5.4-5.4,12.9-9.8,21.3-13.6c-2.5-7.3-3.8-15.1-3.8-22.8C26.3,40.6,60.9,7.8,103.5,7.9 M103.5,0c-46.9,0-85,36.4-85,81.1c0,6.3,0.8,12.6,2.3,18.8c-6.4,3.1-12.3,7.3-17.5,12.2c-0.6,0.6-1.1,1.3-1.5,2c-2.6,4.9-2.4,10.9,0.5,15.7c3.2,5.1,9.1,8.2,16,8.2c1,0,2.1-0.1,3.1-0.2c3.9,2.1,11,3.4,25.4,3.8c15.8,13.4,35.9,20.8,56.7,20.7c46.9,0,85-36.4,85-81.1S150.4,0.1,103.5,0L103.5,0z"></path>
<path style="fill:none;stroke:#5A2B2B;stroke-width:7.488;stroke-linecap:round;stroke-linejoin:round;stroke-miterlimit:12.48" d="M43.8,81.5c3.2-7.4,10.4-12,18-11.5c9.6,0.6,14.4,10.9,14.7,11.5"></path>
<path style="fill:none;stroke:#5A2B2B;stroke-width:7.488;stroke-linecap:round;stroke-linejoin:round;stroke-miterlimit:12.48" d="M112,81.5c3.2-7.4,10.4-12,18-11.5c9.6,0.6,14.4,10.9,14.7,11.5"></path>
</svg>