<svg id="Layer_1" data-name="Layer 1" xmlns="http://www.w3.org/2000/svg" viewBox="0 0 255.77 251.37">
  <path d="M153.17,247.4a9,9,0,0,1-8.4-5.76l-1,.79a9,9,0,0,1-11.24-14.06l11.52-9.22V184.7a9,9,0,0,1,18,0V219l11.72,9.38a9,9,0,0,1-5.62,16h0a9,9,0,0,1-5.62-2l-1-.79A9,9,0,0,1,153.17,247.4Z" transform="translate(0.01 0.07)" style="fill: #e8a24e"></path>
  <path d="M153.07,179.6a5.1,5.1,0,0,1,5.1,5.1h0v36.16l13.21,10.56a5.12,5.12,0,1,1-6.38,8l-6.71-5.37v4.39a5.1,5.1,0,0,1-10.2,0v-4.39l-6.71,5.37a5.12,5.12,0,0,1-6.38-8L148,221V184.7a5.1,5.1,0,0,1,5.1-5.1h0m0-7.8a12.92,12.92,0,0,0-12.9,12.9v32.58l-10.06,8a12.9,12.9,0,0,0,13.53,21.8,12.87,12.87,0,0,0,18.18.88,12.18,12.18,0,0,0,.88-.88,12.9,12.9,0,0,0,13.53-21.75L166,217.12V184.7a12.92,12.92,0,0,0-12.93-12.9Z" transform="translate(0.01 0.07)" style="fill: #5a2b2b"></path>
  <path d="M171.17,104.37c18.12,0,34,10.11,42.62,25.19,1.3.71,2.58,1.44,3.85,2.22a39.65,39.65,0,0,0,6.43-10.31c1.2,5,2.3,9.1,2.5,12.9,5.5-2.2,9.4-5.2,13.8-9.2-.9,6.9-1.4,12.3-3.6,16.9A47.36,47.36,0,0,0,248,136c-2.18,8.05-3.48,14-7.71,18.55a41,41,0,0,1,3.61,9.95c-2.76,17.93-21.69,28.72-39.09,29.43a48.35,48.35,0,0,1-33.61,13.67c-27.39,0-49.6-23.11-49.6-51.6s22.21-51.6,49.6-51.6M248,136h0m-76.81-39.4c-31.65,0-57.4,26.64-57.4,59.4s25.75,59.4,57.4,59.4A56.1,56.1,0,0,0,208,201.5a55.57,55.57,0,0,0,26.23-9.45c9.57-6.63,15.72-16,17.32-26.4a7.75,7.75,0,0,0-.09-2.88,49.67,49.67,0,0,0-2.24-7.27c2.79-4.55,4.16-9.68,5.69-15.4.16-.6.32-1.22.49-1.85a7.8,7.8,0,0,0-5.18-9.74,8,8,0,0,0-2.27-.34h-.13c.08-.65.17-1.32.26-2a7.81,7.81,0,0,0-13-6.79c-1,.93-2,1.77-2.91,2.54l-.11-.46c-.15-.6-.3-1.2-.44-1.82a7.82,7.82,0,0,0-6.82-6h-.77A7.8,7.8,0,0,0,217,118.2l-.59,1.24A58.47,58.47,0,0,0,200,104.65a55.86,55.86,0,0,0-28.89-8.06Z" transform="translate(0.01 0.07)" style="fill: #5a2b2b"></path>
  <path d="M236.77,142.1c2.2-4.6,2.7-10,3.6-16.9-4.4,4-8.3,7-13.8,9.2-.2-3.8-1.3-7.9-2.5-12.9-3.2,6.9-6.4,11.7-14.1,16.7-3.1.3-6.5.6-10.4.8l2.8,3.4c-1.7.8-3.6,1.7-5.7,2.6l15.6,9.8,5.7,9.1c24.9-4.6,25.8-12.4,30-27.9A47.36,47.36,0,0,1,236.77,142.1Z" transform="translate(0.01 0.07)" style="fill: #7c8894"></path>
  <ellipse cx="171.18" cy="156.07" rx="49.6" ry="51.6" style="fill: #fbf7f0"></ellipse>
  <path d="M189.17,246.8a8.41,8.41,0,0,1-8.1-6.17L179.42,242a8.42,8.42,0,0,1-10.5-13.16l11.25-9V187.4a9,9,0,0,1,18,0v32.4l11.25,9a8.4,8.4,0,0,1-5.25,15h0a8.41,8.41,0,0,1-5.25-1.84l-1.65-1.33A8.41,8.41,0,0,1,189.17,246.8Z" transform="translate(0.01 0.07)" style="fill: #e8a24e"></path>
  <path d="M189.17,182.3a5.1,5.1,0,0,1,5.1,5.1h0v34.32L207,231.89a4.5,4.5,0,0,1-5.12,7.4,4.61,4.61,0,0,1-.5-.4l-7.69-6.09v5.64a4.5,4.5,0,0,1-9,0V232.8L177,239a4.5,4.5,0,0,1-5.62-7l12.71-10.17V187.4a5.1,5.1,0,0,1,5.1-5.1h0m0-7.8a12.92,12.92,0,0,0-12.9,12.9V218l-9.78,7.83a12.29,12.29,0,0,0,13.29,20.54,12.29,12.29,0,0,0,17.32,1.46,11.84,11.84,0,0,0,1.46-1.46,12.29,12.29,0,0,0,13.29-20.54L202.07,218V187.4a12.92,12.92,0,0,0-12.9-12.9Z" transform="translate(0.01 0.07)" style="fill: #5a2b2b"></path>
  <path d="M203,196.48c-8.06,0-15.17-2.06-20.56-5.95-19.74-14.25-23.74-64.65-23.74-65.13,0-3.53,1-8.41,9.35-10a23.61,23.61,0,0,1,4.28-.34c18.59,0,66.28,14.06,74,48.86a2.37,2.37,0,0,1,0,.92C243.3,184.66,221.9,196.48,203,196.48Z" transform="translate(0.01 0.07)" style="fill: #9aa7b4"></path>
  <path d="M172.3,117.6c17.61,0,64.2,13.73,71.57,46.9C241,183.06,220.87,194,203,194c-7.16,0-14-1.76-19.1-5.48-18-13-22.7-59.9-22.7-63.1s.8-6.3,7.3-7.5a20.47,20.47,0,0,1,3.83-.3m0-5h0a25.28,25.28,0,0,0-4.76.39c-7.54,1.39-11.37,5.57-11.37,12.41a171.39,171.39,0,0,0,4.75,29.08c4.76,19.1,11.49,31.91,20,38.07,5.82,4.2,13.44,6.43,22,6.43a53.49,53.49,0,0,0,28.84-8.61c9.43-6.24,15.47-15.16,17-25.11a4.75,4.75,0,0,0-.06-1.84c-8-36.2-57.27-50.82-76.44-50.82Z" transform="translate(0.01 0.07)" style="fill: #5a2b2b"></path>
  <path d="M194.77,175.8c7.4,4.9,14.3,6,23.9,11.6-16.1,4.7-30.4-2.6-38.4-10.6C180.17,176.8,187.37,170.9,194.77,175.8Z" transform="translate(0.01 0.07)" style="fill: #4a4a52"></path>
  <path d="M174.17,122.7c11.2,5.1,25.3,10.1,37.2,20.1" transform="translate(0.01 0.07)" style="fill: none;stroke: #7c8894;stroke-linecap: round;stroke-linejoin: round;stroke-width: 4.800000190734863px"></path>
  <ellipse cx="103.5" cy="81.19" rx="77.18" ry="73.32" style="fill: #fbf7f0"></ellipse>
  <ellipse cx="66.6" cy="78.78" rx="18.67" ry="19.13" style="fill: #3a2320"></ellipse>
  <circle cx="61.76" cy="71.53" r="7.84" style="fill: #fff"></circle>
  <circle cx="72.59" cy="84.89" r="3.69" style="fill: #fff"></circle>
  <ellipse cx="126.07" cy="78.78" rx="17.98" ry="18.44" style="fill: #3a2320"></ellipse>
  <circle cx="121.34" cy="71.75" r="7.49" style="fill: #fff"></circle>
  <circle cx="134.04" cy="84.89" r="3.18" style="fill: #fff"></circle>
  <ellipse cx="57.21" cy="109.88" rx="13.75" ry="8.94" style="fill: #f4a6b4"></ellipse>
  <ellipse cx="136.81" cy="110.21" rx="13.89" ry="9.26" style="fill: #f4a6b4"></ellipse>
  <path d="M101.43,90.51c-5.79-3.34-69.46,3.86-92.62,27-3.86,7.71,3.86,15.43,15.44,11.57-3.86,7.72,81.3,4.76,84.9,1C117.77,121.13,107.22,93.86,101.43,90.51Z" transform="translate(0.01 0.07)" style="fill: #e8a24e"></path>
  <path d="M36.73,122.41c22.92-2.3,40.57-4.24,58.91-6.54" transform="translate(0.01 0.07)" style="fill: none;stroke: #c8552e;stroke-linecap: round;stroke-linejoin: round;stroke-width: 4.199999809265137px"></path>
  <path d="M209.37,166.7c5,2.1,11.4,9,21.9,11.7-15.3,5.4-26.5-3.3-34.5-11.3C196.77,167.1,204.37,164.6,209.37,166.7Z" transform="translate(0.01 0.07)" style="fill: #4a4a52"></path>
  <path d="M222.27,159.8c5.1,3.9,9.9,4.2,16.9,9.4a36.42,36.42,0,0,1-27-11.2A10.59,10.59,0,0,1,222.27,159.8Z" transform="translate(0.01 0.07)" style="fill: #4a4a52"></path>
  <path d="M103.49,7.8c42.62,0,77.18,32.83,77.18,73.32s-34.56,73.32-77.18,73.32A79,79,0,0,1,49.88,133.8c-15.29-.36-27.12-1.75-25.63-4.74a18.75,18.75,0,0,1-5.94,1c-8.08,0-12.65-6.3-9.5-12.6,5.35-5.36,12.87-9.85,21.34-13.57a69.94,69.94,0,0,1-3.84-22.84c0-40.49,34.55-73.32,77.18-73.32m0-7.8c-46.86,0-85,36.39-85,81.12A77.93,77.93,0,0,0,20.78,99.8,69.46,69.46,0,0,0,3.3,112a7.79,7.79,0,0,0-1.46,2,15.79,15.79,0,0,0,.49,15.68c3.17,5.14,9.15,8.21,16,8.21a24.54,24.54,0,0,0,3.09-.2c3.9,2.11,11,3.36,25.43,3.83a86.84,86.84,0,0,0,56.66,20.68c46.86,0,85-36.39,85-81.12S150.39,0,103.51,0Z" transform="translate(0.01 0.07)" style="fill: #5a2b2b"></path>
</svg>