<svg viewBox="0 0 100 122" xmlns="http://www.w3.org/2000/svg" style="overflow:visible;display:block;width:100%;height:100%;"><g stroke-linejoin="round" stroke-linecap="round"><path d="M46,14 L46,60 L22,52 Z" fill="#5A2B2B" stroke="#5A2B2B" stroke-width="6.6"></path><path d="M54,14 L54,60 L82,50 Z" fill="#5A2B2B" stroke="#5A2B2B" stroke-width="6.6"></path><path d="M20,74 L80,74 Q74,96 50,96 Q26,96 20,74 Z" fill="#5A2B2B" stroke="#5A2B2B" stroke-width="6.6"></path><ellipse cx="40" cy="82" rx="5" ry="5.35" fill="#5A2B2B" stroke="#5A2B2B" stroke-width="6.6"></ellipse><circle cx="38.7" cy="79.967" r="2.1" fill="#5A2B2B" stroke="#5A2B2B" stroke-width="6.6"></circle><circle cx="41.6" cy="83.712" r="1" fill="#5A2B2B" stroke="#5A2B2B" stroke-width="6.6"></circle><ellipse cx="60" cy="82" rx="5" ry="5.35" fill="#5A2B2B" stroke="#5A2B2B" stroke-width="6.6"></ellipse><circle cx="58.7" cy="79.967" r="2.1" fill="#5A2B2B" stroke="#5A2B2B" stroke-width="6.6"></circle><circle cx="61.6" cy="83.712" r="1" fill="#5A2B2B" stroke="#5A2B2B" stroke-width="6.6"></circle><ellipse cx="32" cy="88" rx="3.6" ry="2.4" fill="#5A2B2B" stroke="#5A2B2B" stroke-width="6.6"></ellipse><ellipse cx="68" cy="88" rx="3.6" ry="2.4" fill="#5A2B2B" stroke="#5A2B2B" stroke-width="6.6"></ellipse><path d="M12,100 q9,-7 18,0 t18,0 t18,0 t18,0" fill="none" stroke="#7FB8E0" stroke-width="3.4" stroke-linecap="round"></path><path d="M14,108 q9,-6 18,0 t18,0 t18,0" fill="none" stroke="#A9D2ED" stroke-width="3" stroke-linecap="round"></path><path d="M50,12 L50,72" fill="none" stroke="#5A2B2B" stroke-width="3.3" stroke-linecap="round"></path><path d="M46,14 L46,60 L22,52 Z" fill="#F2879B"></path><path d="M54,14 L54,60 L82,50 Z" fill="#FFFFFF"></path><path d="M54,26 L74,48 M54,40 L64,50" fill="none" stroke="#E2E7EC" stroke-width="2.2" stroke-linecap="round"></path><path d="M20,74 L80,74 Q74,96 50,96 Q26,96 20,74 Z" fill="#C88A54"></path><ellipse cx="40" cy="82" rx="5" ry="5.35" fill="#3A2320"></ellipse><circle cx="38.7" cy="79.967" r="2.1" fill="#fff"></circle><circle cx="41.6" cy="83.712" r="1" fill="#fff"></circle><ellipse cx="60" cy="82" rx="5" ry="5.35" fill="#3A2320"></ellipse><circle cx="58.7" cy="79.967" r="2.1" fill="#fff"></circle><circle cx="61.6" cy="83.712" r="1" fill="#fff"></circle><path d="M45,88 Q50,92 55,88" fill="none" stroke="#5A2B2B" stroke-width="3" stroke-linecap="round"></path><ellipse cx="32" cy="88" rx="3.6" ry="2.4" fill="#F4A6B4"></ellipse><ellipse cx="68" cy="88" rx="3.6" ry="2.4" fill="#F4A6B4"></ellipse></g></svg>