<svg xmlns="http://www.w3.org/2000/svg" viewBox="0 0 290 195.1">
<path style="fill:#5A2B2B;stroke:#5A2B2B;stroke-width:19.8;stroke-linecap:round;stroke-linejoin:round" d="M58.8,136.4c24,12,46,12,66,0c-2,12-13,20-33,24C73.8,156.4,62.8,148.4,58.8,136.4z"></path>
<ellipse style="fill:#5A2B2B;stroke:#5A2B2B;stroke-width:19.8;stroke-linecap:round;stroke-linejoin:round" cx="64.8" cy="103.3" rx="16.8" ry="17.6"></ellipse>
<circle style="fill:#5A2B2B;stroke:#5A2B2B;stroke-width:19.8;stroke-linecap:round;stroke-linejoin:round" cx="60.4" cy="96.6" r="7.1"></circle>
<circle style="fill:#5A2B2B;stroke:#5A2B2B;stroke-width:19.8;stroke-linecap:round;stroke-linejoin:round" cx="70.2" cy="108.9" r="3.4"></circle>
<ellipse style="fill:#5A2B2B;stroke:#5A2B2B;stroke-width:19.8;stroke-linecap:round;stroke-linejoin:round" cx="115.8" cy="103.3" rx="16.8" ry="17.6"></ellipse>
<circle style="fill:#5A2B2B;stroke:#5A2B2B;stroke-width:19.8;stroke-linecap:round;stroke-linejoin:round" cx="111.4" cy="96.6" r="7.1"></circle>
<circle style="fill:#5A2B2B;stroke:#5A2B2B;stroke-width:19.8;stroke-linecap:round;stroke-linejoin:round" cx="121.2" cy="108.9" r="3.4"></circle>
<ellipse style="fill:#5A2B2B;stroke:#5A2B2B;stroke-width:19.8;stroke-linecap:round;stroke-linejoin:round" cx="46.8" cy="127.3" rx="12" ry="7.8"></ellipse>
<ellipse style="fill:#5A2B2B;stroke:#5A2B2B;stroke-width:19.8;stroke-linecap:round;stroke-linejoin:round" cx="130.8" cy="127.3" rx="12" ry="7.8"></ellipse>
<path style="fill:#84B4D6" d="M222.9,121.2c20.7-21.7,32.7-29.6,52.4-39.4c3,21,4.6,27.4-10.4,45.4c15,3,21,18,15,30c-18,0-38.8-6.2-53.8-15.2L222.9,121.2z"></path>
<path style="fill:#84B4D6" d="M111.4,55.1c6.4-37.4,39.7-52,69.7-46c-18,15-5.7,25.6-8.7,55.6L111.4,55.1z"></path>
<path style="fill:#84B4D6" d="M235.8,124.3c0-45-48-81-117-81c-63,0-111,24-111,75c0,17.5,9.4,32.5,25.4,43.9c10.5-6.7,46.4-13.8,82.6-12c13.7,0.7,71.6,12.8,94.3,19.6C227.1,159,235.8,143.4,235.8,124.3z"></path>
<path style="fill:#EAF2F8" d="M33.2,162.2c22.3,15.9,57.4,25.1,97.6,25.1c35.1,0,61.7-6.2,79.3-17.5c-22.8-6.8-80.6-19-94.3-19.6C79.6,148.4,43.7,155.5,33.2,162.2z"></path>
<path style="fill:none;stroke:#729BB8;stroke-width:4.8;stroke-linecap:round;stroke-linejoin:round" d="M70.2,158.8c3.4,8.1,19.9,19.5,30,21 M91.8,156.5c4.7,7.1,24,20.8,43.9,25.2 M113,156.5c7.4,11.4,35.8,20.8,47.1,20.8"></path>
<path style="fill:none;stroke:#5A2B2B;stroke-width:5;stroke-linecap:round;stroke-linejoin:round" d="M195.3,103.6c16,7.8,32.5,31.7,19,41.7c-24.4,18.1-65.5-12-65.5-32.3"></path>
<path style="fill:none;stroke:#729BB8;stroke-width:4.8;stroke-linecap:round;stroke-linejoin:round" d="M185.1,109.2c7.6,6.1,17.5,12.9,23,24.1"></path>
<path style="fill:none;stroke:#5A2B2B;stroke-width:5;stroke-linecap:round;stroke-linejoin:round" d="M55.8,133.4c24,14,47,14,69,0"></path>
<ellipse style="fill:#F4A6B4" cx="46.8" cy="127.3" rx="12" ry="7.8"></ellipse>
<ellipse style="fill:#F4A6B4" cx="130.8" cy="127.3" rx="12" ry="7.8"></ellipse>
<path style="fill:#5A2B2B" d="M168,7.8c4.4,0,8.8,0.4,13.1,1.3c-15.1,12.6-8.9,22.1-8.3,42.6c32.8,11.2,55.1,32.6,61.3,58.3c14.4-13.6,25.3-20.3,41.2-28.2c3,21,4.6,27.4-10.4,45.4c15,3,21,18,15,30c-15.8,0-33.8-4.8-48.1-12.1c-4.1,9.8-11.4,18.1-21.7,24.7c-4.5-1.3-10.4-2.9-17-4.5c6.6,1.6,12.5,3.2,17,4.5c-17.6,11.3-44.2,17.5-79.3,17.5c-40.2,0-75.3-9.2-97.6-25.1c-16-11.4-25.4-26.4-25.4-43.9c0-49.8,45.9-73.9,106.8-74.9C123.6,19.4,145.5,7.8,168,7.8 M168,0L168,0c-26.2,0-48.2,13.5-58.7,35.7C78.7,36.9,52.8,43.8,34.1,56C11.8,70.5,0,92,0,118.3c0,19.5,10,36.9,28.7,50.3c11.9,8.5,27,15.1,44.7,19.7c18.8,4.7,38.1,7,57.5,6.8c36,0,64.1-6.3,83.5-18.7c8.5-5.3,15.7-12.5,21-21c14.4,6.1,30.5,9.6,44.6,9.6c3,0,5.7-1.7,7-4.3c4.1-8,4.2-17.5,0.2-25.6c-2.2-4.6-5.7-8.4-9.9-11.2c9.9-14.7,8.6-23.8,6.1-40.9l-0.3-2.3c-0.6-4.3-4.5-7.2-8.8-6.6c0,0,0,0,0,0c-0.8,0.1-1.6,0.4-2.4,0.7C259,81.2,249,87,237.8,96.3c-9.4-21.8-29.6-39.5-57.4-50.2c-0.2-3-0.5-5.8-0.8-8.4c-1.3-11.8-1.7-15.8,6.5-22.7c3.3-2.8,3.8-7.7,1-11c-1.1-1.4-2.7-2.3-4.5-2.7C177.8,0.5,172.9,0,168,0z"></path>
<path style="fill:none;stroke:#3A2320;stroke-width:7;stroke-linecap:round;stroke-linejoin:round" d="M47.4,107.5c2.8-6.8,9.6-11.3,17.1-10.8c9,0.6,13.7,10.4,13.9,10.8"></path>
<path style="fill:none;stroke:#3A2320;stroke-width:7;stroke-linecap:round;stroke-linejoin:round" d="M101.3,107.5c2.8-6.8,9.6-11.3,17.1-10.8c9,0.6,13.7,10.4,13.9,10.8"></path>
</svg>