<svg id="Layer_1" data-name="Layer 1" xmlns="http://www.w3.org/2000/svg" viewBox="0 0 290.02 195.11"><path d="M58.83,136.35q36,18,66,0-3,18-33,24Q64.83,154.35,58.83,136.35Z" transform="translate(-0.03 0)" style="fill:#5a2b2b;stroke:#5a2b2b;stroke-linecap:round;stroke-linejoin:round;stroke-width:6.95px"></path><ellipse cx="64.8" cy="103.3" rx="16.8" ry="17.6" style="fill:#5a2b2b;stroke:#5a2b2b;stroke-linecap:round;stroke-linejoin:round;stroke-width:6.95px"></ellipse><circle cx="60.4" cy="96.6" r="7.1" style="fill:#5a2b2b;stroke:#5a2b2b;stroke-linecap:round;stroke-linejoin:round;stroke-width:6.95px"></circle><circle cx="70.2" cy="108.9" r="3.4" style="fill:#5a2b2b;stroke:#5a2b2b;stroke-linecap:round;stroke-linejoin:round;stroke-width:6.95px"></circle><ellipse cx="115.8" cy="103.3" rx="16.8" ry="17.6" style="fill:#5a2b2b;stroke:#5a2b2b;stroke-linecap:round;stroke-linejoin:round;stroke-width:6.95px"></ellipse><circle cx="111.4" cy="96.6" r="7.1" style="fill:#5a2b2b;stroke:#5a2b2b;stroke-linecap:round;stroke-linejoin:round;stroke-width:6.95px"></circle><circle cx="121.2" cy="108.9" r="3.4" style="fill:#5a2b2b;stroke:#5a2b2b;stroke-linecap:round;stroke-linejoin:round;stroke-width:6.95px"></circle><ellipse cx="46.8" cy="127.3" rx="12" ry="7.8" style="fill:#5a2b2b;stroke:#5a2b2b;stroke-linecap:round;stroke-linejoin:round;stroke-width:6.95px"></ellipse><ellipse cx="130.8" cy="127.3" rx="12" ry="7.8" style="fill:#5a2b2b;stroke:#5a2b2b;stroke-linecap:round;stroke-linejoin:round;stroke-width:6.95px"></ellipse><path d="M222.93,121.21c20.7-21.7,32.7-29.6,52.4-39.4,3,21,4.6,27.4-10.4,45.4,15,3,21,18,15,30-18,0-38.8-6.2-53.8-15.2Z" transform="translate(-0.03 0)" style="fill:#84b4d6"></path><path d="M111.43,55.11c6.4-37.4,39.7-52,69.7-46-18,15-5.7,25.6-8.7,55.6Z" transform="translate(-0.03 0)" style="fill:#84b4d6"></path><path d="M235.83,124.35c0-45-48-81-117-81-63,0-111,24-111,75,0,17.5,9.4,32.5,25.4,43.9,10.5-6.7,46.4-13.8,82.6-12,13.7.7,71.6,12.8,94.3,19.6C227.13,159,235.83,143.41,235.83,124.35Z" transform="translate(-0.03 0)" style="fill:#84b4d6"></path><path d="M33.23,162.21c22.3,15.9,57.4,25.1,97.6,25.1,35.1,0,61.7-6.2,79.3-17.5-22.8-6.8-80.6-19-94.3-19.6C79.63,148.41,43.73,155.51,33.23,162.21Z" transform="translate(-0.03 0)" style="fill:#eaf2f8"></path><path d="M70.23,158.81c3.4,8.1,19.9,19.5,30,21m-8.4-23.3c4.7,7.1,24,20.8,43.9,25.2M113,156.51c7.4,11.4,35.8,20.8,47.1,20.8" transform="translate(-0.03 0)" style="fill:none;stroke:#729bb8;stroke-linecap:round;stroke-linejoin:round;stroke-width:1.68px"></path><path d="M195.33,103.61c16,7.8,32.5,31.7,19,41.7-24.4,18.1-65.5-12-65.5-32.3" transform="translate(-0.03 0)" style="fill:none;stroke:#5a2b2b;stroke-linecap:round;stroke-linejoin:round;stroke-width:1.75px"></path><path d="M185.13,109.21c7.6,6.1,17.5,12.9,23,24.1" transform="translate(-0.03 0)" style="fill:none;stroke:#729bb8;stroke-linecap:round;stroke-linejoin:round;stroke-width:1.68px"></path><ellipse cx="64.8" cy="103.3" rx="16.8" ry="17.6" style="fill:#3a2320"></ellipse><circle cx="60.4" cy="96.6" r="7.1" style="fill:#fff"></circle><circle cx="70.2" cy="108.9" r="3.4" style="fill:#fff"></circle><ellipse cx="115.8" cy="103.3" rx="16.8" ry="17.6" style="fill:#3a2320"></ellipse><circle cx="111.4" cy="96.6" r="7.1" style="fill:#fff"></circle><circle cx="121.2" cy="108.9" r="3.4" style="fill:#fff"></circle><path d="M55.83,133.35q36,21,69,0" transform="translate(-0.03 0)" style="fill:none;stroke:#5a2b2b;stroke-linecap:round;stroke-linejoin:round;stroke-width:1.75px"></path><ellipse cx="46.8" cy="127.3" rx="12" ry="7.8" style="fill:#f4a6b4"></ellipse><ellipse cx="130.8" cy="127.3" rx="12" ry="7.8" style="fill:#f4a6b4"></ellipse><path d="M168,7.8A67.15,67.15,0,0,1,181.1,9.1c-15.13,12.61-8.86,22.11-8.25,42.63C205.66,62.92,228,84.29,234.13,110c14.44-13.63,25.31-20.29,41.2-28.18,3,21,4.6,27.4-10.4,45.4,15,3,21,18,15,30-15.83,0-33.82-4.79-48.13-12.07-4.12,9.79-11.36,18.12-21.67,24.67-4.49-1.34-10.35-2.89-17-4.52,6.62,1.63,12.48,3.18,17,4.52-17.6,11.3-44.2,17.5-79.3,17.5-40.2,0-75.3-9.2-97.6-25.1-16-11.4-25.4-26.4-25.4-43.9,0-49.84,45.86-73.89,106.76-74.95,9-24,30.9-35.55,53.43-35.55M168,0h0c-26.2,0-48.21,13.54-58.66,35.69C78.76,36.87,52.83,43.85,34.13,56,11.82,70.46,0,92,0,118.3,0,137.81,10,155.19,28.7,168.56c11.93,8.5,27,15.13,44.67,19.71a230.4,230.4,0,0,0,57.46,6.83c36,0,64.12-6.29,83.48-18.71a64.06,64.06,0,0,0,21-21c14.35,6.1,30.53,9.63,44.6,9.63a7.79,7.79,0,0,0,7-4.31,28.69,28.69,0,0,0,.24-25.62,28,28,0,0,0-9.92-11.17c9.93-14.68,8.61-23.85,6.15-40.93l-.33-2.27a7.78,7.78,0,0,0-8.8-6.62,8,8,0,0,0-2.39.74C259,81.24,249,87,237.81,96.33c-9.39-21.76-29.63-39.53-57.41-50.16-.22-3-.53-5.8-.81-8.35-1.3-11.83-1.74-15.81,6.53-22.7a7.8,7.8,0,0,0-3.46-13.64A74.18,74.18,0,0,0,168,0Z" transform="translate(-0.03 0)" style="fill:#5a2b2b"></path></svg>