<svg id="Layer_1" data-name="Layer 1" xmlns="http://www.w3.org/2000/svg" viewBox="0 0 257.3 192.8"><path d="M217,235.3v11.34q0,8.79,11,8.79t11-8.79V235.3C239,228.24,217,227.83,217,235.3Z" transform="translate(-34.3 -74.4)" style="fill:#77543c"></path><path d="M217,238.41s.52,10.2.16,10.74c-.74,1.1-3.07,10.63-.86,12.27.9.66,4-7.68,4.72-7.34.95.48-.82,7.29.92,8.46,1.15.77,3.93-7.66,5-7.57s-.17,7.65.85,7.57,5.66-10.56,6.63-10.82c4.39-1.22,4.56-1.18,4.56-5.06v-7.93" transform="translate(-34.3 -74.4)" style="fill:none;stroke:#5a2b2b;stroke-linecap:round;stroke-linejoin:round;stroke-width:6.86px"></path><path d="M233.09,247.26a4.14,4.14,0,0,0-2.81,1.09c-.11-.69-.95-1.09-3.06-1.09a4.17,4.17,0,0,0-2.86,1.13c.7-1.4.33-2.26-2.78-2.26-6.55,0-6.85,14.16-5.31,15.29.88.65,3.54-6.53,5.65-9.49l.63-.86c-1.87,4.28-1.66,10.72-.64,11.47s3.54-6.53,5.65-9.48l.28-.39c-1.23,4.13-1,9.21-.06,9.87s3.54-6.53,5.65-9.48C235.83,249.7,237.07,247.26,233.09,247.26Z" transform="translate(-34.3 -74.4)" style="fill:#ffd9cf"></path><path d="M152.9,235.3v11.34q0,8.79,11,8.79t11-8.79V235.3C175,228.24,152.9,227.83,152.9,235.3Z" transform="translate(-34.3 -74.4)" style="fill:#77543c"></path><path d="M152.9,238.41s.53,10.2.17,10.74c-.74,1.1-3.08,10.63-.87,12.27.9.66,4.05-7.68,4.73-7.34.95.48-.83,7.29.92,8.46,1.15.77,3.92-7.66,5-7.57s-.17,7.65.85,7.57,5.65-10.56,6.63-10.82c4.38-1.22,4.55-1.18,4.55-5.06v-7.93" transform="translate(-34.3 -74.4)" style="fill:none;stroke:#5a2b2b;stroke-linecap:round;stroke-linejoin:round;stroke-width:6.86px"></path><path d="M169,247.26a4.12,4.12,0,0,0-2.8,1.09c-.12-.69-1-1.09-3.07-1.09a4.16,4.16,0,0,0-2.85,1.13c.7-1.4.32-2.26-2.79-2.26-6.55,0-6.84,14.16-5.31,15.29.89.65,3.54-6.53,5.65-9.49l.63-.86c-1.86,4.28-1.65,10.72-.63,11.47s3.53-6.53,5.64-9.48l.28-.39c-1.22,4.13-1,9.21-.05,9.87s3.53-6.53,5.64-9.48C171.76,249.7,173,247.26,169,247.26Z" transform="translate(-34.3 -74.4)" style="fill:#ffd9cf"></path><path d="M257.4,198.9s6.3,1.6,14.7-2.7a43,43,0,0,0,11.7-9.6s-3.5,12.2-10.9,18-14.6,5.7-14.6,5.7Z" transform="translate(-34.3 -74.4)" style="fill:#77543c"></path><path d="M198,157c30,0,60.73,3.72,66.07,41.89a27.17,27.17,0,0,0,8-2.69,43,43,0,0,0,11.7-9.6s-3.5,12.2-10.9,18a28.35,28.35,0,0,1-8,4.39c0,.79,0,1.6,0,2.41C264.89,244.94,231,252,198,252s-54-10.6-54-40.6c0-45.1,27-54.4,54-54.4m85.8,29.6h0M198,149.2c-18,0-31.72,3.91-41.95,12-13.17,10.36-19.85,27.26-19.85,50.24,0,17,6.07,29.83,18,38,10.26,7,24.57,10.41,43.77,10.41,21,0,37.1-2.77,49.15-8.47C263,243.82,271.8,231,272.62,214.06a37.33,37.33,0,0,0,5.05-3.29l0,0c8.68-6.8,12.75-19.2,13.5-21.69a7.91,7.91,0,0,0,.39-2.45,7.8,7.8,0,0,0-7.23-7.78l-.57,0h-.47A7.72,7.72,0,0,0,279.6,180a7.85,7.85,0,0,0-1.62,1.38h0a1.64,1.64,0,0,0-.21.25,37.13,37.13,0,0,1-7.89,6.84c-4.16-14.94-13-25.65-26.27-31.92-13.8-6.5-30.8-7.38-45.61-7.38Z" transform="translate(-34.3 -74.4)" style="fill:#5a2b2b"></path><path d="M144,211.4c0-45.1,27-54.4,54-54.4,33,0,66.89,4.5,66.89,54.4C264.89,244.94,231,252,198,252S144,241.4,144,211.4Z" transform="translate(-34.3 -74.4)" style="fill:#77543c"></path><path d="M117,215.3c-43.45,0-78.8-32.52-78.8-72.5,0-38,32.4-64.5,78.8-64.5s78.8,26.52,78.8,64.5C195.8,182.78,160.45,215.3,117,215.3Z" transform="translate(-34.3 -74.4)" style="fill:#77543c"></path><path d="M117,82.2c41.37,0,74.9,22.71,74.9,60.6s-33.53,68.6-74.9,68.6-74.9-30.71-74.9-68.6S75.63,82.2,117,82.2m0-7.8c-22.36,0-42.85,6.29-57.71,17.71a62.63,62.63,0,0,0-25,50.69c0,42.13,37.1,76.4,82.7,76.4s82.7-34.27,82.7-76.4a62.63,62.63,0,0,0-25-50.69C159.85,80.69,139.36,74.4,117,74.4Z" transform="translate(-34.3 -74.4)" style="fill:#5a2b2b"></path><circle cx="54.6" cy="71.5" r="15.6" style="fill:#3a2320"></circle><circle cx="50.6" cy="65.6" r="6.6" style="fill:#fff"></circle><circle cx="59.6" cy="76.5" r="3.1" style="fill:#fff"></circle><circle cx="110.8" cy="71.5" r="15.6" style="fill:#3a2320"></circle><circle cx="106.7" cy="65.6" r="6.6" style="fill:#fff"></circle><circle cx="115.8" cy="76.5" r="3.1" style="fill:#fff"></circle><ellipse cx="32.8" cy="94.9" rx="13.1" ry="8.7" style="fill:#f4a6b4"></ellipse><ellipse cx="132.6" cy="92.6" rx="13.1" ry="8.7" style="fill:#f4a6b4"></ellipse><ellipse cx="82.7" cy="87.1" rx="25" ry="18.7" style="fill:#d9a08e"></ellipse><path d="M117,164.6c0,7.3-4.2,12-12.5,14m12.5-14c0,7.3,4.2,12,12.5,14" transform="translate(-34.3 -74.4)" style="fill:none;stroke:#5a2b2b;stroke-linecap:round;stroke-linejoin:round;stroke-width:6.05px"></path><path d="M98.3,158.4l-31.2-6.2m31.2,12.4-31.2,4.7m68.6-10.9,31.2-6.2m-31.2,12.4,31.2,4.7" transform="translate(-34.3 -74.4)" style="fill:none;stroke:#5a2b2b;stroke-linecap:round;stroke-linejoin:round;stroke-width:2.75px"></path><ellipse cx="82.7" cy="79.6" rx="10.6" ry="8.7" style="fill:#e88aa0"></ellipse><path d="M231.08,236v11.34q0,8.79,11,8.79t11-8.79V236C253.13,229,231.08,228.55,231.08,236Z" transform="translate(-34.3 -74.4)" style="fill:#77543c"></path><path d="M231.08,239.13s.52,10.2.16,10.74c-.73,1.1-3.07,10.63-.86,12.27.9.66,4-7.68,4.73-7.34.95.48-.83,7.29.91,8.46,1.15.77,3.93-7.66,5-7.57s-.17,7.65.85,7.57,5.66-10.55,6.63-10.82c4.39-1.22,4.56-1.18,4.56-5.06v-7.93" transform="translate(-34.3 -74.4)" style="fill:none;stroke:#5a2b2b;stroke-linecap:round;stroke-linejoin:round;stroke-width:6.86px"></path><path d="M247.2,248a4.16,4.16,0,0,0-2.81,1.09c-.11-.69-.95-1.09-3.06-1.09a4.19,4.19,0,0,0-2.86,1.13c.7-1.39.33-2.26-2.78-2.26-6.55,0-6.85,14.16-5.31,15.29.88.65,3.54-6.53,5.65-9.49l.63-.86c-1.87,4.28-1.65,10.72-.64,11.47s3.54-6.53,5.65-9.48l.28-.39c-1.22,4.13-.95,9.21-.06,9.87s3.54-6.53,5.65-9.48C249.94,250.42,251.18,248,247.2,248Z" transform="translate(-34.3 -74.4)" style="fill:#ffd9cf"></path><path d="M167,236v11.34q0,8.79,11,8.79t11-8.79V236C189.06,229,167,228.55,167,236Z" transform="translate(-34.3 -74.4)" style="fill:#77543c"></path><path d="M167,239.13s.53,10.2.17,10.74c-.74,1.1-3.08,10.63-.86,12.27.9.66,4-7.68,4.72-7.34,1,.48-.82,7.29.92,8.46,1.15.77,3.93-7.66,5-7.57s-.17,7.65.85,7.57,5.66-10.55,6.63-10.82c4.39-1.22,4.55-1.18,4.55-5.06v-7.93" transform="translate(-34.3 -74.4)" style="fill:none;stroke:#5a2b2b;stroke-linecap:round;stroke-linejoin:round;stroke-width:6.86px"></path><path d="M183.13,248a4.13,4.13,0,0,0-2.8,1.09c-.11-.69-1-1.09-3.07-1.09a4.16,4.16,0,0,0-2.85,1.13c.7-1.39.32-2.26-2.79-2.26-6.54,0-6.84,14.16-5.3,15.29.88.65,3.53-6.53,5.64-9.49l.64-.86c-1.87,4.28-1.66,10.72-.64,11.47s3.54-6.53,5.65-9.48l.28-.39c-1.23,4.13-1,9.21-.06,9.87s3.54-6.53,5.64-9.48C185.87,250.42,187.12,248,183.13,248Z" transform="translate(-34.3 -74.4)" style="fill:#ffd9cf"></path></svg>