<svg xmlns="http://www.w3.org/2000/svg" viewBox="0 0 257.3 192.8">
<path style="fill:#77543C" d="M182.7,160.9v11.3c0,5.9,3.7,8.8,11,8.8s11-2.9,11-8.8v-11.3C204.7,153.8,182.7,153.4,182.7,160.9z"></path>
<path style="fill:none;stroke:#5A2B2B;stroke-width:7.7875;stroke-linecap:round;stroke-linejoin:round" d="M182.7,164c0,0,0.5,10.2,0.2,10.7c-0.7,1.1-3.1,10.6-0.9,12.3c0.9,0.7,4-7.7,4.7-7.3c0.9,0.5-0.8,7.3,0.9,8.5c1.1,0.8,3.9-7.7,5-7.6s-0.2,7.6,0.9,7.6s5.7-10.6,6.6-10.8c4.4-1.2,4.6-1.2,4.6-5.1v-7.9"></path>
<path style="fill:#FFD9CF" d="M198.8,172.9c-1,0-2,0.4-2.8,1.1c-0.1-0.7-0.9-1.1-3.1-1.1c-1.1,0-2.1,0.4-2.9,1.1c0.7-1.4,0.3-2.3-2.8-2.3c-6.6,0-6.9,14.2-5.3,15.3c0.9,0.6,3.5-6.5,5.6-9.5l0.6-0.9c-1.9,4.3-1.7,10.7-0.6,11.5s3.5-6.5,5.6-9.5l0.3-0.4c-1.2,4.1-1,9.2-0.1,9.9s3.5-6.5,5.6-9.5C201.5,175.3,202.8,172.9,198.8,172.9z"></path>
<path style="fill:#77543C" d="M118.6,160.9v11.3c0,5.9,3.7,8.8,11,8.8s11-2.9,11-8.8v-11.3C140.7,153.8,118.6,153.4,118.6,160.9z"></path>
<path style="fill:none;stroke:#5A2B2B;stroke-width:7.7875;stroke-linecap:round;stroke-linejoin:round" d="M118.6,164c0,0,0.5,10.2,0.2,10.7c-0.7,1.1-3.1,10.6-0.9,12.3c0.9,0.7,4.1-7.7,4.7-7.3c0.9,0.5-0.8,7.3,0.9,8.5c1.1,0.8,3.9-7.7,5-7.6s-0.2,7.6,0.9,7.6s5.6-10.6,6.6-10.8c4.4-1.2,4.6-1.2,4.6-5.1v-7.9"></path>
<path style="fill:#FFD9CF" d="M134.7,172.9c-1,0-2,0.4-2.8,1.1c-0.1-0.7-1-1.1-3.1-1.1c-1.1,0-2.1,0.4-2.9,1.1c0.7-1.4,0.3-2.3-2.8-2.3c-6.6,0-6.8,14.2-5.3,15.3c0.9,0.6,3.5-6.5,5.6-9.5l0.6-0.9c-1.9,4.3-1.6,10.7-0.6,11.5s3.5-6.5,5.6-9.5l0.3-0.4c-1.2,4.1-1,9.2-0.1,9.9s3.5-6.5,5.6-9.5C137.5,175.3,138.7,172.9,134.7,172.9z"></path>
<path style="fill:#77543C" d="M223.1,124.5c0,0,6.3,1.6,14.7-2.7c4.4-2.5,8.4-5.7,11.7-9.6c0,0-3.5,12.2-10.9,18c-7.4,5.8-14.6,5.7-14.6,5.7L223.1,124.5z"></path>
<path style="fill:#5A2B2B" d="M163.7,82.6c30,0,60.7,3.7,66.1,41.9c2.8-0.5,5.5-1.4,8-2.7c4.4-2.5,8.4-5.7,11.7-9.6c0,0-3.5,12.2-10.9,18c-2.4,1.9-5.1,3.4-8,4.4c0,0.8,0,1.6,0,2.4c0,33.5-33.9,40.6-66.9,40.6s-54-10.6-54-40.6C109.7,91.9,136.7,82.6,163.7,82.6 M249.5,112.2L249.5,112.2 M163.7,74.8c-18,0-31.7,3.9-41.9,12c-13.2,10.4-19.9,27.3-19.9,50.2c0,17,6.1,29.8,18,38c10.3,7,24.6,10.4,43.8,10.4c21,0,37.1-2.8,49.1-8.5c15.9-7.6,24.7-20.4,25.5-37.3c1.8-1,3.5-2.1,5-3.3l0,0c8.7-6.8,12.8-19.2,13.5-21.7c0.3-0.8,0.4-1.6,0.4-2.4c0-4.1-3.2-7.5-7.2-7.8h-0.6H249c-1.3,0.1-2.6,0.5-3.7,1.1c-0.6,0.4-1.1,0.8-1.6,1.4l0,0c-0.1,0.1-0.1,0.2-0.2,0.3c-2.3,2.6-5,4.9-7.9,6.8c-4.2-14.9-13-25.6-26.3-31.9C195.5,75.7,178.5,74.8,163.7,74.8L163.7,74.8z"></path>
<path style="fill:#77543C" d="M109.7,137c0-45.1,27-54.4,54-54.4c33,0,66.9,4.5,66.9,54.4c0,33.5-33.9,40.6-66.9,40.6S109.7,167,109.7,137z"></path>
<path style="fill:#77543C" d="M82.7,140.9c-43.4,0-78.8-32.5-78.8-72.5c0-38,32.4-64.5,78.8-64.5s78.8,26.5,78.8,64.5C161.5,108.4,126.1,140.9,82.7,140.9z"></path>
<path style="fill:none;stroke:#3A2320;stroke-width:7;stroke-linecap:round;stroke-linejoin:round" d="M39,73.4c2.8-6.8,9.6-11.3,17.1-10.8c9,0.6,13.7,10.4,13.9,10.8"></path>
<path style="fill:none;stroke:#3A2320;stroke-width:7;stroke-linecap:round;stroke-linejoin:round" d="M96.9,73.4c2.8-6.8,9.6-11.3,17.1-10.8c9,0.6,13.7,10.4,13.9,10.8"></path>
<path style="fill:#5A2B2B" d="M82.7,7.8c41.4,0,74.9,22.7,74.9,60.6S124.1,137,82.7,137S7.8,106.3,7.8,68.4S41.3,7.8,82.7,7.8 M82.7,0C60.3,0,39.9,6.3,25,17.7C9.1,29.7-0.2,48.5,0,68.4c0,42.1,37.1,76.4,82.7,76.4s82.7-34.3,82.7-76.4c0.2-19.9-9.1-38.7-25-50.7C125.6,6.3,105.1,0,82.7,0z"></path>
<ellipse style="fill:#F4A6B4" cx="32.8" cy="94.9" rx="13.1" ry="8.7"></ellipse>
<ellipse style="fill:#F4A6B4" cx="132.6" cy="92.6" rx="13.1" ry="8.7"></ellipse>
<ellipse style="fill:#D9A08E" cx="82.7" cy="87.1" rx="25" ry="18.7"></ellipse>
<path style="fill:none;stroke:#5A2B2B;stroke-width:6.864;stroke-linecap:round;stroke-linejoin:round" d="M82.7,90.2c0,7.3-4.2,12-12.5,14 M82.7,90.2c0,7.3,4.2,12,12.5,14"></path>
<path style="fill:none;stroke:#5A2B2B;stroke-width:3.12;stroke-linecap:round;stroke-linejoin:round" d="M64,84l-31.2-6.2 M64,90.2l-31.2,4.7 M101.4,84l31.2-6.2 M101.4,90.2l31.2,4.7"></path>
<ellipse style="fill:#E88AA0" cx="82.7" cy="79.6" rx="10.6" ry="8.7"></ellipse>
<path style="fill:#77543C" d="M196.8,161.6v11.3c0,5.9,3.7,8.8,11,8.8c7.3,0,11-2.9,11-8.8v-11.3C218.8,154.6,196.8,154.1,196.8,161.6z"></path>
<path style="fill:none;stroke:#5A2B2B;stroke-width:7.7875;stroke-linecap:round;stroke-linejoin:round" d="M196.8,164.7c0,0,0.5,10.2,0.2,10.7c-0.7,1.1-3.1,10.6-0.9,12.3c0.9,0.7,4-7.7,4.7-7.3c0.9,0.5-0.8,7.3,0.9,8.5c1.1,0.8,3.9-7.7,5-7.6s-0.2,7.6,0.9,7.6s5.7-10.6,6.6-10.8c4.4-1.2,4.6-1.2,4.6-5.1v-7.9"></path>
<path style="fill:#FFD9CF" d="M212.9,173.6c-1,0-2,0.4-2.8,1.1c-0.1-0.7-0.9-1.1-3.1-1.1c-1.1,0-2.1,0.4-2.9,1.1c0.7-1.4,0.3-2.3-2.8-2.3c-6.6,0-6.9,14.2-5.3,15.3c0.9,0.6,3.5-6.5,5.6-9.5l0.6-0.9c-1.9,4.3-1.6,10.7-0.6,11.5s3.5-6.5,5.6-9.5l0.3-0.4c-1.2,4.1-0.9,9.2-0.1,9.9s3.5-6.5,5.6-9.5C215.6,176,216.9,173.6,212.9,173.6z"></path>
<path style="fill:#77543C" d="M132.7,161.6v11.3c0,5.9,3.7,8.8,11,8.8s11-2.9,11-8.8v-11.3C154.8,154.6,132.7,154.1,132.7,161.6z"></path>
<path style="fill:none;stroke:#5A2B2B;stroke-width:7.7875;stroke-linecap:round;stroke-linejoin:round" d="M132.7,164.7c0,0,0.5,10.2,0.2,10.7c-0.7,1.1-3.1,10.6-0.9,12.3c0.9,0.7,4-7.7,4.7-7.3c1,0.5-0.8,7.3,0.9,8.5c1.1,0.8,3.9-7.7,5-7.6s-0.2,7.6,0.9,7.6s5.7-10.6,6.6-10.8c4.4-1.2,4.6-1.2,4.6-5.1v-7.9"></path>
<path style="fill:#FFD9CF" d="M148.8,173.6c-1,0-2,0.4-2.8,1.1c-0.1-0.7-1-1.1-3.1-1.1c-1.1,0-2.1,0.4-2.9,1.1c0.7-1.4,0.3-2.3-2.8-2.3c-6.5,0-6.8,14.2-5.3,15.3c0.9,0.6,3.5-6.5,5.6-9.5l0.6-0.9c-1.9,4.3-1.7,10.7-0.6,11.5s3.5-6.5,5.6-9.5l0.3-0.4c-1.2,4.1-1,9.2-0.1,9.9s3.5-6.5,5.6-9.5C151.6,176,152.8,173.6,148.8,173.6z"></path>
</svg>