<svg id="Layer_1" data-name="Layer 1" xmlns="http://www.w3.org/2000/svg" viewBox="0 0 289.09 242.23"><path d="M131.18,333.52v14.2q0,11,11,11t11-11v-14.2C153.23,324.69,131.18,324.17,131.18,333.52Z" transform="translate(-8.35 -120.41)" style="fill:#f0862f"></path><path d="M131.18,337.41v10.33q0,11,11,11t11-11v-9.93" transform="translate(-8.35 -120.41)" style="fill:none;stroke:#5a2b2b;stroke-linecap:round;stroke-linejoin:round;stroke-width:8.62px"></path><path d="M195,333.52v14.2q0,11,11,11t11-11v-14.2C217.05,324.69,195,324.17,195,333.52Z" transform="translate(-8.35 -120.41)" style="fill:#f0862f"></path><path d="M195,337.41v10.33q0,11,11,11t11-11v-9.93" transform="translate(-8.35 -120.41)" style="fill:none;stroke:#5a2b2b;stroke-linecap:round;stroke-linejoin:round;stroke-width:8.62px"></path><path d="M255.05,188.24a24,24,0,0,1,6.72,1h0a35.7,35.7,0,0,1,3.8,1.4,24.64,24.64,0,0,0-3.8-1.4,25,25,0,0,1,6.47,2.71,15.39,15.39,0,0,1,1.43.89,35.68,35.68,0,0,1,4.3,3.6c11.3,13.3,16.3,31.1,15.6,49.4-1.28,32.32-20.8,65.73-56.12,77.09-1.62,22.12-25.52,26.71-54.79,26.71-30.31,0-54.88-4.92-54.88-29.15,0-39.22,24.57-58.59,54.88-58.59,27,0,49.4,13,54,45.62,8.21-4.45,18.19-7.42,23.31-21.08,3.7-13.4,3.4-25.4.5-34.4-3.47-10.87-10.69-17.49-19.08-17.49a15.46,15.46,0,0,0-2.42.19,10.88,10.88,0,0,0-3,.7c-6.26-31.69,8.19-47,23.63-47a24.54,24.54,0,0,1,6.17.81,24,24,0,0,0-6.27-.84c-15.42,0-29.87,15.34-23.53,47.05-6.76-26.18,5.49-47.2,23.08-47.19m0-7.8c-9.32,0-17.81,4.32-23.88,12.16-8.6,11.1-11.12,27.84-6.74,44.78a7.8,7.8,0,0,0,3,4.39h0a8.39,8.39,0,0,0,.81.5h0a7.77,7.77,0,0,0,3.69.93,7.61,7.61,0,0,0,1.49-.15L234,243a7.35,7.35,0,0,0,1-.32,3.48,3.48,0,0,1,.83-.16l.37-.05a9.3,9.3,0,0,1,1.27-.1c4.82,0,9.28,4.62,11.65,12.06,2.65,8.2,2.47,18.69-.49,29.6a21.81,21.81,0,0,1-10.38,11.87c-7.62-26.71-28.81-41.78-59.51-41.78-17.74,0-33,5.82-44.27,16.82-12,11.82-18.41,29-18.41,49.57,0,14.34,7.2,25,20.8,30.83,9.74,4.18,23.05,6.12,41.88,6.12,18.11,0,31-1.78,40.65-5.61,13.86-5.52,19.28-14.85,21.15-23.11a86,86,0,0,0,40.25-32.07,97.42,97.42,0,0,0,16.66-50.5c.81-21.13-5.39-40.57-17.45-54.76-.14-.17-.28-.32-.43-.47a43.36,43.36,0,0,0-5.2-4.37l-.18-.13c-.59-.41-1.22-.8-2-1.23a33.06,33.06,0,0,0-8.3-3.48,31.92,31.92,0,0,0-8.79-1.26h0Z" transform="translate(-8.35 -120.41)" style="fill:#5a2b2b"></path><path d="M269.67,192.83a25.48,25.48,0,0,0-7.9-3.6,24.64,24.64,0,0,1,3.8,1.4A23.21,23.21,0,0,1,269.67,192.83Z" transform="translate(-8.35 -120.41)" style="fill:#f0862f"></path><path d="M280.57,234.53c-2.1-.9-2.4,19.1-6.3,20.1-3.4.9-10.4-17.3-11.6-16.6-3.1,1.8-5,8.2-6.2,14,2.9,9,3.2,21-.5,34.4-9,24-33,15-36,39h3.7c41.5-7.9,64.5-44.4,65.9-79.6C287.57,241.63,284.77,236.33,280.57,234.53Z" transform="translate(-8.35 -120.41)" style="fill:#f0862f"></path><path d="M235,234.63a10.88,10.88,0,0,0-3,.7C233,235,234,234.83,235,234.63Z" transform="translate(-8.35 -120.41)" style="fill:#f0862f"></path><path d="M261.77,189.23c-21-6.1-37.4,16.8-29.8,46.2C224.77,199.43,244.37,184.53,261.77,189.23Z" transform="translate(-8.35 -120.41)" style="fill:#fbf4e8"></path><path d="M274,196.43a35.68,35.68,0,0,0-4.3-3.6,23.21,23.21,0,0,0-4.1-2.2,35.7,35.7,0,0,0-3.8-1.4c-17.4-4.6-36.9,10.3-29.8,46.2a10.88,10.88,0,0,1,3-.7c9.4-1.4,17.7,5.4,21.5,17.3,1.2-5.8,3.1-12.2,6.2-14,1.2-.7,8.2,17.5,11.6,16.6,3.9-1,4.2-21,6.3-20.1,4.2,1.8,7,7.2,9,11.3C290.27,227.53,285.27,209.73,274,196.43Z" transform="translate(-8.35 -120.41)" style="fill:#fbf4e8"></path><path d="M178.66,261.89c30.31,0,54.88,16.34,54.88,58.59,0,24.23-24.57,29.15-54.88,29.15s-54.88-4.92-54.88-29.15C123.78,281.26,148.35,261.89,178.66,261.89Z" transform="translate(-8.35 -120.41)" style="fill:#f0862f"></path><path d="M143.55,333.24v14.2q0,11,11,11t11-11v-14.2C165.6,324.41,143.55,323.89,143.55,333.24Z" transform="translate(-8.35 -120.41)" style="fill:#f0862f"></path><path d="M143.55,337.13v10.33q0,11,11,11t11-11v-9.93" transform="translate(-8.35 -120.41)" style="fill:none;stroke:#5a2b2b;stroke-linecap:round;stroke-linejoin:round;stroke-width:8.62px"></path><path d="M207.37,333.24v14.2q0,11,11,11t11-11v-14.2C229.42,324.41,207.37,323.89,207.37,333.24Z" transform="translate(-8.35 -120.41)" style="fill:#f0862f"></path><path d="M207.37,337.13v10.33q0,11,11,11t11-11v-9.93" transform="translate(-8.35 -120.41)" style="fill:none;stroke:#5a2b2b;stroke-linecap:round;stroke-linejoin:round;stroke-width:8.62px"></path><path d="M25.85,221.39c-4.2-54.1,0-76.4,18.7-93,12.5,12.5,26,21.2,34.3,52.4,8.3-8.3,17.7-8.2,28.1-8.2s19.8-.1,28.1,8.2c8.3-31.2,23.8-35.2,36.3-47.7,18.7,16.6,20.9,34.2,16.7,88.3,4.2,25-4.2,43.7-25,56.2q-31.2,12.45-56.2,12.5t-56.2-12.5Q19.6,258.69,25.85,221.39Z" transform="translate(-8.35 -120.41)" style="fill:#f0862f"></path><path d="M40.66,209.74c-4.48-18.1.29-44,6.3-48.5,4.49,7.53,11,14.84,14,28.38,0,0-7.1,6.22-10.86,9S40.66,209.74,40.66,209.74Z" transform="translate(-8.35 -120.41)" style="fill:#fbf4e8"></path><path d="M168.73,209.74c4.48-18.1,3-44-3-48.5-4.49,7.53-10.79,13.1-13.83,26.64,0,0,4.42,6.37,7.24,9.56S168.73,209.74,168.73,209.74Z" transform="translate(-8.35 -120.41)" style="fill:#fbf4e8"></path><path d="M167.85,256.79a118.18,118.18,0,0,0,19.5-4.9c9.5-3.4,11.2-18.3,11.2-18.3s-6.3.9-16.8,2.9c-12.1,1.4-17.6,6.2-23,10.8s-22.8,17.8-39.4-2.9c-6.2-8.3-10.4-12.5-12.5-12.5s-6.2,5.1-12.5,12.5c-15.4,18-23.1,13-38.6,4.6-13.2-7.2-39.6-10.7-39.6-10.7s1.9,4.4,7.6,12c5.5,7.3,23.9,18,23.9,18-4.9-1-7.7-4.1-16.4-8.5a26.27,26.27,0,0,0-14.5-3s-1.5,3.9,8,13.9,16.8,5.3,16.8,5.3c4.9,10.8,24.1,11.2,40.6,15a69.26,69.26,0,0,0,49.9,0c11.7-2.7,18.3-9.1,31-13.4,12.1,1.3,20.3-2.8,26.9-8.4,12.2-10.4,11.2-15.6,11.2-15.6s-5.7-.7-14.6,1.2S167.85,258.09,167.85,256.79Z" transform="translate(-8.35 -120.41)" style="fill:#fbf4e8"></path><circle cx="67.4" cy="111.49" r="20" style="fill:#3a2320"></circle><circle cx="62.2" cy="103.89" r="8.4" style="fill:#fff"></circle><circle cx="73.8" cy="117.89" r="4" style="fill:#fff"></circle><circle cx="129.8" cy="111.49" r="20" style="fill:#3a2320"></circle><circle cx="124.6" cy="103.89" r="8.4" style="fill:#fff"></circle><circle cx="136.2" cy="117.89" r="4" style="fill:#fff"></circle><path d="M95.75,255.59c7.3,8.3,14.6,8.3,21.8,0C114.45,250.59,98.85,250.59,95.75,255.59Z" transform="translate(-8.35 -120.41)" style="fill:#5a2b2b"></path><path d="M107,261.89v7.5" transform="translate(-8.35 -120.41)" style="fill:none;stroke:#5a2b2b;stroke-linecap:round;stroke-linejoin:round;stroke-width:6.90px"></path><path d="M107,269.29c-7.3,6.2-14,7.3-20.3,3.1m20.3-3.1c7.3,6.2,14,7.3,20.3,3.1" transform="translate(-8.35 -120.41)" style="fill:none;stroke:#5a2b2b;stroke-linecap:round;stroke-linejoin:round;stroke-width:8.27px"></path><ellipse cx="41.6" cy="138.29" rx="15" ry="9.7" style="fill:#f4a6b4"></ellipse><ellipse cx="148" cy="138.29" rx="15" ry="9.7" style="fill:#f4a6b4"></ellipse><path d="M44.55,128.21c12.5,12.5,26,21.2,34.3,52.4,8.11-8.11,17.26-8.2,27.37-8.2h1.46c10.11,0,19.27.09,27.37,8.2,8.3-31.2,23.8-35.2,36.3-47.7,18.7,16.6,20.9,34.2,16.7,88.3a70.31,70.31,0,0,1,1,13.75c6-1.06,9.48-1.55,9.48-1.55s-1.7,14.9-11.2,18.3l-1.71.59c-.37.93-.78,1.84-1.21,2.74l2.12-.43a56.41,56.41,0,0,1,11.71-1.33,25.66,25.66,0,0,1,2.89.13s1,5.2-11.2,15.6c-5.77,4.89-12.76,8.64-22.5,8.64a42.25,42.25,0,0,1-4.4-.24c-1.71.68-3.4,1.32-5.08,1.95-9.59,4.1-15.89,9.13-25.92,11.45a69.26,69.26,0,0,1-49.9,0c-16.5-3.8-35.7-4.2-40.6-15a9,9,0,0,1-4.56,1.1c-3,0-7.34-1.25-12.24-6.4-9.5-10-8-13.9-8-13.9a13.65,13.65,0,0,1,2-.12,28,28,0,0,1,12.5,3.12c.36.17.69.35,1,.52q-1.25-2-2.3-4a38.34,38.34,0,0,1-6.22-6c-5.7-7.6-7.6-12-7.6-12s3.69.48,9,1.47a67,67,0,0,1,.71-18.37c-4.2-54.1,0-76.4,18.7-93m0-7.8a7.79,7.79,0,0,0-5.18,2c-11,9.77-17.3,21.11-20.41,36.75-2.87,14.45-3.16,32.95-1,61.75a81,81,0,0,0-.94,9.49,7,7,0,0,0-.91-.05A7.8,7.8,0,0,0,9,241.2a58.81,58.81,0,0,0,4.73,8.22,7.77,7.77,0,0,0-4.25,4.39c-1.49,3.87-1,10.85,9.63,22.07,6.93,7.3,13.55,8.83,17.89,8.83.43,0,.85,0,1.26,0,7,7.35,19.11,9.48,30.9,11.56,3.59.63,7.3,1.28,10.77,2.07a77,77,0,0,0,54.39,0c7.13-1.72,12.56-4.59,17.82-7.37,2.76-1.46,5.62-3,8.74-4.32,1.21-.45,2.3-.87,3.33-1.27,1.1.08,2.18.12,3.25.12,10.21,0,19.22-3.44,27.55-10.5,13.63-11.62,14.5-19.41,13.81-23a7.82,7.82,0,0,0-5.74-6.09,42.09,42.09,0,0,0,3.23-11.55,7.79,7.79,0,0,0-7.75-8.68,8.13,8.13,0,0,0-1.1.07l-.92.14c-.16-1.63-.37-3.28-.63-4.94,2-25.76,2.67-44.69.07-59.26-2.57-14.4-8.39-24.74-19.44-34.55a7.81,7.81,0,0,0-10.69.32,101,101,0,0,1-9,7.67c-9,7-19,14.86-26,33.15-7.76-3.6-15.81-3.6-23.17-3.6h-1.46c-7.32,0-15.33,0-23.06,3.55C75.54,146.83,65,136.85,55.48,127.9c-1.87-1.77-3.65-3.45-5.41-5.21a7.78,7.78,0,0,0-5.52-2.28Z" transform="translate(-8.35 -120.41)" style="fill:#5a2b2b"></path></svg>