<svg version="1.1" id="Layer_1" xmlns="http://www.w3.org/2000/svg" xmlns:xlink="http://www.w3.org/1999/xlink" x="0px" y="0px" viewBox="0 0 289.09 242.23" style="enable-background:new 0 0 300 366;" xml:space="preserve"><g transform="translate(-8.35 -120.41)">

<g>
&#x9;<path style="fill:#F0862F" d="M131.2,333.5v14.2c0,7.3,3.7,11,11,11s11-3.7,11-11v-14.2C153.2,324.7,131.2,324.2,131.2,333.5z"></path>
&#x9;<path style="fill:none;stroke:#5A2B2B;stroke-width:7.8;stroke-linecap:round;stroke-linejoin:round;stroke-miterlimit:10" d="M131.2,337.4v10.3c0,7.3,3.7,11,11,11s11-3.7,11-11v-9.9"></path>
</g>
<g>
&#x9;<path style="fill:#F0862F" d="M195,333.5v14.2c0,7.3,3.7,11,11,11s11-3.7,11-11v-14.2C217.1,324.7,195,324.2,195,333.5z"></path>
&#x9;<path style="fill:none;stroke:#5A2B2B;stroke-width:7.8;stroke-linecap:round;stroke-linejoin:round;stroke-miterlimit:10" d="M195,337.4v10.3c0,7.3,3.7,11,11,11s11-3.7,11-11v-9.9"></path>
</g>
<g>
&#x9;<path style="fill:#5A2B2B" d="M255,188.2c2.2,0,4.4,0.3,6.7,1l0,0c1.2,0.4,2.5,0.8,3.8,1.4c-1.2-0.6-2.5-1-3.8-1.4c2.2,0.6,4.4,1.5,6.5,2.7&#xA;&#x9;&#x9;c0.5,0.3,1,0.6,1.4,0.9c1.5,1.1,2.9,2.2,4.3,3.6c11.3,13.3,16.3,31.1,15.6,49.4c-1.3,32.3-20.8,65.7-56.1,77.1&#xA;&#x9;&#x9;c-1.6,22.1-25.5,26.7-54.8,26.7c-30.3,0-54.9-4.9-54.9-29.2c0-39.2,24.6-58.6,54.9-58.6c27,0,49.4,13,54,45.6&#xA;&#x9;&#x9;c8.2-4.5,18.2-7.4,23.3-21.1c3.7-13.4,3.4-25.4,0.5-34.4c-3.5-10.9-10.7-17.5-19.1-17.5c-0.8,0-1.6,0.1-2.4,0.2c-1,0.1-2,0.3-3,0.7&#xA;&#x9;&#x9;c-6.3-31.7,8.2-47,23.6-47c2.1,0,4.1,0.3,6.2,0.8c-2.1-0.6-4.2-0.8-6.3-0.8c-15.4,0-29.9,15.3-23.5,47&#xA;&#x9;&#x9;C225.2,209.3,237.5,188.2,255,188.2 M255,180.4c-9.3,0-17.8,4.3-23.9,12.2c-8.6,11.1-11.1,27.8-6.7,44.8c0.5,1.8,1.6,3.4,3,4.4l0,0&#xA;&#x9;&#x9;l0,0c0.3,0.2,0.5,0.4,0.8,0.5l0,0l0,0l0,0c1.1,0.6,2.4,0.9,3.7,0.9c0.5,0,1,0,1.5-0.1c0.2,0,0.3-0.1,0.5-0.1c0.3-0.1,0.7-0.2,1-0.3&#xA;&#x9;&#x9;c0.2-0.1,0.5-0.1,0.8-0.2c0.1,0,0.2,0,0.4,0c0.4-0.1,0.9-0.1,1.3-0.1c4.8,0,9.3,4.6,11.6,12.1c2.6,8.2,2.5,18.7-0.5,29.6&#xA;&#x9;&#x9;c-2.4,6.2-6,9.3-10.4,11.9c-7.6-26.7-28.8-41.8-59.5-41.8c-17.7,0-33.1,5.8-44.3,16.8c-12,11.8-18.4,29-18.4,49.6&#xA;&#x9;&#x9;c0,14.3,7.2,25,20.8,30.8c9.7,4.2,23,6.1,41.9,6.1c18.1,0,31-1.8,40.6-5.6c13.9-5.5,19.3-14.8,21.2-23.1&#xA;&#x9;&#x9;c16.3-6.3,30.1-17.3,40.3-32.1c10-14.6,15.9-32.6,16.7-50.5c0.8-21.1-5.4-40.6-17.4-54.8c-0.1-0.2-0.3-0.3-0.4-0.5&#xA;&#x9;&#x9;c-1.8-1.8-3.7-3.2-5.2-4.4c-0.1,0-0.1-0.1-0.2-0.1c-0.6-0.4-1.2-0.8-2-1.2c-2.7-1.6-5.4-2.7-8.3-3.5&#xA;&#x9;&#x9;C260.9,180.9,257.9,180.4,255,180.4L255,180.4L255,180.4L255,180.4z"></path>
</g>
<g>
&#x9;<path style="fill:#F0862F" d="M269.7,192.8c-2.5-1.7-5.2-2.9-7.9-3.6c1.3,0.4,2.6,0.8,3.8,1.4C267,191.2,268.4,191.9,269.7,192.8z"></path>
&#x9;<path style="fill:#F0862F" d="M280.6,234.5c-2.1-0.9-2.4,19.1-6.3,20.1c-3.4,0.9-10.4-17.3-11.6-16.6c-3.1,1.8-5,8.2-6.2,14&#xA;&#x9;&#x9;c2.9,9,3.2,21-0.5,34.4c-9,24-33,15-36,39h3.7c41.5-7.9,64.5-44.4,65.9-79.6C287.6,241.6,284.8,236.3,280.6,234.5z"></path>
&#x9;<path style="fill:#F0862F" d="M235,234.6c-1,0.1-2,0.3-3,0.7C233,235,234,234.8,235,234.6z"></path>
&#x9;<path style="fill:#FBF4E8" d="M261.8,189.2c-21-6.1-37.4,16.8-29.8,46.2C224.8,199.4,244.4,184.5,261.8,189.2z"></path>
&#x9;<path style="fill:#FBF4E8" d="M274,196.4c-1.4-1.4-2.8-2.5-4.3-3.6c-1.3-0.9-2.7-1.6-4.1-2.2c-1.3-0.6-2.6-1-3.8-1.4&#xA;&#x9;&#x9;c-17.4-4.6-36.9,10.3-29.8,46.2c1-0.4,2-0.6,3-0.7c9.4-1.4,17.7,5.4,21.5,17.3c1.2-5.8,3.1-12.2,6.2-14c1.2-0.7,8.2,17.5,11.6,16.6&#xA;&#x9;&#x9;c3.9-1,4.2-21,6.3-20.1c4.2,1.8,7,7.2,9,11.3C290.3,227.5,285.3,209.7,274,196.4z"></path>
</g>
<path style="fill:#F0862F" d="M178.7,261.9c30.3,0,54.9,16.3,54.9,58.6c0,24.2-24.6,29.1-54.9,29.1s-54.9-4.9-54.9-29.1&#xA;&#x9;C123.8,281.3,148.4,261.9,178.7,261.9z"></path>
<g>
&#x9;<path style="fill:#F0862F" d="M143.6,333.2v14.2c0,7.3,3.7,11,11,11s11-3.7,11-11v-14.2C165.6,324.4,143.6,323.9,143.6,333.2z"></path>
&#x9;<path style="fill:none;stroke:#5A2B2B;stroke-width:7.8;stroke-linecap:round;stroke-linejoin:round;stroke-miterlimit:10" d="M143.6,337.1v10.3c0,7.3,3.7,11,11,11s11-3.7,11-11v-9.9"></path>
</g>
<g>
&#x9;<path style="fill:#F0862F" d="M207.4,333.2v14.2c0,7.3,3.7,11,11,11s11-3.7,11-11v-14.2C229.4,324.4,207.4,323.9,207.4,333.2z"></path>
&#x9;<path style="fill:none;stroke:#5A2B2B;stroke-width:7.8;stroke-linecap:round;stroke-linejoin:round;stroke-miterlimit:10" d="M207.4,337.1v10.3c0,7.3,3.7,11,11,11s11-3.7,11-11v-9.9"></path>
</g>
<path style="fill:#F0862F" d="M25.9,221.4c-4.2-54.1,0-76.4,18.7-93c12.5,12.5,26,21.2,34.3,52.4c8.3-8.3,17.7-8.2,28.1-8.2&#xA;&#x9;s19.8-0.1,28.1,8.2c8.3-31.2,23.8-35.2,36.3-47.7c18.7,16.6,20.9,34.2,16.7,88.3c4.2,25-4.2,43.7-25,56.2&#xA;&#x9;c-20.8,8.3-39.5,12.5-56.2,12.5s-35.4-4.2-56.2-12.5C30,265,21.7,246.3,25.9,221.4z"></path>
<path style="fill:#FBF4E8" d="M40.7,209.7c-4.5-18.1,0.3-44,6.3-48.5c4.5,7.5,11,14.8,14,28.4c0,0-7.1,6.2-10.9,9&#xA;&#x9;C46.5,201.5,40.7,209.7,40.7,209.7z"></path>
<path style="fill:#FBF4E8" d="M168.7,209.7c4.5-18.1,3-44-3-48.5c-4.5,7.5-10.8,13.1-13.8,26.6c0,0,4.4,6.4,7.2,9.6&#xA;&#x9;C162,200.7,168.7,209.7,168.7,209.7z"></path>
<path style="fill:#FBF4E8" d="M167.9,256.8c0,0,10-1.5,19.5-4.9s11.2-18.3,11.2-18.3s-6.3,0.9-16.8,2.9c-12.1,1.4-17.6,6.2-23,10.8&#xA;&#x9;s-22.8,17.8-39.4-2.9c-6.2-8.3-10.4-12.5-12.5-12.5s-6.2,5.1-12.5,12.5c-15.4,18-23.1,13-38.6,4.6c-13.2-7.2-39.6-10.7-39.6-10.7&#xA;&#x9;s1.9,4.4,7.6,12c5.5,7.3,23.9,18,23.9,18c-4.9-1-7.7-4.1-16.4-8.5c-7.9-4-14.5-3-14.5-3s-1.5,3.9,8,13.9s16.8,5.3,16.8,5.3&#xA;&#x9;c4.9,10.8,24.1,11.2,40.6,15c16.6,6.2,33.3,6.2,49.9,0c11.7-2.7,18.3-9.1,31-13.4c12.1,1.3,20.3-2.8,26.9-8.4&#xA;&#x9;c12.2-10.4,11.2-15.6,11.2-15.6s-5.7-0.7-14.6,1.2C177.7,256.7,167.9,258.1,167.9,256.8z"></path>
<path style="fill:#5A2B2B" d="M95.8,255.6c7.3,8.3,14.6,8.3,21.8,0C114.5,250.6,98.9,250.6,95.8,255.6z"></path>
<path style="fill:none;stroke:#5A2B2B;stroke-width:6.24;stroke-linecap:round;stroke-linejoin:round;stroke-miterlimit:12.48" d="M107,261.9v7.5"></path>
<path style="fill:none;stroke:#5A2B2B;stroke-width:7.488;stroke-linecap:round;stroke-linejoin:round;stroke-miterlimit:12.48" d="M107,269.3c-7.3,6.2-14,7.3-20.3,3.1 M107,269.3c7.3,6.2,14,7.3,20.3,3.1"></path>
<ellipse style="fill:#F4A6B4" cx="50" cy="258.7" rx="15" ry="9.7"></ellipse>
<ellipse style="fill:#F4A6B4" cx="156.4" cy="258.7" rx="15" ry="9.7"></ellipse>
<g>
&#x9;<path style="fill:#5A2B2B" d="M44.6,128.2c12.5,12.5,26,21.2,34.3,52.4c8.1-8.1,17.3-8.2,27.4-8.2c0.2,0,0.5,0,0.7,0s0.5,0,0.7,0&#xA;&#x9;&#x9;c10.1,0,19.3,0.1,27.4,8.2c8.3-31.2,23.8-35.2,36.3-47.7c18.7,16.6,20.9,34.2,16.7,88.3c0.8,4.8,1.1,9.4,1,13.8&#xA;&#x9;&#x9;c6-1.1,9.5-1.6,9.5-1.6s-1.7,14.9-11.2,18.3c-0.6,0.2-1.1,0.4-1.7,0.6c-0.4,0.9-0.8,1.8-1.2,2.7c0.7-0.1,1.4-0.3,2.1-0.4&#xA;&#x9;&#x9;c5.1-1.1,9.2-1.3,11.7-1.3c1.9,0,2.9,0.1,2.9,0.1s1,5.2-11.2,15.6c-5.8,4.9-12.8,8.6-22.5,8.6c-1.4,0-2.9-0.1-4.4-0.2&#xA;&#x9;&#x9;c-1.7,0.7-3.4,1.3-5.1,2c-9.6,4.1-15.9,9.1-25.9,11.4c-8.3,3.1-16.6,4.7-24.9,4.7s-16.6-1.6-24.9-4.7c-16.5-3.8-35.7-4.2-40.6-15&#xA;&#x9;&#x9;c0,0-1.7,1.1-4.6,1.1c-3,0-7.3-1.2-12.2-6.4c-9.5-10-8-13.9-8-13.9s0.7-0.1,2-0.1c2.5,0,7.2,0.4,12.5,3.1c0.4,0.2,0.7,0.4,1,0.5&#xA;&#x9;&#x9;c-0.8-1.3-1.6-2.6-2.3-4c-2.6-2.1-4.8-4.2-6.2-6c-5.7-7.6-7.6-12-7.6-12s3.7,0.5,9,1.5c-0.6-5.7-0.4-11.8,0.7-18.4&#xA;&#x9;&#x9;C21.7,167.1,25.9,144.8,44.6,128.2 M44.5,120.4c-1.8,0-3.7,0.7-5.2,2c-11,9.8-17.3,21.1-20.4,36.8c-2.9,14.4-3.2,32.9-1,61.7&#xA;&#x9;&#x9;c-0.5,3.2-0.8,6.4-0.9,9.5c-0.3,0-0.6-0.1-0.9-0.1c-2.4,0-4.7,1.1-6.2,3.1c-1.7,2.2-2.1,5.2-0.9,7.8c0.2,0.4,1.5,3.3,4.7,8.2&#xA;&#x9;&#x9;c-1.9,0.8-3.5,2.4-4.2,4.4c-1.5,3.9-1,10.9,9.6,22.1c6.9,7.3,13.6,8.8,17.9,8.8c0.4,0,0.9,0,1.3,0c7,7.4,19.1,9.5,30.9,11.6&#xA;&#x9;&#x9;c3.6,0.6,7.3,1.3,10.8,2.1c9,3.3,18.1,5,27.2,5s18.2-1.7,27.2-5c7.1-1.7,12.6-4.6,17.8-7.4c2.8-1.5,5.6-3,8.7-4.3&#xA;&#x9;&#x9;c1.2-0.5,2.3-0.9,3.3-1.3c1.1,0.1,2.2,0.1,3.2,0.1c10.2,0,19.2-3.4,27.6-10.5c13.6-11.6,14.5-19.4,13.8-23c-0.6-3-2.8-5.4-5.7-6.1&#xA;&#x9;&#x9;c2.4-5.4,3.1-10.5,3.2-11.6c0.3-2.4-0.6-4.8-2.3-6.5c-1.5-1.4-3.4-2.2-5.4-2.2c-0.4,0-0.7,0-1.1,0.1c0,0-0.4,0.1-0.9,0.1&#xA;&#x9;&#x9;c-0.2-1.6-0.4-3.3-0.6-4.9c2-25.8,2.7-44.7,0.1-59.3c-2.6-14.4-8.4-24.7-19.4-34.6c-1.5-1.3-3.3-2-5.2-2c-2,0-4,0.8-5.5,2.3&#xA;&#x9;&#x9;c-2.8,2.8-5.8,5.1-9,7.7c-9,7-18.9,14.9-26,33.2c-7.8-3.6-15.8-3.6-23.2-3.6h-0.4H107h-0.4h-0.4c-7.3,0-15.3,0-23.1,3.6&#xA;&#x9;&#x9;c-7.6-21.3-18.2-31.3-27.7-40.3c-1.9-1.8-3.7-3.4-5.4-5.2C48.5,121.2,46.6,120.4,44.5,120.4L44.5,120.4z"></path>
</g>
<path style="fill:none;stroke:#5A2B2B;stroke-width:7.488;stroke-linecap:round;stroke-linejoin:round;stroke-miterlimit:12.48" d="M55.4,231.5c3.2-7.4,10.4-12,18-11.5c9.6,0.6,14.4,10.9,14.7,11.5"></path>
<path style="fill:none;stroke:#5A2B2B;stroke-width:7.488;stroke-linecap:round;stroke-linejoin:round;stroke-miterlimit:12.48" d="M139.9,220c9.6,0.6,14.4,10.9,14.7,11.5"></path>
<path style="fill:none;stroke:#5A2B2B;stroke-width:7.488;stroke-linecap:round;stroke-linejoin:round;stroke-miterlimit:12.48" d="M121.9,231.5c3.2-7.4,10.4-12,18-11.5"></path>
</g></svg>