<svg xmlns="http://www.w3.org/2000/svg" viewBox="0 0 257.4 237.1">
<path style="fill:#EFE6F6" d="M180.2,200.4v18.1c0,9.3,3.7,14,11,14c7.3,0,11-4.7,11-14v-18.1C202.3,189.2,180.2,188.5,180.2,200.4z"></path>
<path style="fill:none;stroke:#3A2320;stroke-width:7.8;stroke-linecap:round;stroke-linejoin:round" d="M180.2,205.3v13.1c0,9.3,3.7,14,11,14c7.3,0,11-4.7,11-14v-12.6"></path>
<path style="fill:#EFE6F6" d="M110.9,200.4v18.1c0,9.3,3.7,14,11,14c7.3,0,11-4.7,11-14v-18.1C132.9,189.2,110.9,188.5,110.9,200.4z"></path>
<path style="fill:none;stroke:#3A2320;stroke-width:7.8;stroke-linecap:round;stroke-linejoin:round" d="M110.9,205.3v13.1c0,9.3,3.7,14,11,14c7.3,0,11-4.7,11-14v-12.6"></path>
<path style="fill:#3A2320" d="M113.8,57.4c47.8,12.5,80.2,13.4,76.1,63.4c2.9-6.1,6.2-8.5,9.4-8.5c10.5,0,19.9,24.9,9.1,30.1c3,3.4,5.5,7.1,7.5,11.1c10.5-23.8,8.3-42.8-4.8-42.8c-2,0-3.9,0.4-5.7,1c-7.1-23.8,5.6-39.3,19.3-39.3c3.8,0,7.5,1.2,10.7,3.3c24,15.9,15.1,68.6-8.5,90.3l-6.4,4.8c1.8,25.9-18.3,52-59,52c-1.3,0-2.7,0-4.1-0.1c-71-0.7-70.7-102.1-3.8-102.1c1.2,0,2.5,0,3.8,0.1h0.3c-4.7-3.2-8.1-8-9.6-13.5c-10.4-22.9-23.9-36.4-40.6-40.6L113.8,57.4 M113.8,49.6c-2.6,0-5,1.3-6.5,3.4l-6.3,9.3c-2.4,3.6-1.5,8.4,2,10.8c0.8,0.5,1.6,0.9,2.5,1.1c14.3,3.6,25.8,15.3,35.2,35.8c0.4,1.3,0.9,2.6,1.4,3.8c-12.2,1.9-23.3,7.9-31.5,17c-9.4,10.4-14.6,24.4-14.6,39.3c-0.2,15.1,5.2,29.8,15.2,41.1c11.2,12.4,27.1,19.1,46,19.3c1.4,0.1,2.9,0.1,4.3,0.1c27.9,0,44-11,52.6-20.2c9.1-9.7,14.3-22.5,14.4-35.8l3.1-2.4c0.2-0.1,0.4-0.3,0.6-0.5c16.4-15.1,26.9-43.9,25-68.4c-1.2-15.6-7.3-27.4-17.5-34.2c-4.4-3-9.7-4.6-15-4.6c-8.8,0.1-17.1,4.4-22.3,11.6c-3.9,5.3-6.2,11.6-6.7,18.2c-2.4-9-7.8-16.9-15.2-22.5c-11.9-9.2-28.9-13.3-48.6-18.1c-5.2-1.3-10.7-2.6-16.3-4.1c-0.7-0.2-1.3-0.3-2-0.3L113.8,49.6z"></path>
<path style="fill:#8FCDE8" d="M226.9,166.1c23.6-21.7,32.5-74.4,8.5-90.3c-16.4-10.9-39,6-30,36c18-6,22.4,15,10.4,42c-9,21,0.1,14.7-4.4,24L226.9,166.1z"></path>
<path style="fill:#F6C6D8" d="M232.4,93.8c10.3,14.4,10.2,45.4-17.2,69.3c20.2-31.4,15-62.7-3.8-60.3C212.1,86.6,226.4,85.5,232.4,93.8z"></path>
<path style="fill:#EFE6F6" d="M157.4,120.8c-70.6-3.9-72.3,101.3,0,102C240.1,226.3,243.4,125.5,157.4,120.8z"></path>
<path style="fill:#8FCDE8" d="M113.8,57.4c47.8,12.5,80.2,13.4,76.1,63.4c13.3-28.3,36.8,23.4,13.3,22.6c0-20.3-46.8-6.9-55.1-36.1c-10.4-22.9-23.9-36.4-40.6-40.6L113.8,57.4z"></path>
<path style="fill:#F6C6D8" d="M120.1,73c31.2,12.5,71,19.4,66.9,54.8c12.5-27.4,28.8,17.7,16.3,15.6c0.1-16-49.5-1.6-57.8-24.5L120.1,73z"></path>
<path style="fill:#EFE6F6" d="M91.4,54.3c41.4,0,59.8,21.4,59.8,59.3S84,192.2,43.4,182.2c-40.2-9.9-42.4-39.9-25.9-74C37.9,66.3,50.1,54.3,91.4,54.3z"></path>
<path style="fill:#F6C6D8" d="M60.1,58.5c4.9-28.9,36.2-23.4,49.5-15.2s36.4,28.6,28.1,34.8c-20.8-18.7-24.5-21.4-32.3-18.9s-7,16.5-27,16.8C63.2,76.2,58.4,68.8,60.1,58.5z"></path>
<ellipse style="fill:#F4A6B4" cx="31.2" cy="143.5" rx="13.7" ry="9"></ellipse>
<ellipse style="fill:#F4A6B4" cx="106.7" cy="143.3" rx="13.7" ry="9"></ellipse>
<path style="fill:#F4CE6B" d="M63.4,67.1C61.3,29.7,66.5,9.9,79,7.8c12.5,2.1,16.6,22.9,12.5,62.4c0,0-1.6,8.6-15,8.6S63.4,67.1,63.4,67.1z"></path>
<path style="fill:none;stroke:#D9A93F;stroke-width:6.24;stroke-linecap:round;stroke-linejoin:round" d="M69.9,46.3L84,54.2 M73.2,28.3l9.4,4.6"></path>
<circle style="fill:#3A2320" cx="47.9" cy="160.2" r="4.4"></circle>
<circle style="fill:#3A2320" cx="61.7" cy="159.8" r="4.4"></circle>
<path style="fill:none;stroke:#3A2320;stroke-width:5;stroke-linecap:round;stroke-miterlimit:10" d="M41.1,168.1c0,0,4.3,7.1,18.7,6.3s18.9-7.8,18.9-7.8"></path>
<path style="fill:#EFE6F6" d="M192.5,201.2v18.1c0,9.3,3.7,14,11,14s11-4.7,11-14v-18.1C214.6,190,192.5,189.3,192.5,201.2z"></path>
<path style="fill:none;stroke:#3A2320;stroke-width:7.8;stroke-linecap:round;stroke-linejoin:round" d="M192.5,206.1v13.1c0,9.3,3.7,14,11,14s11-4.7,11-14v-12.6"></path>
<path style="fill:#EFE6F6" d="M123.2,201.2v18.1c0,9.3,3.7,14,11,14c7.3,0,11-4.7,11-14v-18.1C145.3,190,123.2,189.3,123.2,201.2z"></path>
<path style="fill:none;stroke:#3A2320;stroke-width:7.8;stroke-linecap:round;stroke-linejoin:round" d="M123.2,206.1v13.1c0,9.3,3.7,14,11,14c7.3,0,11-4.7,11-14v-12.6"></path>
<path style="fill:#3A2320" d="M79,7.8C87.4,9.2,92,19,92.9,37.3c5.9,0.9,11.6,3,16.7,6c10.4,6.4,26.8,20.3,29.5,29c8.2,10,12.1,23.9,12.1,41.3c0,34-53.9,70.1-94.3,70.1c-4.5,0-9.1-0.5-13.5-1.5c-40.2-9.9-42.4-39.9-25.9-74c14-28.8,24.2-43.5,42.6-49.9c0.5-3.1,1.5-6.1,2.8-8.9C63.3,23.5,68.6,9.6,79,7.8 M79,0c-0.4,0-0.9,0-1.3,0.1c-5.6,0.9-13.1,4.6-17.8,16.6c-2.9,7.6-4.5,17.7-4.7,30.9c-0.7,1.6-1.3,3.2-1.8,4.9c-18.6,8-29.4,24.3-43,52.2C-1,128.3-3.1,148,4.1,163.2c6.1,13.1,18.7,22,37.4,26.6c5,1.2,10.2,1.8,15.3,1.8c43.7,0,102.1-38.5,102.1-77.9c0-18.9-4.4-34.1-13.1-45.2c-4.9-11.9-23.6-26.4-32.3-31.7c-4.2-2.5-8.7-4.4-13.5-5.7c-0.8-7.4-2.2-13.3-4.4-18C91.4,3.8,84.9,1,80.2,0.2C79.8,0.1,79.4,0.1,79,0L79,0z"></path>
<path style="fill:none;stroke:#3A2320;stroke-width:7;stroke-linecap:round;stroke-linejoin:round" d="M32.1,119.9c2.8-6.8,9.6-11.3,17.1-10.8c9,0.6,13.7,10.4,13.9,10.8"></path>
<path style="fill:none;stroke:#3A2320;stroke-width:7;stroke-linecap:round;stroke-linejoin:round" d="M89,119.9c2.8-6.8,9.6-11.3,17.1-10.8c9,0.6,13.7,10.4,13.9,10.8"></path>
</svg>