<svg id="Layer_1" data-name="Layer 1" xmlns="http://www.w3.org/2000/svg" viewBox="0 0 257.38 237.15"><path d="M203.55,315v18.06q0,14,11,14t11-14V315C225.63,303.77,203.55,303.11,203.55,315Z" transform="translate(-23.38 -114.59)" style="fill:#efe6f6"></path><path d="M203.55,319.93v13.13q0,14,11,14t11-14V320.43" transform="translate(-23.38 -114.59)" style="fill:none;stroke:#3a2320;stroke-linecap:round;stroke-linejoin:round;stroke-width:8.44px"></path><path d="M134.25,315v18.06q0,14,11,14t11-14V315C156.33,303.77,134.25,303.11,134.25,315Z" transform="translate(-23.38 -114.59)" style="fill:#efe6f6"></path><path d="M134.25,319.93v13.13q0,14,11,14t11-14V320.43" transform="translate(-23.38 -114.59)" style="fill:none;stroke:#3a2320;stroke-linecap:round;stroke-linejoin:round;stroke-width:8.44px"></path><path d="M137.17,172c47.8,12.5,80.2,13.4,76.1,63.4,2.86-6.09,6.2-8.48,9.43-8.48,10.46,0,19.89,24.89,9.08,30.13a49.94,49.94,0,0,1,7.48,11.15c10.5-23.77,8.27-42.83-4.76-42.83a18.12,18.12,0,0,0-5.73,1c-7.14-23.78,5.56-39.31,19.32-39.31a19.29,19.29,0,0,1,10.68,3.31c24,15.9,15.1,68.6-8.5,90.3l-6.35,4.8c1.81,25.85-18.3,52-59,52-1.34,0-2.72,0-4.11-.09-71-.74-70.67-102.11-3.75-102.1,1.22,0,2.48,0,3.75.1l.32,0a24,24,0,0,1-9.62-13.53q-15.6-34.35-40.6-40.6l6.3-9.3m0-7.8a7.8,7.8,0,0,0-6.46,3.43l-6.3,9.3A7.8,7.8,0,0,0,129,188.86c14.27,3.59,25.78,15.29,35.17,35.77a33.71,33.71,0,0,0,1.41,3.8,53.72,53.72,0,0,0-31.55,17c-9.37,10.4-14.56,24.36-14.64,39.33a60.47,60.47,0,0,0,15.23,41.1c11.2,12.4,27.1,19.08,46,19.3,1.44.06,2.9.09,4.31.09,27.87,0,44-11,52.56-20.2a52.85,52.85,0,0,0,14.39-35.79l3.14-2.37c.2-.15.39-.32.58-.49,16.43-15.1,26.94-43.86,25-68.36-1.24-15.63-7.28-27.45-17.46-34.18a27.11,27.11,0,0,0-15-4.61,27.75,27.75,0,0,0-22.26,11.61,35.91,35.91,0,0,0-6.69,18.21A42,42,0,0,0,204,186.56c-11.85-9.18-28.87-13.29-48.57-18.06-5.25-1.26-10.68-2.58-16.33-4.05a7.41,7.41,0,0,0-2-.26Z" transform="translate(-23.38 -114.59)" style="fill:#5a2b2b"></path><path d="M250.27,280.69c23.6-21.7,32.53-74.4,8.5-90.3-16.45-10.88-39,6-30,36,18-6,22.4,15,10.4,42-9,21,.1,14.7-4.4,24Z" transform="translate(-23.38 -114.59)" style="fill:#8fcde8"></path><path d="M255.77,208.39c10.33,14.44,10.24,45.43-17.2,69.3,20.16-31.42,15-62.69-3.8-60.3C235.5,201.23,249.8,200.05,255.77,208.39Z" transform="translate(-23.38 -114.59)" style="fill:#f6c6d8"></path><path d="M180.77,235.39c-70.62-3.86-72.34,101.25,0,102C263.44,340.85,266.8,240.1,180.77,235.39Z" transform="translate(-23.38 -114.59)" style="fill:#efe6f6"></path><path d="M137.17,172c47.8,12.5,80.2,13.4,76.1,63.4,13.3-28.3,36.8,23.4,13.3,22.6,0-20.3-46.8-6.9-55.1-36.1q-15.6-34.35-40.6-40.6Z" transform="translate(-23.38 -114.59)" style="fill:#8fcde8"></path><path d="M143.47,187.59c31.2,12.5,71,19.4,66.9,54.8,12.5-27.4,28.8,17.7,16.3,15.6.05-16-49.5-1.6-57.8-24.5Z" transform="translate(-23.38 -114.59)" style="fill:#f6c6d8"></path><path d="M114.77,168.89c41.4,0,59.8,21.4,59.8,59.3s-67.2,78.6-107.8,68.6c-40.2-9.9-42.4-39.9-25.9-74C61.27,180.89,73.47,168.89,114.77,168.89Z" transform="translate(-23.38 -114.59)" style="fill:#efe6f6"></path><path d="M83.47,173.09c4.9-28.9,36.2-23.4,49.5-15.2s36.4,28.6,28.1,34.8c-20.8-18.7-24.5-21.4-32.3-18.9s-7,16.5-27,16.8C86.57,190.79,81.77,183.39,83.47,173.09Z" transform="translate(-23.38 -114.59)" style="fill:#f6c6d8"></path><circle cx="48.29" cy="116.7" r="18.7" style="fill:#3a2320"></circle><circle cx="43.49" cy="109.6" r="7.9" style="fill:#fff"></circle><circle cx="54.29" cy="122.7" r="3.7" style="fill:#fff"></circle><circle cx="104.49" cy="116.7" r="18.7" style="fill:#3a2320"></circle><circle cx="99.59" cy="109.6" r="7.9" style="fill:#fff"></circle><circle cx="110.49" cy="122.7" r="3.7" style="fill:#fff"></circle><ellipse cx="31.19" cy="143.5" rx="13.7" ry="9" style="fill:#f4a6b4"></ellipse><ellipse cx="106.69" cy="143.3" rx="13.7" ry="9" style="fill:#f4a6b4"></ellipse><path d="M86.77,181.69q-3.15-56.1,15.6-59.3c12.5,2.1,16.6,22.9,12.5,62.4,0,0-1.6,8.6-15,8.6S86.77,181.69,86.77,181.69Z" transform="translate(-23.38 -114.59)" style="fill:#f4ce6b"></path><path d="M93.27,160.89l14.1,7.9m-10.8-25.9,9.4,4.6" transform="translate(-23.38 -114.59)" style="fill:none;stroke:#d9a93f;stroke-linecap:round;stroke-linejoin:round;stroke-width:6.75px"></path><circle cx="47.89" cy="160.2" r="4.4" style="fill:#3a2320"></circle><circle cx="61.69" cy="159.8" r="4.4" style="fill:#3a2320"></circle><path d="M64.47,282.69s4.28,7.1,18.67,6.27S102,281.19,102,281.19" transform="translate(-23.38 -114.59)" style="fill:none;stroke:#3a2320;stroke-linecap:round;stroke-miterlimit:10;stroke-width:5.41px"></path><path d="M215.87,315.79v18.06q0,14,11,14t11-14V315.79C238,304.56,215.87,303.9,215.87,315.79Z" transform="translate(-23.38 -114.59)" style="fill:#efe6f6"></path><path d="M215.87,320.71v13.14q0,14,11,14t11-14V321.22" transform="translate(-23.38 -114.59)" style="fill:none;stroke:#3a2320;stroke-linecap:round;stroke-linejoin:round;stroke-width:8.44px"></path><path d="M146.57,315.79v18.06q0,14,11,14t11-14V315.79C168.65,304.56,146.57,303.9,146.57,315.79Z" transform="translate(-23.38 -114.59)" style="fill:#efe6f6"></path><path d="M146.57,320.71v13.14q0,14,11,14t11-14V321.22" transform="translate(-23.38 -114.59)" style="fill:none;stroke:#3a2320;stroke-linecap:round;stroke-linejoin:round;stroke-width:8.44px"></path><path d="M102.37,122.39q12.59,2.11,13.87,29.52a47.49,47.49,0,0,1,16.73,6c10.39,6.41,26.77,20.27,29.47,29,8.23,10,12.13,23.9,12.13,41.32,0,33.95-53.91,70.14-94.33,70.14a56.06,56.06,0,0,1-13.47-1.54c-40.2-9.9-42.4-39.9-25.9-74,14-28.84,24.2-43.51,42.63-49.86a31.66,31.66,0,0,1,2.84-8.87q.5-39,16-41.67m0-7.8a7.93,7.93,0,0,0-1.29.11c-5.55.93-13.14,4.57-17.77,16.63-2.91,7.56-4.46,17.7-4.74,30.93a38.66,38.66,0,0,0-1.75,4.89c-18.61,8-29.35,24.27-43,52.23-11.37,23.49-13.49,43.13-6.32,58.38,6.13,13.06,18.7,22,37.36,26.61a64.8,64.8,0,0,0,15.34,1.76c43.65,0,102.13-38.53,102.13-77.94,0-18.9-4.39-34.1-13.05-45.21-4.9-11.93-23.57-26.37-32.26-31.73a52.63,52.63,0,0,0-13.47-5.7c-.75-7.4-2.2-13.34-4.41-18-4.3-9.16-10.81-12-15.52-12.82a8,8,0,0,0-1.29-.11Z" transform="translate(-23.38 -114.59)" style="fill:#5a2b2b"></path></svg>