<svg id="Layer_1" data-name="Layer 1" xmlns="http://www.w3.org/2000/svg" viewBox="0 0 215.68 235.44">
  <path d="M140.64,116.36c22.74,0,41.88,12,47.74,34.86.6-.31,1.24-.67,1.9-1.08,4.8-3,9.5-9.5,9.5-9.5a37.9,37.9,0,0,1-.2,7.3,62.28,62.28,0,0,0,8.3-9.1s.6,10.4-2.4,16.4a18.46,18.46,0,0,1-3.8,5.3,48.8,48.8,0,0,0,5.1-1.9s-2.8,8.4-7.3,11.6a15.6,15.6,0,0,1-9.18,2.95h-.69c-3.77,18.9-24.25,27.82-49,27.82-27.4,0-49.6-10.95-49.6-34.32,0-34.57,22.24-50.32,49.6-50.32m0-7.8c-16.25,0-30.19,4.93-40.33,14.26-11.15,10.26-17,25.42-17.07,43.85,0,13.79,6.28,25,18.16,32.53,10,6.28,23.53,9.6,39.24,9.6,28.33,0,48.38-10.51,55-28.43a23.91,23.91,0,0,0,8.32-3.76c6.28-4.46,9.6-13.7,10.2-15.5a7.82,7.82,0,0,0-.35-5.8c2.25-7,1.94-15.14,1.84-16.92a7.8,7.8,0,0,0-13.27-5.08l-.47-.15a7.81,7.81,0,0,0-8.47,2.93c-.42.58-1,1.29-1.63,2.06-9.17-18.5-27.88-29.57-51.19-29.57Z" transform="translate(-0.01 0)" style="fill: #5a2b2b"></path>
  <g>
    <path d="M128.89,229a3.91,3.91,0,0,1-3.33-1.87c-.06-.09-.2-.34-.38-.7a3.91,3.91,0,0,1-2.69,1.07h-.14a3.9,3.9,0,0,1-3.2-1.89A12.49,12.49,0,0,1,121.5,210a19,19,0,0,1,3.39-2.68V192.73c0-3.76,3.61-6.6,8.4-6.6s8.4,2.84,8.4,6.6v14.93a9.53,9.53,0,0,1,3.94,6.1c1.21,6.7-9,12.24-15.18,14.94A3.77,3.77,0,0,1,128.89,229Z" transform="translate(-0.01 0)" style="fill: #f3a73c"></path>
    <path d="M133.29,190c2.5,0,4.5,1.2,4.5,2.7v17.1c1.8.9,3.6,2.3,4,4.6.85,4.69-12.9,10.7-12.9,10.7s-2.2-3.6-1-7.2a26.8,26.8,0,0,0-5.4,5.7s-3.6-6,1.7-10.8a16,16,0,0,1,4.6-3.2V192.7c0-1.5,2-2.7,4.5-2.7m0-7.8c-7,0-12.3,4.51-12.3,10.5v12.55a24.51,24.51,0,0,0-2.18,1.9,16.27,16.27,0,0,0-3,20.46,7.81,7.81,0,0,0,6.41,3.79h.28a8.38,8.38,0,0,0,1.58-.16,7.83,7.83,0,0,0,7.94,1,65.15,65.15,0,0,0,7.79-4.13c2.75-1.73,11.12-7,9.67-15.09a13.13,13.13,0,0,0-3.88-7.22V192.73c0-6-5.29-10.5-12.3-10.5Z" transform="translate(-0.01 0)" style="fill: #5a2b2b"></path>
  </g>
  <path d="M140.64,116.36c27.4,0,49.6,17.34,49.6,50.32,0,23.37-22.2,34.32-49.6,34.32S91,190.05,91,166.68C91.07,132.11,113.28,116.36,140.64,116.36Z" transform="translate(-0.01 0)" style="fill: #fbf3e6"></path>
  <path d="M150.46,179.21c-10.92,0-21.59-6-28.55-16-5.66-8.21-7.5-17.21-4.9-24.08,1.64-4.48,7.48-4.48,9.4-4.48,6.82,0,16.84,2.42,27.46,5,2.66.64,5.34,1.28,8,1.89,7.42,1.71,11.85,6.39,12.47,13.18.83,9.06-5.41,19.35-11.13,21.83a32,32,0,0,1-12.68,2.69Z" transform="translate(-0.01 0)" style="fill: #e2dbcf"></path>
  <path d="M131.26,156.63c2.38-5.25,7-8.2,13.67-8.78M143.58,167c2.38-5.25,7-8.2,13.67-8.78" transform="translate(-0.01 0)" style="fill: none;stroke: #c0bab0;stroke-linecap: round;stroke-linejoin: round;stroke-width: 4.199999809265137px"></path>
  <path d="M79.64,37.88A71.86,71.86,0,0,0,13.3,137.31a17,17,0,0,1,10.43-3.22c7.47,0,13.53,4,13.53,8.87s-6.06,8.87-13.53,8.87a20.93,20.93,0,0,1-2.37-.14A71.83,71.83,0,1,0,79.64,37.88Z" transform="translate(-0.01 0)" style="fill: #fbf3e6"></path>
  <path d="M37.27,143c0-4.9-6.06-8.87-13.53-8.87a17,17,0,0,0-10.43,3.22,72,72,0,0,0,8.06,14.38,20.93,20.93,0,0,0,2.37.14C31.21,151.83,37.27,147.86,37.27,143Z" transform="translate(-0.01 0)" style="fill: #f4a6b4"></path>
  <path d="M205.48,155.24c3-6,2.4-16.4,2.4-16.4a62.28,62.28,0,0,1-8.3,9.1,37.9,37.9,0,0,0,.2-7.3s-4.7,6.5-9.5,9.5c-5.3,3.3-8.9,3.1-8.9,3.1l.9,18s8.7,5,17.2-1c4.5-3.2,7.3-11.6,7.3-11.6a48.8,48.8,0,0,1-5.1,1.9A18.46,18.46,0,0,0,205.48,155.24Z" transform="translate(-0.01 0)" style="fill: #fbf3e6"></path>
  <g>
    <path d="M152.24,231.52a6.39,6.39,0,0,1-4.31-1.8,6.14,6.14,0,0,1-1.9.3h-.18a6.37,6.37,0,0,1-5.34-3.1,15,15,0,0,1,2.87-18.81,25.48,25.48,0,0,1,2.53-2.11V192.72c0-5.19,4.69-9.1,10.9-9.1s10.9,3.91,10.9,9.1v13.73a12.29,12.29,0,0,1,3.93,6.85v.11c1.32,8-8.32,14-16.65,17.62l-.13.06a6.32,6.32,0,0,1-2.31.44Z" transform="translate(-0.01 0)" style="fill: #f3a73c"></path>
    <path d="M156.81,187.52c4,0,7,2.24,7,5.2v15.71a8.36,8.36,0,0,1,4,5.62c1,6-9.7,11.37-14.36,13.41a2.42,2.42,0,0,1-.88.17h-.19a2.5,2.5,0,0,1-2.13-1.19,13.07,13.07,0,0,1-1.17-2.75,13.08,13.08,0,0,0-1,1.35,2.52,2.52,0,0,1-2.07,1.09h-.07a2.49,2.49,0,0,1-2.08-1.21A11.09,11.09,0,0,1,146,211a20.75,20.75,0,0,1,3.78-2.88v-15.4c0-3,3-5.2,7-5.2m0-7.8c-8.44,0-14.8,5.59-14.8,13V204.1c-.44.37-.86.75-1.28,1.14a18.89,18.89,0,0,0-3.57,23.66,10.24,10.24,0,0,0,8.6,5h1.2a10.3,10.3,0,0,0,5.17,1.54h.46a10.18,10.18,0,0,0,3.74-.71l.27-.11C174,227,176.46,218.54,175.5,212.78v-.21a16.28,16.28,0,0,0-3.86-7.73V192.72c0-7.29-6.5-13-14.8-13Z" transform="translate(-0.01 0)" style="fill: #5a2b2b"></path>
  </g>
  <path d="M45.84,54.78C34.58,21,47.84,4.64,62.75,8.3S76.83,28,79.65,42.11c5.63-31,22.68-40,33.81-29.58s7,21.12-4.23,38Q75.42,67.44,45.84,54.78Z" transform="translate(-0.01 0)" style="fill: #ee5d52"></path>
  <ellipse cx="84.29" cy="109.71" rx="18.45" ry="19.7" style="fill: #3a2320"></ellipse>
  <circle cx="79.4" cy="102.32" r="7.74" style="fill: #fff"></circle>
  <circle cx="90.1" cy="115.98" r="3.65" style="fill: #fff"></circle>
  <ellipse cx="40.22" cy="110.17" rx="17.76" ry="19.24" style="fill: #3a2320"></ellipse>
  <circle cx="35.56" cy="102.88" r="7.52" style="fill: #fff"></circle>
  <ellipse cx="111.75" cy="142.96" rx="15.21" ry="10.14" style="fill: #f4a6b4"></ellipse>
  <path d="M18.94,155.21s7.18-8.59,20.85-15.91c12.11-6.48,21.27-10,23.52-9.58,4.65.84,12.54,23.94,6.06,27.75-3.1,1.83-18.6,4.08-32.54,3.66C22.32,160.43,18.94,155.21,18.94,155.21Z" transform="translate(-0.01 0)" style="fill: #f3a73c"></path>
  <path d="M32,155.21s3.94,1,10.85.14c14.93-1.83,19.75-6.62,19.75-6.62" transform="translate(-0.01 0)" style="fill: none;stroke: #c16900;stroke-linecap: round;stroke-linejoin: round;stroke-width: 3px"></path>
  <circle cx="47.12" cy="116.56" r="3.65" style="fill: #fff"></circle>
  <path d="M58.7,7.8a16.7,16.7,0,0,1,4,.5C76.19,11.6,76.84,25,78.9,37.9h1.63C85.12,18,94.76,8.4,103.75,8.4a14.12,14.12,0,0,1,9.71,4.14c10,9.4,7.66,19-1.14,33.21A71.83,71.83,0,1,1,28.36,160c-7.43-1.74-9.42-4.8-9.42-4.8s1-1.15,2.85-3l-.43-.56c.31,0,.62.06.93.08h0a3.58,3.58,0,0,1-.92-.08,72,72,0,0,1-8.06-14.38,17,17,0,0,1,10-3.23h0a17,17,0,0,0-10,3.23A71.84,71.84,0,0,1,43.73,47.52c-6.43-26,3-39.73,15-39.72m0-7.8h0a22.56,22.56,0,0,0-18,9c-6.4,8-8.36,20.26-5.72,34.81a79.67,79.67,0,0,0-28.9,96.54c0,.13.11.26.17.38a78.53,78.53,0,0,0,5.71,11,7.77,7.77,0,0,0,.42,7.77c.8,1.23,3.89,5.15,11.94,7.55A79.64,79.64,0,1,0,122.94,42.88c2.93-5.7,4.42-10.38,4.79-14.9.65-7.87-2.36-15-8.94-21.14a21.79,21.79,0,0,0-15-6.25C96.8.59,90,4.16,84.52,10.64a41.7,41.7,0,0,0-3,4A24.3,24.3,0,0,0,64.61.72,25,25,0,0,0,58.7,0Z" transform="translate(-0.01 0)" style="fill: #5a2b2b"></path>
</svg>