<svg xmlns="http://www.w3.org/2000/svg" viewBox="0 0 215.7 235.4">
<path style="fill:#3A2320" d="M140.6,116.4c22.7,0,41.9,12,47.7,34.9c0.6-0.3,1.2-0.7,1.9-1.1c4.8-3,9.5-9.5,9.5-9.5c0.2,2.4,0.1,4.9-0.2,7.3c3.1-2.8,5.8-5.8,8.3-9.1c0,0,0.6,10.4-2.4,16.4c-0.9,2-2.2,3.8-3.8,5.3c1.7-0.5,3.4-1.2,5.1-1.9c0,0-2.8,8.4-7.3,11.6c-2.7,1.9-5.9,3-9.2,2.9h-0.7c-3.8,18.9-24.3,27.8-49,27.8c-27.4,0-49.6-10.9-49.6-34.3C91,132.1,113.2,116.4,140.6,116.4 M140.6,108.6c-16.3,0-30.2,4.9-40.3,14.3c-11.2,10.3-17,25.4-17.1,43.8c0,13.8,6.3,25,18.2,32.5c10,6.3,23.5,9.6,39.2,9.6c28.3,0,48.4-10.5,55-28.4c3-0.7,5.8-2,8.3-3.8c6.3-4.5,9.6-13.7,10.2-15.5c0.6-1.9,0.5-4-0.4-5.8c2.3-7,1.9-15.1,1.8-16.9c-0.3-4.3-4-7.6-8.3-7.3c-1.9,0.1-3.7,0.9-5,2.2l-0.5-0.1c-3.2-0.9-6.5,0.3-8.5,2.9c-0.4,0.6-1,1.3-1.6,2.1C182.6,119.7,163.9,108.6,140.6,108.6L140.6,108.6z"></path>
<g>
<path style="fill:#F3A73C" d="M128.9,229c-1.4,0-2.6-0.7-3.3-1.9c-0.1-0.1-0.2-0.3-0.4-0.7c-0.7,0.7-1.7,1.1-2.7,1.1h-0.1c-1.3,0-2.5-0.8-3.2-1.9c-3-5.1-2-11.6,2.3-15.6c1-1,2.2-1.9,3.4-2.7v-14.6c0-3.8,3.6-6.6,8.4-6.6s8.4,2.8,8.4,6.6v14.9c2.1,1.4,3.5,3.6,3.9,6.1c1.2,6.7-9,12.2-15.2,14.9C129.9,228.9,129.4,229,128.9,229z"></path>
<path style="fill:#3A2320" d="M133.3,190c2.5,0,4.5,1.2,4.5,2.7v17.1c1.8,0.9,3.6,2.3,4,4.6c0.9,4.7-12.9,10.7-12.9,10.7s-2.2-3.6-1-7.2c-2.1,1.6-3.9,3.5-5.4,5.7c0,0-3.6-6,1.7-10.8c1.3-1.3,2.9-2.4,4.6-3.2v-16.9C128.8,191.2,130.8,190,133.3,190 M133.3,182.2c-7,0-12.3,4.5-12.3,10.5v12.6c-0.8,0.6-1.5,1.2-2.2,1.9c-5.8,5.2-7,13.8-3,20.5c1.4,2.3,3.8,3.7,6.4,3.8h0.3c0.5,0,1.1-0.1,1.6-0.2c2.3,1.8,5.3,2.1,7.9,1c2.7-1.2,5.3-2.6,7.8-4.1c2.8-1.7,11.1-7,9.7-15.1c-0.5-2.8-1.8-5.3-3.9-7.2v-13.1C145.6,186.7,140.3,182.2,133.3,182.2L133.3,182.2z"></path>
</g>
<path style="fill:#FBF3E6" d="M140.6,116.4c27.4,0,49.6,17.3,49.6,50.3c0,23.4-22.2,34.3-49.6,34.3S91,190.1,91,166.7C91.1,132.1,113.3,116.4,140.6,116.4z"></path>
<path style="fill:#E2DBCF" d="M150.5,179.2c-10.9,0-21.6-6-28.6-16c-5.7-8.2-7.5-17.2-4.9-24.1c1.6-4.5,7.5-4.5,9.4-4.5c6.8,0,16.8,2.4,27.5,5c2.7,0.6,5.3,1.3,8,1.9c7.4,1.7,11.9,6.4,12.5,13.2c0.8,9.1-5.4,19.4-11.1,21.8C159.2,178.3,154.9,179.2,150.5,179.2L150.5,179.2z"></path>
<path style="fill:none;stroke:#C0BAB0;stroke-width:4.2;stroke-linecap:round;stroke-linejoin:round" d="M131.3,156.6c2.4-5.3,7-8.2,13.7-8.8 M143.6,167c2.4-5.3,7-8.2,13.7-8.8"></path>
<path style="fill:#FBF3E6" d="M79.6,37.9c-39.7,0-71.9,32.2-71.8,71.9c0,9.5,1.9,18.8,5.5,27.5c3-2.2,6.7-3.3,10.4-3.2c7.5,0,13.5,4,13.5,8.9s-6.1,8.9-13.5,8.9c-0.8,0-1.6,0-2.4-0.1c23.2,32.2,68.1,39.5,100.3,16.3s39.5-68.1,16.3-100.3C124.4,49,102.7,37.9,79.6,37.9z"></path>
<path style="fill:#F4A6B4" d="M37.3,143c0-4.9-6.1-8.9-13.5-8.9c-3.7-0.1-7.4,1-10.4,3.2c2.1,5.1,4.8,9.9,8.1,14.4c0.8,0.1,1.6,0.1,2.4,0.1C31.2,151.8,37.3,147.9,37.3,143z"></path>
<path style="fill:#FBF3E6" d="M205.5,155.2c3-6,2.4-16.4,2.4-16.4c-2.5,3.3-5.2,6.3-8.3,9.1c0.3-2.4,0.4-4.9,0.2-7.3c0,0-4.7,6.5-9.5,9.5c-5.3,3.3-8.9,3.1-8.9,3.1l0.9,18c0,0,8.7,5,17.2-1c4.5-3.2,7.3-11.6,7.3-11.6c-1.7,0.7-3.4,1.4-5.1,1.9C203.2,159,204.5,157.2,205.5,155.2z"></path>
<g>
<path style="fill:#F3A73C" d="M152.2,231.5c-1.6,0-3.2-0.7-4.3-1.8c-0.6,0.2-1.3,0.3-1.9,0.3h-0.2c-2.2,0-4.2-1.2-5.3-3.1c-3.7-6.2-2.4-14,2.9-18.8c0.8-0.8,1.6-1.5,2.5-2.1v-13.3c0-5.2,4.7-9.1,10.9-9.1s10.9,3.9,10.9,9.1v13.7c2,1.8,3.4,4.2,3.9,6.9v0.1c1.3,8-8.3,14-16.6,17.6l-0.1,0.1c-0.7,0.3-1.5,0.4-2.3,0.4L152.2,231.5z"></path>
<path style="fill:#3A2320" d="M156.8,187.5c4,0,7,2.2,7,5.2v15.7c2.1,1.2,3.5,3.3,4,5.6c1,6-9.7,11.4-14.4,13.4c-0.3,0.1-0.6,0.2-0.9,0.2h-0.2c-0.9,0-1.7-0.5-2.1-1.2c-0.5-0.9-0.9-1.8-1.2-2.8c-0.4,0.4-0.7,0.9-1,1.4c-0.5,0.7-1.2,1.1-2.1,1.1h-0.1c-0.9,0-1.6-0.5-2.1-1.2c-2.7-4.6-1.8-10.4,2.1-13.9c1.1-1.1,2.4-2.1,3.8-2.9v-15.4C149.8,189.7,152.8,187.5,156.8,187.5 M156.8,179.7c-8.4,0-14.8,5.6-14.8,13v11.4c-0.4,0.4-0.9,0.8-1.3,1.1c-6.7,6-8.2,15.9-3.6,23.7c1.8,3,5.1,4.9,8.6,5h1.2c1.6,1,3.3,1.5,5.2,1.5h0.5c1.3,0,2.5-0.2,3.7-0.7l0.3-0.1c17.4-7.6,19.9-16.1,18.9-21.8v-0.2c-0.6-2.9-1.9-5.5-3.9-7.7v-12.1C171.6,185.4,165.1,179.7,156.8,179.7L156.8,179.7z"></path>
</g>
<path style="fill:#EE5D52" d="M45.8,54.8C34.6,21,47.8,4.6,62.7,8.3S76.8,28,79.6,42.1c5.6-31,22.7-40,33.8-29.6s7,21.1-4.2,38C86.7,61.8,65.5,63.2,45.8,54.8z"></path>
<ellipse style="fill:#F4A6B4" cx="111.8" cy="143" rx="15.2" ry="10.1"></ellipse>
<path style="fill:#F3A73C" d="M18.9,155.2c0,0,7.2-8.6,20.9-15.9c12.1-6.5,21.3-10,23.5-9.6c4.6,0.8,12.5,23.9,6.1,27.8c-3.1,1.8-18.6,4.1-32.5,3.7C22.3,160.4,18.9,155.2,18.9,155.2z"></path>
<path style="fill:none;stroke:#C16900;stroke-width:3;stroke-linecap:round;stroke-linejoin:round" d="M32,155.2c0,0,3.9,1,10.9,0.1c14.9-1.8,19.8-6.6,19.8-6.6"></path>
<path style="fill:#3A2320" d="M58.7,7.8c1.3,0,2.7,0.2,4,0.5C76.2,11.6,76.8,25,78.9,37.9h1.6C85.1,18,94.8,8.4,103.7,8.4c3.7,0.1,7.1,1.6,9.7,4.1c10,9.4,7.7,19-1.1,33.2c35.3,18,49.4,61.3,31.3,96.6S82.3,191.7,47,173.7c-6.9-3.5-13.2-8.2-18.7-13.7c-7.4-1.7-9.4-4.8-9.4-4.8s1-1.1,2.9-3l-0.4-0.6c0.3,0,0.6,0.1,0.9,0.1l0,0c-0.3,0-0.6,0-0.9-0.1c-3.2-4.5-5.9-9.3-8.1-14.4c2.9-2.1,6.4-3.2,10-3.2l0,0c-3.6,0-7.1,1.1-10,3.2C-0.5,104,12.5,65.6,43.7,47.5C37.3,21.5,46.7,7.8,58.7,7.8 M58.7,0L58.7,0c-7.1,0-13.7,3.3-18,9c-6.4,8-8.4,20.3-5.7,34.8C3.7,65-8.4,105.4,6.1,140.4c0,0.1,0.1,0.3,0.2,0.4c1.6,3.8,3.5,7.5,5.7,11c-1.3,2.5-1.1,5.4,0.4,7.8c0.8,1.2,3.9,5.1,11.9,7.6c31.7,30.5,82.1,29.6,112.6-2.1s29.6-82.1-2.1-112.6c-3.7-3.5-7.7-6.7-11.9-9.5c2.9-5.7,4.4-10.4,4.8-14.9c0.7-7.9-2.4-15-8.9-21.1c-4-3.9-9.4-6.2-15-6.3c-7,0-13.8,3.6-19.3,10c-1.1,1.3-2.1,2.6-3,4C78.4,7.6,72.1,2.4,64.6,0.7C62.7,0.2,60.7,0,58.7,0L58.7,0z"></path>
<path style="fill:none;stroke:#3A2320;stroke-width:7;stroke-linecap:round;stroke-linejoin:round" d="M23.4,114.3c3-7.2,10.2-11.9,18-11.5c9.6,0.6,14.4,11,14.7,11.5"></path>
<path style="fill:none;stroke:#3A2320;stroke-width:7;stroke-linecap:round;stroke-linejoin:round" d="M67.2,114.3c3-7.2,10.2-11.9,18-11.5c9.6,0.6,14.4,11,14.7,11.5"></path>
</svg>