<svg id="Layer_1" data-name="Layer 1" xmlns="http://www.w3.org/2000/svg" viewBox="0 0 263.42 217.34"><path d="M210,309.83V324.6c0,7.59,3.85,11.44,11.44,11.44s11.44-3.85,11.44-11.44V309.83C232.86,300.68,210,300.16,210,309.83Z" transform="translate(-20.97 -123.75)" style="fill:#3a2320"></path><path d="M210,313.89V324.6c0,7.59,3.85,11.44,11.44,11.44s11.44-3.85,11.44-11.44V314.3" transform="translate(-20.97 -123.75)" style="fill:none;stroke:#5a2b2b;stroke-linecap:round;stroke-linejoin:round;stroke-width:7.74px"></path><path d="M147.22,309.83V324.6c0,7.59,3.85,11.44,11.44,11.44s11.44-3.85,11.44-11.44V309.83C170.1,300.68,147.22,300.16,147.22,309.83Z" transform="translate(-20.97 -123.75)" style="fill:#3a2320"></path><path d="M147.22,313.89V324.6c0,7.59,3.85,11.44,11.44,11.44s11.44-3.85,11.44-11.44V314.3" transform="translate(-20.97 -123.75)" style="fill:none;stroke:#5a2b2b;stroke-linecap:round;stroke-linejoin:round;stroke-width:7.74px"></path><path d="M207.26,201q10.78,0,18.62,12.53,21.93.87,22.76,21.48a9.81,9.81,0,0,1,4.83-1.24q4.25,0,9.54,3.27,16.85,1.25,12.79,17.78,4.06,16.55-12.79,17.79a23.12,23.12,0,0,1-6.43,2.86q4.86,17.77-14.17,26.06Q238.66,321.39,221,321.4a38,38,0,0,1-6.08-.53q-8.25,8.91-16.93,8.91-8.06,0-16.46-7.66a33.61,33.61,0,0,1-8.58,1.23q-15.18,0-20.12-18.08-22.16-7.17-15.29-29.64Q122.9,257.52,141,242.55q-2.5-23.4,20.91-26.21,7-14.16,18.94-14.15a29.86,29.86,0,0,1,12.57,3.23q7.44-4.42,13.84-4.42m0-7.8h0A32.72,32.72,0,0,0,193,196.78a34.78,34.78,0,0,0-12.16-2.39c-7,0-16.61,2.69-24,14.86-7.86,1.62-13.91,5-18,10.18s-6.09,11.82-5.91,19.85c-5.72,5.6-9,11.71-9.64,18.22s1.25,13.18,5.74,19.78c-1.71,7.83-1.06,14.74,2,20.57s8.24,10.33,15.56,13.41c6.29,17.19,19,19.89,26.4,19.89a38.41,38.41,0,0,0,6.51-.59c6.06,4.66,12.28,7,18.53,7,6.92,0,13.55-2.86,19.75-8.51,1.11.08,2.2.13,3.26.13,14.28,0,24.15-7.87,28.14-22.28,11.36-6.1,16.92-15.32,16.13-26.62l.17-.1c7-.86,12.2-3.56,15.45-8s4.23-10.33,2.87-17.34c1.36-7,.4-12.83-2.87-17.33s-8.45-7.18-15.45-8.05a26.27,26.27,0,0,0-10.33-3.39,26.14,26.14,0,0,0-7.26-12.38c-4.4-4.16-10.33-6.71-17.67-7.61-7.84-10.53-16.67-12.86-23-12.86Z" transform="translate(-20.97 -123.75)" style="fill:#5a2b2b"></path><path d="M254.9,270.63q9,21.54-12.49,30.9Q238,324.62,215,320.87,199,338,181.56,322.12q-22.45,5.94-28.7-16.85-22.16-7.17-15.29-29.64Q122.9,257.52,141,242.55q-2.5-23.4,20.91-26.21,10.29-20.91,31.51-10.92,20-11.86,32.46,8.11,23.4.93,22.77,24.34Q268,251.3,254.9,270.63Z" transform="translate(-20.97 -123.75)" style="fill:#f3ece0"></path><ellipse cx="47.77" cy="211" rx="14.04" ry="20.7" transform="translate(-181.92 30.35) rotate(-62)" style="fill:#d9c3a8"></ellipse><ellipse cx="172.3" cy="211.02" rx="20.7" ry="14.04" transform="translate(-99.87 -18.15) rotate(-28)" style="fill:#d9c3a8"></ellipse><path d="M172.83,214.78q7.8,30.1-22.89,36.82-13.41,28.25-41.19,13.73-28.4,12.94-40.88-16-30-8.12-20.59-38c-12-17.17-9.15-31.31,8.63-42.44q3-30.9,34.12-26.84,22.47-22,43.48,1.15,31.52-2.66,32.56,28.6C183.33,183.89,185.52,198.14,172.83,214.78Z" transform="translate(-20.97 -123.75)" style="fill:#fbf7f0"></path><path d="M67.15,211c0-19.14,13.83-28.6,41.4-28.6S149.94,192,149.94,211c0,33.91-13.83,51-41.39,51S67.15,244.94,67.15,211Z" transform="translate(-20.97 -123.75)" style="fill:#d9c3a8"></path><ellipse cx="68.44" cy="90.51" rx="14.35" ry="15.5" style="fill:#3a2320"></ellipse><circle cx="64.8" cy="84.58" r="6.03" style="fill:#fff"></circle><circle cx="73.02" cy="95.39" r="2.91" style="fill:#fff"></circle><ellipse cx="106.72" cy="90.51" rx="14.35" ry="15.5" style="fill:#3a2320"></ellipse><circle cx="102.97" cy="84.58" r="6.03" style="fill:#fff"></circle><circle cx="111.29" cy="95.39" r="2.91" style="fill:#fff"></circle><path d="M100.54,233.29q8,9.53,15.91,0c-1.46-3.85-4.16-4.89-7.9-3.22C104.7,228.4,102.1,229.44,100.54,233.29Z" transform="translate(-20.97 -123.75)" style="fill:#e88aa0"></path><path d="M108.55,241c0,4.68-3.23,7.8-9.57,9.57m9.57-9.57c0,4.68,3.22,7.8,9.56,9.57" transform="translate(-20.97 -123.75)" style="fill:none;stroke:#5a2b2b;stroke-linecap:round;stroke-linejoin:round;stroke-width:6.07px"></path><ellipse cx="52.52" cy="106.42" rx="10.19" ry="6.66" style="fill:#f4a6b4"></ellipse><ellipse cx="122.63" cy="106.42" rx="10.19" ry="6.66" style="fill:#f4a6b4"></ellipse><path d="M275.8,254.82q4.06,16.55-12.79,17.79-14.67,9-21.22-6.86-12.79-10.92,0-21.85Q248.35,228,263,237,279.86,238.29,275.8,254.82Z" transform="translate(-20.97 -123.75)" style="fill:#fbf7f0"></path><path d="M112,131.55q11.16,0,21.95,11.86c1.64-.14,3.22-.21,4.73-.21q26.87,0,27.83,28.81,15.24,10.65,14.85,23.62c4.34.55,7.89,2.53,9.66,5.86,3.64,6.85-1.59,16.75-11.68,22.12a30.07,30.07,0,0,1-4.49,1.93q.42,20.81-24.46,26.25-8.87,18.66-24,18.66-7.77,0-17.2-4.93-8.79,4-16,4-16.2,0-24.83-20-22.33-6-22.81-24.19a29.49,29.49,0,0,1-3.89-1.73c-10.09-5.36-15.33-15.27-11.68-22.11,1.92-3.62,5.94-5.64,10.78-6-1.45-10.15,3.73-18.95,15.64-26.4Q59,141.78,83.61,141.79a54,54,0,0,1,6.86.47q10.95-10.71,21.53-10.71m0-7.8h0c-8.19,0-16.33,3.5-24.24,10.4C86.34,134,85,134,83.61,134c-19.26,0-31.42,10.82-34.54,30.6-11.47,8.16-15.46,17.1-16.23,24.73a18.46,18.46,0,0,0-9.79,8.48C17.3,208.62,23.85,223,38,230.47l.26.14c1.63,9.31,7.6,19.7,24.5,25.35,8.77,17.55,21.25,21.37,30.43,21.37A44.07,44.07,0,0,0,109,274.08a42.65,42.65,0,0,0,17.43,4.17c8.58,0,20.39-3.54,29.31-19.75,8.09-2.26,14.45-5.84,18.95-10.68a29.51,29.51,0,0,0,7.73-17l.61-.32c14.11-7.51,20.66-21.86,14.91-32.67a18.59,18.59,0,0,0-9.25-8.26c-1.51-7.94-6.4-15.2-14.6-21.67-2-21-14.46-32.5-35.38-32.5l-1.6,0c-8-7.74-16.37-11.67-25.08-11.67Z" transform="translate(-20.97 -123.75)" style="fill:#5a2b2b"></path><path d="M225,311v14.77c0,7.59,3.85,11.44,11.44,11.44s11.44-3.85,11.44-11.44V311C247.87,301.82,225,301.3,225,311Z" transform="translate(-20.97 -123.75)" style="fill:#3a2320"></path><path d="M225,315v10.72c0,7.59,3.85,11.44,11.44,11.44s11.44-3.85,11.44-11.44v-10.3" transform="translate(-20.97 -123.75)" style="fill:none;stroke:#5a2b2b;stroke-linecap:round;stroke-linejoin:round;stroke-width:7.74px"></path><path d="M162.23,311v14.77c0,7.59,3.85,11.44,11.44,11.44s11.44-3.85,11.44-11.44V311C185.11,301.82,162.23,301.3,162.23,311Z" transform="translate(-20.97 -123.75)" style="fill:#3a2320"></path><path d="M162.23,315v10.72c0,7.59,3.85,11.44,11.44,11.44s11.44-3.85,11.44-11.44v-10.3" transform="translate(-20.97 -123.75)" style="fill:none;stroke:#5a2b2b;stroke-linecap:round;stroke-linejoin:round;stroke-width:7.74px"></path></svg>