<svg xmlns="http://www.w3.org/2000/svg" viewBox="0 0 300 366">
<g>
<path style="fill:#3A2320" d="M210,309.8v14.8c0,7.6,3.8,11.4,11.4,11.4c7.6,0,11.4-3.8,11.4-11.4v-14.8C232.9,300.7,210,300.2,210,309.8z"></path>
<path style="fill:none;stroke:#5A2B2B;stroke-width:7.8;stroke-linecap:round;stroke-linejoin:round;stroke-miterlimit:10" d="M210,313.9v10.7c0,7.6,3.8,11.4,11.4,11.4c7.6,0,11.4-3.8,11.4-11.4v-10.3"></path>
</g>
<g>
<path style="fill:#3A2320" d="M147.2,309.8v14.8c0,7.6,3.8,11.4,11.4,11.4c7.6,0,11.4-3.8,11.4-11.4v-14.8C170.1,300.7,147.2,300.2,147.2,309.8z"></path>
<path style="fill:none;stroke:#5A2B2B;stroke-width:7.8;stroke-linecap:round;stroke-linejoin:round;stroke-miterlimit:10" d="M147.2,313.9v10.7c0,7.6,3.8,11.4,11.4,11.4c7.6,0,11.4-3.8,11.4-11.4v-10.3"></path>
</g>
<g>
<path style="fill:#5A2B2B" d="M207.3,201c7.2,0,13.4,4.2,18.6,12.5c14.6,0.6,22.2,7.7,22.8,21.5c1.5-0.8,3.1-1.2,4.8-1.2c2.8,0,6,1.1,9.5,3.3c11.2,0.8,15.5,6.8,12.8,17.8c2.7,11-1.6,17-12.8,17.8c-2.3,1.4-4.4,2.4-6.4,2.9c3.2,11.9-1.5,20.5-14.2,26.1c-2.5,13.2-9.6,19.9-21.4,19.9c-1.9,0-3.9-0.2-6.1-0.5c-5.5,5.9-11.1,8.9-16.9,8.9c-5.4,0-10.8-2.6-16.5-7.7c-3.1,0.8-6,1.2-8.6,1.2c-10.1,0-16.8-6-20.1-18.1c-14.8-4.8-19.9-14.7-15.3-29.6c-9.8-12.1-8.6-23.1,3.4-33.1c-1.7-15.6,5.3-24.3,20.9-26.2c4.6-9.4,11-14.2,18.9-14.1c3.8,0,8,1.1,12.6,3.2C198.4,202.5,203,201,207.3,201 M207.3,193.2L207.3,193.2c-4.6,0-9.3,1.2-14.3,3.6c-4.2-1.6-8.3-2.4-12.2-2.4c-7,0-16.6,2.7-24,14.9c-7.9,1.6-13.9,5-18,10.2s-6.1,11.8-5.9,19.8c-5.7,5.6-9,11.7-9.6,18.2c-0.7,6.5,1.3,13.2,5.7,19.8c-1.7,7.8-1.1,14.7,1.9,20.6c3,5.8,8.2,10.3,15.6,13.4c6.3,17.2,19,19.9,26.4,19.9c2.1,0,4.3-0.2,6.5-0.6c6.1,4.7,12.3,7,18.5,7c6.9,0,13.6-2.9,19.8-8.5c1.1,0.1,2.2,0.1,3.3,0.1c14.3,0,24.1-7.9,28.1-22.3c11.4-6.1,16.9-15.3,16.1-26.6c0.1,0,0.1-0.1,0.2-0.1c7-0.9,12.2-3.6,15.5-8c3.3-4.5,4.2-10.3,2.9-17.3c1.4-7,0.4-12.8-2.9-17.3s-8.4-7.2-15.4-8c-3.6-2-7-3.1-10.3-3.4c-1.4-5-3.8-9.1-7.3-12.4c-4.4-4.2-10.3-6.7-17.7-7.6C222.4,195.5,213.5,193.2,207.3,193.2L207.3,193.2L207.3,193.2z"></path>
</g>
<path style="fill:#F3ECE0" d="M254.9,270.6c6,14.4,1.9,24.7-12.5,30.9c-2.9,15.4-12.1,21.8-27.5,19.3c-10.6,11.4-21.7,11.9-33.4,1.2c-15,4-24.5-1.7-28.7-16.9c-14.8-4.8-19.9-14.7-15.3-29.6c-9.8-12.1-8.6-23.1,3.4-33.1c-1.7-15.6,5.3-24.3,20.9-26.2c6.9-13.9,17.4-17.6,31.5-10.9c13.3-7.9,24.1-5.2,32.5,8.1c15.6,0.6,23.2,8.7,22.8,24.3C261.6,246.8,263.6,257.7,254.9,270.6z"></path>
<ellipse transform="matrix(0.4695 -0.8829 0.8829 0.4695 -160.9205 154.1015)" style="fill:#D9C3A8" cx="47.8" cy="211" rx="14" ry="20.7"></ellipse>
<ellipse transform="matrix(0.8829 -0.4695 0.4695 0.8829 -78.8977 105.5921)" style="fill:#D9C3A8" cx="172.3" cy="211" rx="20.7" ry="14"></ellipse>
<path style="fill:#FBF7F0" d="M172.8,214.8c5.2,20.1-2.4,32.3-22.9,36.8c-8.9,18.8-22.7,23.4-41.2,13.7c-18.9,8.6-32.6,3.3-40.9-16c-20-5.4-26.8-18.1-20.6-38c-12-17.2-9.2-31.3,8.6-42.4c2-20.6,13.3-29.5,34.1-26.8c15-14.7,29.4-14.3,43.5,1.1c21-1.8,31.8,7.8,32.6,28.6C183.3,183.9,185.5,198.1,172.8,214.8z"></path>
<path style="fill:#D9C3A8" d="M67.1,211c0-19.1,13.8-28.6,41.4-28.6s41.4,9.6,41.4,28.6c0,33.9-13.8,51-41.4,51S67.1,244.9,67.1,211z"></path>
<path style="fill:#E88AA0" d="M100.5,233.3c5.3,6.3,10.6,6.3,15.9,0c-1.5-3.8-4.2-4.9-7.9-3.2C104.7,228.4,102.1,229.4,100.5,233.3z"></path>
<path style="fill:none;stroke:#5A2B2B;stroke-width:6.12;stroke-linecap:round;stroke-linejoin:round;stroke-miterlimit:12.24" d="M108.5,241c0,4.7-3.2,7.8-9.6,9.6 M108.5,241c0,4.7,3.2,7.8,9.6,9.6"></path>
<ellipse style="fill:#F4A6B4" cx="73.5" cy="230.2" rx="10.2" ry="6.7"></ellipse>
<ellipse style="fill:#F4A6B4" cx="143.6" cy="230.2" rx="10.2" ry="6.7"></ellipse>
<path style="fill:#FBF7F0" d="M275.8,254.8c2.7,11-1.6,17-12.8,17.8c-9.8,6-16.9,3.7-21.2-6.9c-8.5-7.3-8.5-14.6,0-21.8c4.4-10.6,11.4-12.9,21.2-6.9C274.2,237.9,278.5,243.8,275.8,254.8z"></path>
<g>
<path style="fill:#5A2B2B" d="M112,131.6c7.4,0,14.7,4,22,11.9c1.6-0.1,3.2-0.2,4.7-0.2c17.9,0,27.2,9.6,27.8,28.8c10.2,7.1,15.1,15,14.9,23.6c4.3,0.6,7.9,2.5,9.7,5.9c3.6,6.8-1.6,16.7-11.7,22.1c-1.5,0.8-3,1.4-4.5,1.9c0.3,13.9-7.8,22.6-24.5,26.3c-5.9,12.4-13.9,18.7-24,18.7c-5.2,0-10.9-1.6-17.2-4.9c-5.9,2.7-11.2,4-16,4c-10.8,0-19.1-6.7-24.8-20c-14.9-4-22.5-12.1-22.8-24.2c-1.3-0.5-2.6-1-3.9-1.7c-10.1-5.4-15.3-15.3-11.7-22.1c1.9-3.6,5.9-5.6,10.8-6c-1.5-10.2,3.7-19,15.6-26.4c1.7-18.2,10.8-27.3,27.3-27.3c2.2,0,4.4,0.2,6.9,0.5C97.8,135.1,104.9,131.6,112,131.6 M112,123.8L112,123.8c-8.2,0-16.3,3.5-24.2,10.4c-1.4-0.1-2.8-0.2-4.1-0.2c-19.3,0-31.4,10.8-34.5,30.6c-11.5,8.2-15.5,17.1-16.2,24.7c-4.3,1.7-7.7,4.6-9.8,8.5c-5.8,10.8,0.8,25.2,14.9,32.7c0.1,0,0.2,0.1,0.3,0.1c1.6,9.3,7.6,19.7,24.5,25.3c8.8,17.6,21.3,21.4,30.4,21.4c4.9,0,10.2-1.1,15.8-3.2c6.1,2.8,12,4.2,17.4,4.2c8.6,0,20.4-3.5,29.3-19.7c8.1-2.3,14.4-5.8,18.9-10.7c4.3-4.7,6.9-10.4,7.7-17c0.2-0.1,0.4-0.2,0.6-0.3c14.1-7.5,20.7-21.9,14.9-32.7c-2-3.7-5.2-6.5-9.2-8.3c-1.5-7.9-6.4-15.2-14.6-21.7c-2-21-14.5-32.5-35.4-32.5c-0.5,0-1.1,0-1.6,0C129.1,127.7,120.7,123.8,112,123.8L112,123.8L112,123.8z"></path>
</g>
<g>
<path style="fill:#3A2320" d="M225,311v14.8c0,7.6,3.8,11.4,11.4,11.4c7.6,0,11.4-3.8,11.4-11.4V311C247.9,301.8,225,301.3,225,311z"></path>
<path style="fill:none;stroke:#5A2B2B;stroke-width:7.8;stroke-linecap:round;stroke-linejoin:round;stroke-miterlimit:10" d="M225,315v10.7c0,7.6,3.8,11.4,11.4,11.4c7.6,0,11.4-3.8,11.4-11.4v-10.3"></path>
</g>
<g>
<path style="fill:#3A2320" d="M162.2,311v14.8c0,7.6,3.8,11.4,11.4,11.4c7.6,0,11.4-3.8,11.4-11.4V311C185.1,301.8,162.2,301.3,162.2,311z"></path>
<path style="fill:none;stroke:#5A2B2B;stroke-width:7.8;stroke-linecap:round;stroke-linejoin:round;stroke-miterlimit:10" d="M162.2,315v10.7c0,7.6,3.8,11.4,11.4,11.4c7.6,0,11.4-3.8,11.4-11.4v-10.3"></path>
</g>
<path style="fill:none;stroke:#3A2320;stroke-width:7;stroke-linecap:round;stroke-linejoin:round" d="M74.8,217.5c2.5-6,8.5-10,15.1-9.6c8,0.5,12.1,9.2,12.3,9.6"></path>
<path style="fill:none;stroke:#3A2320;stroke-width:7;stroke-linecap:round;stroke-linejoin:round" d="M115.4,217.5c2.5-6,8.5-10,15.1-9.6c8,0.5,12.1,9.2,12.3,9.6"></path>
</svg>