<svg id="Layer_1" data-name="Layer 1" xmlns="http://www.w3.org/2000/svg" viewBox="0 0 225.95 131.54"><path d="M207.76,271.91c30.05-12.52,57.6-17.53,60.1,0-5,12.52-27.54,12.52-55.09,12.52Z" transform="translate(-49.71 -211.15)" style="fill:#eef3f7"></path><path d="M227.79,271.91l15-5M230.3,279.42l15-2.5" transform="translate(-49.71 -211.15)" style="fill:none;stroke:#5a2b2b;stroke-linecap:round;stroke-linejoin:round;stroke-width:2.77px"></path><path d="M207.76,294.45c30.05,12.52,57.6,17.52,60.1,0-5-12.52-27.54-12.52-55.09-12.52Z" transform="translate(-49.71 -211.15)" style="fill:#eef3f7"></path><path d="M227.79,294.45l15,5M230.3,286.93l15,2.51" transform="translate(-49.71 -211.15)" style="fill:none;stroke:#5a2b2b;stroke-linecap:round;stroke-linejoin:round;stroke-width:2.77px"></path><path d="M237.81,284.43c0-30.05-25-60.1-80.13-65.11s-100.17,15-100.17,60.1c0,18.78,11,32.05,28.3,40.82,7.43-5.18,30.63-8.77,64.11-7.35,30.55,1.34,48.91,7.1,58.93,12.52C227.13,316.73,237.81,302.38,237.81,284.43Z" transform="translate(-49.71 -211.15)" style="fill:#eef3f7"></path><path d="M85.81,320.24c19.7,10,47.58,14.27,76.88,14.27,18.19,0,33.89-3.25,46.16-9.1-10.1-5.42-28.38-11.18-58.93-12.52C116.44,311.47,93.32,315.15,85.81,320.24Z" transform="translate(-49.71 -211.15)" style="fill:#fff"></path><path d="M193.57,270.82c13.61.5,29.72,11.36,27.46,23.21s-18.78,20.7-35,7.93c-6-5.26-9.85-10.94-10.68-16.86" transform="translate(-49.71 -211.15)" style="fill:#eef3f7;stroke:#5a2b2b;stroke-linecap:round;stroke-linejoin:round;stroke-width:3.54px"></path><path d="M187.31,278.84c13-3.68,25,3.42,27.05,14.35" transform="translate(-49.71 -211.15)" style="fill:none;stroke:#cacfd2;stroke-linecap:round;stroke-linejoin:round;stroke-width:2.98px"></path><ellipse cx="52.87" cy="58.26" rx="14.02" ry="14.69" style="fill:#3a2320"></ellipse><circle cx="49.2" cy="52.67" r="5.93" style="fill:#fff"></circle><circle cx="57.38" cy="62.93" r="2.84" style="fill:#fff"></circle><ellipse cx="92.94" cy="58.26" rx="14.02" ry="14.69" style="fill:#3a2320"></ellipse><circle cx="89.27" cy="52.67" r="5.93" style="fill:#fff"></circle><circle cx="97.45" cy="62.93" r="2.84" style="fill:#fff"></circle><ellipse cx="72.91" cy="78.29" rx="6.51" ry="5.01" style="fill:#5a2b2b"></ellipse><path d="M122.62,294.45q0,7.5-7.51,9m7.51-9q0,7.5,7.51,9" transform="translate(-49.71 -211.15)" style="fill:none;stroke:#5a2b2b;stroke-linecap:round;stroke-linejoin:round;stroke-width:4.68px"></path><ellipse cx="37.85" cy="73.28" rx="10.02" ry="6.51" style="fill:#f4a6b4"></ellipse><ellipse cx="107.96" cy="73.28" rx="10.02" ry="6.51" style="fill:#f4a6b4"></ellipse><path d="M115.11,291.94l-22.54,2.51m37.56-2.51,22.54,2.51m-36.73-7.52-22.53-5m37.56,5,22.54-5" transform="translate(-49.71 -211.15)" style="fill:none;stroke:#5a2b2b;stroke-linecap:round;stroke-linejoin:round;stroke-width:2.13px"></path><path d="M141.49,219c5.27,0,10.68.25,16.19.75,41.85,3.8,66.34,22.06,75.71,43.79A73.34,73.34,0,0,1,250.76,261c9.52,0,15.95,3.29,17.1,11.33-2.68,6.72-10.41,9.83-21.24,11.27,10.83,1.45,18.56,4.56,21.24,11.27-1.15,8.05-7.58,11.34-17.1,11.34a72.88,72.88,0,0,1-17.42-2.56c-4.76,9.25-13.16,16.81-24.49,22.19h0c-12.27,5.84-28,9.1-46.16,9.1-29.3,0-57.18-4.26-76.88-14.28-17.28-8.76-28.3-22-28.3-40.81,0-40.57,36.51-60.85,84-60.85m0-7.8c-25.89,0-48.07,5.72-64.15,16.54-18.07,12.17-27.63,30.19-27.63,52.11,0,20.44,11.27,37,32.57,47.77,24.57,12.49,57.29,15.12,80.41,15.12,18.85,0,36-3.41,49.51-9.86,10.68-5.07,19.19-12.05,24.92-20.38A70.23,70.23,0,0,0,250.76,314c20.08,0,24.05-12.61,24.82-18a7.71,7.71,0,0,0-.48-4,20.75,20.75,0,0,0-6.13-8.37,20.75,20.75,0,0,0,6.13-8.37,7.71,7.71,0,0,0,.48-4c-.77-5.42-4.74-18-24.82-18a70.33,70.33,0,0,0-13.11,1.4,73.55,73.55,0,0,0-25.83-26.31c-14.38-8.91-32.36-14.39-53.43-16.31-5.72-.52-11.41-.78-16.9-.78Z" transform="translate(-49.71 -211.15)" style="fill:#5a2b2b"></path></svg>