<svg xmlns="http://www.w3.org/2000/svg" viewBox="0 0 225.9 131.5">
<path style="fill:#EEF3F7" d="M158,60.8c30.1-12.5,57.6-17.5,60.1,0c-5,12.5-27.5,12.5-55.1,12.5L158,60.8z"></path>
<path style="fill:none;stroke:#5A2B2B;stroke-width:3.9;stroke-linecap:round;stroke-linejoin:round" d="M178.1,60.8l15-5 M180.6,68.3l15-2.5"></path>
<path style="fill:#EEF3F7" d="M158,83.3c30.1,12.5,57.6,17.5,60.1,0c-5-12.5-27.5-12.5-55.1-12.5L158,83.3z"></path>
<path style="fill:none;stroke:#5A2B2B;stroke-width:3.9;stroke-linecap:round;stroke-linejoin:round" d="M178.1,83.3l15,5 M180.6,75.8l15,2.5"></path>
<path style="fill:#EEF3F7" d="M188.1,73.3c0-30.1-25-60.1-80.1-65.1S7.8,23.2,7.8,68.3c0,18.8,11,32,28.3,40.8c7.4-5.2,30.6-8.8,64.1-7.4c30.6,1.3,48.9,7.1,58.9,12.5C177.4,105.6,188.1,91.2,188.1,73.3z"></path>
<path style="fill:#FFFFFF" d="M36.1,109.1c19.7,10,47.6,14.3,76.9,14.3c18.2,0,33.9-3.3,46.2-9.1c-10.1-5.4-28.4-11.2-58.9-12.5C66.7,100.3,43.6,104,36.1,109.1z"></path>
<path style="fill:#EEF3F7;stroke:#5A2B2B;stroke-width:5;stroke-linecap:round;stroke-linejoin:round" d="M143.9,59.7c13.6,0.5,29.7,11.4,27.5,23.2s-18.8,20.7-35,7.9c-6-5.3-9.9-10.9-10.7-16.9"></path>
<path style="fill:none;stroke:#CACFD2;stroke-width:4.2;stroke-linecap:round;stroke-linejoin:round" d="M137.6,67.7c13-3.7,25,3.4,27,14.4"></path>
<ellipse style="fill:#5A2B2B" cx="72.9" cy="78.3" rx="6.5" ry="5"></ellipse>
<path style="fill:none;stroke:#5A2B2B;stroke-width:6.6;stroke-linecap:round;stroke-linejoin:round" d="M72.9,83.3c0,5-2.5,8-7.5,9 M72.9,83.3c0,5,2.5,8,7.5,9"></path>
<ellipse style="fill:#F4A6B4" cx="37.8" cy="73.3" rx="10" ry="6.5"></ellipse>
<ellipse style="fill:#F4A6B4" cx="108" cy="73.3" rx="10" ry="6.5"></ellipse>
<path style="fill:none;stroke:#5A2B2B;stroke-width:3;stroke-linecap:round;stroke-linejoin:round" d="M65.4,80.8l-22.5,2.5 M80.4,80.8l22.5,2.5 M66.2,75.8l-22.5-5 M81.3,75.8l22.5-5"></path>
<path style="fill:#5A2B2B" d="M91.8,7.9c5.3,0,10.7,0.3,16.2,0.8c41.8,3.8,66.3,22.1,75.7,43.8c5.7-1.5,11.5-2.4,17.4-2.5c9.5,0,16,3.3,17.1,11.3c-2.7,6.7-10.4,9.8-21.2,11.3c10.8,1.5,18.6,4.6,21.2,11.3c-1.1,8-7.6,11.3-17.1,11.3c-5.9-0.1-11.7-1-17.4-2.6c-4.8,9.3-13.2,16.8-24.5,22.2l0,0c-12.3,5.8-28,9.1-46.2,9.1c-29.3,0-57.2-4.3-76.9-14.3c-17.3-8.8-28.3-22-28.3-40.8C7.8,28.1,44.3,7.8,91.8,7.9 M91.8,0C65.9,0,43.7,5.8,27.6,16.6C9.6,28.8,0,46.8,0,68.7c0,20.4,11.3,37,32.6,47.8c24.6,12.5,57.3,15.1,80.4,15.1c18.9,0,36-3.4,49.5-9.9c10.7-5.1,19.2-12,24.9-20.4c4.5,0.9,9,1.4,13.6,1.5c20.1,0,24.1-12.6,24.8-18c0.2-1.4,0-2.7-0.5-4c-1.3-3.3-3.4-6.1-6.1-8.4c2.7-2.2,4.8-5.1,6.1-8.4c0.5-1.3,0.7-2.6,0.5-4c-0.8-5.4-4.7-18-24.8-18c-4.4,0.1-8.8,0.5-13.1,1.4c-6.2-10.8-15.1-19.9-25.8-26.3c-14.4-8.9-32.4-14.4-53.4-16.3C103,0.4,97.3,0.1,91.8,0L91.8,0z"></path>
<path style="fill:none;stroke:#3A2320;stroke-width:7;stroke-linecap:round;stroke-linejoin:round" d="M39.6,60.9c2.4-5.7,8.1-9.5,14.3-9.1c7.6,0.5,11.5,8.7,11.7,9.1"></path>
<path style="fill:none;stroke:#3A2320;stroke-width:7;stroke-linecap:round;stroke-linejoin:round" d="M80.4,60.9c2.4-5.7,8.1-9.5,14.3-9.1c7.6,0.5,11.5,8.7,11.7,9.1"></path>
</svg>