<svg xmlns="http://www.w3.org/2000/svg" viewBox="0 0 300 366">
<path style="fill:#FFFFFF" d="M208.8,322.6v14.2c0,7.3,3.7,11,11,11s11-3.7,11-11v-14.2C230.9,313.8,208.8,313.2,208.8,322.6z"></path>
<path style="fill:none;stroke:#5A2B2B;stroke-width:7.7875;stroke-linecap:round;stroke-linejoin:round" d="M208.8,326.5v10.3c0,7.3,3.7,11,11,11s11-3.7,11-11v-9.9"></path>
<path style="fill:#FFFFFF" d="M143.9,322.6v14.2c0,7.3,3.7,11,11,11s11-3.7,11-11v-14.2C166,313.7,143.9,313.2,143.9,322.6z"></path>
<path style="fill:none;stroke:#5A2B2B;stroke-width:7.7875;stroke-linecap:round;stroke-linejoin:round" d="M143.9,326.5v10.3c0,7.3,3.7,11,11,11s11-3.7,11-11v-9.9"></path>
<path style="fill:#FFFFFF" d="M192.7,238c-27,0-54,15-54,48c0,14,4.6,26.6,12.7,36.2c9.4,11,23.6,17.8,41.3,17.8c25.8,0,33.3-4,45.1-12.9c10.9-8.3,17.9-20.7,17.9-38.1C255.7,256,225.7,238,192.7,238z"></path>
<path style="fill:#FFFFFF" d="M249.3,302.5c18-12,23.4-17.1,33.4-39.1c-11.2,14.6-21.4,21.8-33.9,28.8L249.3,302.5z"></path>
<ellipse style="fill:#4A3B36" cx="207.7" cy="288" rx="10.8" ry="8.4"></ellipse>
<ellipse style="fill:#4A3B36" cx="208.7" cy="315.3" rx="9" ry="5.3"></ellipse>
<circle style="fill:#4A3B36" cx="238.1" cy="279.6" r="7.2"></circle>
<circle style="fill:#FFFFFF" cx="175.9" cy="237.2" r="3.7"></circle>
<ellipse style="fill:#4A3B36" cx="180.7" cy="296.7" rx="12.5" ry="11.8"></ellipse>
<circle style="fill:#4A3B36" cx="229" cy="297.1" r="5.3"></circle>
<ellipse style="fill:#4A3B36" cx="191.6" cy="307.9" rx="3.6" ry="2.5"></ellipse>
<path style="fill:#5A2B2B" d="M192.7,238c32.6,0,62.2,17.6,63,49.8c9.5-5.9,18-12.9,27-24.8c-8.9,19.5-14.1,25.7-27.7,35.2c-2,12.7-8.3,22.1-17.2,28.9C226,336,218.5,340,192.7,340c-17.7,0-31.9-6.8-41.3-17.8c-8.1-9.6-12.7-22.2-12.7-36.2C138.7,253,165.7,238,192.7,238 M282.7,263L282.7,263 M192.7,230.3c-16,0-30.9,4.7-41.9,13.3c-13,10.1-19.9,24.8-19.9,42.5c0,15.7,5,30,14.5,41.2c11.3,13.3,28.1,20.6,47.3,20.6c27.6,0,36.7-4.6,49.8-14.5c10.3-7.8,16.8-18.1,19.6-30.6c13.3-9.7,19-17.4,27.6-36.3c0.5-1,0.8-2.2,0.8-3.4c0-4.1-3.1-7.4-7.1-7.8c-0.2,0-0.5,0-0.7,0s-0.3,0-0.5,0c-1.2,0.1-2.4,0.4-3.4,1c-0.7,0.4-1.4,1-2,1.7c-0.1,0.1-0.2,0.3-0.3,0.4c-4.9,6.3-9.6,11.3-14.9,15.7c-3.2-11.8-10.2-21.8-20.8-29.5C228,235.3,210.9,230.3,192.7,230.3L192.7,230.3z"></path>
<path style="fill:#FFFFFF" d="M225.3,321.1v14.2c0,7.3,3.7,11,11,11s11-3.7,11-11v-14.2C247.4,312.2,225.3,311.7,225.3,321.1z"></path>
<path style="fill:none;stroke:#5A2B2B;stroke-width:7.7875;stroke-linecap:round;stroke-linejoin:round" d="M225.3,325v10.3c0,7.3,3.7,11,11,11s11-3.7,11-11v-9.9"></path>
<path style="fill:#FFFFFF" d="M160.4,321.1v14.2c0,7.3,3.7,11,11,11s11-3.7,11-11v-14.2C182.5,312.2,160.4,311.7,160.4,321.1z"></path>
<path style="fill:none;stroke:#5A2B2B;stroke-width:7.7875;stroke-linecap:round;stroke-linejoin:round" d="M160.4,324.9v10.3c0,7.3,3.7,11,11,11s11-3.7,11-11v-9.9"></path>
<path style="fill:#4A3B36" d="M76.3,181.3c-46.8-3.1-65.5,40.6-53,87.4c9.4,28.1,43.7,21.8,56.2-9.4c-9.4-28.1-9.4-56.2,9.4-68.6L76.3,181.3z"></path>
<path style="fill:#4A3B36" d="M201.1,181.3c46.8-3.1,65.5,40.6,53,87.4c-9.4,28.1-43.7,21.8-56.2-9.4c9.4-28.1,9.4-56.2-9.4-68.6L201.1,181.3z"></path>
<ellipse style="fill:#FBF7F0" cx="138.7" cy="225" rx="78" ry="71.8"></ellipse>
<path style="fill:none;stroke:#3A2320;stroke-width:7;stroke-linecap:round;stroke-linejoin:round" d="M91.8,232c2.8-6.8,9.6-11.3,17.1-10.8c9,0.6,13.7,10.4,13.9,10.8"></path>
<path style="fill:none;stroke:#3A2320;stroke-width:7;stroke-linecap:round;stroke-linejoin:round" d="M154.7,232c2.8-6.8,9.6-11.3,17.1-10.8c9,0.6,13.7,10.4,13.9,10.8"></path>
<circle style="fill:#4A3B36" cx="172.9" cy="190.6" r="12.5"></circle>
<circle style="fill:#4A3B36" cx="91.9" cy="203.1" r="9.4"></circle>
<ellipse style="fill:#F4A6B4" cx="94.9" cy="259.3" rx="14.4" ry="9.4"></ellipse>
<ellipse style="fill:#F4A6B4" cx="182" cy="259.3" rx="14.4" ry="9.4"></ellipse>
<circle style="fill:#4A3B36" cx="149.6" cy="199.1" r="3.6"></circle>
<ellipse style="fill:#FFFFFF" cx="138.7" cy="253" rx="34.3" ry="25"></ellipse>
<path style="fill:#E88AA0" d="M126.2,271.8c8.3,8.3,16.6,8.3,25,0l-12.5-7.1L126.2,271.8z"></path>
<ellipse style="fill:#5A2B2B" cx="138.7" cy="240.6" rx="11.2" ry="9.4"></ellipse>
<path style="fill:none;stroke:#5A2B2B;stroke-width:8.112;stroke-linecap:round;stroke-linejoin:round;stroke-miterlimit:12.48" d="M138.7,249.9c0,12.5-5.2,19.8-15.6,21.8 M138.7,249.9c0,12.5,5.2,19.8,15.6,21.8"></path>
<path style="fill:#5A2B2B" d="M138.7,153.2c25.3,0,47.8,11.1,62.1,28.3l0.3-0.2c1.6-0.1,3.1-0.2,4.6-0.2c43.4,0,60.5,42.3,48.4,87.6c-4.1,12.2-12.9,17.9-22.5,17.9c-10.5,0-22.1-6.8-29.8-19.5c-14.2,18-37.2,29.6-63.1,29.6S89.8,285,75.6,267.1c-7.6,12.6-19.2,19.5-29.8,19.5c-9.7,0-18.4-5.7-22.5-17.9c-12.1-45.2,5-87.6,48.4-87.6c1.5,0,3.1,0.1,4.6,0.2l0.3,0.2C90.8,164.3,113.3,153.2,138.7,153.2 M138.7,145.4c-25.4,0-48.9,10.1-65.3,28c-0.6,0-1.2,0-1.7,0c-19.3,0-35.1,7.4-45.9,21.5c-14.1,18.3-17.8,46.7-10,75.9c0,0.2,0.1,0.3,0.1,0.5c4.9,14.6,16,23.2,29.9,23.2c10.9,0,21.9-5.6,30.3-15c6.7,6.6,14.6,12.1,23.2,16.3c12.1,5.8,25.7,8.9,39.3,8.9c13.7,0,27.3-3.1,39.3-8.9c8.6-4.1,16.5-9.7,23.2-16.3c8.4,9.4,19.4,15,30.3,15c13.9,0,25-8.7,29.9-23.2c0.1-0.2,0.1-0.3,0.1-0.5c7.8-29.2,4.1-57.6-10-75.9c-10.8-14-26.7-21.5-45.9-21.5c-0.6,0-1.2,0-1.7,0C187.6,155.6,164.1,145.4,138.7,145.4L138.7,145.4z"></path>
</svg>