<svg id="Layer_1" data-name="Layer 1" xmlns="http://www.w3.org/2000/svg" viewBox="0 0 278.72 206.28"><path d="M208.8,322.58v14.2q0,11,11,11t11-11v-14.2C230.88,313.75,208.8,313.23,208.8,322.58Z" transform="translate(-11.74 -145.41)" style="fill:#fff"></path><path d="M208.8,326.47V336.8q0,11,11,11t11-11v-9.93" transform="translate(-11.74 -145.41)" style="fill:none;stroke:#5a2b2b;stroke-linecap:round;stroke-linejoin:round;stroke-width:7.05px"></path><path d="M143.9,322.57v14.2q0,11,11,11t11-11v-14.2C166,313.74,143.9,313.22,143.9,322.57Z" transform="translate(-11.74 -145.41)" style="fill:#fff"></path><path d="M143.9,326.46v10.33q0,11,11,11t11-11v-9.93" transform="translate(-11.74 -145.41)" style="fill:none;stroke:#5a2b2b;stroke-linecap:round;stroke-linejoin:round;stroke-width:7.05px"></path><path d="M192.67,238c-27,0-54,15-54,48,0,14,4.6,26.6,12.7,36.2,9.4,11,23.6,17.8,41.3,17.8,25.8,0,33.3-4,45.1-12.9,10.9-8.3,17.9-20.7,17.9-38.1C255.67,256,225.67,238,192.67,238Z" transform="translate(-11.74 -145.41)" style="fill:#fff"></path><path d="M249.27,302.5c18-12,23.4-17.1,33.4-39.1-11.2,14.6-21.4,21.8-33.9,28.8Z" transform="translate(-11.74 -145.41)" style="fill:#fff"></path><ellipse cx="195.93" cy="142.63" rx="10.8" ry="8.4" style="fill:#4a3b36"></ellipse><ellipse cx="196.93" cy="169.92" rx="9" ry="5.29" style="fill:#4a3b36"></ellipse><circle cx="226.31" cy="134.23" r="7.2" style="fill:#4a3b36"></circle><circle cx="164.13" cy="91.79" r="3.7" style="fill:#fff"></circle><ellipse cx="168.93" cy="151.25" rx="12.5" ry="11.83" style="fill:#4a3b36"></ellipse><circle cx="217.23" cy="151.73" r="5.3" style="fill:#4a3b36"></circle><ellipse cx="179.83" cy="162.49" rx="3.6" ry="2.5" style="fill:#4a3b36"></ellipse><path d="M192.67,238c32.58,0,62.22,17.55,63,49.76a96.86,96.86,0,0,0,27-24.76c-8.86,19.49-14.11,25.72-27.71,35.23a43.94,43.94,0,0,1-17.19,28.87C226,336,218.47,340,192.67,340c-17.7,0-31.9-6.8-41.3-17.8-8.1-9.6-12.7-22.2-12.7-36.2,0-33,27-48,54-48m90,25h0m-90-32.79c-16,0-30.91,4.71-41.9,13.27-13,10.11-19.89,24.82-19.89,42.52,0,15.7,5,29.95,14.54,41.22,11.34,13.28,28.11,20.57,47.25,20.57,27.59,0,36.75-4.64,49.79-14.47A51.2,51.2,0,0,0,262,302.79c13.26-9.66,19.05-17.44,27.64-36.31a7.8,7.8,0,0,0-6.25-11.2c-.24,0-.49,0-.73,0l-.5,0a7.78,7.78,0,0,0-5.42,2.7l-.32.39a92.76,92.76,0,0,1-14.93,15.72c-3.18-11.77-10.24-21.83-20.84-29.54-12.68-9.21-29.72-14.29-48-14.29Z" transform="translate(-11.74 -145.41)" style="fill:#5a2b2b"></path><path d="M225.27,321.06v14.2q0,11,11,11t11-11v-14.2C247.35,312.23,225.27,311.71,225.27,321.06Z" transform="translate(-11.74 -145.41)" style="fill:#fff"></path><path d="M225.27,325v10.33q0,11,11,11t11-11v-9.93" transform="translate(-11.74 -145.41)" style="fill:none;stroke:#5a2b2b;stroke-linecap:round;stroke-linejoin:round;stroke-width:7.05px"></path><path d="M160.37,321.05v14.2q0,11,11,11t11-11v-14.2C182.45,312.22,160.37,311.7,160.37,321.05Z" transform="translate(-11.74 -145.41)" style="fill:#fff"></path><path d="M160.37,324.94v10.33q0,11,11,11t11-11v-9.93" transform="translate(-11.74 -145.41)" style="fill:none;stroke:#5a2b2b;stroke-linecap:round;stroke-linejoin:round;stroke-width:7.05px"></path><path d="M76.27,181.3c-46.8-3.1-65.5,40.6-53,87.4,9.4,28.1,43.7,21.8,56.2-9.4-9.4-28.1-9.4-56.2,9.4-68.6Z" transform="translate(-11.74 -145.41)" style="fill:#4a3b36"></path><path d="M201.07,181.3c46.8-3.1,65.5,40.6,53,87.4-9.4,28.1-43.7,21.8-56.2-9.4,9.4-28.1,9.4-56.2-9.4-68.6Z" transform="translate(-11.74 -145.41)" style="fill:#4a3b36"></path><ellipse cx="126.93" cy="79.59" rx="78" ry="71.8" style="fill:#fbf7f0"></ellipse><circle cx="161.13" cy="45.19" r="12.5" style="fill:#4a3b36"></circle><circle cx="80.13" cy="57.69" r="9.4" style="fill:#4a3b36"></circle><circle cx="95.73" cy="85.79" r="18.7" style="fill:#3a2320"></circle><circle cx="90.83" cy="78.69" r="7.9" style="fill:#fff"></circle><circle cx="101.73" cy="91.79" r="3.7" style="fill:#fff"></circle><circle cx="158.13" cy="85.79" r="18.7" style="fill:#3a2320"></circle><circle cx="153.23" cy="78.69" r="7.9" style="fill:#fff"></circle><ellipse cx="83.13" cy="113.89" rx="14.4" ry="9.4" style="fill:#f4a6b4"></ellipse><ellipse cx="170.23" cy="113.89" rx="14.4" ry="9.4" style="fill:#f4a6b4"></ellipse><circle cx="137.83" cy="53.69" r="3.6" style="fill:#4a3b36"></circle><ellipse cx="126.93" cy="107.59" rx="34.3" ry="25" style="fill:#fff"></ellipse><path d="M126.17,271.8c8.3,8.3,16.6,8.3,25,0l-12.5-7.1Z" transform="translate(-11.74 -145.41)" style="fill:#e88aa0"></path><ellipse cx="126.93" cy="95.19" rx="11.2" ry="9.4" style="fill:#5a2b2b"></ellipse><path d="M138.67,249.9c0,12.5-5.2,19.8-15.6,21.8m15.6-21.8c0,12.5,5.2,19.8,15.6,21.8" transform="translate(-11.74 -145.41)" style="fill:none;stroke:#5a2b2b;stroke-linecap:round;stroke-linejoin:round;stroke-width:7.34px"></path><path d="M138.67,153.2c25.33,0,47.83,11.12,62.08,28.34l.32-.24c1.58-.11,3.12-.16,4.63-.16,43.39,0,60.45,42.34,48.37,87.56-4.08,12.21-12.86,17.92-22.52,17.92-10.55,0-22.13-6.82-29.76-19.45-14.18,17.95-37.16,29.63-63.12,29.63s-48.93-11.68-63.11-29.63c-7.63,12.63-19.22,19.45-29.77,19.45-9.65,0-18.43-5.71-22.52-17.92-12.08-45.23,5-87.56,48.37-87.56,1.51,0,3.06.05,4.63.16l.32.24c14.25-17.22,36.75-28.34,62.08-28.34m0-7.79c-25.39,0-48.94,10.14-65.29,28-.58,0-1.16,0-1.74,0-19.25,0-35.13,7.42-45.91,21.46-14.06,18.3-17.79,46.67-10,75.89,0,.15.09.31.14.46,4.86,14.55,16,23.24,29.9,23.24,10.92,0,21.93-5.56,30.34-15a86.13,86.13,0,0,0,23.2,16.29,91.86,91.86,0,0,0,78.68,0,86.13,86.13,0,0,0,23.2-16.29c8.41,9.4,19.42,15,30.34,15,13.86,0,25-8.69,29.91-23.24.05-.15.09-.31.14-.46,7.8-29.22,4.07-57.59-10-75.89-10.78-14-26.66-21.46-45.91-21.46-.57,0-1.15,0-1.74,0-16.34-17.83-39.9-28-65.29-28Z" transform="translate(-11.74 -145.41)" style="fill:#5a2b2b"></path></svg>