<svg xmlns="http://www.w3.org/2000/svg" viewBox="0 0 242.07 231.64">
<path d="M167.64,7.83,171,19.39c15.48,1.88,27.15,6.72,35.68,13.71l.59-2.07,1,3.42a49.64,49.64,0,0,1,13.47,20L234.29,58l-10.5,3c11.2,44.61-21,113.08-49.51,148.7-8.34,10.17-15.08,14.16-20.67,14.16-19.86,0-25.31-50.27-36.93-52.46-4.81,0-10.81,12-18,35.9C92.53,218.12,85.85,222.67,79,222.67,42.76,222.67,1,96,8.64,71.12,4.19,35.38,45,17.63,77.74,17.64c21.13,0,38.88,7.39,38.91,22.11h0c.15-14.12,12.15-21.23,36-21.23h2.87c3.11,0,6.09.1,9,.29l3.16-11m0-7.8a7.81,7.81,0,0,0-7.49,5.63l-1.47,5.08h-6.11c-13.42,0-23.49,2.1-30.78,6.4a28.07,28.07,0,0,0-5.59,4.29c-8-7.33-21.42-11.57-38.46-11.57C58,9.84,28.9,16.48,12.34,35.23A45.63,45.63,0,0,0,.78,70.56c-3.68,16.76,6.67,51.81,10,62.46,9.59,30.36,22.44,57.71,35.26,75C57,222.89,68.12,230.43,79,230.43c10.29,0,19.19-6.49,26.47-19.29a8.36,8.36,0,0,0,.68-1.6c4.82-16,8.3-23.8,10.41-27.58a139.4,139.4,0,0,1,5.91,13.53c6.43,16.11,14.43,36.16,31.15,36.16,8.58,0,17.31-5.57,26.7-17l.06-.07c15.77-19.72,31-47.05,40.84-73.1,7.69-20.42,15.52-49.2,11.62-74.94l3.61-1a7.8,7.8,0,0,0,0-15L227.49,48a57.25,57.25,0,0,0-12.35-17.8l-.38-1.33a7.81,7.81,0,0,0-7.5-5.66h-.83c-8.12-5.28-17.94-8.93-29.35-10.88l-1.94-6.73a7.82,7.82,0,0,0-7.5-5.6Z" transform="translate(0 -0.01)" style="fill: #3a2320"></path>
<path d="M8.64,71.12C1.3,12.18,117.13,2.17,116.64,40c0-14.3,12-21.5,36-21.5,120.57-2.29,66.42,135.15,21.61,191.2-37.95,46.28-42.7-35.5-57.6-38.3-4.81,0-10.81,12-18,35.9C60.44,274.58-.41,100.76,8.64,71.12Z" transform="translate(0 -0.01)" style="fill: #fcfaf5"></path>
<circle cx="141.55" cy="76.72" r="8.3" style="fill: #fff"></circle>
<ellipse cx="68.65" cy="112.02" rx="15" ry="9" style="fill: #f4a6b4"></ellipse>
<ellipse cx="152.65" cy="112.02" rx="15" ry="9" style="fill: #f4a6b4"></ellipse>
<path d="M207.26,31l6,21,21,6-21,6-6,21-6-21-21-6,21-6Z" transform="translate(0 -0.01)" style="fill: #fbe7a8"></path>
<path d="M167.64,7.83l3.7,12.8,12.8,3.7L171.34,28l-3.7,12.8L164,28l-12.8-3.7,12.8-3.7Z" transform="translate(0 -0.01)" style="fill: #fbe7a8"></path>
<path d="M94.44,121s1.5,15.6,15.6,15.6,16.8-15.6,16.8-15.6" transform="translate(0 -0.01)" style="fill: none;stroke: #3a2320;stroke-linecap: round;stroke-linejoin: round;stroke-width: 7px"></path>
<path d="M61.36,90.79a18.57,18.57,0,0,1,18-11.51c9.61.62,14.44,11,14.74,11.51" transform="translate(0 -0.01)" style="fill: none;stroke: #3a2320;stroke-linecap: round;stroke-linejoin: round;stroke-width: 7px"></path>
<path d="M129.18,90.79a18.57,18.57,0,0,1,18-11.51c9.61.62,14.44,11,14.74,11.51" transform="translate(0 -0.01)" style="fill: none;stroke: #3a2320;stroke-linecap: round;stroke-linejoin: round;stroke-width: 7px"></path>
</svg>