<svg id="Layer_1" data-name="Layer 1" xmlns="http://www.w3.org/2000/svg" viewBox="0 0 242.11 231.66"><path d="M196.64,118.71,200,130.27c15.48,1.88,27.15,6.72,35.68,13.71l.59-2.07,1,3.42a49.65,49.65,0,0,1,13.47,20l12.55,3.59-10.5,3c11.2,44.61-21,113.08-49.51,148.7-8.34,10.17-15.08,14.16-20.67,14.16-19.86,0-25.31-50.27-36.93-52.46-4.81,0-10.81,12-18,35.9C121.53,329,114.85,333.55,108,333.55,71.76,333.55,30,206.9,37.64,182c-4.45-35.74,36.38-53.49,69.1-53.48,21.13,0,38.88,7.39,38.91,22.11,0,.09,0,.18,0,.27a2.44,2.44,0,0,0,0-.27c.15-14.12,12.15-21.23,36-21.23l2.87,0c3.11,0,6.09.1,9,.29l3.16-11m0-7.8a7.8,7.8,0,0,0-7.49,5.63l-1.47,5.08c-1.05,0-2.11,0-3.17,0l-2.94,0c-13.42,0-23.49,2.1-30.78,6.4a28.15,28.15,0,0,0-5.59,4.29c-8-7.33-21.42-11.57-38.46-11.57-19.84,0-48.88,6.64-65.44,25.39a45.62,45.62,0,0,0-11.56,35.33c-3.68,16.76,6.67,51.81,10,62.46,9.59,30.36,22.44,57.71,35.26,75,11,14.87,22.08,22.41,32.92,22.41,10.29,0,19.19-6.49,26.47-19.29a8.1,8.1,0,0,0,.68-1.6c4.82-16,8.3-23.8,10.41-27.58,1.95,3.63,4.23,9.33,5.91,13.53,6.43,16.11,14.43,36.16,31.15,36.16,8.58,0,17.31-5.57,26.7-17l.06-.07c15.77-19.72,31-47.05,40.84-73.1,7.69-20.42,15.52-49.2,11.62-74.94l3.61-1a7.8,7.8,0,0,0,0-15l-8.92-2.55a57.26,57.26,0,0,0-12.35-17.76l-.38-1.33a7.79,7.79,0,0,0-7.5-5.66c-.28,0-.56,0-.83,0-8.12-5.28-17.94-8.93-29.35-10.88l-1.94-6.73a7.8,7.8,0,0,0-7.5-5.63Z" transform="translate(-28.96 -110.91)" style="fill:#5a2b2b"></path><path d="M37.64,182c-7.34-58.94,108.49-68.95,108-31.1,0-14.3,12-21.5,36-21.5,120.57-2.29,66.42,135.15,21.61,191.2-37.95,46.28-42.7-35.5-57.6-38.3-4.81,0-10.81,12-18,35.9C89.44,385.46,28.59,211.64,37.64,182Z" transform="translate(-28.96 -110.91)" style="fill:#fcfaf5"></path><ellipse cx="74.69" cy="85" rx="19.8" ry="21.7" style="fill:#3a2320"></ellipse><circle cx="69.59" cy="76.7" r="8.3" style="fill:#fff"></circle><circle cx="80.99" cy="92" r="4" style="fill:#fff"></circle><ellipse cx="146.69" cy="85" rx="19.8" ry="21.7" style="fill:#3a2320"></ellipse><circle cx="141.59" cy="76.7" r="8.3" style="fill:#fff"></circle><circle cx="152.99" cy="92" r="4" style="fill:#fff"></circle><ellipse cx="68.69" cy="112" rx="15" ry="9" style="fill:#f4a6b4"></ellipse><ellipse cx="152.69" cy="112" rx="15" ry="9" style="fill:#f4a6b4"></ellipse><path d="M236.26,141.91l6,21,21,6-21,6-6,21-6-21-21-6,21-6Z" transform="translate(-28.96 -110.91)" style="fill:#fbe7a8"></path><path d="M196.64,118.71l3.7,12.8,12.8,3.7-12.8,3.7-3.7,12.8-3.7-12.8-12.8-3.7,12.8-3.7Z" transform="translate(-28.96 -110.91)" style="fill:#fbe7a8"></path><path d="M123.44,231.91s1.5,15.6,15.6,15.6,16.8-15.6,16.8-15.6" transform="translate(-28.96 -110.91)" style="fill:none;stroke:#3a2320;stroke-linecap:round;stroke-linejoin:round;stroke-width:8.25px"></path></svg>