<svg viewBox="0 0 100 122" xmlns="http://www.w3.org/2000/svg" style="overflow:visible;display:block;width:100%;height:100%;"><g stroke-linejoin="round" stroke-linecap="round"><circle cx="50" cy="7" r="4.5" fill="#5A2B2B" stroke="#5A2B2B" stroke-width="6.6"></circle><ellipse cx="22" cy="40" rx="6.5" ry="10" fill="#5A2B2B" stroke="#5A2B2B" stroke-width="6.6"></ellipse><ellipse cx="78" cy="40" rx="6.5" ry="10" fill="#5A2B2B" stroke="#5A2B2B" stroke-width="6.6"></ellipse><g transform="rotate(0 42 96)"><rect x="38" y="96" width="8" height="12" rx="4" fill="#6BC8BD" stroke="#5A2B2B" stroke-width="3"></rect><path d="M38,100.56 L46,100.56 M38,103.92 L46,103.92" stroke="#5A2B2B" stroke-width="1.8"></path><ellipse cx="42" cy="111" rx="8" ry="4.5" fill="#5A2B2B" stroke="#5A2B2B" stroke-width="6.6"></ellipse></g><g transform="rotate(0 58 96)"><rect x="54" y="96" width="8" height="12" rx="4" fill="#6BC8BD" stroke="#5A2B2B" stroke-width="3"></rect><path d="M54,100.56 L62,100.56 M54,103.92 L62,103.92" stroke="#5A2B2B" stroke-width="1.8"></path><ellipse cx="58" cy="111" rx="8" ry="4.5" fill="#5A2B2B" stroke="#5A2B2B" stroke-width="6.6"></ellipse></g><g transform="rotate(14 30 68)"><rect x="25.75" y="68" width="8.5" height="15" rx="4.25" fill="#6BC8BD" stroke="#5A2B2B" stroke-width="3"></rect><path d="M25.75,73.7 L34.25,73.7 M25.75,77.9 L34.25,77.9" stroke="#5A2B2B" stroke-width="1.8"></path><circle cx="30" cy="85" r="5.27" fill="#5A2B2B" stroke="#5A2B2B" stroke-width="6.6"></circle></g><g transform="rotate(-14 70 68)"><rect x="65.75" y="68" width="8.5" height="15" rx="4.25" fill="#6BC8BD" stroke="#5A2B2B" stroke-width="3"></rect><path d="M65.75,73.7 L74.25,73.7 M65.75,77.9 L74.25,77.9" stroke="#5A2B2B" stroke-width="1.8"></path><circle cx="70" cy="85" r="5.27" fill="#5A2B2B" stroke="#5A2B2B" stroke-width="6.6"></circle></g><rect x="31" y="66" width="38" height="32" rx="9" fill="#6BC8BD" stroke="#5A2B2B" stroke-width="3.3"></rect><circle cx="50" cy="82" r="7.5" fill="#5A2B2B" stroke="#5A2B2B" stroke-width="6.6"></circle><circle cx="50" cy="82" r="4.2" fill="#5A2B2B" stroke="#5A2B2B" stroke-width="6.6"></circle><circle cx="52" cy="80" r="1.5" fill="#5A2B2B" stroke="#5A2B2B" stroke-width="6.6"></circle><rect x="26" y="20" width="48" height="40" rx="13" fill="#6BC8BD" stroke="#5A2B2B" stroke-width="3.3"></rect><ellipse cx="39" cy="42" rx="6.6" ry="7.02" fill="#5A2B2B" stroke="#5A2B2B" stroke-width="6.6"></ellipse><circle cx="37.284" cy="39.3324" r="2.772" fill="#5A2B2B" stroke="#5A2B2B" stroke-width="6.6"></circle><circle cx="41.112" cy="44.2464" r="1.32" fill="#5A2B2B" stroke="#5A2B2B" stroke-width="6.6"></circle><ellipse cx="61" cy="42" rx="6.6" ry="7.02" fill="#5A2B2B" stroke="#5A2B2B" stroke-width="6.6"></ellipse><circle cx="59.284" cy="39.3324" r="2.772" fill="#5A2B2B" stroke="#5A2B2B" stroke-width="6.6"></circle><circle cx="63.112" cy="44.2464" r="1.32" fill="#5A2B2B" stroke="#5A2B2B" stroke-width="6.6"></circle><ellipse cx="31" cy="48" rx="3.8" ry="2.4" fill="#5A2B2B" stroke="#5A2B2B" stroke-width="6.6"></ellipse><ellipse cx="69" cy="48" rx="3.8" ry="2.4" fill="#5A2B2B" stroke="#5A2B2B" stroke-width="6.6"></ellipse><path d="M50,20 L50,10" fill="none" stroke="#5A2B2B" stroke-width="3.3" stroke-linecap="round"></path><circle cx="50" cy="7" r="4.5" fill="#F4CE6B"></circle><ellipse cx="22" cy="40" rx="6.5" ry="10" fill="#4AA79C"></ellipse><ellipse cx="78" cy="40" rx="6.5" ry="10" fill="#4AA79C"></ellipse><g transform="rotate(0 42 96)"><rect x="38" y="96" width="8" height="12" rx="4" fill="#6BC8BD" stroke="#5A2B2B" stroke-width="3"></rect><path d="M38,100.56 L46,100.56 M38,103.92 L46,103.92" stroke="#5A2B2B" stroke-width="1.8"></path><ellipse cx="42" cy="111" rx="8" ry="4.5" fill="#4AA79C"></ellipse></g><g transform="rotate(0 58 96)"><rect x="54" y="96" width="8" height="12" rx="4" fill="#6BC8BD" stroke="#5A2B2B" stroke-width="3"></rect><path d="M54,100.56 L62,100.56 M54,103.92 L62,103.92" stroke="#5A2B2B" stroke-width="1.8"></path><ellipse cx="58" cy="111" rx="8" ry="4.5" fill="#4AA79C"></ellipse></g><g transform="rotate(14 30 68)"><rect x="25.75" y="68" width="8.5" height="15" rx="4.25" fill="#6BC8BD" stroke="#5A2B2B" stroke-width="3"></rect><path d="M25.75,73.7 L34.25,73.7 M25.75,77.9 L34.25,77.9" stroke="#5A2B2B" stroke-width="1.8"></path><circle cx="30" cy="85" r="5.27" fill="#4AA79C"></circle></g><g transform="rotate(-14 70 68)"><rect x="65.75" y="68" width="8.5" height="15" rx="4.25" fill="#6BC8BD" stroke="#5A2B2B" stroke-width="3"></rect><path d="M65.75,73.7 L74.25,73.7 M65.75,77.9 L74.25,77.9" stroke="#5A2B2B" stroke-width="1.8"></path><circle cx="70" cy="85" r="5.27" fill="#4AA79C"></circle></g><rect x="31" y="66" width="38" height="32" rx="9" fill="#6BC8BD" stroke="#5A2B2B" stroke-width="3.3"></rect><circle cx="50" cy="82" r="7.5" fill="#5A2B2B"></circle><circle cx="50" cy="82" r="4.2" fill="#8A5050"></circle><circle cx="52" cy="80" r="1.5" fill="#C99"></circle><path d="M43,62 L57,62 M45,65.5 L55,65.5" fill="none" stroke="#5A2B2B" stroke-width="2.6" stroke-linecap="round"></path><rect x="26" y="20" width="48" height="40" rx="13" fill="#6BC8BD" stroke="#5A2B2B" stroke-width="3.3"></rect><ellipse cx="39" cy="42" rx="6.6" ry="7.02" fill="#3A2320"></ellipse><circle cx="37.284" cy="39.3324" r="2.772" fill="#fff"></circle><circle cx="41.112" cy="44.2464" r="1.32" fill="#fff"></circle><ellipse cx="61" cy="42" rx="6.6" ry="7.02" fill="#3A2320"></ellipse><circle cx="59.284" cy="39.3324" r="2.772" fill="#fff"></circle><circle cx="63.112" cy="44.2464" r="1.32" fill="#fff"></circle><path d="M46,52 Q50,55.5 54,52" fill="none" stroke="#5A2B2B" stroke-width="2.8" stroke-linecap="round"></path><ellipse cx="31" cy="48" rx="3.8" ry="2.4" fill="#F4A6B4"></ellipse><ellipse cx="69" cy="48" rx="3.8" ry="2.4" fill="#F4A6B4"></ellipse></g></svg>