<svg id="Layer_1" data-name="Layer 1" xmlns="http://www.w3.org/2000/svg" viewBox="0 0 263.47 213">
  <path d="M199.8,127c24-9,18.1-28.6,52.3-37.4,3,12-3,33-21,45,18,3,27,15,24,24-21,6-31.3-10.6-55.3-19.6V127Z" transform="translate(0)" style="fill: #79b4de"></path>
  <path d="M204.2,172.6c9-11.1,13.6-24.6,13.6-39.6,0-42-42-78-102-78S7.8,79,7.8,133c0,14,3.6,25.9,10.2,35.8C73.1,185.1,150.3,187.9,204.2,172.6Z" transform="translate(0)" style="fill: #79b4de"></path>
  <path d="M115.8,205c42.4,0,72.4-12.4,88.4-32.4-54,15.3-131.1,12.5-186.2-3.9C34.3,192.9,69,205,115.8,205Z" transform="translate(0)" style="fill: #cdeaf8"></path>
  <path d="M43.2,180.8c39.2,11.9,103.4,12,142.8.8M58.6,192.4c31.8,7.6,76.7,8.7,102.4,2.1" transform="translate(0)" style="fill: none;stroke: #8fc4e0;stroke-linecap: round;stroke-linejoin: round;stroke-width: 4.199999809265137px"></path>
  <path d="M163.4,112c19.6,2.6,33.6,15.5,31.9,33.5-6,15.7-27.3,18.5-43.8,2.8-6-5.9-10.4-12.5-12.2-18.9" transform="translate(0)" style="fill: #79b4de;stroke: #5a2b2b;stroke-linecap: round;stroke-linejoin: round;stroke-width: 5px"></path>
  <path d="M155.3,120.4c18.6-1.6,31.3,6.3,31.9,22.4" transform="translate(0)" style="fill: none;stroke: #8fc4e0;stroke-linecap: round;stroke-linejoin: round;stroke-width: 4.800000190734863px"></path>
  <ellipse cx="49.8" cy="115" rx="16.8" ry="17.9" style="fill: #3a2320"></ellipse>
  <circle cx="45.4" cy="108.2" r="7.1" style="fill: #fff"></circle>
  <circle cx="55.2" cy="120.7" r="3.4" style="fill: #fff"></circle>
  <ellipse cx="94.8" cy="115" rx="16.8" ry="17.9" style="fill: #3a2320"></ellipse>
  <circle cx="90.4" cy="108.2" r="7.1" style="fill: #fff"></circle>
  <circle cx="100.2" cy="120.7" r="3.4" style="fill: #fff"></circle>
  <path d="M106.8,145q-36,33-72-3c3.3,9.8,8.3,17.7,15.1,22.9,8.5-2.3,28.4-2.4,41,.1C97.3,160.3,102.6,153.4,106.8,145Z" transform="translate(0)" style="fill: #7a3b48"></path>
  <path d="M49.9,164.9a34.91,34.91,0,0,0,41,.1C78.3,162.5,58.5,162.5,49.9,164.9Z" transform="translate(0)" style="fill: #f19db0"></path>
  <ellipse cx="28.8" cy="139" rx="12" ry="7.8" style="fill: #f4a6b4"></ellipse>
  <ellipse cx="112.8" cy="139" rx="12" ry="7.8" style="fill: #f4a6b4"></ellipse>
  <path d="M115.8,55.2c51.84,0,90.24,26.88,99.73,61.28,8.44-9.34,12.92-20.59,36.57-26.68,3,12-3,33-21,45,18,3,27,15,24,24a31.44,31.44,0,0,1-8.66,1.28c-10.83,0-19.21-6.32-30.1-12.75A60,60,0,0,1,204.2,172.8c-16,20-46,32.4-88.4,32.4-46.72,0-81.37-12.06-97.71-36.17L18,169c-6.6-9.9-10.2-21.8-10.2-35.8,0-54,48-78,108-78m0-7.8C83,47.4,55.06,54.32,35,67.42c-22.92,15-35,37.73-35,65.78,0,15.17,3.87,28.67,11.51,40.13a7.73,7.73,0,0,0,.66.85C29.9,199.58,65.71,213,115.8,213c21.59,0,40.72-3.1,56.86-9.2,15.91-6,28.57-14.81,37.61-26.11a67.31,67.31,0,0,0,10.67-18.46c7.88,4.69,15.71,8.65,25.5,8.65a38.84,38.84,0,0,0,10.8-1.58,7.79,7.79,0,0,0,5.26-5c1.87-5.61,1-11.82-2.38-17.47a33.18,33.18,0,0,0-13.65-12.17c11.94-13.54,16.3-31.31,13.2-43.72A7.81,7.81,0,0,0,252.1,82a7.54,7.54,0,0,0-1.94.25c-17.5,4.5-26.11,12-32.18,19-6.79-13.63-17.89-25.71-32.24-34.87-19.44-12.4-43.62-19-69.94-19Z" transform="translate(0)" style="fill: #5a2b2b"></path>
  <path d="M77.1,70.6c-8-20-11.2-29.4-1.2-41.4m1.2,41.4c8-20,15.2-24.3,7.2-34.3" transform="translate(0)" style="fill: none;stroke: #bfe3f5;stroke-linecap: round;stroke-linejoin: round;stroke-width: 9px"></path>
  <circle cx="80.1" cy="20.8" r="7.2" style="fill: #bfe3f5"></circle>
  <circle cx="66" cy="23.8" r="5.4" style="fill: #bfe3f5"></circle>
  <circle cx="90" cy="13.6" r="4.8" style="fill: #bfe3f5"></circle>
  <circle cx="77.1" cy="4.5" r="4.5" style="fill: #bfe3f5"></circle>
</svg>