<svg xmlns="http://www.w3.org/2000/svg" viewBox="0 0 263.5 213">
<path style="fill:#79B4DE" d="M199.8,127c24-9,18.1-28.6,52.3-37.4c3,12-3,33-21,45c18,3,27,15,24,24c-21,6-31.3-10.6-55.3-19.6V127z"></path>
<path style="fill:#79B4DE" d="M204.2,172.6c9-11.1,13.6-24.6,13.6-39.6c0-42-42-78-102-78s-108,24-108,78c0,14,3.6,25.9,10.2,35.8C73.1,185.1,150.3,187.9,204.2,172.6z"></path>
<path style="fill:#CDEAF8" d="M115.8,205c42.4,0,72.4-12.4,88.4-32.4c-54,15.3-131.1,12.5-186.2-3.9C34.3,192.9,69,205,115.8,205z"></path>
<path style="fill:none;stroke:#8FC4E0;stroke-width:4.2;stroke-linecap:round;stroke-linejoin:round" d="M43.2,180.8c39.2,11.9,103.4,12,142.8,0.8 M58.6,192.4c31.8,7.6,76.7,8.7,102.4,2.1"></path>
<path style="fill:#79B4DE;stroke:#5B2C2C;stroke-width:5;stroke-linecap:round;stroke-linejoin:round" d="M163.4,112c19.6,2.6,33.6,15.5,31.9,33.5c-6,15.7-27.3,18.5-43.8,2.8c-6-5.9-10.4-12.5-12.2-18.9"></path>
<path style="fill:none;stroke:#8FC4E0;stroke-width:4.8;stroke-linecap:round;stroke-linejoin:round" d="M155.3,120.4c18.6-1.6,31.3,6.3,31.9,22.4"></path>
<path style="fill:#7A3B48" d="M106.8,145c-24,22-48,21-72-3c3.3,9.8,8.3,17.7,15.1,22.9c8.5-2.3,28.4-2.4,41,0.1C97.3,160.3,102.6,153.4,106.8,145z"></path>
<path style="fill:#F19DB0" d="M49.9,164.9c12.2,8.9,28.8,8.9,41,0.1C78.3,162.5,58.5,162.5,49.9,164.9z"></path>
<ellipse style="fill:#F4A6B4" cx="28.8" cy="139" rx="12" ry="7.8"></ellipse>
<ellipse style="fill:#F4A6B4" cx="112.8" cy="139" rx="12" ry="7.8"></ellipse>
<path style="fill:#5B2C2C" d="M115.8,55.2c51.8,0,90.2,26.9,99.7,61.3c8.4-9.3,12.9-20.6,36.6-26.7c3,12-3,33-21,45c18,3,27,15,24,24c-2.8,0.8-5.7,1.3-8.7,1.3c-10.8,0-19.2-6.3-30.1-12.8c-2,9.3-6.1,18.1-12.1,25.5c-16,20-46,32.4-88.4,32.4c-46.7,0-81.4-12.1-97.7-36.2l-0.1,0c-6.6-9.9-10.2-21.8-10.2-35.8C7.8,79.2,55.8,55.2,115.8,55.2 M115.8,47.4c-32.8,0-60.7,6.9-80.8,20c-22.9,15-35,37.7-35,65.8c0,15.2,3.9,28.7,11.5,40.1c0.2,0.3,0.4,0.6,0.7,0.9C29.9,199.6,65.7,213,115.8,213c21.6,0,40.7-3.1,56.9-9.2c15.9-6,28.6-14.8,37.6-26.1c4.5-5.5,8.1-11.8,10.7-18.5c7.9,4.7,15.7,8.6,25.5,8.6c3.7,0,7.3-0.5,10.8-1.6c2.5-0.7,4.4-2.6,5.3-5c1.9-5.6,1-11.8-2.4-17.5c-3.3-5.3-8-9.5-13.6-12.2c11.9-13.5,16.3-31.3,13.2-43.7c-0.9-3.5-4-5.9-7.6-5.9c-0.7,0-1.3,0.1-1.9,0.3c-17.5,4.5-26.1,12-32.2,19c-6.8-13.6-17.9-25.7-32.2-34.9C166.3,54,142.1,47.4,115.8,47.4L115.8,47.4z"></path>
<path style="fill:none;stroke:#BFE3F5;stroke-width:9;stroke-linecap:round;stroke-linejoin:round" d="M77.1,70.6c-8-20-11.2-29.4-1.2-41.4 M77.1,70.6c8-20,15.2-24.3,7.2-34.3"></path>
<circle style="fill:#BFE3F5" cx="80.1" cy="20.8" r="7.2"></circle>
<circle style="fill:#BFE3F5" cx="66" cy="23.8" r="5.4"></circle>
<circle style="fill:#BFE3F5" cx="90" cy="13.6" r="4.8"></circle>
<circle style="fill:#BFE3F5" cx="77.1" cy="4.5" r="4.5"></circle>
<path style="fill:none;stroke:#5A2B2B;stroke-width:7.488;stroke-linecap:round;stroke-linejoin:round;stroke-miterlimit:12.48" d="M26.6,117.8c3.2-7.4,10.4-12,18-11.5c9.6,0.6,14.4,10.9,14.7,11.5"></path>
<path style="fill:none;stroke:#5A2B2B;stroke-width:7.488;stroke-linecap:round;stroke-linejoin:round;stroke-miterlimit:12.48" d="M94.8,117.8c3.2-7.4,10.4-12,18-11.5c9.6,0.6,14.4,10.9,14.7,11.5"></path>
</svg>