<svg xmlns="http://www.w3.org/2000/svg" viewBox="0 0 285.4 220.6">
<path style="fill:#5A2B2B" d="M233.2,166.8c-2.3,0-4.2-1.9-4.2-4.2c0-2.1,1.7-3.9,3.8-4.1c6-0.5,23.3-3.2,30.5-9.1c9-7.2,14-18.3,14-18.4c1-2.1,3.5-3,5.6-2.1c2.1,1,3,3.4,2.1,5.5c-0.2,0.5-5.8,13-16.4,21.6c-10.8,8.7-34.1,10.8-35.1,10.9L233.2,166.8z"></path>
<path style="fill:#B9B4C4" d="M134.3,195.1v11.3c0,5.9,3.7,8.8,11,8.8s11-2.9,11-8.8v-11.3C156.3,188,134.3,187.6,134.3,195.1z"></path>
<path style="fill:none;stroke:#5A2B2B;stroke-width:7.7875;stroke-linecap:round;stroke-linejoin:round" d="M134.3,198.2v8.2c0,5.9,3.7,8.8,11,8.8s11-2.9,11-8.8v-7.9"></path>
<path style="fill:#B9B4C4" d="M194.8,195.1v11.3c0,5.9,3.7,8.8,11,8.8s11-2.9,11-8.8v-11.3C216.8,188,194.8,187.6,194.8,195.1z"></path>
<path style="fill:none;stroke:#5A2B2B;stroke-width:7.7875;stroke-linecap:round;stroke-linejoin:round" d="M194.8,198.2v8.2c0,5.9,3.7,8.8,11,8.8s11-2.9,11-8.8v-7.9"></path>
<path style="fill:#B9B4C4;stroke:#5A2B2B;stroke-width:7.8;stroke-miterlimit:10" d="M182.5,208.6c-27.4,0-58.8-3.8-58.8-33c0-38,23.1-62.5,58.8-62.5c37.3,0,58.8,22.8,58.8,62.5C241.3,204.9,209.9,208.6,182.5,208.6z"></path>
<circle style="fill:#B9B4C4" cx="42.1" cy="42.1" r="34.3"></circle>
<circle style="fill:#B9B4C4" cx="154.5" cy="42.1" r="34.3"></circle>
<circle style="fill:#F4C7D0" cx="42.1" cy="42.1" r="20"></circle>
<circle style="fill:#F4C7D0" cx="154.5" cy="42.1" r="20"></circle>
<ellipse style="fill:#B9B4C4" cx="98.3" cy="104.5" rx="74.9" ry="68.6"></ellipse>
<ellipse style="fill:#F4A6B4" cx="54.6" cy="132.6" rx="14.4" ry="9.4"></ellipse>
<ellipse style="fill:#F4A6B4" cx="142" cy="131" rx="14.4" ry="9.4"></ellipse>
<path style="fill:none;stroke:#5A2B2B;stroke-width:7.488;stroke-linecap:round;stroke-linejoin:round" d="M98.3,128.2c0,6.2-3.1,10.4-9.4,12.5 M98.3,128.2c0,6.2,3.1,10.4,9.4,12.5"></path>
<path style="fill:none;stroke:#5A2B2B;stroke-width:3.744;stroke-linecap:round;stroke-linejoin:round" d="M88.9,120.1l-34.3-6.2 M88.9,126.3L54.6,131 M107.7,120.1l34.3-6.2 M107.7,126.3L142,131"></path>
<ellipse style="fill:#8F5B6A" cx="98.3" cy="120.1" rx="10" ry="8.1"></ellipse>
<path style="fill:#B9B4C4" d="M146.4,196.6v11.3c0,5.9,3.7,8.8,11,8.8s11-2.9,11-8.8v-11.3C168.4,189.5,146.4,189.1,146.4,196.6z"></path>
<path style="fill:none;stroke:#5A2B2B;stroke-width:7.7875;stroke-linecap:round;stroke-linejoin:round" d="M146.4,199.7v8.3c0,5.9,3.7,8.8,11,8.8s11-2.9,11-8.8V200"></path>
<path style="fill:#B9B4C4" d="M206.9,196.6v11.3c0,5.9,3.7,8.8,11,8.8c7.3,0,11-2.9,11-8.8v-11.3C229,189.5,206.9,189.1,206.9,196.6z"></path>
<path style="fill:none;stroke:#5A2B2B;stroke-width:7.7875;stroke-linecap:round;stroke-linejoin:round" d="M206.9,199.7v8.3c0,5.9,3.7,8.8,11,8.8c7.3,0,11-2.9,11-8.8V200"></path>
<path style="fill:#5A2B2B" d="M154.5,7.8c18.9,0,34.3,15.3,34.3,34.3c0,14.6-9.3,27.7-23.1,32.4c4.9,9.2,7.5,19.5,7.5,30c0,37.9-33.5,68.6-74.9,68.6s-74.9-30.7-74.9-68.6c0-10.5,2.6-20.8,7.5-30C13,68.4,3.5,48.8,9.7,30.9S35.4,3.5,53.3,9.7C66,14.1,75,25.5,76.3,38.9c14.4-4,29.7-4,44.1,0C122,21.3,136.8,7.8,154.5,7.8 M154.5,0c-18.4,0-34.7,12-40.2,29.5c-10.6-1.9-21.4-1.9-32,0C75.4,7.4,51.7-5,29.6,2S-5,32.5,2,54.7c3.1,9.9,9.7,18.3,18.6,23.6c-3.3,8.3-5,17.2-5,26.2c0,42.1,37.1,76.4,82.7,76.4s82.7-34.3,82.7-76.4c0-9-1.7-17.9-5-26.2c20-11.9,26.6-37.7,14.7-57.7C183.1,7.8,169.3,0,154.5,0z"></path>
<path style="fill:none;stroke:#3A2320;stroke-width:7;stroke-linecap:round;stroke-linejoin:round" d="M49.6,109.9c3-7.2,10.2-11.9,18-11.5c9.6,0.6,14.4,11,14.7,11.5"></path>
<path style="fill:none;stroke:#3A2320;stroke-width:7;stroke-linecap:round;stroke-linejoin:round" d="M113.4,109.9c3-7.2,10.2-11.9,18-11.5c9.6,0.6,14.4,11,14.7,11.5"></path>
</svg>