<?xml version="1.0" encoding="utf-8"?>
<svg version="1.1" xmlns="http://www.w3.org/2000/svg" xmlns:xlink="http://www.w3.org/1999/xlink" x="0px" y="0px"
	 viewBox="0 0 800 800" style="enable-background:new 0 0 800 800;" xml:space="preserve">
<style type="text/css">
	.st0{fill:#FFFFFF;}
	.st1{fill:#3D3DB4;stroke:#3D3DB4;stroke-width:22;}
	.st2{fill:none;stroke:#3D3DB4;stroke-width:22;stroke-miterlimit:10;}
	.st3{fill:#3D3DB4;}
	.st4{display:none;fill:#3D3DB4;stroke:#3D3DB4;stroke-width:22;}
	.st5{display:none;fill:none;stroke:#3D3DB4;stroke-width:22;stroke-linecap:round;stroke-linejoin:round;stroke-miterlimit:10;}
</style>
<g id="Layer_1">
	<g id="Layer_2_1_">
		<path class="st0" d="M700,800H100C45,800,0,755,0,700V100C0,45,45,0,100,0h600c55,0,100,45,100,100v600C800,755,755,800,700,800z"
			/>
	</g>
	<path class="st1" d="M400,337.4c-130.3,0-235.9,52.9-235.9,118l0,0v147.4c0,65.1,105.6,118,235.9,118s235.9-52.9,235.9-118V455.4
		C635.9,390.4,530.3,337.4,400,337.4z"/>
	<path class="st1" d="M164.1,455.4v147.4c0,65.1,105.6,118,235.9,118s235.9-52.9,235.9-118V455.4"/>
	<path class="st2" d="M635.9,529.1c0,65.1-105.6,118-235.9,118s-235.9-52.9-235.9-118"/>
	<path class="st1" d="M635.9,455.4c0,65.1-105.6,118-235.9,118s-235.9-52.9-235.9-118s105.6-118,235.9-118S635.9,390.4,635.9,455.4z
		"/>
	<path class="st3" d="M491.5,447.5c0,26.1-42.3,47.3-94.5,47.3s-94.5-21.2-94.5-47.3c0-26.1,42.3-47.3,94.5-47.3
		S491.5,421.4,491.5,447.5z"/>
	<path class="st1" d="M259.6,194.5v85.9c0,44.4,15.1,87,42.5,120.1c13.2,15.8,28.3,28.5,45,37.4c17.8,9.5,36.1,14.3,54.6,14.3
		s36.9-4.8,54.6-14.3c25.1-13.5,46.8-35.2,62.5-62.7c16.4-28.5,25-61.3,25-94.8v-87L259.6,194.5z"/>
	<path class="st3" d="M403.2,418.4c-11.6,0-23.3-3.2-35-9.4c-18-9.6-34.4-26.2-46.1-46.7c-5.4-9.5-9.8-19.7-13-30.5
		c67.7-11.9,109.5-54.9,133.2-90c11.4,23.1,30.8,52,60.3,65.2c-3.5,27.8-14.7,54.3-31.7,74.8c-9.6,11.6-20.9,21-32.7,27.3
		C426.5,415.2,414.8,418.4,403.2,418.4z"/>
	<path class="st4" d="M425.6,240.7c-8.1,2.5-16.7,3.8-25.6,3.8s-17.8-1.3-25.7-3.8l-219.5-67c-8.6-2.7-14.2-9.5-14.2-17.5
		s5.6-14.9,14.2-17.5l219.6-67c7.8-2.5,16.7-3.8,25.6-3.8s17.5,1.3,25.7,3.8l219.7,66.9h0.1c8.5,2.8,13.9,9.7,13.9,17.5
		s-5.5,14.7-13.9,17.5l-0.3,0.1L425.6,240.7z"/>
	<line class="st5" x1="598.8" y1="166.8" x2="598.8" y2="286.4"/>
</g>
<g id="Layer_2">
	<path class="st1" d="M645.5,138.6L645.5,138.6L425.7,71.7c-8.2-2.5-16.8-3.8-25.7-3.8c-8.9,0-17.8,1.3-25.6,3.8l-219.6,67
		c-8.6,2.6-14.2,9.5-14.2,17.5s5.6,14.8,14.2,17.5l219.5,67c7.9,2.5,16.8,3.8,25.7,3.8c8.9,0,17.5-1.3,25.6-3.8l160.7-49v75.1
		c0,11.6,9.5,21.2,21.2,21.2s21.2-9.5,21.2-21.2v-88l16.6-5.1l0.3-0.1c8.4-2.8,13.9-9.7,13.9-17.5
		C659.4,148.3,654,141.4,645.5,138.6z"/>
	<circle class="st1" cx="606.9" cy="331.9" r="24.8"/>
</g>
</svg>
