<?xml version="1.0" encoding="utf-8"?>
<svg version="1.1" xmlns="http://www.w3.org/2000/svg" xmlns:xlink="http://www.w3.org/1999/xlink"
     viewBox="0 0 800 800" xml:space="preserve">
  <!-- White background fills the full icon (including maskable safe-zone margins) -->
  <rect width="800" height="800" fill="#FFFFFF"/>
  <!-- Logo scaled to ~70% and centered so mortarboard clears the adaptive-icon circular safe zone -->
  <g transform="translate(120,120) scale(0.7)">
    <!-- Body/cylinder stack: blue fill, white internal strokes preserved for shape definition -->
    <path fill="#3D3DB4" stroke="#FFFFFF" stroke-width="22"
      d="M400,337.4c-130.3,0-235.9,52.9-235.9,118l0,0v147.4c0,65.1,105.6,118,235.9,118s235.9-52.9,235.9-118V455.4
      C635.9,390.4,530.3,337.4,400,337.4z"/>
    <path fill="#3D3DB4" stroke="#FFFFFF" stroke-width="22"
      d="M164.1,455.4v147.4c0,65.1,105.6,118,235.9,118s235.9-52.9,235.9-118V455.4"/>
    <!-- Middle ring line: blue stroke so it's visible on white background -->
    <path fill="none" stroke="#3D3DB4" stroke-width="22" stroke-miterlimit="10"
      d="M635.9,529.1c0,65.1-105.6,118-235.9,118s-235.9-52.9-235.9-118"/>
    <path fill="#3D3DB4" stroke="#FFFFFF" stroke-width="22"
      d="M635.9,455.4c0,65.1-105.6,118-235.9,118s-235.9-52.9-235.9-118s105.6-118,235.9-118S635.9,390.4,635.9,455.4z"/>
    <!-- White highlight shapes: blue stroke border keeps them visible on white background -->
    <path fill="#FFFFFF" stroke="#3D3DB4" stroke-width="10"
      d="M491.5,447.5c0,26.1-42.3,47.3-94.5,47.3s-94.5-21.2-94.5-47.3c0-26.1,42.3-47.3,94.5-47.3
      S491.5,421.4,491.5,447.5z"/>
    <!-- Head/torso: blue fill, white internal strokes -->
    <path fill="#3D3DB4" stroke="#FFFFFF" stroke-width="22"
      d="M259.6,194.5v85.9c0,44.4,15.1,87,42.5,120.1c13.2,15.8,28.3,28.5,45,37.4c17.8,9.5,36.1,14.3,54.6,14.3
      s36.9-4.8,54.6-14.3c25.1-13.5,46.8-35.2,62.5-62.7c16.4-28.5,25-61.3,25-94.8v-87L259.6,194.5z"/>
    <!-- Face highlight: blue stroke border so it's visible on white background -->
    <path fill="#FFFFFF" stroke="#3D3DB4" stroke-width="10"
      d="M403.2,418.4c-11.6,0-23.3-3.2-35-9.4c-18-9.6-34.4-26.2-46.1-46.7c-5.4-9.5-9.8-19.7-13-30.5
      c67.7-11.9,109.5-54.9,133.2-90c11.4,23.1,30.8,52,60.3,65.2c-3.5,27.8-14.7,54.3-31.7,74.8c-9.6,11.6-20.9,21-32.7,27.3
      C426.5,415.2,414.8,418.4,403.2,418.4z"/>
    <!-- Mortarboard cap and tassel: blue fill, white internal strokes -->
    <path fill="#3D3DB4" stroke="#FFFFFF" stroke-width="22"
      d="M645.5,138.6L645.5,138.6L425.7,71.7c-8.2-2.5-16.8-3.8-25.7-3.8c-8.9,0-17.8,1.3-25.6,3.8l-219.6,67
      c-8.6,2.6-14.2,9.5-14.2,17.5s5.6,14.8,14.2,17.5l219.5,67c7.9,2.5,16.8,3.8,25.7,3.8c8.9,0,17.5-1.3,25.6-3.8l160.7-49v75.1
      c0,11.6,9.5,21.2,21.2,21.2s21.2-9.5,21.2-21.2v-88l16.6-5.1l0.3-0.1c8.4-2.8,13.9-9.7,13.9-17.5
      C659.4,148.3,654,141.4,645.5,138.6z"/>
    <circle fill="#3D3DB4" stroke="#FFFFFF" stroke-width="22" cx="606.9" cy="331.9" r="24.8"/>
  </g>
</svg>
