<?xml version="1.0" encoding="utf-8"?>
<svg version="1.1" xmlns="http://www.w3.org/2000/svg" xmlns:xlink="http://www.w3.org/1999/xlink" x="0px" y="0px"
	 viewBox="0 0 800 900" style="enable-background:new 0 0 800 900;" xml:space="preserve">
<style type="text/css">
	.st0{fill:none;stroke:#3D3DB4;stroke-width:55;stroke-miterlimit:133.3333;}
	.st1{fill:#FFFFFF;}
	.st2{fill:#FF5C5C;}
</style>
<path class="st0" d="M598.6,456.8c0,54.8-88.9,99.3-198.6,99.3c-109.7,0-198.6-44.5-198.6-99.3s88.9-99.3,198.6-99.3
	C509.7,357.5,598.6,402,598.6,456.8z"/>
<path class="st0" d="M598.6,580.9c0,54.8-88.9,99.3-198.6,99.3c-109.7,0-198.6-44.5-198.6-99.3"/>
<path class="st0" d="M201.4,456.8V705c0,54.8,88.9,99.3,198.6,99.3c109.7,0,198.6-44.5,198.6-99.3V456.8"/>
<path class="st1" d="M447.2,451.8c-10.1,0-19.8-2.4-28.9-7.2c-10.7-5.6-17.3-16.8-17.3-29.2V113.2c-0.1-15.5,10.8-29.1,25.9-32.4
	l0.4-0.1c3.5-0.7,7-1,10.6-1c8.5,0,17,2,24.6,5.8c13,6.3,22.6,18.1,26.8,32.1c12.6,0.9,24.8,5.5,34.7,13.3
	c21.5,16.8,29.2,44.9,21.2,69.5c8.9,4.3,17,10.5,23.5,18.1c11.2,13.1,17.4,29.9,17.4,47.2c0,20.2-8.2,39.1-22.5,52.7
	c4.9,15,4.9,31.4-0.3,47.4c-4.7,14.4-13.9,26.6-26.8,35.3c-9.2,6.2-19.9,10.3-30.9,12C495.7,436.1,472.9,451.8,447.2,451.8
	L447.2,451.8z M352.8,451.8c-25.7,0-48.5-15.7-58.3-38.6c-11.1-1.7-21.8-5.8-30.9-12c-12.9-8.8-22.1-21-26.8-35.3
	c-5.2-16-5.3-32.4-0.3-47.4c-14.3-13.7-22.5-32.6-22.5-52.7c0-17.3,6.2-34.1,17.4-47.2c6.5-7.7,14.6-13.8,23.5-18.1
	c-3.4-10.3-4.1-21.4-1.9-32.3c5.7-27.9,29.6-48.6,57.7-50.5c4.2-14.1,13.8-25.9,26.8-32.1c7.6-3.8,16.1-5.8,24.6-5.8
	c3.5,0,7.1,0.3,10.6,1l0.4,0.1c15.1,3.3,26.1,16.9,25.9,32.4v302.2c0.1,12.1-6.4,23.3-17.1,29.1l-0.3,0.1
	C372.6,449.4,362.9,451.8,352.8,451.8L352.8,451.8z"/>
<path class="st2" d="M437.9,95.7c6.1,0,12.1,1.4,17.6,4.1c12.7,6.1,20.1,19.6,20.1,33.6v0.9c3.1-0.6,6.3-1,9.4-1
	c10.5,0,20.7,3.5,29.1,10c20.6,16.1,24.2,45.8,8.1,66.3c27.5,4.3,47.8,28.1,47.8,55.9c0,19.3-9.8,37.3-26.1,47.8
	c7.3,13.1,9.7,29.7,4,47.3c-7.3,22.7-29.7,37.1-53.5,37.1h-1c-4.5,22-23.9,37.8-46.3,37.8c-7.8,0-15-2-21.4-5.3
	c-5.5-2.9-8.8-8.8-8.8-15V113.1c-0.1-8,5.5-15,13.4-16.7C432.9,95.9,435.4,95.7,437.9,95.7 M362.1,95.7c2.5,0,5,0.2,7.5,0.7
	c7.8,1.7,13.4,8.7,13.4,16.7v302.4c0.1,6.2-3.3,12-8.8,15c-6.4,3.4-13.7,5.3-21.5,5.3c-22.5,0-41.8-15.8-46.3-37.8h-0.9
	c-23.8,0-46.2-14.5-53.5-37.1c-5.7-17.7-3.3-34.2,4-47.3c-15.7-10.2-26.1-27.8-26.1-47.8c0-27.9,20.3-51.6,47.8-55.9
	c-8.5-10.9-11.8-25-9.1-38.5c4.6-22.4,24.3-37.8,46.2-37.8c3.1,0,6.3,0.3,9.5,1v-0.9c0-14.1,7.4-27.6,20.1-33.6
	C350,97.1,356,95.7,362.1,95.7"/>
</svg>
