<?xml version="1.0" encoding="utf-8"?>
<!-- Generator: Adobe Illustrator 24.1.2, SVG Export Plug-In . SVG Version: 6.00 Build 0)  -->
<svg version="1.1" xmlns="http://www.w3.org/2000/svg" xmlns:xlink="http://www.w3.org/1999/xlink" x="0px" y="0px"
	 viewBox="0 0 800 800" style="enable-background:new 0 0 800 800;" xml:space="preserve">
<style type="text/css">
	.st0{fill:#3D3DB4;}
	.st1{fill:#FFFFFF;}
	.st2{fill:none;stroke:#3D3DB4;stroke-width:22;}
	.st3{fill:none;stroke:#3D3DB4;stroke-width:22;stroke-linecap:round;}
	.st4{fill:none;stroke:#3D3DB4;stroke-width:35;stroke-linecap:round;stroke-linejoin:round;stroke-miterlimit:10;}
</style>
<g id="Layer_2">
	<path class="st0" d="M700,800H100C45,800,0,755,0,700V100C0,45,45,0,100,0h600c55,0,100,45,100,100v600C800,755,755,800,700,800z"
		/>
</g>
<g id="Layer_1">
	<path class="st1" d="M578.6,348.8c-8.6-4.3-17.8-8.3-27.4-11.9c5.2-18.3,7.8-37.2,7.8-56.4v-75.9l9-2.7v63.9c0,8,2.9,15.3,7.7,21
		c-6.1,6.2-9.9,14.8-9.9,24.2c0,19,15.5,34.5,34.5,34.5s34.5-15.5,34.5-34.5c0-9.3-3.7-17.8-9.7-24c4.9-5.7,7.9-13.1,7.9-21.2V182
		l13.6-4.2c10.3-3.2,17-11.6,17-21.3c0-9.5-6.5-17.9-16.7-21.2l-0.2-0.1l-0.2-0.1L426.8,68.2c-8.5-2.7-17.5-4-26.8-4
		s-18.5,1.4-26.8,4l-219.5,67c-10.4,3.2-17,11.6-17,21.3c0,9.5,6.5,17.9,16.7,21.2l0.2,0.1l0.2,0.1l91,27.8v74.8
		c0,18.8,2.5,37.3,7.4,55.3c-10.7,3.9-21,8.3-30.5,13.1c-53.8,26.9-83.5,64.8-83.5,106.7V603c0,41.9,29.6,79.7,83.5,106.7
		c48.1,24.1,111.5,37.3,178.4,37.3c67,0,130.3-13.3,178.4-37.3C632.3,682.8,662,644.9,662,603V455.4
		C662,413.6,632.4,375.7,578.6,348.8z M600.3,330.5c-10.8,0-19.5-8.7-19.5-19.5c0-6.2,2.8-11.6,7.3-15.2c3.8,1.6,8,2.5,12.4,2.5
		c4.3,0,8.4-0.9,12.2-2.4c4.4,3.6,7.1,9,7.1,15.1C619.8,321.8,611.1,330.5,600.3,330.5z"/>
	<path class="st2" d="M164.1,455.4v147.4c0,65.1,105.6,118,235.9,118s235.9-52.9,235.9-118V455.4"/>
	<path class="st3" d="M635.9,529.1c0,65.1-105.6,118-235.9,118s-235.9-52.9-235.9-118"/>
	<path class="st2" d="M635.9,455.4c0,65.1-105.6,118-235.9,118s-235.9-52.9-235.9-118s105.6-118,235.9-118S635.9,390.4,635.9,455.4z
		"/>
	<path class="st0" d="M491.5,447.5c0,26.1-42.3,47.3-94.5,47.3s-94.5-21.2-94.5-47.3c0-26.1,42.3-47.3,94.5-47.3
		S491.5,421.4,491.5,447.5z"/>
	<line class="st4" x1="600.3" y1="170.6" x2="600.3" y2="265.7"/>
	<circle class="st0" cx="600.3" cy="311" r="19.5"/>
	<path class="st0" d="M642,163.4c3.9-1.2,6.4-3.9,6.4-7c0-3-2.5-5.7-6.4-7L422.4,82.5c-7.1-2.2-14.7-3.3-22.4-3.3
		s-15.4,1.1-22.4,3.3l-219.6,67c-3.9,1.2-6.4,3.9-6.4,7c0,3,2.5,5.7,6.4,7l101.6,31v85.9c0,44.4,15.1,87,42.5,120.1
		c13.2,15.8,28.3,28.5,45,37.4c17.8,9.5,36.1,14.3,54.6,14.3s36.9-4.8,54.6-14.3c25.1-13.5,46.8-35.2,62.5-62.7
		c16.4-28.5,25-61.3,25-94.8v-87L642,163.4z"/>
	<path class="st1" d="M406.2,421.4c-11.6,0-23.3-3.2-35-9.4c-18-9.6-34.4-26.2-46.1-46.7c-5.4-9.5-9.8-19.7-13-30.5
		c67.7-11.9,109.5-54.9,133.2-90c11.4,23.1,30.8,52,60.3,65.2c-3.5,27.8-14.7,54.3-31.7,74.8c-9.6,11.6-20.9,21-32.7,27.3
		C429.5,418.2,417.8,421.4,406.2,421.4z"/>
</g>
</svg>
