<?xml version="1.0" encoding="utf-8"?>
<!-- Generator: Adobe Illustrator 24.1.2, SVG Export Plug-In . SVG Version: 6.00 Build 0)  -->
<svg version="1.1" id="Layer_1" xmlns="http://www.w3.org/2000/svg" xmlns:xlink="http://www.w3.org/1999/xlink" x="0px" y="0px"
	 viewBox="0 0 800 900" style="enable-background:new 0 0 800 900;" xml:space="preserve">
<style type="text/css">
	.st0{fill:none;stroke:#3D3DB4;stroke-width:25;stroke-miterlimit:10;}
	.st1{fill:none;stroke:#3D3DB4;stroke-width:25;stroke-linecap:round;stroke-linejoin:round;}
	.st2{fill:none;stroke:#3D3DB4;stroke-width:25;stroke-linecap:round;}
	.st3{fill:#3D3DB4;}
	.st4{fill:none;stroke:#3D3DB4;stroke-width:25;}
</style>
<path class="st0" d="M394.4,66.9C179.5,66.9,85,132.1,81.8,239c-2.2,74,39.1,104.3,116.8,104.3c19.8,0,2.2,63.5,165.3,63.5
	c48.5,0,59.5,93.9,213.9,93.9c74.9,0,123.5-84.4,123.5-84.4c46-2.2,51.2-55.4,51.2-94.4C752.6,199.4,625.8,66.9,394.4,66.9z"/>
<path class="st1" d="M408.3,186c-115,0-109.4-20.9-109.4-102.1"/>
<path class="st1" d="M488.5,342.3c0,63.6-5.1,64.2-124.6,64.2"/>
<path class="st1" d="M180.5,188.7c0,57.3-1.6,58.4-95.2,58.4"/>
<path class="st1" d="M206.8,340.4c0-68.3,0.7-73.2,73.2-73.2"/>
<path class="st1" d="M703.4,416.6c-77.7,0-92.1-4.1-92.1-66.6"/>
<line class="st2" x1="557" y1="243" x2="557" y2="573.1"/>
<circle class="st3" cx="556.2" cy="234.2" r="30.6"/>
<circle class="st3" cx="488.3" cy="330.7" r="30.6"/>
<circle class="st3" cx="419.1" cy="185.3" r="30.6"/>
<circle class="st3" cx="298.8" cy="269.5" r="30.6"/>
<circle class="st3" cx="180.4" cy="179.6" r="30.6"/>
<circle class="st3" cx="610.6" cy="334.7" r="30.6"/>
<path class="st4" d="M152.9,549h491.4c55.4,0,100.3,44.9,100.3,100.3V726c0,55.4-44.9,100.3-100.3,100.3H152.9
	c-55.4,0-100.3-44.9-100.3-100.3v-76.8C52.6,593.7,97.5,549,152.9,549z"/>
<line class="st2" x1="203.1" y1="695.9" x2="604.7" y2="695.9"/>
<circle class="st3" cx="170.2" cy="694.7" r="40.6"/>
</svg>
