<?xml version="1.0" encoding="utf-8"?>
<!-- Generator: Adobe Illustrator 24.1.2, SVG Export Plug-In . SVG Version: 6.00 Build 0)  -->
<svg version="1.1" xmlns="http://www.w3.org/2000/svg" xmlns:xlink="http://www.w3.org/1999/xlink" x="0px" y="0px"
	 viewBox="0 0 800 800" style="enable-background:new 0 0 800 800;" xml:space="preserve">
<style type="text/css">
	.st1{fill:#FFFFFF;stroke:#3D3DB4;stroke-width:20;}
	.st2{fill:#3D3DB4;}
	.st3{fill:none;stroke:#3D3DB4;stroke-width:20;stroke-linecap:round;}
	.st4{display:none;}
	.st5{display:inline;}
	.st6{fill:url(#SVGID_1_);}
	.st7{display:inline;fill:none;stroke:#3D3DB4;stroke-width:20;stroke-linecap:round;stroke-miterlimit:10;}
	.st8{fill:#FFFFFF;stroke:#3D3DB4;stroke-width:22;}
	.st9{fill:none;stroke:#3D3DB4;stroke-width:22;stroke-linecap:round;}
	.st10{fill:none;stroke:#3D3DB4;stroke-width:20;stroke-linecap:round;stroke-linejoin:round;stroke-miterlimit:10;}
	.st11{fill:none;stroke:#3D3DB4;stroke-width:35;stroke-linecap:round;stroke-linejoin:round;stroke-miterlimit:10;}
	.st12{fill:#FFFFFF;}
</style>
<g id="Old">
	<g id="Database_Outline">
		<path class="st0" d="M399.9,392.2c-130.3,0-235.9,52.9-235.9,118l0,0v147.4c0,65.1,105.6,118,235.9,118s235.9-52.9,235.9-118
			V510.2C635.8,445.2,530.2,392.2,399.9,392.2z"/>
		<path class="st1" d="M635.8,510.2c0,65.1-105.6,118-235.9,118S164,575.3,164,510.2s105.6-118,235.9-118S635.8,445.2,635.8,510.2z"
			/>
		<path class="st2" d="M491.4,502.3c0,26.1-42.3,47.3-94.5,47.3s-94.5-21.2-94.5-47.3s42.3-47.3,94.5-47.3S491.4,476.2,491.4,502.3z
			"/>
		<path class="st3" d="M635.8,583.9c0,65.1-105.6,118-235.9,118S164,649,164,583.9"/>
	</g>
	<g id="Natural_brain" class="st4">
		<g class="st5">
			
				<linearGradient id="SVGID_1_" gradientUnits="userSpaceOnUse" x1="399.9532" y1="281.3" x2="399.9532" y2="771.4625" gradientTransform="matrix(1 0 0 -1 0 800)">
				<stop  offset="0" style="stop-color:#FFFFFF"/>
				<stop  offset="5.872645e-02" style="stop-color:#FFF3F3"/>
				<stop  offset="0.1639" style="stop-color:#FFD4D4"/>
				<stop  offset="0.3034" style="stop-color:#FFA2A2"/>
				<stop  offset="0.4702" style="stop-color:#FF5D5D"/>
				<stop  offset="0.4735" style="stop-color:#FF5C5C"/>
			</linearGradient>
			<path class="st6" d="M652.3,289.4c-0.7-23.5-7.4-42.6-18.2-53.2c4.8-10.8,6.6-23.6,4.9-36.3c-1.7-13.3-7-25.1-14.6-33.2
				c1.6-12.5-3.6-27.6-14.6-42.3C598,108.6,578.3,93,558.6,89.8c-3.7-18.5-18.4-35.2-41.3-46.7c-16-8.1-34.8-12.9-52.8-13.7
				c-19.8-0.9-36.6,3.1-48.6,11.6c-6.7,4.7-12.1,11.1-16.3,18.7c-4.1-7.7-9.5-14.1-16.2-18.7c-23.7-16.6-67-16.6-100.8-0.1
				c-23.6,11.6-38.3,28.9-42,49.3c-21.2,4.2-42,21.9-53.4,38.1c-9.6,13.7-13.9,27.3-12.2,38.9c-16,19.1-19.7,47.7-9.4,70
				c-11,12.2-17.3,29.4-18,49.2c-1,32.8,13.3,67.7,37.4,91c12.5,12.1,28.9,17.5,41.9,19.8c10.6,22.1,35.6,36.4,50.2,43.2
				c17.7,8.2,40.1,14.6,58.7,14.6c3,0,5.9-0.2,8.6-0.5c4.8,19.8,11.2,34.6,19.6,45c10.2,12.7,23.4,19.2,39.2,19.2
				c35.8,0,48.7-29.8,56-64.2c2.6,0.3,5.3,0.5,8.2,0.5c16.7,0,37.6-5.4,57.2-15.2c14.3-7.2,38.5-22.4,48-45.9
				c15.1-2.9,28.9-8.1,40.1-15.2C643.3,359.3,653.2,319.8,652.3,289.4z"/>
		</g>
		<g class="st5">
			<path class="st2" d="M336.8,28.4c18,0,34.8,4.2,46.7,12.5c6.7,4.7,12.1,11,16.2,18.7c4.1-7.7,9.6-14,16.3-18.7
				c11-7.7,25.9-11.7,43.4-11.7c1.7,0,3.5,0,5.3,0.1c18,0.8,36.8,5.7,52.8,13.7c22.9,11.5,37.6,28.2,41.3,46.7
				c19.7,3.2,39.3,18.9,51.2,34.6c11,14.7,16.2,29.7,14.6,42.3c7.6,8.2,12.9,20,14.6,33.2c1.6,12.7-0.1,25.5-4.9,36.3
				c10.9,10.5,17.5,29.6,18.2,53.2c0.9,30.5-9,69.9-39.5,89.1c-11.3,7.1-25,12.3-40.1,15.2c-9.5,23.6-33.7,38.7-48,45.9
				c-19.6,9.9-40.4,15.2-57.2,15.2c-2.9,0-5.6-0.2-8.2-0.5c-7.3,34.4-20.2,64.2-56,64.2c-15.8,0-29-6.4-39.2-19.2
				c-8.4-10.5-14.8-25.2-19.6-45c-2.7,0.4-5.6,0.5-8.6,0.5c-18.5,0-41-6.5-58.7-14.6c-14.6-6.8-39.6-21.1-50.2-43.2
				c-13-2.3-29.4-7.6-41.9-19.8c-24.1-23.3-38.4-58.2-37.4-91c0.6-19.8,6.9-37,18-49.2c-10.4-22.3-6.7-50.9,9.4-70
				c-1.6-11.6,2.6-25.2,12.2-38.9c11.4-16.2,32.2-33.9,53.4-38.1c3.7-20.4,18.4-37.7,42-49.3C299.5,32.5,318.8,28.4,336.8,28.4
				 M336.8,13.4c-20.8,0-42.4,5-60.8,14C251.8,39.3,235.2,57,228.3,78c-23.2,7.9-42.8,26.7-53.3,41.7
				c-10.2,14.5-15.4,29.2-15.3,42.9c-7.5,10.6-12.3,23-14.1,36.5c-1.6,12.2-0.6,24.4,3,35.6c-9.8,14-15.3,31.6-15.9,51.3
				c-1.1,36.9,15,76.1,42,102.3c10.9,10.5,25.5,18.1,42.5,22.3c14,22.6,39.1,36.8,53.7,43.5c20.6,9.6,43.7,15.4,62.2,16
				c5,16.2,11.3,29,19.2,38.9c13,16.2,30.6,24.8,50.9,24.8c21.4,0,38.5-8.5,50.8-25.3c7.1-9.7,12.6-22.1,17-38.5
				c18.6-0.7,40.4-6.7,60.3-16.8c14.3-7.2,38.8-22.3,51.7-46.3c14-3.5,26.9-8.8,37.7-15.6c16.6-10.4,29.6-26.9,37.6-47.6
				c6.3-16.5,9.5-35.9,9-54.6c-0.7-22.8-6.3-42.1-16.2-55.8c3.3-11.1,4.3-23.3,2.7-35.2c-1.8-13.8-6.8-26.5-14.2-36.4
				c-0.2-14.7-6.4-30.9-17.9-46.2c-11-14.7-29.7-31.4-51.2-38.2c-7.1-19.2-23.3-35.9-46.6-47.6c-17.9-9-38.8-14.4-58.9-15.3
				c-2-0.1-4-0.1-5.9-0.1c-20.6,0-38.5,5-52,14.5c-2.7,1.9-5.2,4-7.6,6.3c-2.4-2.3-4.9-4.4-7.6-6.3
				C378.1,18.8,358.5,13.4,336.8,13.4L336.8,13.4z"/>
		</g>
		<path class="st7" d="M233.3,388.9c14,39.4,90.8,64.9,118,54.6"/>
		<path class="st7" d="M565.9,385.7c-11.8,41.4-85.4,68.4-113.6,57.8"/>
		<path class="st7" d="M304.7,375.5c14.6,10.3,39.7,34.1,46.6,68c9.3,45.9,26.2,66,52,66s39.9-16.7,49-66
			c5.2-28.4,14.3-65.1,44.3-65.1"/>
		<path class="st7" d="M176.8,238.7c-32.5,27.8-24.3,94.4,14.6,132.1c10.8,10.5,26.3,16.1,42,18.1c25.2,3.2,52.7-2.9,71.4-13.1
			c11.5-6.3,19.7-14.2,21.9-22.5"/>
		<path class="st7" d="M282.5,126.5c6.2-11.7,19.8-18.3,33.5-8.2s7.3,33.9,13.1,48.7c5.8,14.8,34.9,23.1,50.2,6.2
			c9.3-10.2,21.2-44.4,20.4-75.5c-0.5-20.3-6.8-39.3-21.4-49.5c-37-26-127-4-129.5,49.9c-31.5,1.1-72.5,45.1-64,71.6
			c-16.5,16.5-22,47-8,69c34.5-13.5,21.4,16.4,33.5,52.5c12.2,36.3,69.9,29.7,84,35s19.3,18.1,32.3,27c11.9,8.1,25.1,13.5,38.2,8.5
			c27.5-10.5,34.2-78.6,13.6-106.3"/>
		<path class="st7" d="M299.6,232.5c-4.7,1.7-17.2,19.3-32.3,14.7"/>
		<path class="st7" d="M223.8,206c-2.3-10.8,3.6-20.6,10.7-27.8c13.1-10.7,34.2-8.7,46.1,1.8s11.4,30.3,19,52.6
			c5.5,16,13.9,27.6,21.4,34.1c21.6,18.9,48.9,0.6,57.6-11.3c8.7-11.9,7.3-63.4,0.9-82.2"/>
		<path class="st7" d="M622.6,238.7c28.7,15.8,31.1,103.4-14.6,132.1c-12.3,7.7-27,12.6-42.1,14.9c-27.7,4.3-49,2.5-69.3-7.2
			c-8.8-4.2-23.6-19.3-25.5-26.4"/>
		<path class="st7" d="M516.9,126.5c-6.2-11.7-19.8-18.3-33.5-8.2s-7.3,33.9-13.1,48.7c-5.8,14.8-34.9,23.1-50.2,6.2
			c-9.2-10.2-21-44.5-20.4-75.5c0.4-20.5,6.7-39.2,21.4-49.5c37-26,128.2,1,129.5,49.9c31.6-0.9,72.5,45.1,64,71.6
			c16.7,13.5,22,47,8,69c-34.5-13.5-16.1,18.6-33.5,52.5c-17.6,34.3-66.1,25.4-84,35c-9,4.8-20.7,16.9-33.9,25.9
			c-11.3,7.7-23.8,13.1-36.6,9.6c-29-7.9-35.2-72.5-13.6-106.3"/>
		<path class="st7" d="M499.9,233.1c4.7,1.7,17.5,18.8,32.6,14.2"/>
		<path class="st7" d="M576,206c2.3-10.8-3.6-20.6-10.7-27.8c-13.1-10.7-35.4-8.7-46.1,1.8c-10.7,10.5-11.6,30.7-19.3,53.1
			c-5.5,15.9-13.7,27.3-21.1,33.6c-22.1,18.9-48.9,0.6-57.6-11.3c-8.7-11.9-7.3-63.4-0.9-82.2"/>
	</g>
</g>
<g id="Database_1_">
	<path class="st8" d="M164,506.2v147.4c0,65.1,105.6,118,235.9,118s235.9-52.9,235.9-118V506.2"/>
	<path class="st9" d="M635.8,579.9c0,65.1-105.6,118-235.9,118S164,645,164,579.9"/>
	<path class="st8" d="M635.8,506.2c0,65.1-105.6,118-235.9,118S164,571.3,164,506.2s105.6-118,235.9-118S635.8,441.2,635.8,506.2z"
		/>
	<path class="st2" d="M491.4,498.3c0,26.1-42.3,47.3-94.5,47.3s-94.5-21.2-94.5-47.3c0-26.1,42.3-47.3,94.5-47.3
		S491.4,472.2,491.4,498.3z"/>
	<path class="st10" d="M381.3,574.7"/>
	<line class="st11" x1="658.8" y1="130.9" x2="658.8" y2="253.5"/>
	<circle class="st2" cx="658.8" cy="305.6" r="25.2"/>
</g>
<g id="Layer_2">
	<path class="st2" d="M711.9,121.6c5-1.5,8.2-5,8.2-9c0-3.9-3.2-7.4-8.2-9L428.8,17.3c-9.1-2.8-18.9-4.2-28.9-4.2
		c-10,0-19.8,1.4-28.9,4.2L87.9,103.7c-5,1.5-8.2,5-8.2,9c0,3.9,3.2,7.4,8.2,9l131,40v110.7c0,57.2,19.5,112.2,54.8,154.8
		c17,20.4,36.5,36.7,58,48.2c22.9,12.3,46.5,18.5,70.4,18.5c23.9,0,47.6-6.2,70.4-18.5c32.4-17.4,60.3-45.4,80.6-80.8
		c21.1-36.8,32.2-79.1,32.2-122.2V160.2L711.9,121.6z"/>
	<path class="st12" d="M407.9,454.2c-14.9,0-30.1-4.1-45.1-12.1c-23.2-12.4-44.3-33.8-59.4-60.2c-7-12.2-12.6-25.4-16.8-39.3
		c87.3-15.4,141.2-70.8,171.7-116.1c14.7,29.8,39.7,67,77.7,84.1c-4.5,35.8-19,70-40.9,96.4c-12.4,14.9-26.9,27.1-42.1,35.2
		C438,450.1,422.9,454.2,407.9,454.2z"/>
</g>
<g id="Layer_4">
</g>
</svg>
