<?xml version="1.0" encoding="utf-8"?>
<!-- Generator: Adobe Illustrator 24.1.2, SVG Export Plug-In . SVG Version: 6.00 Build 0)  -->
<svg version="1.1" id="Layer_1" xmlns="http://www.w3.org/2000/svg" xmlns:xlink="http://www.w3.org/1999/xlink" x="0px" y="0px"
	 viewBox="0 0 800 800" style="enable-background:new 0 0 800 800;" xml:space="preserve">
<style type="text/css">
	.st0{fill:#FFFFFF;}
	.st1{fill:#3D3DB4;}
	.st2{fill:#FFFFFF;stroke:#3D3DB4;stroke-width:22;}
	.st3{fill:none;stroke:#3D3DB4;stroke-width:22;stroke-linecap:round;}
	.st4{fill:none;stroke:#3D3DB4;stroke-width:20;stroke-linecap:round;stroke-linejoin:round;stroke-miterlimit:10;}
	.st5{fill:none;stroke:#3D3DB4;stroke-width:35;stroke-linecap:round;stroke-linejoin:round;stroke-miterlimit:10;}
</style>
<g id="Bg">
	<path class="st0" d="M35,789c-13.2,0-24-10.8-24-24V35c0-13.2,10.8-24,24-24h730c13.2,0,24,10.8,24,24v730c0,13.2-10.8,24-24,24H35
		z"/>

</g>
<g id="Database_1_">
	<path class="st2" d="M188.1,502.3v132.4c0,58.5,94.8,106,211.9,106s211.9-47.5,211.9-106V502.3"/>
	<path class="st3" d="M611.9,568.5c0,58.5-94.8,106-211.9,106s-211.9-47.5-211.9-106"/>
	<path class="st2" d="M611.9,502.3c0,58.5-94.8,106-211.9,106s-211.9-47.5-211.9-106s94.8-106,211.9-106S611.9,443.9,611.9,502.3z"
		/>
	<path class="st1" d="M482.2,495.2c0,23.4-38,42.5-84.9,42.5s-84.9-19-84.9-42.5c0-23.4,38-42.5,84.9-42.5S482.2,471.8,482.2,495.2z
		"/>
	<path class="st4" d="M383.3,563.8"/>
</g>
<g id="Student">
	<path class="st1" d="M680.2,156.9c4.5-1.3,7.4-4.5,7.4-8.1c0-3.5-2.9-6.6-7.4-8.1L426,63.2c-8.2-2.5-17-3.8-26-3.8
		s-17.8,1.3-26,3.8l-254.2,77.6c-4.5,1.3-7.4,4.5-7.4,8.1c0,3.5,2.9,6.6,7.4,8.1l117.6,35.9v99.4c0,51.4,17.5,100.8,49.2,139
		c15.3,18.3,32.8,33,52.1,43.3c20.6,11,41.8,16.6,63.2,16.6s42.7-5.6,63.2-16.6c29.1-15.6,54.2-40.8,72.4-72.6
		c18.9-33,28.9-71,28.9-109.7V191.6L680.2,156.9z"/>
	<path class="st0" d="M407.2,455.6c-13.4,0-27-3.7-40.5-10.9c-20.8-11.1-39.8-30.4-53.3-54.1c-6.3-11-11.3-22.8-15.1-35.3
		c78.3-13.8,126.8-63.5,154.1-104.2c13.2,26.8,35.7,60.2,69.8,75.5c-4,32.2-17.1,62.9-36.7,86.6c-11.1,13.4-24.2,24.3-37.8,31.6
		C434.2,451.9,420.7,455.6,407.2,455.6z"/>
	<line class="st5" x1="632.5" y1="165.2" x2="632.5" y2="275.4"/>
	<circle class="st1" cx="632.5" cy="322.1" r="22.6"/>
</g>
</svg>
