<?xml version="1.0" encoding="utf-8"?>
<!-- Generator: Adobe Illustrator 24.1.2, SVG Export Plug-In . SVG Version: 6.00 Build 0)  -->
<svg version="1.1" id="Layer_1" xmlns="http://www.w3.org/2000/svg" xmlns:xlink="http://www.w3.org/1999/xlink" x="0px" y="0px"
	 viewBox="0 0 800 800" style="enable-background:new 0 0 800 800;" xml:space="preserve">
<style type="text/css">
	.st1{display:inline;fill:#3D3DB4;}
	.st2{display:inline;}
	.st3{fill:#FFFFFF;}
	.st4{fill:none;stroke:#3D3DB4;stroke-width:25;stroke-miterlimit:133.3333;}
	.st5{fill:#FFFFFF;stroke:#3D3DB4;stroke-width:25;stroke-miterlimit:133.3333;}
	.st6{fill:#FF5C5C;stroke:#3D3DB4;stroke-width:25;stroke-linecap:round;stroke-miterlimit:10;}
	.st7{fill:none;stroke:#3D3DB4;stroke-width:25;stroke-linecap:round;stroke-linejoin:round;stroke-miterlimit:10;}
	.st8{fill:#FF5C5C;stroke:#3D3DB4;stroke-width:25;stroke-linecap:round;stroke-linejoin:bevel;stroke-miterlimit:10;}
	.st9{fill:#FF5C5C;stroke:#3D3DB4;stroke-width:25;stroke-linecap:round;stroke-linejoin:round;stroke-miterlimit:10;}
	.st10{fill:#FF5C5C;stroke:#000000;stroke-width:25;stroke-linecap:round;stroke-linejoin:round;stroke-miterlimit:10;}
	.st11{fill:none;stroke:#000000;stroke-width:25;stroke-linecap:round;stroke-linejoin:round;stroke-miterlimit:10;}
	.st12{fill:#FF5C5C;stroke:#3D3DB4;stroke-width:22;}
	.st13{fill:none;stroke:#3D3DB4;stroke-width:22;stroke-linecap:round;}
	.st14{fill:#3D3DB4;stroke:#3D3DB4;stroke-width:22;}
	.st15{fill:none;stroke:#FF5C5C;stroke-width:8;stroke-linecap:round;}
	.st16{display:inline;fill:#FF5C5C;}
	.st17{fill:none;stroke:#3D3DB4;stroke-width:25;stroke-linecap:round;stroke-miterlimit:10;}
	.st18{fill:none;stroke:#3D3DB4;stroke-width:25;stroke-linecap:round;stroke-miterlimit:2;}
	.st19{display:inline;fill:#FFFFFF;stroke:#3D3DB4;stroke-width:22;}
	.st20{display:inline;fill:none;stroke:#3D3DB4;stroke-width:22;stroke-linecap:round;}
	.st21{fill:#FFFFFF;stroke:#3D3DB4;stroke-width:35;}
	.st22{fill:#FFFFFF;stroke:#3D3DB4;stroke-width:20;}
	.st23{fill:#3D3DB4;}
	.st24{fill:none;stroke:#3D3DB4;stroke-width:20;stroke-linecap:round;}
	.st25{fill:url(#SVGID_1_);}
	.st26{display:inline;fill:none;stroke:#3D3DB4;stroke-width:20;stroke-linecap:round;stroke-miterlimit:10;}
	.st27{fill:none;stroke:#000000;stroke-miterlimit:10;}
	.st28{fill:none;stroke:#000000;stroke-width:10;stroke-miterlimit:10;}
	.st29{fill:#FF5C5C;}
</style>


<g id="Database_Outline">
	<path class="st21" d="M399.9,392.2c-130.3,0-235.9,52.9-235.9,118l0,0v147.4c0,65.1,105.6,118,235.9,118s235.9-52.9,235.9-118
		V510.2C635.8,445.2,530.2,392.2,399.9,392.2z"/>
	<path class="st22" d="M635.8,510.2c0,65.1-105.6,118-235.9,118S164,575.3,164,510.2s105.6-118,235.9-118S635.8,445.2,635.8,510.2z"
		/>
	<path class="st23" d="M491.4,502.3c0,26.1-42.3,47.3-94.5,47.3s-94.5-21.2-94.5-47.3s42.3-47.3,94.5-47.3S491.4,476.2,491.4,502.3z
		"/>
	<path class="st24" d="M635.8,583.9c0,65.1-105.6,118-235.9,118S164,649,164,583.9"/>
</g>

<g>
	<g>
		<path class="st23" d="M402.2,510.5c-25.4,0-50.4-6.6-74.5-19.5c-22.2-11.9-42.3-28.6-59.8-49.6c-35.8-43.2-55.5-98.8-55.6-156.7
			v-91.2l-110.8-33.8c-12.2-3.8-20.1-13.6-20.1-25.2c0-11.5,7.9-21.4,20-25.1l266.2-81.2c10.3-3.1,21.1-4.7,32.3-4.7
			c11.2,0,22,1.6,32.3,4.7l266.2,81.2c12,3.7,20.1,13.8,20.1,25.2s-8,21.5-20,25.2l-13.7,4.2v71.8c9,6.3,14.8,16.7,14.8,28.3
			c0,9.6-3.9,18.4-10.5,24.8l11.2,74.1c1.1,7.2-1,14.5-5.7,20s-11.6,8.7-18.9,8.7H627c-7.2,0-14.1-3.1-18.8-8.6l-0.1-0.1
			c-4.7-5.5-6.8-12.7-5.7-19.8l11.2-74.2c-6.6-6.3-10.5-15.1-10.5-24.8c0-11.6,5.8-22.1,14.8-28.3v-51.4l-26,7.9v92.5
			c0,43.6-11.3,86.3-32.6,123.6c-20.8,36.2-49.4,64.8-82.7,82.7C452.6,503.9,427.5,510.5,402.2,510.5z"/>
	</g>
</g>
<path class="st3" d="M404.9,442.5c-14,0-28.3-3.8-42.4-11.4c-21.8-11.7-41.7-31.8-55.9-56.6c-6.5-11.4-11.9-23.9-15.8-37
	c82.1-14.5,132.8-66.6,161.4-109.1c13.8,28,37.3,63,73.1,79.1c-4.2,33.7-17.8,65.8-38.5,90.6c-11.6,14-25.3,25.5-39.6,33.1
	C433.2,438.7,418.9,442.5,404.9,442.5z"/>

</svg>
