<?xml version="1.0" encoding="utf-8"?>
<!-- Generator: Adobe Illustrator 24.1.2, SVG Export Plug-In . SVG Version: 6.00 Build 0)  -->
<svg version="1.1" xmlns="http://www.w3.org/2000/svg" xmlns:xlink="http://www.w3.org/1999/xlink" x="0px" y="0px"
	 viewBox="0 0 800 800" style="enable-background:new 0 0 800 800;" xml:space="preserve">
<style type="text/css">
	.st0{display:none;}
	.st1{fill:#3D3DB4;}
	.st2{display:inline;fill:#FFFFFF;}
	.st3{display:inline;fill:none;stroke:#3D3DB4;stroke-width:25;stroke-miterlimit:133.3333;}
	.st4{display:inline;fill:#FFFFFF;stroke:#3D3DB4;stroke-width:25;stroke-miterlimit:133.3333;}
	.st5{display:inline;}
	.st6{fill:#FF5C5C;stroke:#3D3DB4;stroke-width:25;stroke-linecap:round;stroke-miterlimit:10;}
	.st7{fill:none;stroke:#3D3DB4;stroke-width:25;stroke-linecap:round;stroke-linejoin:round;stroke-miterlimit:10;}
	.st8{fill:#FF5C5C;stroke:#3D3DB4;stroke-width:25;stroke-linecap:round;stroke-linejoin:bevel;stroke-miterlimit:10;}
	.st9{fill:#FF5C5C;stroke:#3D3DB4;stroke-width:25;stroke-linecap:round;stroke-linejoin:round;stroke-miterlimit:10;}
	.st10{fill:#FF5C5C;stroke:#000000;stroke-width:25;stroke-linecap:round;stroke-linejoin:round;stroke-miterlimit:10;}
	.st11{fill:none;stroke:#000000;stroke-width:25;stroke-linecap:round;stroke-linejoin:round;stroke-miterlimit:10;}
	.st12{fill:#FF5C5C;stroke:#3D3DB4;stroke-width:22;}
	.st13{fill:none;stroke:#3D3DB4;stroke-width:22;stroke-linecap:round;}
	.st14{fill:#3D3DB4;stroke:#3D3DB4;stroke-width:22;}
	.st15{fill:none;stroke:#FF5C5C;stroke-width:8;stroke-linecap:round;}
	.st16{display:inline;fill:#FF5C5C;}
	.st17{fill:none;stroke:#3D3DB4;stroke-width:25;stroke-linecap:round;stroke-miterlimit:10;}
	.st18{fill:none;stroke:#3D3DB4;stroke-width:25;stroke-linecap:round;stroke-miterlimit:2;}
	.st19{display:inline;fill:#FFFFFF;stroke:#3D3DB4;stroke-width:22;}
	.st20{display:inline;fill:none;stroke:#3D3DB4;stroke-width:22;stroke-linecap:round;}
	.st21{display:inline;fill:#3D3DB4;}
	.st22{fill:#FFFFFF;stroke:#3D3DB4;stroke-width:35;}
	.st23{fill:#FFFFFF;stroke:#3D3DB4;stroke-width:20;}
	.st24{fill:none;stroke:#3D3DB4;stroke-width:20;stroke-linecap:round;}
	.st25{fill:url(#SVGID_1_);}
	.st26{display:inline;fill:none;stroke:#3D3DB4;stroke-width:20;stroke-linecap:round;stroke-miterlimit:10;}
	.st27{fill:none;stroke:#3D3DB4;stroke-width:20;stroke-linecap:round;stroke-miterlimit:10;}
	.st28{fill:#FFFFFF;}
	.st29{fill:none;stroke:#000000;stroke-miterlimit:10;}
	.st30{fill:#FF5C5C;stroke:#000000;stroke-miterlimit:10;}
	.st31{fill:none;stroke:#000000;stroke-width:10;stroke-miterlimit:10;}
	.st32{fill:#FF5C5C;}
</style>
<g id="Old" class="st0">
	<path class="st1" d="M760.6,775H39.4c-7.9,0-14.4-6.5-14.4-14.4V39.4C25,31.5,31.5,25,39.4,25h721.3c7.9,0,14.4,6.5,14.4,14.4
		v721.3C775,768.5,768.5,775,760.6,775z"/>
	<g>
		<path class="st2" d="M201.4,409.9v248.2c0,54.8,88.9,99.3,198.6,99.3s198.6-44.5,198.6-99.3V409.9"/>
		<path class="st3" d="M598.6,534c0,54.8-88.9,99.3-198.6,99.3S201.4,588.8,201.4,534"/>
		<path class="st4" d="M598.6,409.9c0,54.8-88.9,99.3-198.6,99.3s-198.6-44.5-198.6-99.3s88.9-99.3,198.6-99.3
			S598.6,355.1,598.6,409.9z"/>
	</g>
	<g id="brain">
		<g class="st5">
			<path class="st6" d="M261,106.4c-31.5-8.9-65.5,41.1-64.1,73.6c-17.8,17.8-28.3,54.5-10.7,70.1c-31.6,27.4-12.6,139.4,57.7,148.8
				c2.7,41.6,86.7,80.6,120.7,47.1c11,34.6,5,79.6,36,79.6s29-59.3,34.5-79.6c27.5,29.6,114.5-10.4,120.3-44.4
				c40.2-6.1,107.2-89.1,57.3-147.9c8.3-23.8,9.5-54.6-9.5-73.6c6.4-36.5-38.6-86.5-66.5-73.6c-6.1-21.9-83.1-97.9-133.6-30.3
				C359.5,13.5,270.5,64.5,261,106.4z"/>
			<path class="st7" d="M456.9,374.6c15.6,21.3,65.6,31.9,98.4,26.9"/>
			<path class="st7" d="M602.7,249.5c-14.1-2.4-27.5,6.3-25.9,21.6c1.5,13.7,6.7,27.8-2.4,40.2c-22.6,31-63.7,10.5-92.7,27.2
				c-29,16.7-48,47.6-71.1,28c-18.2-15.4-7.1-73.6-4.1-106.4"/>
			<path class="st8" d="M455.5,50.5c-71,13-54.2,107-43.1,123s32.1,24.9,45.7,1.8c6.1-10.4-0.6-38.6,13.1-48.7
				c13.7-10.1,27.3-3.6,33.5,8.2"/>
			<path class="st7" d="M406.9,175.6c-5.2,24-4,72.7,4.3,89.3c8.3,16.6,33.3,19,55.2,10.1s28.5-32.1,29.7-52.3
				c0-11.9,0-26.1,10.7-34.4c14.3-8.3,32.1-10.7,45.1,0c7.1,7.1,4.8,19,11.7,25.9"/>
			<path class="st7" d="M435,441.9c5.5-29.4,21-41.2,35.6-51.5"/>
			<path class="st7" d="M493.2,243.6c4.7,1.7,11.9,16.6,27,12"/>
			<path class="st7" d="M306.3,243.6c-4.7,1.7-11.9,16.6-27,12"/>
			<path class="st7" d="M336.5,366.5c-8,30-63,36-92.7,32.4"/>
			<path class="st7" d="M189.5,247.5c16-16,34.8,8.3,33.1,23.6c-1.5,13.7-6.7,27.8,2.4,40.2c22.6,31,64.1,9,92.7,27.2
				c10.8,6.9,24.9,25.3,38.4,29.9c13.5,4.6,24.2,4.6,34.3-5.5s12.1-72.4,3.1-102.8"/>
			<path class="st7" d="M235.8,214.3c-2.3-10.8,3.6-20.6,10.7-27.8c13.1-10.7,31.8-6.5,46.1,1.8c10.7,8.3,10.7,22.6,10.7,34.4
				c1.2,20.2,7.7,43.4,29.7,52.3s48.9,0.6,57.6-11.3c8.7-11.9,8.9-59.3,2.5-78.1"/>
			<path class="st9" d="M294.7,134.7c6.2-11.7,19.8-18.3,33.5-8.2c13.7,10.1,7.3,33.9,13.1,48.7c5.8,14.8,29.8,23.7,45.1,6.8
				s27.1-107.6-7.9-127.6"/>
			<path class="st7" d="M363.7,439.6c-5.2-17.1-20.3-38.8-34.9-49.1"/>
		</g>
	</g>
	<g id="Layer_4">
		<g class="st5">
			<path class="st10" d="M286,110c-9.7,14.6-27,19-38,31c-7,9-16,19-16,31c-15,15-16,40-9,59c1,2,0,4-1,6c-14,29-14,64,5,92
				c10,14,24,21,40,25c2,1,4,3,6,5c12,18,31.5,36.5,46,42s32.5,8.5,54.1-8.5c4.6,17.1,4.4,35,6.1,52.5h47.2
				c1.7-17.5,1.5-35.4,6.1-52.5c1.8,0.7,35.5,10.5,53.5,8.5c14-2,26-11,34-23c5-9,11-17,18-24c16-3,31-11,41-25c19-29,20-66,3-95
				c7-20,8-46-8-62c-6-25-54-60-56-62c-14-17-60.5-62.5-94.5-43.5c-11.3,6.3-18,18-18,18s-5-9-22-20S307.5,77.5,286,110z"/>
			<path class="st11" d="M450.9,335.8c13.4,18.4,37.8,28,60.2,26.6c6.3-0.4,12.5-1.6,18.3-3.9"/>
			<path class="st11" d="M573.7,230.5c-11.8-2-23.2,5.3-21.8,18.2c1.2,11.5,5.6,23.4-2,33.8c-19,26.1-53.6,8.8-78,22.9
				S431.5,345.5,412,329c-15.4-13-6-62-3.4-89.6"/>
			<path class="st11" d="M410.5,78.5c-7,18.7,3,88,3,88c5,10,27,21,38.5,1.5c5.1-8.7-0.5-32.5,11-41s23-3,28.2,6.9"/>
			<path class="st11" d="M408.9,168.3c-4.4,20.2-3.4,61.2,3.6,75.2s28,16,46.5,8.5s24-27,25-44c0-10,0-22,9-29c12-7,27-9,38,0
				c6,6,4,16,9.8,21.8"/>
			<path class="st11" d="M435.5,385.5c5.4-13.6,14.7-27.7,27-36.3"/>
			<path class="st11" d="M481.5,225.5c4,1.4,10,14,22.7,10.1"/>
			<path class="st11" d="M324.1,225.5c-4,1.4-10,14-22.7,10.1"/>
			<path class="st11" d="M354.7,335.8c-13.4,18.4-37.8,28-60.2,26.6c-6.3-0.4-12.5-1.6-18.3-3.9"/>
			<path class="st11" d="M231.9,230.5c11.8-2,23.2,5.3,21.8,18.2c-1.2,11.5-5.6,23.4,2,33.8c19,26.1,53.9,7.6,78,22.9
				c9.1,5.8,21,21.3,32.4,25.2c11.4,3.9,20.4,3.9,28.9-4.6s2-58,2.6-86.6"/>
			<path class="st11" d="M264.8,200.8c5.8-5.8,3.8-15.8,9.8-21.8c11-9,26-7,38,0c9,7,9,19,9,29c1,17,6.5,36.5,25,44
				s41.1,0.5,48.5-9.5s2.4-49.5,2.1-65.8"/>
			<path class="st11" d="M314.4,133.9c5.2-9.9,16.7-15.4,28.2-6.9s6.1,28.5,11,41s25.1,19.9,38,5.7c12.9-14.2,17.3-86.9,10.9-92.2"
				/>
			<path class="st11" d="M370.1,385.5c-5.4-13.6-14.7-27.7-27-36.3"/>
		</g>
	</g>
	<g id="brain_copy_3" class="st5">
	</g>
	<g class="st5">
		<path class="st12" d="M164.1,497.2v147.4c0,65.1,105.6,118,235.9,118s235.9-52.9,235.9-118V497.2"/>
		<path class="st13" d="M635.9,570.9c0,65.1-105.6,118-235.9,118s-235.9-52.9-235.9-118"/>
		<path class="st14" d="M635.9,497.2c0,65.1-105.6,118-235.9,118s-235.9-52.9-235.9-118s105.6-118,235.9-118
			S635.9,432.2,635.9,497.2z"/>
		<path class="st15" d="M554.4,497.2c0,39.2-68.9,71.3-154.4,71.3s-154.4-32.1-154.4-71.3"/>
	</g>
	<path class="st16" d="M639.4,249.1c-1.1-2.1-2.8-3.5-4.8-4.3c4.7-10.7,6.4-23.4,4.8-35.9c-1.7-13.3-6.9-25.1-14.6-33.2
		c1.6-12.5-3.6-27.6-14.6-42.3c-11.1-14.7-30.4-31.5-51.2-34.7c-3.8-18.5-18.4-35.2-41.3-46.7c-16-8.1-34.8-12.9-52.8-13.7
		c-19.8-0.9-36.6,3.1-48.6,11.6c-6.7,4.7-12.2,11.2-16.2,19.3c-4-8-9.5-14.5-16.2-19.3c-23.6-16.6-67-16.6-100.8-0.1
		c-23.6,11.6-38.3,28.9-42,49.2c-21.2,4.3-42,21.9-53.4,38.2c-9.6,13.7-13.8,27.3-12.2,38.9c-15.7,18.7-19.6,46.6-9.9,68.7
		c-2,0.8-3.7,2.2-4.8,4.3c-13.2,25.6-11.2,54.4-7.1,74.1c5.4,26.7,16.2,47.9,32,63.1c11.2,10.8,23.7,17.8,37.3,20.7
		c0.1,0,0.2,0,0.3,0.1l3.1,0.6c0,0,0,0.1,0,0.1c9.3,26.3,34.9,41.5,49.4,48.2c16.2,7.6,33.4,11.6,47.8,11.6c7.2,0,13.8-1,19.2-3
		c1.4-0.5,2.6-1.4,3.5-2.4c1.3,4.1,2.5,8.4,3.5,12.6c10.2,41.7,33.6,56.5,52,56.5c13,0,36.7-7.3,48.8-56.5c1-4.2,2.2-8.5,3.5-12.6
		c0.9,1,2.1,1.9,3.5,2.4c6,2.3,13.2,3.4,21.1,3.4c16,0,34.7-4.6,51.6-13.1c22.7-11.5,38.2-28.2,43.8-47.2l3.1-0.6
		c0.1,0,0.2,0,0.3-0.1c13.6-3,26.2-10,37.3-20.7c15.8-15.2,26.5-36.4,32-63.1C650.6,303.5,652.6,274.6,639.4,249.1z M465.1,194.8
		l-0.2,0C464.9,194.7,464.9,194.7,465.1,194.8C465,194.7,465,194.7,465.1,194.8z M246.8,409.5c0.2,0,0.4,0,0.6,0l-0.3,0.2l1.7,2
		l-0.8-0.4C247.5,410.7,247.1,410.1,246.8,409.5z"/>
	<g class="st5">
		<g>
			<g>
				<path class="st7" d="M168.6,253.2c-10.8,20.8-10.9,45.6-6.3,68.2c4.4,21.7,13.2,42.8,29.4,58.4c9.3,9,20.3,15.6,33,18.4l7.2,1.4
					c29.7,3.6,84.7-2.4,92.7-32.4"/>
			</g>
		</g>
		<g>
			<g>
				<path class="st17" d="M234.6,404.8c14,39.4,77.5,61.6,104.7,51.3"/>
			</g>
		</g>
		<g>
			<g>
				<path class="st17" d="M565.4,404.8c-11.8,41.4-76.5,61.9-104.7,51.3"/>
			</g>
		</g>
		<g>
			<g>
				<path class="st18" d="M282.8,135.5c6.2-11.7,19.8-18.3,33.5-8.2c13.7,10.1,7.3,33.9,13.1,48.7c5.8,14.8,34.9,23.1,50.2,6.2
					c15.3-16.9,36-99-1-125s-127-4-129.5,49.9c-31.5,1.1-72.5,45.1-64,71.6c-16.5,16.5-22,47-8,69c34.5-13.5,36.5,14.5,33.5,52.5
					c-2.6,32.8,67.7,23,84,35c15,11,43,46,70.5,35.5s35-72,22.5-100.5"/>
			</g>
		</g>
		<g>
			<g>
				<path class="st7" d="M294.4,244.3c-4.7,1.7-11.9,16.6-27,12"/>
			</g>
		</g>
		<g>
			<g>
				<path class="st7" d="M223.9,215c-2.3-10.8,3.6-20.6,10.7-27.8c13.1-10.7,31.8-6.5,46.1,1.8c10.7,8.3,10.7,22.6,10.7,34.4
					c1.2,20.2,7.7,43.4,29.7,52.3s48.9,0.6,57.6-11.3s8.9-59.3,2.5-78.1"/>
			</g>
		</g>
		<g>
			<g>
				<path class="st17" d="M483.1,391.2c-14.6,10.3-33.1,47.7-41.4,81.4s-23.1,49.6-40.1,49.6s-35-16-43.3-49.6
					c-8.3-33.6-26.8-71.1-41.4-81.4"/>
			</g>
		</g>
		<g>
			<g>
				<path class="st7" d="M631.4,253.2c10.8,20.8,10.9,45.6,6.3,68.2c-4.4,21.7-13.2,42.8-29.4,58.4c-9.3,9-20.3,15.6-33,18.4
					l-7.2,1.4c-29.7,3.6-84.7-2.4-92.7-32.4"/>
			</g>
		</g>
		<g>
			<g>
				<path class="st18" d="M517.2,135.5c-6.2-11.7-19.8-18.3-33.5-8.2s-7.3,33.9-13.1,48.7s-34.9,23.1-50.2,6.2
					c-15.3-16.9-36-99,1-125s128.2,1,129.5,49.9c31.6-0.9,72.5,45.1,64,71.6c16.7,13.5,22,47,8,69c-34.5-13.5-36.5,14.5-33.5,52.5
					c2.6,32.8-66.1,25.4-84,35c-16.8,9-42.8,43-70.5,35.5c-29-7.9-35-72-22.5-100.5"/>
			</g>
		</g>
		<g>
			<g>
				<path class="st7" d="M576.1,215c2.3-10.8-3.6-20.6-10.7-27.8c-13.1-10.7-31.8-6.5-46.1,1.8c-10.7,8.3-10.7,22.6-10.7,34.4
					c-1.2,20.2-7.7,43.4-29.7,52.3s-48.9,0.6-57.6-11.3s-8.9-59.3-2.5-78.1"/>
			</g>
		</g>
		<g>
			<g>
				<path class="st7" d="M505.6,244.3c4.7,1.7,11.9,16.6,27,12"/>
			</g>
		</g>
	</g>
</g>
<g id="Database" class="st0">
	<path class="st19" d="M164,506.2v147.4c0,65.1,105.6,118,235.9,118s235.9-52.9,235.9-118V506.2"/>
	<path class="st20" d="M635.8,579.9c0,65.1-105.6,118-235.9,118S164,645,164,579.9"/>
	<path class="st19" d="M635.8,506.2c0,65.1-105.6,118-235.9,118S164,571.3,164,506.2s105.6-118,235.9-118S635.8,441.2,635.8,506.2z"
		/>
	<path class="st21" d="M491.4,498.3c0,26.1-42.3,47.3-94.5,47.3s-94.5-21.2-94.5-47.3c0-26.1,42.3-47.3,94.5-47.3
		S491.4,472.2,491.4,498.3z"/>
</g>
<g id="Database_Outline">
	<path class="st22" d="M399.9,391.2c-130.3,0-235.9,52.9-235.9,118h0v147.4c0,65.1,105.6,118,235.9,118s235.9-52.9,235.9-118V509.2
		C635.8,444.2,530.2,391.2,399.9,391.2z"/>
	<path class="st23" d="M635.8,509.2c0,65.1-105.6,118-235.9,118S164,574.3,164,509.2s105.6-118,235.9-118S635.8,444.2,635.8,509.2z"
		/>
	<path class="st1" d="M491.4,501.3c0,26.1-42.3,47.3-94.5,47.3s-94.5-21.2-94.5-47.3s42.3-47.3,94.5-47.3S491.4,475.2,491.4,501.3z"
		/>
	<path class="st24" d="M635.8,582.9c0,65.1-105.6,118-235.9,118S164,648,164,582.9"/>
</g>
<g id="Natural_brain" class="st0">
	<g class="st5">
		<linearGradient id="SVGID_1_" gradientUnits="userSpaceOnUse" x1="400" y1="518.5432" x2="400" y2="28.3756">
			<stop  offset="0" style="stop-color:#FFFFFF"/>
			<stop  offset="5.872645e-02" style="stop-color:#FFF3F3"/>
			<stop  offset="0.1639" style="stop-color:#FFD4D4"/>
			<stop  offset="0.3034" style="stop-color:#FFA2A2"/>
			<stop  offset="0.4702" style="stop-color:#FF5D5D"/>
			<stop  offset="0.4735" style="stop-color:#FF5C5C"/>
		</linearGradient>
		<path class="st25" d="M652.3,289.4c-0.7-23.5-7.4-42.6-18.2-53.2c4.8-10.8,6.6-23.6,4.9-36.3c-1.7-13.3-7-25.1-14.6-33.2
			c1.6-12.5-3.6-27.6-14.6-42.3c-11.8-15.8-31.5-31.4-51.2-34.6c-3.7-18.5-18.4-35.2-41.3-46.7c-16-8.1-34.8-12.9-52.8-13.7
			c-19.8-0.9-36.6,3.1-48.6,11.6c-6.7,4.7-12.1,11.1-16.3,18.7c-4.1-7.7-9.5-14.1-16.2-18.7c-23.7-16.6-67-16.6-100.8-0.1
			c-23.6,11.6-38.3,28.9-42,49.3c-21.2,4.2-42,21.9-53.4,38.1c-9.6,13.7-13.9,27.3-12.2,38.9c-16,19.1-19.7,47.7-9.4,70
			c-11,12.2-17.3,29.4-18,49.2c-1,32.8,13.3,67.7,37.4,91c12.5,12.1,28.9,17.5,41.9,19.8c10.6,22.1,35.6,36.4,50.2,43.2
			c17.7,8.2,40.1,14.6,58.7,14.6c3,0,5.9-0.2,8.6-0.5c4.8,19.8,11.2,34.6,19.6,45c10.2,12.7,23.4,19.2,39.2,19.2
			c35.8,0,48.7-29.8,56-64.2c2.6,0.3,5.3,0.5,8.2,0.5c16.7,0,37.6-5.4,57.2-15.2c14.3-7.2,38.5-22.4,48-45.9
			c15.1-2.9,28.9-8.1,40.1-15.2C643.3,359.3,653.2,319.8,652.3,289.4z"/>
	</g>
	<g class="st5">
		<path class="st1" d="M336.8,28.4c18,0,34.8,4.2,46.7,12.5c6.7,4.7,12.1,11,16.2,18.7c4.1-7.7,9.6-14,16.3-18.7
			c11-7.7,25.9-11.7,43.4-11.7c1.7,0,3.5,0,5.3,0.1c18,0.8,36.8,5.7,52.8,13.7c22.9,11.5,37.6,28.2,41.3,46.7
			c19.7,3.2,39.3,18.9,51.2,34.6c11,14.7,16.2,29.7,14.6,42.3c7.6,8.2,12.9,20,14.6,33.2c1.6,12.7-0.1,25.5-4.9,36.3
			c10.9,10.5,17.5,29.6,18.2,53.2c0.9,30.5-9,69.9-39.5,89.1c-11.3,7.1-25,12.3-40.1,15.2c-9.5,23.6-33.7,38.7-48,45.9
			c-19.6,9.9-40.4,15.2-57.2,15.2c-2.9,0-5.6-0.2-8.2-0.5c-7.3,34.4-20.2,64.2-56,64.2c-15.8,0-29-6.4-39.2-19.2
			c-8.4-10.5-14.8-25.2-19.6-45c-2.7,0.4-5.6,0.5-8.6,0.5c-18.5,0-41-6.5-58.7-14.6c-14.6-6.8-39.6-21.1-50.2-43.2
			c-13-2.3-29.4-7.6-41.9-19.8c-24.1-23.3-38.4-58.2-37.4-91c0.6-19.8,6.9-37,18-49.2c-10.4-22.3-6.7-50.9,9.4-70
			c-1.6-11.6,2.6-25.2,12.2-38.9c11.4-16.2,32.2-33.9,53.4-38.1c3.7-20.4,18.4-37.7,42-49.3C299.5,32.5,318.8,28.4,336.8,28.4
			 M336.8,13.4c-20.8,0-42.4,5-60.8,14c-24.2,11.9-40.8,29.6-47.7,50.6c-23.2,7.9-42.8,26.7-53.3,41.7
			c-10.2,14.5-15.4,29.2-15.3,42.9c-7.5,10.6-12.3,23-14.1,36.5c-1.6,12.2-0.6,24.4,3,35.6c-9.8,14-15.3,31.6-15.9,51.3
			c-1.1,36.9,15,76.1,42,102.3c10.9,10.5,25.5,18.1,42.5,22.3c14,22.6,39.1,36.8,53.7,43.5c20.6,9.6,43.7,15.4,62.2,16
			c5,16.2,11.3,29,19.2,38.9c13,16.2,30.6,24.8,50.9,24.8c21.4,0,38.5-8.5,50.8-25.3c7.1-9.7,12.6-22.1,17-38.5
			c18.6-0.7,40.4-6.7,60.3-16.8c14.3-7.2,38.8-22.3,51.7-46.3c14-3.5,26.9-8.8,37.7-15.6c16.6-10.4,29.6-26.9,37.6-47.6
			c6.3-16.5,9.5-35.9,9-54.6c-0.7-22.8-6.3-42.1-16.2-55.8c3.3-11.1,4.3-23.3,2.7-35.2c-1.8-13.8-6.8-26.5-14.2-36.4
			c-0.2-14.7-6.4-30.9-17.9-46.2c-11-14.7-29.7-31.4-51.2-38.2c-7.1-19.2-23.3-35.9-46.6-47.6c-17.9-9-38.8-14.4-58.9-15.3
			c-2-0.1-4-0.1-5.9-0.1c-20.6,0-38.5,5-52,14.5c-2.7,1.9-5.2,4-7.6,6.3c-2.4-2.3-4.9-4.4-7.6-6.3C378.1,18.8,358.5,13.4,336.8,13.4
			L336.8,13.4z"/>
	</g>
	<path class="st26" d="M233.3,388.9c14,39.4,90.8,64.9,118,54.6"/>
	<path class="st26" d="M565.9,385.7c-11.8,41.4-85.4,68.4-113.6,57.8"/>
	<path class="st26" d="M304.7,375.5c14.6,10.3,39.7,34.1,46.6,68c9.3,45.9,26.2,66,52,66c25.8,0,39.9-16.7,49-66
		c5.2-28.4,14.3-65.1,44.3-65.1"/>
	<path class="st26" d="M176.8,238.7c-32.5,27.8-24.3,94.4,14.6,132.1c10.8,10.5,26.3,16.1,42,18.1c25.2,3.2,52.7-2.9,71.4-13.1
		c11.5-6.3,19.7-14.2,21.9-22.5"/>
	<path class="st26" d="M282.5,126.5c6.2-11.7,19.8-18.3,33.5-8.2s7.3,33.9,13.1,48.7c5.8,14.8,34.9,23.1,50.2,6.2
		c9.3-10.2,21.2-44.4,20.4-75.5c-0.5-20.3-6.8-39.3-21.4-49.5c-37-26-127-4-129.5,49.9c-31.5,1.1-72.5,45.1-64,71.6
		c-16.5,16.5-22,47-8,69c34.5-13.5,21.4,16.4,33.5,52.5c12.2,36.3,69.9,29.7,84,35c14.1,5.3,19.3,18.1,32.3,27
		c11.9,8.1,25.1,13.5,38.2,8.5c27.5-10.5,34.2-78.6,13.6-106.3"/>
	<path class="st27" d="M299.6,232.5c-4.7,1.7-17.2,19.3-32.3,14.7"/>
	<path class="st27" d="M223.8,206c-2.3-10.8,3.6-20.6,10.7-27.8c13.1-10.7,34.2-8.7,46.1,1.8s11.4,30.3,19,52.6
		c5.5,16,13.9,27.6,21.4,34.1c21.6,18.9,48.9,0.6,57.6-11.3c8.7-11.9,7.3-63.4,0.9-82.2"/>
	<path class="st26" d="M622.6,238.7c28.7,15.8,31.1,103.4-14.6,132.1c-12.3,7.7-27,12.6-42.1,14.9c-27.7,4.3-49,2.5-69.3-7.2
		c-8.8-4.2-23.6-19.3-25.5-26.4"/>
	<path class="st26" d="M516.9,126.5c-6.2-11.7-19.8-18.3-33.5-8.2s-7.3,33.9-13.1,48.7c-5.8,14.8-34.9,23.1-50.2,6.2
		c-9.2-10.2-21-44.5-20.4-75.5c0.4-20.5,6.7-39.2,21.4-49.5c37-26,128.2,1,129.5,49.9c31.6-0.9,72.5,45.1,64,71.6
		c16.7,13.5,22,47,8,69c-34.5-13.5-16.1,18.6-33.5,52.5c-17.6,34.3-66.1,25.4-84,35c-9,4.8-20.7,16.9-33.9,25.9
		c-11.3,7.7-23.8,13.1-36.6,9.6c-29-7.9-35.2-72.5-13.6-106.3"/>
	<path class="st27" d="M499.9,233.1c4.7,1.7,17.5,18.8,32.6,14.2"/>
	<path class="st27" d="M576,206c2.3-10.8-3.6-20.6-10.7-27.8c-13.1-10.7-35.4-8.7-46.1,1.8c-10.7,10.5-11.6,30.7-19.3,53.1
		c-5.5,15.9-13.7,27.3-21.1,33.6c-22.1,18.9-48.9,0.6-57.6-11.3c-8.7-11.9-7.3-63.4-0.9-82.2"/>
</g>
<g id="Layer_9">
	<g>
		<g>
			<path class="st28" d="M402.2,509.5c-25.4,0-50.4-6.6-74.5-19.5c-22.2-11.9-42.3-28.6-59.8-49.6c-35.8-43.2-55.5-98.8-55.6-156.7
				v-91.2l-110.8-33.8c-12.2-3.8-20.1-13.6-20.1-25.2c0-11.5,7.9-21.4,20-25.1l266.2-81.2c10.3-3.1,21.1-4.7,32.3-4.7
				c11.2,0,22,1.6,32.3,4.7l266.2,81.2c12,3.7,20.1,13.8,20.1,25.2c0,11.4-8,21.5-20,25.2l-13.7,4.2v71.8c9,6.3,14.8,16.7,14.8,28.3
				c0,9.6-3.9,18.4-10.5,24.8l11.2,74.1c1.1,7.2-1,14.5-5.7,20c-4.7,5.5-11.6,8.7-18.9,8.7H627c-7.2,0-14.1-3.1-18.8-8.6
				c0,0-0.1-0.1-0.1-0.1c-4.7-5.5-6.8-12.7-5.7-19.8l11.2-74.2c-6.6-6.3-10.5-15.1-10.5-24.8c0-11.6,5.8-22.1,14.8-28.3v-51.4
				l-26,7.9v92.5c0,43.6-11.3,86.3-32.6,123.6c-20.8,36.2-49.4,64.8-82.7,82.7C452.6,502.9,427.5,509.5,402.2,509.5z"/>
			<path class="st1" d="M400,40c9.4,0,18.6,1.3,27.2,3.9l266.2,81.2c4.7,1.4,7.7,4.7,7.7,8.4c0,3.7-3,7-7.7,8.4l-26,7.9v96.2
				c8.4,1.1,14.8,8.2,14.8,16.8c0,7.5-4.9,14-12,16.2l12.9,85.3c0.3,2.1-0.3,4.3-1.7,5.9c-1.4,1.6-3.4,2.6-5.6,2.6H627
				c-2.1,0-4.2-0.9-5.6-2.6c-1.4-1.6-2-3.8-1.7-5.9l12.9-85.3c-7-2.2-12-8.7-12-16.2c0-8.6,6.5-15.8,14.8-16.8v-86.5l-61,18.6v105.4
				c0,40.5-10.5,80.3-30.3,114.9c-19.1,33.4-45.3,59.6-75.8,76c-21.5,11.5-43.8,17.4-66.2,17.4c-22.5,0-44.7-5.9-66.2-17.4
				c-20.3-10.9-38.6-26.1-54.6-45.3c-33.2-40-51.5-91.7-51.5-145.6V179.6L106.7,142c-4.7-1.4-7.7-4.7-7.7-8.4c0-3.7,3-7,7.7-8.4
				L372.8,44C381.4,41.3,390.6,40,400,40 M400,5c-12.9,0-25.5,1.8-37.4,5.5L96.5,91.7c0,0-0.1,0-0.1,0C77,97.7,64,114.5,64,133.6
				c0,19.1,13,35.9,32.4,41.9c0,0,0.1,0,0.1,0l98.4,30v78.2c0,62,21.2,121.6,59.6,167.9c18.9,22.7,40.7,40.8,65,53.8
				c26.6,14.3,54.5,21.5,82.8,21.5c28.3,0,56.1-7.3,82.8-21.6c36.2-19.5,67.2-50.4,89.6-89.4c5.6-9.8,10.6-20.1,14.9-30.5
				c1.4,2.7,3.2,5.3,5.3,7.8c0.1,0.1,0.1,0.1,0.2,0.2c8.1,9.3,19.7,14.7,32.1,14.7h48.9c12.3,0,24-5.4,32.1-14.7
				c8-9.3,11.6-21.7,9.8-33.9c0,0,0-0.1,0-0.1l-10.1-66.4c6.2-8.8,9.5-19.1,9.5-29.9c0-14-5.6-26.9-14.8-36.3v-50.8l1.2-0.4
				c0,0,0.1,0,0.1,0c19.4-6,32.4-22.8,32.4-41.9c0-19.1-13-35.9-32.4-41.9c0,0,0,0-0.1,0L437.4,10.5C425.5,6.8,412.9,5,400,5L400,5z
				"/>
		</g>
	</g>
	<path class="st1" d="M404.9,441.5c-14,0-28.3-3.8-42.4-11.4c-21.8-11.7-41.7-31.8-55.9-56.6c-6.5-11.4-11.9-23.9-15.8-37
		c82.1-14.5,132.8-66.6,161.4-109.1c13.8,28,37.3,63,73.1,79.1c-4.2,33.7-17.8,65.8-38.5,90.6c-11.6,14-25.3,25.5-39.6,33.1
		C433.2,437.7,418.9,441.5,404.9,441.5z"/>
</g>
<g id="Node_Brain_v1" class="st0">
	<g class="st5">
		<g>
			<line class="st29" x1="400" y1="800" x2="400" y2="0"/>
			<line class="st30" x1="800" y1="400" x2="0" y2="400"/>
			<polygon class="st31" points="400,487.7 400,110.6 479.5,88.7 565.8,72.9 610.6,153.6 616,244.4 636,337.7 481.4,417.2 			"/>
			<circle class="st32" cx="483.1" cy="87.8" r="46.2"/>
			<circle class="st32" cx="636" cy="330.2" r="55.4"/>
			<circle class="st32" cx="469.4" cy="308.8" r="57.4"/>
			<circle class="st32" cx="610.6" cy="153.6" r="51.6"/>
			<circle class="st32" cx="469.4" cy="175.1" r="21.4"/>
			<circle class="st32" cx="551.7" cy="237.7" r="37.1"/>
			<circle class="st32" cx="483.1" cy="417.2" r="31.5"/>
			<circle class="st32" cx="400.1" cy="225.1" r="22.1"/>
		</g>
	</g>
	<g class="st5">
		<g>
			<line class="st29" x1="400" y1="800" x2="400" y2="0"/>
			<line class="st30" x1="0" y1="400" x2="800" y2="400"/>
			<polygon class="st31" points="400,487.7 400,110.6 320.5,88.7 234.2,72.9 189.4,153.6 184,244.4 164,337.7 318.6,417.2 			"/>
			<circle class="st32" cx="316.9" cy="87.8" r="46.2"/>
			<circle class="st32" cx="164" cy="330.2" r="55.4"/>
			<circle class="st32" cx="330.6" cy="308.8" r="57.4"/>
			<circle class="st32" cx="189.4" cy="153.6" r="51.6"/>
			<circle class="st32" cx="330.6" cy="175.1" r="21.4"/>
			<circle class="st32" cx="248.3" cy="237.7" r="37.1"/>
			<circle class="st32" cx="316.9" cy="417.2" r="31.5"/>
			<circle class="st32" cx="399.9" cy="225.1" r="22.1"/>
		</g>
	</g>
</g>
</svg>
