<?xml version="1.0" encoding="utf-8"?>
<!-- Generator: Adobe Illustrator 24.1.2, SVG Export Plug-In . SVG Version: 6.00 Build 0)  -->
<svg version="1.1" xmlns="http://www.w3.org/2000/svg" xmlns:xlink="http://www.w3.org/1999/xlink" x="0px" y="0px"
	 viewBox="0 0 800 800" style="enable-background:new 0 0 800 800;" xml:space="preserve">
<style type="text/css">
	.st0{display:none;}
	.st1{display:inline;fill:#3D3DB4;}
	.st2{fill:#3D3DB4;}
	.st3{fill:#FFFFFF;}
	.st4{display:none;fill:#FFFFFF;}
	.st5{fill:none;stroke:#3D3DB4;stroke-width:22;}
	.st6{fill:none;stroke:#3D3DB4;stroke-width:22;stroke-linecap:round;}
	.st7{fill:#3D3DB4;stroke:#FFFFFF;stroke-width:22;stroke-miterlimit:10;}
</style>
<g id="Layer_2" class="st0">
	<path class="st1" d="M700,800H100C45,800,0,755,0,700V100C0,45,45,0,100,0h600c55,0,100,45,100,100v600C800,755,755,800,700,800z"
		/>
</g>
<g id="Layer_1">
	<g>
		<circle class="st2" cx="592.3" cy="301" r="30.5"/>
		<path class="st3" d="M592.3,281.5c10.8,0,19.5,8.7,19.5,19.5s-8.7,19.5-19.5,19.5s-19.5-8.7-19.5-19.5S581.5,281.5,592.3,281.5
			 M592.3,259.5c-22.9,0-41.5,18.6-41.5,41.5s18.6,41.5,41.5,41.5s41.5-18.6,41.5-41.5S615.2,259.5,592.3,259.5L592.3,259.5z"/>
	</g>
	<path class="st4" d="M578.6,348.8c-8.6-4.3-17.8-8.3-27.4-11.9c5.2-18.3,7.8-37.2,7.8-56.4v-75.9l9-2.7v63.9c0,8,2.9,15.3,7.7,21
		c-6.1,6.2-9.9,14.8-9.9,24.2c0,19,15.5,34.5,34.5,34.5s34.5-15.5,34.5-34.5c0-9.3-3.7-17.8-9.7-24c4.9-5.7,7.9-13.1,7.9-21.2V182
		l13.6-4.2c10.3-3.2,17-11.6,17-21.3c0-9.5-6.5-17.9-16.7-21.2l-0.2-0.1l-0.2-0.1L426.8,68.2c-8.5-2.7-17.5-4-26.8-4
		s-18.5,1.4-26.8,4l-219.5,67c-10.4,3.2-17,11.6-17,21.3c0,9.5,6.5,17.9,16.7,21.2l0.2,0.1l0.2,0.1l91,27.8v74.8
		c0,18.8,2.5,37.3,7.4,55.3c-10.7,3.9-21,8.3-30.5,13.1c-53.8,26.9-83.5,64.8-83.5,106.7V603c0,41.9,29.6,79.7,83.5,106.7
		c48.1,24.1,111.5,37.3,178.4,37.3c67,0,130.3-13.3,178.4-37.3C632.3,682.8,662,644.9,662,603V455.4
		C662,413.6,632.4,375.7,578.6,348.8z M600.3,330.5c-10.8,0-19.5-8.7-19.5-19.5c0-6.2,2.8-11.6,7.3-15.2c3.8,1.6,8,2.5,12.4,2.5
		c4.3,0,8.4-0.9,12.2-2.4c4.4,3.6,7.1,9,7.1,15.1C619.8,321.8,611.1,330.5,600.3,330.5z"/>
	<path class="st5" d="M164.1,455.4v147.4c0,65.1,105.6,118,235.9,118s235.9-52.9,235.9-118V455.4"/>
	<path class="st6" d="M635.9,529.1c0,65.1-105.6,118-235.9,118s-235.9-52.9-235.9-118"/>
	<path class="st5" d="M635.9,455.4c0,65.1-105.6,118-235.9,118s-235.9-52.9-235.9-118s105.6-118,235.9-118S635.9,390.4,635.9,455.4z
		"/>
	<path class="st2" d="M491.5,447.5c0,26.1-42.3,47.3-94.5,47.3s-94.5-21.2-94.5-47.3c0-26.1,42.3-47.3,94.5-47.3
		S491.5,421.4,491.5,447.5z"/>
	<path class="st7" d="M259.6,194.5v85.9c0,44.4,15.1,87,42.5,120.1c13.2,15.8,28.3,28.5,45,37.4c17.8,9.5,36.1,14.3,54.6,14.3
		s36.9-4.8,54.6-14.3c25.1-13.5,46.8-35.2,62.5-62.7c16.4-28.5,25-61.3,25-94.8v-87"/>
	<path class="st3" d="M403.2,418.4c-11.6,0-23.3-3.2-35-9.4c-18-9.6-34.4-26.2-46.1-46.7c-5.4-9.5-9.8-19.7-13-30.5
		c67.7-11.9,109.5-54.9,133.2-90c11.4,23.1,30.8,52,60.3,65.2c-3.5,27.8-14.7,54.3-31.7,74.8c-9.6,11.6-20.9,21-32.7,27.3
		C426.5,415.2,414.8,418.4,403.2,418.4z"/>
	<g>
		<path class="st2" d="M592.3,287.7c-12.1,0-22-9.9-22-22v-69.1l-144.7,44.1c-8.1,2.5-16.7,3.8-25.6,3.8c-8.9,0-17.8-1.3-25.7-3.8
			l-219.5-67c-8.6-2.7-14.2-9.5-14.2-17.5c0-8,5.6-14.9,14.2-17.5l219.6-67c7.8-2.5,16.7-3.8,25.6-3.8c8.9,0,17.5,1.3,25.7,3.8
			l219.7,66.9l0.1,0c8.5,2.8,13.9,9.7,13.9,17.5c0,7.8-5.5,14.7-13.9,17.5l-0.3,0.1l-30.9,9.4v82.5
			C614.3,277.8,604.4,287.7,592.3,287.7z"/>
		<path class="st3" d="M400,78.8c7.7,0,15.3,1.1,22.4,3.3L642,149c3.9,1.3,6.4,4.1,6.4,7.1s-2.5,5.8-6.4,7.1L603.3,175v90.7
			c0,6.1-4.9,11-11,11c-6.1,0-11-4.9-11-11v-84l-158.9,48.4c-7.1,2.2-14.7,3.3-22.4,3.3s-15.4-1.1-22.4-3.3l-219.6-67
			c-3.9-1.2-6.4-3.9-6.4-7c0-3.1,2.5-5.8,6.4-7l219.6-67C384.6,79.9,392.3,78.8,400,78.8 M400,56.8c-10,0-20,1.5-28.9,4.3l-219.5,67
			l0,0l0,0c-13.1,4-21.9,15.3-21.9,28c0,12.7,8.8,24,21.9,28l0,0l0,0l219.5,67c9,2.8,19,4.3,28.9,4.3c10,0,19.7-1.4,28.9-4.3
			l130.4-39.7v54.3c0,18.2,14.8,33,33,33s33-14.8,33-33v-74.4l23.1-7l0.3-0.1l0.3-0.1c13-4.3,21.4-15.3,21.4-28
			c0-12.6-8.4-23.6-21.4-28l-0.3-0.1l-0.3-0.1L428.9,61.1C419.7,58.3,410,56.8,400,56.8L400,56.8z"/>
	</g>
	<g>
		<circle class="st2" cx="592.3" cy="301" r="19.5"/>
	</g>
</g>
</svg>
