<?xml version="1.0" encoding="utf-8"?>
<!-- Generator: Adobe Illustrator 24.1.2, SVG Export Plug-In . SVG Version: 6.00 Build 0)  -->
<svg version="1.1" id="Layer_1" xmlns="http://www.w3.org/2000/svg" xmlns:xlink="http://www.w3.org/1999/xlink" x="0px" y="0px"
	 viewBox="0 0 800 800" style="enable-background:new 0 0 800 800;" xml:space="preserve">
<style type="text/css">
	.st0{fill:#FFFFFF;stroke:#3D3DB4;stroke-width:20;}
	.st1{fill:#3D3DB4;}
	.st2{fill:none;stroke:#3D3DB4;stroke-width:20;stroke-linecap:round;}
	.st3{display:none;}
	.st4{display:inline;}
	.st5{fill:url(#SVGID_1_);}
	.st6{display:inline;fill:none;stroke:#3D3DB4;stroke-width:20;stroke-linecap:round;stroke-miterlimit:10;}
	.st7{fill:#FFFFFF;stroke:#3D3DB4;stroke-width:22;}
	.st8{fill:none;stroke:#3D3DB4;stroke-width:22;stroke-linecap:round;}
	.st9{fill:none;stroke:#3D3DB4;stroke-width:20;stroke-linecap:round;stroke-linejoin:round;stroke-miterlimit:10;}
	.st10{fill:none;stroke:#3D3DB4;stroke-width:35;stroke-linecap:round;stroke-linejoin:round;stroke-miterlimit:10;}
	.st11{fill:#FFFFFF;}
</style>
<g id="Old">
	<g id="Database_Outline">
		<path d="M399.9,346.7c-130.3,0-235.9,52.9-235.9,118l0,0v147.4c0,65.1,105.6,118,235.9,118s235.9-52.9,235.9-118V464.7
			C635.8,399.7,530.2,346.7,399.9,346.7z"/>
		<path class="st0" d="M635.8,464.7c0,65.1-105.6,118-235.9,118S164,529.8,164,464.7s105.6-118,235.9-118S635.8,399.7,635.8,464.7z"
			/>
		<path class="st1" d="M491.4,456.8c0,26.1-42.3,47.3-94.5,47.3s-94.5-21.2-94.5-47.3s42.3-47.3,94.5-47.3S491.4,430.7,491.4,456.8z
			"/>
		<path class="st2" d="M635.8,538.4c0,65.1-105.6,118-235.9,118S164,603.5,164,538.4"/>
	</g>
	<g id="Natural_brain" class="st3">
		<g class="st4">
			<linearGradient id="SVGID_1_" gradientUnits="userSpaceOnUse" x1="399.9542" y1="473.2" x2="399.9542" y2="-16.9625">
				<stop  offset="0" style="stop-color:#FFFFFF"/>
				<stop  offset="5.872645e-02" style="stop-color:#FFF3F3"/>
				<stop  offset="0.1639" style="stop-color:#FFD4D4"/>
				<stop  offset="0.3034" style="stop-color:#FFA2A2"/>
				<stop  offset="0.4702" style="stop-color:#FF5D5D"/>
				<stop  offset="0.4735" style="stop-color:#FF5C5C"/>
			</linearGradient>
			<path class="st5" d="M652.3,243.9c-0.7-23.5-7.4-42.6-18.2-53.2c4.8-10.8,6.6-23.6,4.9-36.3c-1.7-13.3-7-25.1-14.6-33.2
				c1.6-12.5-3.6-27.6-14.6-42.3c-11.8-15.8-31.5-31.4-51.2-34.6c-3.7-18.5-18.4-35.2-41.3-46.7c-16-8.1-34.8-12.9-52.8-13.7
				C444.7-17,427.9-13,415.9-4.5c-6.7,4.7-12.1,11.1-16.3,18.7c-4.1-7.7-9.5-14.1-16.2-18.7c-23.7-16.6-67-16.6-100.8-0.1
				C259,7,244.3,24.3,240.6,44.7c-21.2,4.2-42,21.9-53.4,38.1c-9.6,13.7-13.9,27.3-12.2,38.9c-16,19.1-19.7,47.7-9.4,70
				c-11,12.2-17.3,29.4-18,49.2c-1,32.8,13.3,67.7,37.4,91c12.5,12.1,28.9,17.5,41.9,19.8c10.6,22.1,35.6,36.4,50.2,43.2
				c17.7,8.2,40.1,14.6,58.7,14.6c3,0,5.9-0.2,8.6-0.5c4.8,19.8,11.2,34.6,19.6,45c10.2,12.7,23.4,19.2,39.2,19.2
				c35.8,0,48.7-29.8,56-64.2c2.6,0.3,5.3,0.5,8.2,0.5c16.7,0,37.6-5.4,57.2-15.2c14.3-7.2,38.5-22.4,48-45.9
				c15.1-2.9,28.9-8.1,40.1-15.2C643.3,313.8,653.2,274.3,652.3,243.9z"/>
		</g>
		<g class="st4">
			<path class="st1" d="M336.8-17.1c18,0,34.8,4.2,46.7,12.5c6.7,4.7,12.1,11,16.2,18.7c4.1-7.7,9.6-14,16.3-18.7
				c11-7.7,25.9-11.7,43.4-11.7c1.7,0,3.5,0,5.3,0.1c18,0.8,36.8,5.7,52.8,13.7c22.9,11.5,37.6,28.2,41.3,46.7
				c19.7,3.2,39.3,18.9,51.2,34.6c11,14.7,16.2,29.7,14.6,42.3c7.6,8.2,12.9,20,14.6,33.2c1.6,12.7-0.1,25.5-4.9,36.3
				c10.9,10.5,17.5,29.6,18.2,53.2c0.9,30.5-9,69.9-39.5,89.1c-11.3,7.1-25,12.3-40.1,15.2c-9.5,23.6-33.7,38.7-48,45.9
				c-19.6,9.9-40.4,15.2-57.2,15.2c-2.9,0-5.6-0.2-8.2-0.5c-7.3,34.4-20.2,64.2-56,64.2c-15.8,0-29-6.4-39.2-19.2
				c-8.4-10.5-14.8-25.2-19.6-45c-2.7,0.4-5.6,0.5-8.6,0.5c-18.5,0-41-6.5-58.7-14.6c-14.6-6.8-39.6-21.1-50.2-43.2
				c-13-2.3-29.4-7.6-41.9-19.8c-24.1-23.3-38.4-58.2-37.4-91c0.6-19.8,6.9-37,18-49.2c-10.4-22.3-6.7-50.9,9.4-70
				c-1.6-11.6,2.6-25.2,12.2-38.9c11.4-16.2,32.2-33.9,53.4-38.1c3.7-20.4,18.4-37.7,42-49.3C299.5-13,318.8-17.1,336.8-17.1
				 M336.8-32.1c-20.8,0-42.4,5-60.8,14c-24.2,11.9-40.8,29.6-47.7,50.6c-23.2,7.9-42.8,26.7-53.3,41.7
				c-10.2,14.5-15.4,29.2-15.3,42.9c-7.5,10.6-12.3,23-14.1,36.5c-1.6,12.2-0.6,24.4,3,35.6c-9.8,14-15.3,31.6-15.9,51.3
				c-1.1,36.9,15,76.1,42,102.3c10.9,10.5,25.5,18.1,42.5,22.3c14,22.6,39.1,36.8,53.7,43.5c20.6,9.6,43.7,15.4,62.2,16
				c5,16.2,11.3,29,19.2,38.9c13,16.2,30.6,24.8,50.9,24.8c21.4,0,38.5-8.5,50.8-25.3c7.1-9.7,12.6-22.1,17-38.5
				c18.6-0.7,40.4-6.7,60.3-16.8c14.3-7.2,38.8-22.3,51.7-46.3c14-3.5,26.9-8.8,37.7-15.6c16.6-10.4,29.6-26.9,37.6-47.6
				c6.3-16.5,9.5-35.9,9-54.6c-0.7-22.8-6.3-42.1-16.2-55.8c3.3-11.1,4.3-23.3,2.7-35.2c-1.8-13.8-6.8-26.5-14.2-36.4
				c-0.2-14.7-6.4-30.9-17.9-46.2c-11-14.7-29.7-31.4-51.2-38.2c-7.1-19.2-23.3-35.9-46.6-47.6c-17.9-9-38.8-14.4-58.9-15.3
				c-2-0.1-4-0.1-5.9-0.1c-20.6,0-38.5,5-52,14.5c-2.7,1.9-5.2,4-7.6,6.3c-2.4-2.3-4.9-4.4-7.6-6.3
				C378.1-26.7,358.5-32.1,336.8-32.1L336.8-32.1z"/>
		</g>
		<path class="st6" d="M233.3,343.4c14,39.4,90.8,64.9,118,54.6"/>
		<path class="st6" d="M565.9,340.2c-11.8,41.4-85.4,68.4-113.6,57.8"/>
		<path class="st6" d="M304.7,330c14.6,10.3,39.7,34.1,46.6,68c9.3,45.9,26.2,66,52,66s39.9-16.7,49-66
			c5.2-28.4,14.3-65.1,44.3-65.1"/>
		<path class="st6" d="M176.8,193.2c-32.5,27.8-24.3,94.4,14.6,132.1c10.8,10.5,26.3,16.1,42,18.1c25.2,3.2,52.7-2.9,71.4-13.1
			c11.5-6.3,19.7-14.2,21.9-22.5"/>
		<path class="st6" d="M282.5,81c6.2-11.7,19.8-18.3,33.5-8.2s7.3,33.9,13.1,48.7c5.8,14.8,34.9,23.1,50.2,6.2
			c9.3-10.2,21.2-44.4,20.4-75.5c-0.5-20.3-6.8-39.3-21.4-49.5c-37-26-127-4-129.5,49.9c-31.5,1.1-72.5,45.1-64,71.6
			c-16.5,16.5-22,47-8,69c34.5-13.5,21.4,16.4,33.5,52.5c12.2,36.3,69.9,29.7,84,35s19.3,18.1,32.3,27c11.9,8.1,25.1,13.5,38.2,8.5
			c27.5-10.5,34.2-78.6,13.6-106.3"/>
		<path class="st6" d="M299.6,187c-4.7,1.7-17.2,19.3-32.3,14.7"/>
		<path class="st6" d="M223.8,160.5c-2.3-10.8,3.6-20.6,10.7-27.8c13.1-10.7,34.2-8.7,46.1,1.8s11.4,30.3,19,52.6
			c5.5,16,13.9,27.6,21.4,34.1c21.6,18.9,48.9,0.6,57.6-11.3c8.7-11.9,7.3-63.4,0.9-82.2"/>
		<path class="st6" d="M622.6,193.2c28.7,15.8,31.1,103.4-14.6,132.1c-12.3,7.7-27,12.6-42.1,14.9c-27.7,4.3-49,2.5-69.3-7.2
			c-8.8-4.2-23.6-19.3-25.5-26.4"/>
		<path class="st6" d="M516.9,81c-6.2-11.7-19.8-18.3-33.5-8.2s-7.3,33.9-13.1,48.7c-5.8,14.8-34.9,23.1-50.2,6.2
			c-9.2-10.2-21-44.5-20.4-75.5c0.4-20.5,6.7-39.2,21.4-49.5c37-26,128.2,1,129.5,49.9c31.6-0.9,72.5,45.1,64,71.6
			c16.7,13.5,22,47,8,69c-34.5-13.5-16.1,18.6-33.5,52.5c-17.6,34.3-66.1,25.4-84,35c-9,4.8-20.7,16.9-33.9,25.9
			c-11.3,7.7-23.8,13.1-36.6,9.6c-29-7.9-35.2-72.5-13.6-106.3"/>
		<path class="st6" d="M499.9,187.6c4.7,1.7,17.5,18.8,32.6,14.2"/>
		<path class="st6" d="M576,160.5c2.3-10.8-3.6-20.6-10.7-27.8c-13.1-10.7-35.4-8.7-46.1,1.8c-10.7,10.5-11.6,30.7-19.3,53.1
			c-5.5,15.9-13.7,27.3-21.1,33.6c-22.1,18.9-48.9,0.6-57.6-11.3c-8.7-11.9-7.3-63.4-0.9-82.2"/>
	</g>
</g>
<path class="st7" d="M164,460.7v147.4c0,65.1,105.6,118,235.9,118s235.9-52.9,235.9-118V460.7"/>
<path class="st8" d="M635.8,534.4c0,65.1-105.6,118-235.9,118S164,599.5,164,534.4"/>
<path class="st7" d="M635.8,460.7c0,65.1-105.6,118-235.9,118S164,525.8,164,460.7s105.6-118,235.9-118S635.8,395.7,635.8,460.7z"/>
<path class="st1" d="M491.4,452.8c0,26.1-42.3,47.3-94.5,47.3s-94.5-21.2-94.5-47.3c0-26.1,42.3-47.3,94.5-47.3
	S491.4,426.7,491.4,452.8z"/>
<path class="st9" d="M381.3,529.2"/>
<line class="st10" x1="600.7" y1="175.9" x2="600.7" y2="271"/>
<circle class="st1" cx="600.7" cy="311.4" r="19.5"/>
<g id="Layer_2_1_">
	<path class="st1" d="M641.9,168.7c3.9-1.2,6.4-3.9,6.4-7c0-3-2.5-5.7-6.4-7L422.3,87.8c-7.1-2.2-14.7-3.3-22.4-3.3
		s-15.4,1.1-22.4,3.3l-219.6,67c-3.9,1.2-6.4,3.9-6.4,7c0,3,2.5,5.7,6.4,7l101.6,31v85.9c0,44.4,15.1,87,42.5,120.1
		c13.2,15.8,28.3,28.5,45,37.4c17.8,9.5,36.1,14.3,54.6,14.3s36.9-4.8,54.6-14.3c25.1-13.5,46.8-35.2,62.5-62.7
		c16.4-28.5,25-61.3,25-94.8v-87L641.9,168.7z"/>
	<path class="st11" d="M406.1,426.7c-11.6,0-23.3-3.2-35-9.4c-18-9.6-34.4-26.2-46.1-46.7c-5.4-9.5-9.8-19.7-13-30.5
		c67.7-11.9,109.5-54.9,133.2-90c11.4,23.1,30.8,52,60.3,65.2c-3.5,27.8-14.7,54.3-31.7,74.8c-9.6,11.6-20.9,21-32.7,27.3
		C429.4,423.5,417.7,426.7,406.1,426.7z"/>
</g>
<g id="Layer_4">
</g>
</svg>
