<?xml version="1.0" encoding="utf-8"?>
<!-- Generator: Adobe Illustrator 24.1.2, SVG Export Plug-In . SVG Version: 6.00 Build 0)  -->
<svg version="1.1" xmlns="http://www.w3.org/2000/svg" xmlns:xlink="http://www.w3.org/1999/xlink" x="0px" y="0px"
	 viewBox="0 0 800 800" style="enable-background:new 0 0 800 800;" xml:space="preserve">
<style type="text/css">
	.st0{display:none;fill:#3D3DB4;}
	.st1{display:none;}
	.st2{display:inline;fill:#FFFFFF;}
	.st3{display:inline;fill:none;stroke:#3D3DB4;stroke-width:25;stroke-miterlimit:133.3333;}
	.st4{display:inline;fill:#FFFFFF;stroke:#3D3DB4;stroke-width:25;stroke-miterlimit:133.3333;}
	.st5{display:inline;}
	.st6{fill:#FF5C5C;stroke:#3D3DB4;stroke-width:25;stroke-linecap:round;stroke-miterlimit:10;}
	.st7{fill:none;stroke:#3D3DB4;stroke-width:25;stroke-linecap:round;stroke-linejoin:round;stroke-miterlimit:10;}
	.st8{fill:#FF5C5C;stroke:#3D3DB4;stroke-width:25;stroke-linecap:round;stroke-linejoin:bevel;stroke-miterlimit:10;}
	.st9{fill:#FF5C5C;stroke:#3D3DB4;stroke-width:25;stroke-linecap:round;stroke-linejoin:round;stroke-miterlimit:10;}
	.st10{fill:#FF5C5C;stroke:#000000;stroke-width:25;stroke-linecap:round;stroke-linejoin:round;stroke-miterlimit:10;}
	.st11{fill:none;stroke:#000000;stroke-width:25;stroke-linecap:round;stroke-linejoin:round;stroke-miterlimit:10;}
	.st12{display:inline;fill:#3D3DB4;}
	.st13{fill:#FFFFFF;stroke:#3D3DB4;stroke-width:22;}
	.st14{fill:none;stroke:#3D3DB4;stroke-width:22;stroke-linecap:round;}
	.st15{fill:#3D3DB4;stroke:#3D3DB4;stroke-width:22;}
	.st16{fill:none;stroke:#FFFFFF;stroke-width:8;stroke-linecap:round;}
	.st17{display:none;fill:none;stroke:#FF5C5C;stroke-width:8;stroke-linecap:round;}
	.st18{fill:url(#SVGID_1_);}
	.st19{fill:none;stroke:#3D3DB4;stroke-width:25;stroke-linecap:round;stroke-miterlimit:10;}
	.st20{fill:none;stroke:#3D3DB4;stroke-width:25;stroke-linecap:round;stroke-miterlimit:2;}
</style>
<g id="Old">
	<path class="st0" d="M760.6,775H39.4c-7.9,0-14.4-6.5-14.4-14.4V39.4C25,31.5,31.5,25,39.4,25h721.3c7.9,0,14.4,6.5,14.4,14.4
		v721.3C775,768.5,768.5,775,760.6,775z"/>
	<g class="st1">
		<path class="st2" d="M201.4,409.9v248.2c0,54.8,88.9,99.3,198.6,99.3s198.6-44.5,198.6-99.3V409.9"/>
		<path class="st3" d="M598.6,534c0,54.8-88.9,99.3-198.6,99.3S201.4,588.8,201.4,534"/>
		<path class="st4" d="M598.6,409.9c0,54.8-88.9,99.3-198.6,99.3s-198.6-44.5-198.6-99.3s88.9-99.3,198.6-99.3
			S598.6,355.1,598.6,409.9z"/>
	</g>
	<g id="brain" class="st1">
		<g class="st5">
			<path class="st6" d="M261,106.4c-31.5-8.9-65.5,41.1-64.1,73.6c-17.8,17.8-28.3,54.5-10.7,70.1c-31.6,27.4-12.6,139.4,57.7,148.8
				c2.7,41.6,86.7,80.6,120.7,47.1c11,34.6,5,79.6,36,79.6s29-59.3,34.5-79.6c27.5,29.6,114.5-10.4,120.3-44.4
				c40.2-6.1,107.2-89.1,57.3-147.9c8.3-23.8,9.5-54.6-9.5-73.6c6.4-36.5-38.6-86.5-66.5-73.6c-6.1-21.9-83.1-97.9-133.6-30.3
				C359.5,13.5,270.5,64.5,261,106.4z"/>
			<path class="st7" d="M456.9,374.6c15.6,21.3,65.6,31.9,98.4,26.9"/>
			<path class="st7" d="M602.7,249.5c-14.1-2.4-27.5,6.3-25.9,21.6c1.5,13.7,6.7,27.8-2.4,40.2c-22.6,31-63.7,10.5-92.7,27.2
				c-29,16.7-48,47.6-71.1,28c-18.2-15.4-7.1-73.6-4.1-106.4"/>
			<path class="st8" d="M455.5,50.5c-71,13-54.2,107-43.1,123s32.1,24.9,45.7,1.8c6.1-10.4-0.6-38.6,13.1-48.7
				c13.7-10.1,27.3-3.6,33.5,8.2"/>
			<path class="st7" d="M406.9,175.6c-5.2,24-4,72.7,4.3,89.3c8.3,16.6,33.3,19,55.2,10.1s28.5-32.1,29.7-52.3
				c0-11.9,0-26.1,10.7-34.4c14.3-8.3,32.1-10.7,45.1,0c7.1,7.1,4.8,19,11.7,25.9"/>
			<path class="st7" d="M435,441.9c5.5-29.4,21-41.2,35.6-51.5"/>
			<path class="st7" d="M493.2,243.6c4.7,1.7,11.9,16.6,27,12"/>
			<path class="st7" d="M306.3,243.6c-4.7,1.7-11.9,16.6-27,12"/>
			<path class="st7" d="M336.5,366.5c-8,30-63,36-92.7,32.4"/>
			<path class="st7" d="M189.5,247.5c16-16,34.8,8.3,33.1,23.6c-1.5,13.7-6.7,27.8,2.4,40.2c22.6,31,64.1,9,92.7,27.2
				c10.8,6.9,24.9,25.3,38.4,29.9c13.5,4.6,24.2,4.6,34.3-5.5s12.1-72.4,3.1-102.8"/>
			<path class="st7" d="M235.8,214.3c-2.3-10.8,3.6-20.6,10.7-27.8c13.1-10.7,31.8-6.5,46.1,1.8c10.7,8.3,10.7,22.6,10.7,34.4
				c1.2,20.2,7.7,43.4,29.7,52.3s48.9,0.6,57.6-11.3c8.7-11.9,8.9-59.3,2.5-78.1"/>
			<path class="st9" d="M294.7,134.7c6.2-11.7,19.8-18.3,33.5-8.2c13.7,10.1,7.3,33.9,13.1,48.7c5.8,14.8,29.8,23.7,45.1,6.8
				s27.1-107.6-7.9-127.6"/>
			<path class="st7" d="M363.7,439.6c-5.2-17.1-20.3-38.8-34.9-49.1"/>
		</g>
	</g>
	<g id="Layer_4" class="st1">
		<g class="st5">
			<path class="st10" d="M286,110c-9.7,14.6-27,19-38,31c-7,9-16,19-16,31c-15,15-16,40-9,59c1,2,0,4-1,6c-14,29-14,64,5,92
				c10,14,24,21,40,25c2,1,4,3,6,5c12,18,31.5,36.5,46,42s32.5,8.5,54.1-8.5c4.6,17.1,4.4,35,6.1,52.5h47.2
				c1.7-17.5,1.5-35.4,6.1-52.5c1.8,0.7,35.5,10.5,53.5,8.5c14-2,26-11,34-23c5-9,11-17,18-24c16-3,31-11,41-25c19-29,20-66,3-95
				c7-20,8-46-8-62c-6-25-54-60-56-62c-14-17-60.5-62.5-94.5-43.5c-11.3,6.3-18,18-18,18s-5-9-22-20S307.5,77.5,286,110z"/>
			<path class="st11" d="M450.9,335.8c13.4,18.4,37.8,28,60.2,26.6c6.3-0.4,12.5-1.6,18.3-3.9"/>
			<path class="st11" d="M573.7,230.5c-11.8-2-23.2,5.3-21.8,18.2c1.2,11.5,5.6,23.4-2,33.8c-19,26.1-53.6,8.8-78,22.9
				S431.5,345.5,412,329c-15.4-13-6-62-3.4-89.6"/>
			<path class="st11" d="M410.5,78.5c-7,18.7,3,88,3,88c5,10,27,21,38.5,1.5c5.1-8.7-0.5-32.5,11-41s23-3,28.2,6.9"/>
			<path class="st11" d="M408.9,168.3c-4.4,20.2-3.4,61.2,3.6,75.2s28,16,46.5,8.5s24-27,25-44c0-10,0-22,9-29c12-7,27-9,38,0
				c6,6,4,16,9.8,21.8"/>
			<path class="st11" d="M435.5,385.5c5.4-13.6,14.7-27.7,27-36.3"/>
			<path class="st11" d="M481.5,225.5c4,1.4,10,14,22.7,10.1"/>
			<path class="st11" d="M324.1,225.5c-4,1.4-10,14-22.7,10.1"/>
			<path class="st11" d="M354.7,335.8c-13.4,18.4-37.8,28-60.2,26.6c-6.3-0.4-12.5-1.6-18.3-3.9"/>
			<path class="st11" d="M231.9,230.5c11.8-2,23.2,5.3,21.8,18.2c-1.2,11.5-5.6,23.4,2,33.8c19,26.1,53.9,7.6,78,22.9
				c9.1,5.8,21,21.3,32.4,25.2c11.4,3.9,20.4,3.9,28.9-4.6s2-58,2.6-86.6"/>
			<path class="st11" d="M264.8,200.8c5.8-5.8,3.8-15.8,9.8-21.8c11-9,26-7,38,0c9,7,9,19,9,29c1,17,6.5,36.5,25,44
				s41.1,0.5,48.5-9.5s2.4-49.5,2.1-65.8"/>
			<path class="st11" d="M314.4,133.9c5.2-9.9,16.7-15.4,28.2-6.9s6.1,28.5,11,41s25.1,19.9,38,5.7c12.9-14.2,17.3-86.9,10.9-92.2"
				/>
			<path class="st11" d="M370.1,385.5c-5.4-13.6-14.7-27.7-27-36.3"/>
		</g>
	</g>
	<g id="brain_copy_3">
	</g>
</g>
<g id="BG" class="st1">
	<path class="st12" d="M771.3,800H28.7C12.9,800,0,787.1,0,771.3V28.7C0,12.9,12.9,0,28.7,0h742.6C787.1,0,800,12.9,800,28.7v742.6
		C800,787.1,787.1,800,771.3,800z"/>
</g>
<g id="DB">
	<path class="st13" d="M164.1,482.2v147.4c0,65.1,105.6,118,235.9,118s235.9-52.9,235.9-118V482.2"/>
	<path class="st14" d="M635.9,555.9c0,65.1-105.6,118-235.9,118s-235.9-52.9-235.9-118"/>
	<path class="st15" d="M635.9,482.2c0,65.1-105.6,118-235.9,118s-235.9-52.9-235.9-118s105.6-118,235.9-118S635.9,417.2,635.9,482.2
		z"/>
	<path class="st16" d="M554.4,482.2c0,39.2-68.9,71.3-154.4,71.3s-154.4-32.1-154.4-71.3"/>
	<path class="st17" d="M245.6,497.5c0-39.2,68.9-71.3,154.4-71.3s154.4,32.1,154.4,71.3"/>
</g>
<g id="Brain">
	<linearGradient id="SVGID_1_" gradientUnits="userSpaceOnUse" x1="400" y1="543.2231" x2="400" y2="49.3753">
		<stop  offset="0" style="stop-color:#FFFFFF"/>
		<stop  offset="4.408959e-02" style="stop-color:#FFF6F6"/>
		<stop  offset="0.115" style="stop-color:#FFDFDF"/>
		<stop  offset="0.204" style="stop-color:#FFB8B8"/>
		<stop  offset="0.3064" style="stop-color:#FF8383"/>
		<stop  offset="0.3746" style="stop-color:#FF5C5C"/>
	</linearGradient>
	<path class="st18" d="M639.4,261.1c-1.1-2.1-2.8-3.5-4.8-4.3c4.7-10.7,6.4-23.4,4.8-35.9c-1.7-13.3-6.9-25.1-14.6-33.2
		c1.6-12.5-3.6-27.6-14.6-42.3c-11.1-14.7-30.4-31.5-51.2-34.7c-3.8-18.5-18.4-35.2-41.3-46.7c-16-8.1-34.8-12.9-52.8-13.7
		c-19.8-0.9-36.6,3.1-48.6,11.6c-6.7,4.7-12.2,11.2-16.2,19.3c-4-8-9.5-14.5-16.2-19.3c-23.6-16.6-67-16.6-100.8-0.1
		c-23.6,11.6-38.3,28.9-42,49.2c-21.2,4.3-42,21.9-53.4,38.2c-9.6,13.7-13.8,27.3-12.2,38.9c-15.7,18.7-19.6,46.6-9.9,68.7
		c-2,0.8-3.7,2.2-4.8,4.3c-13.2,25.6-11.2,54.4-7.1,74.1c5.4,26.7,16.2,47.9,32,63.1c11.2,10.8,23.7,17.8,37.3,20.7
		c0.1,0,0.2,0,0.3,0.1l3.1,0.6c0,0,0,0.1,0,0.1c9.3,26.3,34.9,41.5,49.4,48.2c16.2,7.6,33.4,11.6,47.8,11.6c7.2,0,13.8-1,19.2-3
		c1.4-0.5,2.6-1.4,3.5-2.4c1.3,4.1,2.5,8.4,3.5,12.6c10.2,41.7,33.6,56.5,52,56.5c13,0,36.7-7.3,48.8-56.5c1-4.2,2.2-8.5,3.5-12.6
		c0.9,1,2.1,1.9,3.5,2.4c6,2.3,13.2,3.4,21.1,3.4c16,0,34.7-4.6,51.6-13.1c22.7-11.5,38.2-28.2,43.8-47.2l3.1-0.6
		c0.1,0,0.2,0,0.3-0.1c13.6-3,26.2-10,37.3-20.7c15.8-15.2,26.5-36.4,32-63.1C650.6,315.5,652.6,286.6,639.4,261.1z M465.1,206.8
		l-0.2,0C464.9,206.7,464.9,206.7,465.1,206.8C465,206.7,465,206.7,465.1,206.8z M246.8,421.5c0.2,0,0.4,0,0.6,0l-0.3,0.2l1.7,2
		l-0.8-0.4C247.5,422.7,247.1,422.1,246.8,421.5z"/>
	<g>
		<g>
			<g>
				<path class="st7" d="M168.6,265.2c-10.8,20.8-10.9,45.6-6.3,68.2c4.4,21.7,13.2,42.8,29.4,58.4c9.3,9,20.3,15.6,33,18.4l7.2,1.4
					c29.7,3.6,84.7-2.4,92.7-32.4"/>
			</g>
		</g>
		<g>
			<g>
				<path class="st19" d="M234.6,416.8c14,39.4,77.5,61.6,104.7,51.3"/>
			</g>
		</g>
		<g>
			<g>
				<path class="st19" d="M565.4,416.8c-11.8,41.4-76.5,61.9-104.7,51.3"/>
			</g>
		</g>
		<g>
			<g>
				<path class="st20" d="M282.8,147.5c6.2-11.7,19.8-18.3,33.5-8.2c13.7,10.1,7.3,33.9,13.1,48.7c5.8,14.8,34.9,23.1,50.2,6.2
					c15.3-16.9,36-99-1-125s-127-4-129.5,49.9c-31.5,1.1-72.5,45.1-64,71.6c-16.5,16.5-22,47-8,69c34.5-13.5,21.4,16.4,33.5,52.5
					c12.2,36.3,67.7,23,84,35c15,11,43,46,70.5,35.5s35-72,22.5-100.5"/>
			</g>
		</g>
		<g>
			<g>
				<path class="st7" d="M294.4,256.3c-4.7,1.7-11.9,16.6-27,12"/>
			</g>
		</g>
		<g>
			<g>
				<path class="st7" d="M223.9,227c-2.3-10.8,3.6-20.6,10.7-27.8c13.1-10.7,31.8-6.5,46.1,1.8c10.7,8.3,10.7,22.6,10.7,34.4
					c1.2,20.2,7.7,43.4,29.7,52.3c22,8.9,48.9,0.6,57.6-11.3s8.9-59.3,2.5-78.1"/>
			</g>
		</g>
		<g>
			<g>
				<path class="st19" d="M483.1,403.2c-14.6,10.3-33.1,47.7-41.4,81.4c-8.3,33.6-23.1,49.6-40.1,49.6s-35-16-43.3-49.6
					c-8.3-33.6-26.8-71.1-41.4-81.4"/>
			</g>
		</g>
		<g>
			<g>
				<path class="st7" d="M631.4,265.2c10.8,20.8,10.9,45.6,6.3,68.2c-4.4,21.7-13.2,42.8-29.4,58.4c-9.3,9-20.3,15.6-33,18.4
					l-7.2,1.4c-29.7,3.6-84.7-2.4-92.7-32.4"/>
			</g>
		</g>
		<g>
			<g>
				<path class="st20" d="M517.2,147.5c-6.2-11.7-19.8-18.3-33.5-8.2c-13.7,10.1-7.3,33.9-13.1,48.7c-5.8,14.8-34.9,23.1-50.2,6.2
					c-15.3-16.9-36-99,1-125s128.2,1,129.5,49.9c31.6-0.9,72.5,45.1,64,71.6c16.7,13.5,22,47,8,69c-34.5-13.5-16.1,18.6-33.5,52.5
					c-17.6,34.3-66.1,25.4-84,35c-16.8,9-42.8,43-70.5,35.5c-29-7.9-35-72-22.5-100.5"/>
			</g>
		</g>
		<g>
			<g>
				<path class="st7" d="M576.1,227c2.3-10.8-3.6-20.6-10.7-27.8c-13.1-10.7-31.8-6.5-46.1,1.8c-10.7,8.3-10.7,22.6-10.7,34.4
					c-1.2,20.2-7.7,43.4-29.7,52.3c-22,8.9-48.9,0.6-57.6-11.3s-8.9-59.3-2.5-78.1"/>
			</g>
		</g>
		<g>
			<g>
				<path class="st7" d="M505.6,256.3c4.7,1.7,11.9,16.6,27,12"/>
			</g>
		</g>
	</g>
</g>
</svg>
